<svg width="481" height="655" viewBox="0 0 481 655" fill="none" xmlns="http://www.w3.org/2000/svg">
<path d="M339.246 60.9561C329.696 61.587 320.807 62.1934 312.578 62.7744C312.967 63.6414 313.384 64.4932 313.831 65.3271L309.425 67.6875C308.639 66.221 307.935 64.7055 307.31 63.1494C283.561 64.8544 265.723 66.3358 253.797 67.5938C237.458 69.3637 225.314 72.0187 217.365 75.5586C209.417 78.656 205.442 83.523 205.441 90.1602C205.441 96.7975 208.974 101.887 216.04 105.427C223.547 108.524 239.665 111.179 264.395 113.392C289.124 115.604 327.323 116.932 378.99 117.374V127.33C321.141 129.543 281.397 133.303 259.759 138.613C238.562 143.923 224.872 154.101 218.689 169.146C212.507 183.748 209.416 210.74 209.416 250.121V270.033C209.858 280.21 209.858 291.051 209.416 302.556C209.416 313.618 209.195 324.902 208.754 336.406H212.065C228.405 299.237 249.602 267.821 275.656 242.156C302.152 216.492 331.298 203.659 363.093 203.659C388.706 203.659 409.902 211.846 426.683 228.218C443.905 244.147 457.153 274.458 466.427 319.149C476.142 363.398 481 426.675 481 508.979C481 547.475 477.467 577.122 470.401 597.919C463.777 619.158 453.4 633.982 439.269 642.39C425.137 650.797 406.149 655 382.303 655C367.73 655 353.819 653.894 340.571 651.682C327.323 649.912 316.283 647.699 307.451 645.044V409.418H317.387C323.128 478.889 333.727 533.315 349.183 572.696C365.08 612.078 384.069 631.77 406.149 631.77C419.397 631.769 429.113 626.459 435.295 615.84C441.477 605.22 444.568 584.865 444.568 554.776C444.568 460.969 436.178 390.612 419.397 343.708C402.617 296.804 375.458 273.352 337.922 273.352C314.959 273.352 293.32 280.874 273.007 295.919C253.135 310.964 237.016 331.097 224.651 356.318C212.728 381.54 206.767 408.09 206.767 435.967C206.767 454.994 208.975 469.376 213.391 479.11C217.807 488.845 225.314 495.703 235.912 499.686C246.51 503.668 262.187 505.659 282.942 505.659V515.615H175.876C175.958 516.733 176 517.862 176 519C176 520.522 175.924 522.026 175.779 523.51L173.293 523.269V523.268L170.806 523.026C170.934 521.703 171 520.36 171 519C171 517.859 170.951 516.731 170.86 515.615H120.654V512.297C131.253 506.102 139.422 482.871 145.163 442.604C150.904 402.338 153.774 331.539 153.774 230.209C153.774 202.775 150.904 182.199 145.163 168.481C139.422 154.322 130.59 144.587 118.667 139.277C106.744 133.967 89.5216 129.985 67 127.33V117.374H123.967C132.357 117.374 138.098 116.267 141.189 114.055C144.722 111.842 146.488 108.303 146.488 103.436C146.488 95.4707 143.838 87.2843 138.539 78.877C133.681 70.0271 127.72 61.8407 120.654 54.3184V51H339.246V60.9561ZM134.51 564.779C133.026 564.924 131.522 565 130 565C128.478 565 126.973 564.924 125.489 564.779L125.974 559.806C127.297 559.934 128.64 560 130 560C131.36 560 132.703 559.934 134.026 559.806L134.51 564.779ZM110.673 555.169C113.02 556.426 115.502 557.46 118.092 558.245L117.367 560.638L116.643 563.027C113.733 562.146 110.946 560.985 108.312 559.574L110.673 555.169ZM151.688 559.574C149.053 560.985 146.266 562.146 143.356 563.027L142.633 560.638L141.908 558.245C144.498 557.46 146.98 556.426 149.327 555.169L151.688 559.574ZM98.3037 545.009C100.009 547.085 101.915 548.991 103.991 550.696L100.817 554.559C98.4896 552.646 96.353 550.509 94.4404 548.182L98.3037 545.009ZM165.559 548.182C163.646 550.509 161.509 552.646 159.182 554.559L156.009 550.696C158.085 548.991 159.991 547.085 161.696 545.009L165.559 548.182ZM90.7549 530.908C91.5396 533.498 92.5741 535.98 93.8311 538.327L89.4248 540.688C88.0139 538.053 86.8531 535.266 85.9717 532.356L88.3623 531.633L90.7549 530.908ZM171.638 531.633L174.027 532.356C173.146 535.266 171.985 538.053 170.574 540.688L166.169 538.327C167.426 535.98 168.46 533.498 169.245 530.908L171.638 531.633ZM86.707 514.731H86.7061L89.1943 514.974C89.0656 516.297 89 517.64 89 519C89 520.36 89.0656 521.703 89.1943 523.026L86.7061 523.268L84.2197 523.51C84.0753 522.026 84 520.522 84 519C84 517.478 84.0753 515.973 84.2197 514.489L86.707 514.731ZM93.8311 499.673C92.5741 502.02 91.5396 504.502 90.7549 507.092L85.9717 505.643C86.8532 502.733 88.0139 499.946 89.4248 497.312L93.8311 499.673ZM103.991 487.304C101.915 489.009 100.009 490.915 98.3037 492.991L94.4404 489.817C96.353 487.49 98.4896 485.353 100.817 483.44L103.991 487.304ZM118.092 479.755C115.502 480.54 113.02 481.574 110.673 482.831L108.312 478.425C110.946 477.014 113.733 475.853 116.643 474.972L118.092 479.755ZM130 473C131.522 473 133.026 473.075 134.51 473.22L134.026 478.194C132.703 478.066 131.36 478 130 478C128.64 478 127.297 478.066 125.974 478.194L125.489 473.22C126.973 473.075 128.478 473 130 473ZM292.673 446.169C295.02 447.426 297.502 448.46 300.092 449.245L299.367 451.638L298.643 454.027C295.733 453.146 292.946 451.985 290.312 450.574L292.673 446.169ZM333.688 450.574C331.053 451.985 328.266 453.146 325.356 454.027L324.633 451.638L323.908 449.245C326.498 448.46 328.98 447.426 331.327 446.169L333.688 450.574ZM280.304 436.009C282.009 438.085 283.915 439.991 285.991 441.696L282.817 445.559C280.49 443.646 278.353 441.509 276.44 439.182L280.304 436.009ZM347.559 439.182C345.646 441.509 343.509 443.646 341.182 445.559L338.009 441.696C340.085 439.991 341.991 438.085 343.696 436.009L347.559 439.182ZM272.755 421.908C273.54 424.498 274.574 426.98 275.831 429.327L271.425 431.688C270.014 429.053 268.853 426.266 267.972 423.356L270.362 422.633L272.755 421.908ZM353.638 422.633L356.027 423.356C355.146 426.266 353.985 429.053 352.574 431.688L348.169 429.327C349.426 426.98 350.46 424.498 351.245 421.908L353.638 422.633ZM268.707 405.731H268.706L271.194 405.974C271.066 407.297 271 408.64 271 410C271 411.36 271.066 412.703 271.194 414.026L268.706 414.268L266.22 414.51C266.075 413.026 266 411.522 266 410C266 408.478 266.075 406.973 266.22 405.489L268.707 405.731ZM357.779 405.489C357.924 406.973 358 408.478 358 410C358 411.522 357.924 413.026 357.779 414.51L355.293 414.269V414.268L352.806 414.026C352.934 412.703 353 411.36 353 410C353 408.64 352.934 407.297 352.806 405.974L355.293 405.731L357.779 405.489ZM275.831 390.673C274.574 393.02 273.54 395.502 272.755 398.092L267.972 396.643C268.853 393.733 270.014 390.946 271.425 388.312L275.831 390.673ZM352.574 388.312C353.985 390.946 355.146 393.733 356.027 396.643L351.245 398.092C350.46 395.502 349.426 393.02 348.169 390.673L352.574 388.312ZM285.991 378.304C283.915 380.009 282.009 381.915 280.304 383.991L276.44 380.817C278.353 378.49 280.49 376.353 282.817 374.44L285.991 378.304ZM341.182 374.44C343.509 376.353 345.646 378.49 347.559 380.817L343.696 383.991C341.991 381.915 340.085 380.009 338.009 378.304L341.182 374.44ZM300.092 370.755C297.502 371.54 295.02 372.574 292.673 373.831L290.312 369.425C292.946 368.014 295.733 366.853 298.643 365.972L300.092 370.755ZM325.356 365.972C328.266 366.853 331.053 368.014 333.688 369.425L331.327 373.831C328.98 372.574 326.498 371.54 323.908 370.755L325.356 365.972ZM312 364C313.522 364 315.026 364.075 316.51 364.22L316.026 369.194C314.703 369.066 313.36 369 312 369C310.64 369 309.297 369.066 307.974 369.194L307.489 364.22C308.973 364.075 310.478 364 312 364ZM50.5098 168.779C49.026 168.924 47.5217 169 46 169C44.4779 169 42.9734 168.924 41.4893 168.779L41.9736 163.806C43.2969 163.934 44.6401 164 46 164C47.3599 164 48.7031 163.934 50.0264 163.806L50.5098 168.779ZM26.6729 159.169C29.0195 160.426 31.5018 161.46 34.0918 162.245L33.3672 164.638L32.6426 167.027C29.7332 166.146 26.9457 164.985 24.3115 163.574L26.6729 159.169ZM67.6875 163.574C65.0533 164.985 62.2659 166.146 59.3564 167.027L58.6328 164.638L57.9082 162.245C60.4982 161.46 62.9805 160.426 65.3271 159.169L67.6875 163.574ZM14.3037 149.009C16.0095 151.085 17.9152 152.991 19.9912 154.696L16.8174 158.559C14.4896 156.646 12.353 154.509 10.4404 152.182L14.3037 149.009ZM81.5586 152.182C79.646 154.509 77.5095 156.646 75.1816 158.559L72.0088 154.696C74.0848 152.991 75.9905 151.085 77.6963 149.009L81.5586 152.182ZM6.75488 134.908C7.53961 137.498 8.57414 139.98 9.83105 142.327L5.4248 144.688C4.0139 142.053 2.85311 139.266 1.97168 136.356L4.3623 135.633L6.75488 134.908ZM87.6377 135.633L90.0273 136.356C89.1459 139.266 87.9852 142.053 86.5742 144.688L82.1689 142.327C83.4259 139.98 84.4604 137.498 85.2451 134.908L87.6377 135.633ZM2.70703 118.731H2.70605L5.19434 118.974C5.06555 120.297 5 121.64 5 123C5 124.36 5.06555 125.703 5.19434 127.026L2.70605 127.268L0.219727 127.51C0.0753436 126.026 0 124.522 0 123C0 121.478 0.0752816 119.973 0.219727 118.489L2.70703 118.731ZM9.83105 103.673C8.57414 106.02 7.53961 108.502 6.75488 111.092L1.97168 109.643C2.85316 106.733 4.01387 103.946 5.4248 101.312L9.83105 103.673ZM86.5742 101.312C87.9852 103.946 89.1458 106.733 90.0273 109.643L85.2451 111.092C84.4604 108.502 83.4259 106.02 82.1689 103.673L86.5742 101.312ZM19.9912 91.3037C17.9152 93.0095 16.0095 94.9152 14.3037 96.9912L10.4404 93.8174C12.353 91.4896 14.4896 89.353 16.8174 87.4404L19.9912 91.3037ZM75.1816 87.4404C77.5095 89.353 79.646 91.4896 81.5586 93.8174L77.6963 96.9912C75.9905 94.9152 74.0848 93.0095 72.0088 91.3037L75.1816 87.4404ZM354.51 91.7793C353.026 91.9237 351.522 92 350 92C348.478 92 346.973 91.9237 345.489 91.7793L345.974 86.8057C347.297 86.9344 348.64 87 350 87C351.36 87 352.703 86.9344 354.026 86.8057L354.51 91.7793ZM330.673 82.1689C333.02 83.4259 335.502 84.4604 338.092 85.2451L337.367 87.6377L336.643 90.0273C333.733 89.1458 330.946 87.9852 328.312 86.5742L330.673 82.1689ZM371.688 86.5742C369.053 87.9852 366.266 89.1459 363.356 90.0273L362.633 87.6377L361.908 85.2451C364.498 84.4604 366.98 83.4259 369.327 82.1689L371.688 86.5742ZM34.0918 83.7549C31.5018 84.5396 29.0195 85.5741 26.6729 86.8311L24.3115 82.4248C26.9456 81.0139 29.7332 79.8532 32.6426 78.9717L34.0918 83.7549ZM59.3564 78.9717C62.2658 79.8531 65.0534 81.0139 67.6875 82.4248L65.3271 86.8311C62.9805 85.5741 60.4982 84.5396 57.9082 83.7549L59.3564 78.9717ZM46 77C47.5217 77 49.026 77.0753 50.5098 77.2197L50.0264 82.1943C48.7031 82.0656 47.3599 82 46 82C44.6401 82 43.2969 82.0656 41.9736 82.1943L41.4893 77.2197C42.9734 77.0753 44.478 77 46 77ZM318.304 72.0088C320.009 74.0848 321.915 75.9905 323.991 77.6963L320.817 81.5586C318.49 79.646 316.353 77.5095 314.44 75.1816L318.304 72.0088ZM385.559 75.1816C383.646 77.5095 381.509 79.646 379.182 81.5586L376.009 77.6963C378.085 75.9905 379.991 74.0848 381.696 72.0088L385.559 75.1816ZM391.638 58.6328L394.027 59.3564C393.146 62.2659 391.985 65.0533 390.574 67.6875L386.169 65.3271C387.426 62.9805 388.46 60.4982 389.245 57.9082L391.638 58.6328ZM306.707 41.7314H306.706L309.194 41.9736C309.066 43.2969 309 44.6401 309 46C309 47.3599 309.066 48.7031 309.194 50.0264L306.706 50.2676L304.22 50.5098C304.075 49.026 304 47.5217 304 46C304 44.478 304.075 42.9734 304.22 41.4893L306.707 41.7314ZM395.779 41.4893C395.924 42.9734 396 44.4779 396 46C396 47.5217 395.924 49.026 395.779 50.5098L393.293 50.2686V50.2676L390.806 50.0264C390.934 48.7031 391 47.3599 391 46C391 44.6401 390.934 43.2969 390.806 41.9736L393.293 41.7314L395.779 41.4893ZM313.831 26.6729C312.574 29.0195 311.54 31.5018 310.755 34.0918L305.972 32.6426C306.853 29.7332 308.014 26.9456 309.425 24.3115L313.831 26.6729ZM390.574 24.3115C391.985 26.9457 393.146 29.7332 394.027 32.6426L389.245 34.0918C388.46 31.5018 387.426 29.0195 386.169 26.6729L390.574 24.3115ZM323.991 14.3037C321.915 16.0095 320.009 17.9152 318.304 19.9912L314.44 16.8174C316.353 14.4896 318.49 12.353 320.817 10.4404L323.991 14.3037ZM379.182 10.4404C381.509 12.353 383.646 14.4896 385.559 16.8174L381.696 19.9912C379.991 17.9152 378.085 16.0095 376.009 14.3037L379.182 10.4404ZM338.092 6.75488C335.502 7.53961 333.02 8.57414 330.673 9.83105L328.312 5.4248C330.946 4.01387 333.733 2.85316 336.643 1.97168L338.092 6.75488ZM363.356 1.97168C366.266 2.85311 369.053 4.0139 371.688 5.4248L369.327 9.83105C366.98 8.57414 364.498 7.53961 361.908 6.75488L363.356 1.97168ZM350 0C351.522 0 353.026 0.0753437 354.51 0.219727L354.026 5.19434C352.703 5.06555 351.36 5 350 5C348.64 5 347.297 5.06555 345.974 5.19434L345.489 0.219727C346.973 0.0752816 348.478 0 350 0Z" fill="white"/>
</svg>
