<svg width="1280" height="782" viewBox="0 0 1280 782" fill="none" xmlns="http://www.w3.org/2000/svg">
<g clip-path="url(#clip0_96_11118)">
<rect width="640" height="782" fill="black"/>
<path d="M912.99 1348.25L906.653 1348.25L906.938 -431.151L900.284 -437.267L906.748 -440.879L906.653 -495.886C896.133 -490.087 908.902 -478.459 890.873 -480.011C889.543 -474.689 895.213 -478.046 896.481 -476.399C897.305 -475.322 891.539 -469.619 900.347 -468.985L887.704 -462.648L900.283 -456.31C900.029 -451.652 890.841 -447.343 890.714 -446.266C888.972 -433.053 900.696 -434.542 878.199 -424.593L890.841 -426.177C887.673 -421.804 889.004 -414.612 886.817 -411.189C883.712 -406.373 873.066 -410.207 883.586 -399.275L878.198 -391.417L884.472 -385.017L875.03 -386.633L881.335 -375.543L871.861 -378.679C867.368 -374.371 884.908 -361.822 890.483 -365.688L875.03 -353.363C877.628 -352.919 890.905 -358.59 890.81 -351.746C890.651 -340.212 860.898 -340.815 852.882 -343.793C850.474 -333.464 863.021 -341.005 856.018 -331.15L868.756 -331.087L868.217 -322.025C852.089 -321.328 847.4 -298.704 846.512 -285.174L840.208 -286.758C837.578 -276.333 846.481 -282.29 849.491 -280.167L849.713 -270.914L833.87 -270.915L840.017 -267.557L843.407 -258.24L833.87 -255.072L849.681 -251.904L833.87 -251.903C833.775 -239.546 835.264 -218.918 818.027 -220.153L830.638 -210.68L814.858 -213.848L821.258 -205.927L814.826 -194.868L827.438 -201.173L833.807 -190.052L821.163 -185.362L846.481 -179.025C832.223 -173.29 819.674 -176.332 805.32 -178.962C809.123 -169.171 818.153 -168.569 827.501 -169.487C830.257 -160.299 819.864 -163.974 817.995 -156.845L836.975 -159.982C841.062 -151.363 815.555 -150.191 824.364 -141.002C830.796 -134.253 829.909 -153.803 837.006 -145.755C831.968 -131.243 822.779 -139.829 811.689 -140.938C822.589 -127.472 827.564 -115.336 806.62 -109.443C808.172 -97.8456 806.62 -94.5815 796.576 -87.167C785.612 -79.0871 793.945 -92.6487 783.172 -90.2408C789.89 -81.1786 778.862 -72.9397 777.943 -70.6583C777.12 -68.5986 779.781 -64.9862 778.355 -62.0079C775.82 -56.7166 770.624 -52.2802 767.582 -47.1472L776.803 -36.4377L754.655 -30.037L767.297 -20.5946L754.591 -20.594L754.591 -11.0573L767.265 -7.91993C762.006 -9.18722 752.151 -1.83683 748.285 1.68032C745.022 4.65882 761.531 5.41995 754.591 11.1235C752.278 13.0245 742.487 4.75455 738.748 12.7705C737.449 19.6464 746.765 25.0019 745.212 34.381C745.022 35.5851 738.843 38.3103 736.435 42.3343C732.696 48.5763 737.29 52.8855 726.137 57.0363L735.548 68.0948C732.506 69.996 718.597 76.6498 717.994 77.4424C717.012 78.7099 721.669 91.7958 713.462 96.6121L719.642 96.7393L719.705 102.981L712.005 106.055L713.082 112.297L703.894 112.551C706.682 124.179 707.664 131.182 697.588 139.484L713.399 141.1C714.635 145.979 708.773 142.969 707.188 146.518C700.851 160.682 702.531 202.159 709.026 216.766C716.916 234.51 741.98 241.671 754.591 255.074L723.127 243.826C717.741 233.75 706.808 235.271 701.611 232.071C698.728 230.296 695.021 217.875 688.082 217.083C689.857 237.299 674.774 235.968 662.575 241.671L656.427 296.267C655.952 286.476 649.361 279.504 645.591 271.234C637.511 253.681 638.905 261.063 627.879 247.185C607.473 221.456 594.481 173.039 556.711 171.138C540.678 170.314 526.293 181.373 510.45 177.539L497.934 207.546L486.843 201.24L488.428 210.714L469.448 204.409L488.427 213.915L482.122 220.188L504.271 229.789L497.902 248.769L488.428 245.601C490.772 249.942 486.622 267.558 484.689 270.379C482.503 273.547 474.296 270.95 473.187 271.774C469.923 274.309 465.835 288.979 460.069 291.419C456.361 292.971 447.141 287.775 440.898 296.298L447.204 283.656L431.393 286.824L445.589 305.297L456.678 299.436C455.315 320.76 448.345 343.067 447.077 364.265C445.525 389.773 458.548 454.729 438.998 470.255C424.644 481.662 420.176 450.705 412.318 440.47C407.407 434.069 401.512 429.444 393.559 427.542C380.441 424.406 358.42 426.148 344.098 426.719C342.197 426.782 342.862 432.389 340.739 432.707C334.497 433.721 327.05 427.099 321.442 426.877C317.164 426.719 309.655 434.291 301.448 429.348L304.616 438.79C291.15 432.865 288.33 443.037 277.62 451.561C272.106 455.965 264.09 451.846 266.498 464.045L245.237 464.9L244.412 483.152L235.097 480.268L231.77 486.32C232.499 471.586 212.601 486.446 215.864 495.825L212.696 489.489L203.253 495.826L200.084 476.846C196.63 503.113 182.625 494.875 163.55 502.068L160.413 495.889L168.366 483.182C162.726 478.748 148.531 501.53 143.176 503.526C140.007 504.73 135.793 501.592 130.628 503.715C118.302 508.753 94.4426 529.508 83.7961 532.708C78.2828 534.388 70.2981 530.618 63.8025 532.202C47.9595 536.099 30.3097 551.847 11.298 552.575C10.6641 552.573 8.88905 542.5 0.461617 546.555L6.76729 556.029C-6.44578 544.781 -10.6285 552.829 -20.1977 554.445C-23.2395 554.952 -27.3906 552.322 -31.8583 553.557C-34.7732 554.349 -49.5369 563.506 -50.2361 562.43L-53.4048 552.893L-55.496 565.662L-84.8379 572.221L-85.1548 584.61C-93.8679 586.86 -92.7904 577.734 -94.6915 571.936L-102.55 578.273L-107.303 571.935C-103.912 589.616 -121.688 579.826 -126.283 582.867C-129.388 584.927 -130.814 593.165 -134.141 593.482C-140.098 594.021 -162.246 580.935 -161.232 603.622L-170.675 597.316L-170.675 613.16L-142.221 610.023L-158.064 619.497L-107.367 619.496L-107.366 622.665L-162.817 622.665C-163.391 622.668 -170.738 630.017 -170.738 630.587L-170.738 1330.82L-164.274 1334.21L-127.931 1307.09L-123.241 1316.56L-123.178 1300.72C-114.021 1305.41 -110.535 1296.57 -110.503 1288.07L-107.335 1297.55C-99.2549 1295.17 -100.997 1285.41 -100.997 1278.54C-96.3079 1276.95 -98.6841 1290.83 -91.5866 1284.84C-91.2698 1284.59 -90.636 1280.6 -87.943 1277.43C-83.5069 1272.17 -79.5778 1277.93 -85.1545 1262.69L-78.8805 1265.89L-69.3423 1242.07L-75.6799 1238.93L-66.998 1226.22L-85.1858 1212.03C-70.7686 1202.27 -45.1028 1187.95 -32.872 1177.2C-14.2723 1160.85 15.0371 1116.81 33.732 1094.88C36.045 1092.16 38.2634 1088.99 38.3903 1085.28L49.3853 1107.4L79.487 1066.24L73.1497 1083.79L79.3598 1085.35L79.4866 1091.52C69.2524 1090.95 71.8189 1100.56 69.5058 1103.63C69.0297 1104.26 64.9422 1101.98 63.7066 1103C58.7641 1107.11 58.6368 1115.76 47.8322 1113.8L66.8124 1121.66C43.1111 1145.01 28.4724 1172.86 22.452 1205.69L11.235 1205.21C6.29205 1209.97 6.32331 1217.38 3.15484 1222.83C1.00033 1226.51 -4.6073 1227.24 -5.30497 1228.38C-6.06543 1229.64 -1.62999 1234.71 -5.55892 1239.15C-9.20282 1243.27 -16.7752 1242.51 -19.025 1245.77C-21.623 1249.61 -19.3108 1255.47 -20.7682 1259.59C-23.208 1266.46 -30.9075 1268.65 -25.0455 1281.7L-31.3515 1278.47C-28.5314 1288.9 -38.3853 1288.39 -41.7757 1295.24C-45.1657 1302.08 -36.358 1307.5 -59.9003 1307.05L-56.7 1322.86L-68.0752 1325.91L-66.2375 1335.57L-72.5431 1333.89C-76.9156 1343.68 -67.4416 1343.52 -82.0489 1348.25L-180.276 1348.25L-180.276 -565.596L912.99 -565.596L912.99 1348.25ZM600.883 236.026C602.753 244.929 607.157 238.244 611.529 244.106C615.902 249.969 644.197 318.692 643.85 322.941C643.755 323.987 633.679 329.944 630.985 339.069L637.29 343.759L624.648 348.575L630.953 353.265L621.416 353.328L624.933 364.133L618.247 367.555L627.816 369.14L618.311 375.509L627.784 381.782L618.31 381.846L624.109 385.268L624.109 400.414L611.973 408.747L618.278 413.436L599.299 422.943C609.755 427.918 614.16 437.486 627.753 429.311C627.531 478.361 653.514 493.54 693.47 510.935L827.375 559.161C788.053 551.271 751.106 542.368 710.96 540.847C701.676 540.498 696.195 548.578 692.361 536.822C678.483 543.73 667.519 537.013 654.845 536.886C621.954 536.569 585.705 539.896 558.107 556.024C554.273 550.954 569.767 521.138 553.354 527.538C544.704 530.928 552.846 540.244 551.39 542.811C550.946 543.603 545.242 544.871 542.707 548.451C534.025 560.65 529.241 571.931 522.872 585.112C521.16 588.661 513.018 589.327 516.915 600.385L520.052 590.879L535.832 598.832C523.918 605.898 517.137 601.399 516.915 619.429L526.421 622.596L513.714 622.597L513.714 632.102L526.389 635.24L504.24 641.64L510.546 649.498L501.072 654.315L510.609 657.451L508.803 667.179L516.82 671.679C507.378 686.761 497.618 699.721 491.566 716.071L499.614 720.57L497.903 730.33L504.241 728.745L485.229 752.447L504.209 757.231L501.008 765.153L494.734 758.847C495.21 767.782 486.148 767.592 478.86 768.353C483.138 775.546 491.123 772.821 488.429 785.463C472.175 792.117 491.724 796.965 488.081 807.295L469.418 826.941L485.197 831.693L485.197 841.167L475.691 841.167C474.266 842.688 479.62 860.559 478.765 864.52C478.068 867.72 469.512 864.362 472.522 872.822L488.334 869.685L488.334 875.99L466.217 885.56L481.965 893.449C476.579 900.801 467.612 897.885 459.848 898.234L456.711 909.324L472.523 907.708C471.73 913.443 475.501 920.699 473.6 925.991C471.699 931.282 465.456 927.988 466.217 933.026L475.66 937.81L463.049 955.238L475.692 952.101L466.249 961.575L471.888 963.159L470.21 966.296L478.891 967.975C475.976 976.213 463.588 972.665 456.743 974.313L475.786 979.065C469.893 991.138 471.002 997.285 475.787 1009.07L466.248 1009.17L472.554 1015.44C465.457 1012.46 462.351 1027.61 463.08 1028.12C470.558 1033.57 467.611 1017.53 475.755 1021.84C470.083 1031.89 474.36 1047.92 462.985 1051.94L472.238 1068.26L463.111 1075.74L463.017 1080.43C479.08 1086.26 463.844 1088.57 463.588 1089.84C463.398 1090.76 465.772 1107.29 466.248 1108.19C468.15 1111.92 473.759 1108.73 472.586 1113.67C458.803 1112.78 474.962 1118.93 470.431 1125.46L457.029 1143.42C465.52 1152.13 478.194 1159.36 472.617 1170.74C480.412 1164.02 491.28 1174.32 485.228 1181.76L494.766 1180.27L485.292 1189.72C501.61 1186.48 509.627 1211.17 520.242 1222.92C545.94 1251.38 569.704 1251.28 605.731 1257.87C589.096 1265.73 553.734 1245.48 540.014 1252.2C528.607 1257.78 530.857 1268.2 528.639 1271.46C522.967 1279.86 506.268 1278.85 526.421 1299.1C511.053 1315.54 515.838 1295.64 501.104 1297.48L504.082 1289.34L494.766 1284.84L501.072 1289.56L494.735 1303.66L513.683 1311.74L507.44 1322.83L520.083 1319.69L504.24 1329.2C508.106 1333.47 528.544 1340.79 513.747 1348.18L488.398 1348.18L488.398 1348.24C486.655 1337.97 476.357 1328.63 473.949 1319.72C472.809 1315.57 476.132 1310.54 475.755 1310.25C474.329 1309.2 465.773 1313.26 463.08 1302.3L472.554 1297.61C458.771 1298.94 460.925 1289.78 456.996 1279.93C470.083 1277.2 455.318 1269.41 464.728 1262.72L478.86 1270.64L466.249 1281.7C476.737 1283.22 483.485 1279.7 485.513 1269.22L494.735 1270.64C491.788 1269.09 492.706 1264.4 490.14 1263.26C485.354 1261.1 451.8 1261.14 450.659 1259.27C453.004 1248.68 447.522 1242.88 445.272 1235.12C425.785 1167.76 413.745 1105.9 419.734 1033.38C420.78 1020.73 432.725 1008.03 427.972 995.859C420.462 976.657 425.12 962.304 426.483 942.31C426.99 935.022 426.927 926.466 425.026 919.305L431.489 915.725L425.057 906.219C435.671 903.938 428.258 891.232 424.899 884.197L434.531 877.701L428.194 871.396L437.7 872.917C422.332 862.302 437.065 845.952 436.717 831.599C436.495 823.139 431.87 818.069 431.426 814.171C431.268 812.777 437.161 813.157 437.7 810.654C438.872 805.426 436.781 799.152 438.428 792.846C439.601 788.283 445.462 784.418 446.698 778.746C449.518 765.787 439.157 758.657 440.9 746.173L447.174 749.405L444.227 738.061C454.43 736.255 444.702 729.284 450.342 720.887L439.315 727.161L434.531 720.887L440.837 716.134L433.073 711.382C422.871 710.589 421.698 720.697 416.882 723.644C398.98 734.544 352.939 731.375 331.741 733.688C325.023 734.417 309.846 746.394 304.649 736.73C358.357 712.49 413.237 683.624 455.127 641.703L472.523 689.169L469.418 600.48L482.06 603.617C465.013 586.443 483.074 570.632 478.86 551.43L485.197 552.983L482.092 537.076L488.429 538.629L493.087 508.526L513.81 448.387L520.084 451.587C515.711 439.135 527.719 434.033 528.893 431.752C531.554 426.587 538.588 396.358 541.535 389.197C549.044 370.977 562.226 355.419 561.275 334.348L573.95 334.349L567.517 323.258C575.249 321.198 573.094 308.112 577.245 299.493L583.456 302.662C578.925 291.128 584.597 281.749 588.24 270.659L596.099 270.944L600.883 236.026ZM131.42 543.668C137.504 539.834 137.726 515.627 158.828 535.462L149.323 537.046L158.829 619.398C154.551 617.307 150.495 616.768 149.355 622.503C166.814 625.957 157.91 644.335 160.191 657.517C162.251 669.494 171.63 686.383 177.334 697.568C195.965 734.197 223.881 766.232 241.213 803.177C223.627 790.725 211.016 762.271 195.363 749.153C192.321 746.618 182.403 747.632 179.456 739.837L176.383 746.175L165.261 739.806C172.866 761.637 162.061 758.247 152.492 769.845C145.078 778.843 146.566 793.228 133.544 790.535L133.543 793.64C146.661 791.929 133.132 811.511 146.154 809.579L139.627 814.458L146.091 830.174L127.174 838.032L142.669 838.381C147.073 849.946 143.525 851.784 136.649 860.213L142.954 866.581L133.448 863.445L135.032 869.782L128.08 871.754C134.865 872.821 137.043 890.118 136.237 893.611C135.697 895.986 127.207 893.199 130.311 901.436L142.954 907.774L129.235 907.9C122.105 891.329 120.679 917.121 120.837 923.648L127.111 920.448C125.685 927.039 130.945 935.024 130.406 940.569C130.216 942.502 115.007 951.121 114.468 955.303L130.28 960.088L114.468 964.904L123.942 971.178L114.469 975.994L120.806 979.099C117.891 984.612 98.2455 1007.33 102.175 1012.12C103.315 1013.51 109.366 1010.02 108.099 1015.54L92.2876 1018.74C90.166 1016.64 107.212 966.076 92.2883 961.735L73.2452 1001.37L73.2449 980.778C67.3512 996.463 58.4792 1010.94 50.7478 1025.77C46.692 1033.57 46.9768 1037.31 45.5192 1040C35.5382 1058.44 23.0225 1078.47 9.87288 1094.82C11.6156 1086.17 15.3539 1075.36 18.7443 1067.28C43.1426 1009.45 64.8796 948.585 72.3575 886.037C74.4805 868.229 77.2377 842.246 76.2238 824.059C75.9384 819.179 71.0588 814.363 71.2489 811.289C71.4396 807.613 80.6904 796.334 76.3498 787.43L76.4447 787.367L89.183 785.814L79.4234 782.487C76.9519 771.967 82.465 759.514 82.5284 750.611C82.6235 738.823 83.5431 697.315 81.642 688.062C80.3112 681.503 74.3222 675.863 73.9102 671.142C73.5933 667.561 78.2512 664.804 78.061 660.431C77.2687 641.927 66.3692 619.557 72.3258 601.053C73.9101 596.141 105.343 549.72 108.163 548.168C114.374 544.714 124.956 547.787 131.42 543.668ZM-170.675 524.375L-170.676 524.407C-164.433 521.967 -157.241 520.129 -151.062 517.72C-128.058 508.658 -98.3993 497.093 -71.7196 488.728C-56.0033 483.816 -29.5764 481.155 -17.5674 476.339C-10.6603 473.55 -13.4482 463.696 -7.11106 461.414C7.78076 456.06 12.7557 468.48 17.6986 469.272C21.1522 469.843 54.1349 461.257 54.3598 459.387L41.5904 399.278L47.9271 400.83L47.927 394.526C39.1817 394.113 27.3635 356.376 28.9158 349.056C29.5178 346.141 37.3443 348.137 35.2534 342.243L28.9795 337.427L25.8104 343.764C25.145 324.277 17.6041 306.818 13.5166 287.933C4.70782 247.28 -10.9133 213.09 -25.6474 174.212C-26.6297 171.582 -34.2665 175.479 -28.0562 163.185L-37.5932 163.185C-33.0305 152.666 -41.8078 147.5 -45.4517 137.773C-53.7217 115.688 -56.0029 92.0182 -68.8356 72.3095L-62.9743 64.9578L-59.8057 74.4318L-60.0907 63.6589C-78.6587 55.7691 -83.1581 33.0184 -90.2241 14.2919C-107.525 -31.6212 -125.997 -82.0656 -145.072 -124.398C-152.012 -139.766 -154.705 -156.052 -170.675 -166.382L-170.675 524.375ZM767.234 -562.427L-170.675 -562.427L-170.675 -505.392L-161.201 -533.878C-161.898 -461.158 -176.031 -387.076 -161.138 -315.275L-154.991 -325.89L-157.969 -351.746L-119.661 -276.618C-106.638 -245.534 -79.1969 -209.127 -51.9151 -185.299C-45.8315 -179.976 -39.4312 -174.431 -31.2881 -172.656L-37.0235 -169.171C-41.1423 -160.584 -29.545 -157.542 -29.5767 -150.349C-29.6402 -137.168 -38.765 -142.934 -40.9516 -138.942C-54.3865 -114.512 -30.4325 -68.7576 -20.2612 -45.595C-18.7403 -42.078 -21.6236 -37.7369 -21.0852 -36.9129C-20.3565 -35.7722 -14.6213 -34.9485 -12.0546 -31.9069C-4.95696 -23.3834 -9.64648 -13.085 -6.88995 -2.3118C7.90747 55.5787 45.5508 122.785 66.7488 178.363C71.5651 190.974 69.0304 224.402 89.2457 223.388L86.0459 232.863L92.3512 229.63L92.351 239.2C76.0343 230.044 94.0287 256.054 92.3518 258.18L86.0779 261.317L101.889 270.918L95.6147 275.512C104.835 290.056 103.536 312.616 110.697 327.034C114.785 335.304 149.038 361.54 158.512 367.941C176.859 380.33 199.609 391.674 220.173 400.071C241.879 398.201 304.078 351.242 317.386 332.705C325.593 321.267 318.084 314.772 338.236 312.173C333.166 284.163 349.484 296.488 356.772 289.929C362.159 285.081 365.644 274.942 364.915 267.686L377.558 273.96C359.434 256.184 390.898 250.1 394.795 239.295C396.126 235.587 392.198 230.867 394.859 226.589C400.721 217.242 421.823 199.592 426.639 185.08C433.769 163.628 442.23 158.052 455.063 137.487C479.556 98.2601 508.517 48.1642 532.376 8.93688C544.069 -10.2651 591.534 -81.2419 595.432 -95.9126C599.044 -109.601 593.245 -129.278 596.319 -141.984C596.763 -143.885 605.793 -146.23 602.593 -153.771C614.665 -145.818 607.758 -159.918 609.12 -164.323C609.913 -166.857 615.045 -166.256 615.363 -168.41C616.155 -173.733 609.818 -184.443 612.004 -191.731L596.192 -191.794L602.498 -194.931L599.361 -202.948L477.497 -194.805L447.267 -198.068C495.969 -204.215 551.42 -204.564 598.822 -216.034C669.229 -233.081 681.587 -275.383 702.943 -336.759C705.193 -343.223 705.858 -346.106 708.266 -353.362C725.693 -405.486 740.237 -467.464 758.805 -512.363C760.358 -516.102 760.738 -520.506 760.96 -524.499L767.234 -521.299C762.608 -532.864 765.681 -537.775 770.592 -548.2L763.907 -551.558L767.266 -562.49L767.234 -562.427ZM-8.9174 139.262L-15.4128 142.589L-6.16085 147.659L-9.07638 156.88L-2.83362 153.647C-0.457163 169.902 17.8252 178.49 16.2726 198.072L32.0524 188.597L32.0842 188.566L41.5902 204.377L32.1478 171.044L38.4218 169.554C40.7349 163.344 32.9079 155.929 33.2565 152.126C33.6051 148.324 39.9111 146.898 37.1228 141.036C33.669 133.812 -8.28416 108.495 -15.3819 96.6444L-8.9174 139.262ZM859.155 -559.417L868.598 -546.806L852.786 -538.821L862.293 -537.236C862.514 -517.813 850.695 -530.836 844.009 -523.834C837.324 -516.831 844.96 -501.02 833.775 -502.319C834.884 -496.457 838.908 -497.249 843.218 -499.213C842.52 -481.818 838.749 -474.086 822.59 -467.495L819.516 -473.833C802.501 -461.032 817.773 -457.324 817.868 -456.12C818.566 -448.833 815.079 -439.675 821.068 -429.503L811.563 -429.504C810.675 -422.755 811.278 -422.628 817.837 -423.103L817.837 -416.83L811.785 -415.436L814.731 -404.092L808.426 -407.323C811.88 -394.396 801.011 -399.656 798.761 -395.727C794.769 -388.756 800.948 -375.448 786.245 -378.711L798.888 -375.542C796.163 -365.403 788.622 -358.495 792.393 -350.637L779.909 -342.272C790.301 -341.004 784.313 -329.312 780.542 -322.5C775.188 -312.836 771.005 -319.236 770.403 -318.507C764.541 -311.156 778.197 -313.818 776.708 -309.033C756.588 -311.98 774.775 -297.341 773.539 -296.359C759.788 -298.672 764.129 -290.021 760.834 -282.1C760.389 -281.086 743.723 -287.264 764.034 -271.041C753.926 -270.724 753.387 -259.793 748.222 -253.519L760.865 -248.829C747.589 -252.79 748.634 -241.51 738.716 -239.229L744.61 -235.775C749.997 -228.487 722.366 -207.542 721.036 -204.405C719.896 -201.649 729.273 -195.755 722.588 -181.496C717.392 -170.407 720.624 -172.593 717.614 -164.038C716.505 -160.837 708.171 -157.478 707.03 -152.091L713.336 -147.402L697.524 -147.339L703.83 -142.65L694.292 -112.548L684.882 -118.885C681.999 -108.872 675.978 -109.094 684.818 -99.9049L678.481 -96.7358L684.786 -93.5673C681.333 -93.4088 677.404 -91.4763 675.249 -88.8465C671.922 -84.7907 662.29 -70.12 659.882 -65.4303C651.39 -48.8901 660.768 -45.4364 637.32 -38.0536L637.194 -31.7159L643.658 -28.6424L640.426 -20.658L630.952 -23.89L622.967 4.84974L611.908 4.65967C607.029 25.2865 625.945 13.2784 630.825 28.4553L624.615 33.1769L618.278 26.903L616.884 32.9232L605.571 29.9445L608.772 23.6704L592.897 26.8396C598.188 39.2922 601.262 43.9817 615.045 39.4824C612.257 82.3853 620.463 124.274 627.783 166.227L627.847 166.354C640.109 168.54 629.653 157.101 631.016 150.51L640.49 156.816C636.782 142.304 649.647 131.815 637.321 115.687L646.795 125.161C647.238 119.648 645.782 113.723 646.922 108.337C647.017 107.798 649.394 104.692 651.105 100.605C651.454 99.7496 656.268 99.8442 656.396 98.007C656.681 94.0146 651.136 86.5991 653.164 80.8323L665.807 83.9693C667.263 82.2568 661.625 68.1582 662.67 64.0075C662.955 62.8352 668.817 50.6993 671.225 43.4115C682.188 10.1411 697.968 -21.5456 707.093 -55.4814L716.568 -52.3129C705.288 -63.2763 716.727 -77.6297 721.987 -89.5119C723.666 -93.2823 728.196 -93.6315 728.418 -94.0751C731.967 -101.712 724.997 -140.906 744.578 -144.614L741.885 -158.429L751.422 -156.909L739.635 -171.104L745.117 -185.394L764.065 -166.414C768.184 -176.554 755.066 -186.535 755.256 -192.777C755.383 -197.372 761.278 -217.524 766.854 -218.538L763.875 -231.244C788.748 -237.644 775.093 -245.946 776.74 -259.666C777.342 -264.641 782.57 -269.394 784.059 -274.812C788.844 -292.176 797.621 -330.547 805.257 -344.711C808.109 -349.971 821.037 -349.56 823.794 -358.843C827.406 -368.539 818.438 -377.888 818.85 -386.189C819.453 -398.389 832.729 -418.953 833.838 -432.641L846.45 -423.135C848.192 -430.518 838.623 -432.704 837.292 -438.027C835.454 -445.347 843.438 -448.832 845.086 -454.631C850.441 -473.389 851.297 -495.221 861.342 -514.169C864.13 -519.397 870.214 -519.397 871.482 -523.453C873.098 -528.554 868.344 -537.142 871.83 -543.542L906.653 -530.899C905.576 -538.536 910.518 -559.481 901.456 -562.301L859.155 -559.417Z" fill="#FF0000" fill-opacity="0.3"/>
<path d="M219.27 226C221.596 235.179 224.228 240.235 233.527 243.967C246.091 241.11 252.846 242.445 260.075 253.808C260.443 253.766 260.812 253.718 261.178 253.663C272.515 251.973 275.59 244.301 282.238 235.349C282.384 250.776 282.177 274.542 263.656 279.587C259.509 295.805 251.263 291.971 244.023 300.678C246.363 302.509 248.677 304.372 250.966 306.266C254.517 305.363 256.032 306.529 256.36 310.184L259.43 311.664C263.184 311.056 266.286 310.572 270.004 311.864C280.266 315.431 287.144 326.851 291.919 336.029C289.887 340.98 288.605 345.632 288.722 351.039C289.021 364.884 292.135 377.688 293.259 391.754C294.596 408.483 291.618 424.121 294.593 440.111C296.427 449.965 301.763 460.259 304.699 469.879C309.081 484.239 311.267 500.203 312.475 515.164C333.214 520.858 354.895 515.344 368.009 497.452C372.44 491.407 376.558 485.29 381.229 479.415C380.577 478.739 380.09 478.47 379.317 477.966C379.668 476.5 391.895 470.489 394 469.596C393.389 472.856 389.53 483.61 387.699 485.926C386.857 485.827 386.679 485.591 385.981 485.096C383.846 486.156 381.08 490.139 379.572 492.116C374.225 499.125 369.681 505.87 363.045 511.8C350.211 523.27 329.291 525.915 313.075 521.642C314.241 541.971 314.646 564.91 316.393 584.751C305.788 586.667 296.488 584.19 285.531 584.527C283.842 588.089 282.135 593.187 280.479 596.198C274.686 598.07 269.454 598.897 263.77 601.169C266.155 617.004 270.661 641.136 280.435 653.887C274.909 659.075 271.774 661.956 266.89 667.823L266.407 667.776C266.547 664.326 267.752 661.752 265.99 659.272C260.123 656.82 258.564 665.224 256.239 668.179C255.664 668.911 253.367 668.026 252.194 669.161C250.832 676.892 261.65 691.871 263.118 700.732C264.181 707.152 264.371 707.213 263.885 714.2C255.134 711.144 250.881 705.97 246.803 697.774C242.697 689.521 239.447 674.747 241.356 665.825C243.198 657.221 244.908 652.979 245.018 643.676C245.204 628.136 242.731 615.014 239.379 600.011C225.846 598.815 209.671 598.966 203.288 584.822C200.773 585.013 173.398 583.396 172.308 582.851C171.097 580.54 172.574 576.218 173.076 573.326C168.997 571.666 166.87 571.165 162.502 570.522C170.145 538.089 174.057 505.267 182.25 473.22C171.402 473.13 160.554 473.119 149.705 473.186C141.416 473.221 132.841 473.54 124.625 472.606C119.981 455.518 126.152 442.527 132.325 427.368C134.362 422.367 136.02 412.145 136.652 406.772C140.701 406.523 143.023 406.458 147.077 407.388C150.321 401.647 153.125 394.395 155.114 388.623C157.466 381.797 161.843 367.556 170.505 366.474C181.768 365.067 190.407 367.579 202.303 364.409C210.513 371.669 216.544 379.737 226.337 384.741C219.988 376.924 216.865 370.281 212.677 361.175C208.852 352.858 206.758 353.91 207.019 344.124C207.359 331.35 224.69 324.353 225.76 314.432C224.389 313.867 223.497 312.895 222.992 311.526C223.324 308.655 224.687 308.265 227.433 308.215C226.091 303.646 225.587 297.227 226.227 292.522C224.386 288.733 215.387 273.937 212.83 270.058C212.89 266.895 213.204 265.706 213.942 262.578C209.394 251.948 216.964 238.229 219.27 226Z" fill="#FF0000"/>
<path d="M250.966 306.266C254.517 305.363 256.032 306.529 256.36 310.184C254.41 313.443 253.431 313.04 250.297 311.951C248.67 312.622 247.888 314.677 246.249 315.918C244.801 317.016 241.312 315.902 239.195 315.602C238.37 316.153 237.863 316.554 237.095 317.184C234.933 316.858 234.143 315.58 234.516 313.443C235.449 312.176 234.944 312.573 236.466 311.987C238.043 312.022 238.445 312.484 239.734 313.422L240.185 313.753C244.62 311.705 247.949 310.116 250.966 306.266Z" fill="#C90201"/>
<path d="M225.759 314.434C224.388 313.869 223.497 312.896 222.991 311.528C223.324 308.657 224.687 308.267 227.433 308.217C230.065 311.365 227.591 313.83 232.615 313.896C233.14 313.903 233.038 314.059 233.557 314.68C233.653 316.042 233.647 316.083 233.039 317.275C230.04 318.533 227.56 314.935 225.759 314.434Z" fill="#C90201"/>
<path d="M154.156 408.075C155.213 407.544 155.129 407.901 155.453 406.782C156.639 402.699 156.433 398.386 157.281 394.246C158.944 386.121 161.198 373.731 168.976 369.344C170.956 368.227 175.216 367.496 177.145 368.591C177.709 370.956 174.634 372.71 177.78 374.872C179.698 376.19 183.455 376.407 185.768 376.634C190.813 388.267 190.45 396.346 193.205 408.45C181.292 410.423 180.077 419.683 167.086 415.656C162.808 414.33 159.629 412.051 156.139 410.728L155.093 409.932C154.892 409.405 154.393 408.888 154.016 408.419L154.156 408.075Z" fill="black"/>
<path d="M221.451 398.445C221.542 397.247 221.559 396.869 221.868 395.721C223.979 394.171 227.952 396.203 230.262 397.038C231.071 396.27 232.107 394.867 233.283 395.047C238.306 395.819 243.159 396.47 248.258 396.245C250.475 396.146 251.146 396.078 252.731 397.537C253.928 400.157 255.098 401.054 257.268 402.952C256.288 406.254 254.815 409.61 255.716 412.85L255.401 414.231L252.265 416.672C252.03 417.021 250.018 418.405 249.535 418.755C241.747 417.715 238.922 417.706 230.999 418.059C228.867 414.726 225.268 413.467 225.269 409.839C223.295 409.394 220.434 409.008 219.127 407.545C220.63 405.955 221.096 400.783 221.451 398.445Z" fill="black"/>
<path d="M221.451 398.445C221.542 397.247 221.559 396.869 221.868 395.721C223.979 394.171 227.952 396.203 230.262 397.038L230.884 398.367C227.659 400.868 227.054 401.722 227.928 405.943C227.32 406.908 226.003 409.176 225.269 409.839C223.295 409.394 220.434 409.008 219.127 407.544C220.63 405.955 221.096 400.783 221.451 398.445Z" fill="#C90201"/>
<path d="M230.262 397.038C231.071 396.27 232.106 394.867 233.283 395.047C238.305 395.819 243.159 396.47 248.258 396.245C250.474 396.146 251.146 396.078 252.73 397.537C253.928 400.157 255.097 401.054 257.267 402.952C256.287 406.254 254.815 409.61 255.715 412.85L255.401 414.231C255.136 413.633 254.087 412.294 254.056 411.881C253.66 406.709 255.961 400.236 249.891 397.226C247.384 395.98 244.319 398.267 241.819 398.31C237.757 398.378 234.8 396.593 230.884 398.367L230.262 397.038Z" fill="#E77A7C"/>
<path d="M227.928 405.941C228.136 407.673 228.014 408.616 227.873 410.32C232.511 419.359 233.87 416.06 242.584 416.008C244.443 415.997 247.425 417.585 249.257 417.033C249.771 416.594 252.477 413.981 252.767 413.915C252.347 414.972 251.891 415.657 252.264 416.67C252.03 417.019 250.018 418.404 249.535 418.754C241.747 417.713 238.922 417.705 230.999 418.057C228.867 414.725 225.268 413.465 225.269 409.837C226.003 409.174 227.32 406.907 227.928 405.941Z" fill="#CC5A61"/>
<path d="M188.894 376.6C212.77 378.943 206.527 384.784 221.029 398.063L221.45 398.445C221.095 400.783 220.629 405.956 219.126 407.545C216.545 407.874 211.671 413.509 209.598 415.678C208.966 411.727 209.574 413.966 207.884 411.226C204.347 405.49 205.385 408.717 200.037 407.979L199.402 407.736C198.692 405.338 198.026 401.835 197.333 399.188C195.117 390.717 192.706 384.396 188.894 376.6Z" fill="black"/>
<path d="M266.966 396.489C270.633 390.744 274.522 388.147 277.91 381.721C278.667 393.397 279.716 403.859 276.742 415.327C276 414.486 274.847 413.083 274.039 412.403C269.839 413.451 260.294 412.246 255.715 412.849C254.815 409.609 256.287 406.253 257.267 402.951C255.097 401.053 253.928 400.156 252.73 397.535C257.379 397.301 262.392 397.151 266.966 396.489Z" fill="#C90201"/>
<path d="M266.966 396.489C270.633 390.744 274.522 388.147 277.91 381.721C278.666 393.397 279.716 403.859 276.742 415.327C275.999 414.486 274.846 413.083 274.038 412.403C275.765 403.393 276.207 401.264 268.74 399.924C267.785 399.753 267.278 397.515 266.966 396.489Z" fill="black"/>
<path d="M223.831 259.023C225.936 259.765 227.608 260.258 229.502 261.439C232.837 262.805 234.402 263.839 236.997 266.349C238.927 268.007 239.301 268.837 240.87 270.554C245.157 269.224 258.691 265.949 260.919 271.2C260.887 272.8 259.085 275.761 257.935 276.848C257.302 277.56 256.522 278.285 256.187 279.121C255.128 281.71 251.581 282.013 249.152 282.511C242.558 280.181 241.231 279.379 240.677 272.028C236.646 275.083 230.555 280.907 226.135 274.11L225.639 274.035C224.132 273 223.182 271.341 222.11 269.808C222.586 265.733 222.586 262.981 223.831 259.023Z" fill="#C90201"/>
<path d="M242.537 274.822C247.506 275.56 252.968 276.486 257.935 276.847C257.303 277.56 256.523 278.285 256.187 279.121C250.124 281.74 244.021 283.316 242.537 274.822Z" fill="black"/>
<path d="M226.135 274.11L225.921 273.753C224.727 271.798 222.88 270.805 222.993 267.264L223.579 266.863C225.631 267.414 227.471 269.504 230.114 270.671C231.847 271.423 234.135 272.195 235.282 273.601L235.56 274.615C233.567 277.224 228.5 275.315 226.135 274.11Z" fill="black"/>
<path d="M229.502 261.439C232.836 262.805 234.402 263.839 236.997 266.349L236.363 266.565C234.223 265.459 231.004 263.304 229.502 261.439Z" fill="#E77A7C"/>
<path d="M192.336 409.627C193.77 408.869 195.365 407.669 196.728 406.715L197.219 407.491C198.146 407.792 198.426 407.797 199.402 407.736L200.038 407.979C200.327 409.055 201.398 412.665 201.313 413.526C199.287 411.194 199.362 407.024 195.124 408.822C193.188 410.895 194.145 413.019 194.066 416.625C193.219 414.12 192.854 412.196 192.336 409.627Z" fill="black"/>
<path d="M146.915 413.828C147.235 410.941 149.285 405.333 152.562 405.07L152.947 405.491L152.06 406.242C152.448 407.106 153.267 407.453 154.156 408.074L154.016 408.419C150.059 406.183 148.612 410.993 146.915 413.828Z" fill="black"/>
<path d="M155.093 409.932L156.14 410.727C155.255 412.65 154.242 414.58 153.279 416.471C153.797 413.758 154.17 412.556 155.093 409.932Z" fill="black"/>
</g>
<g clip-path="url(#clip1_96_11118)">
<rect width="640" height="782" transform="translate(640)" fill="white"/>
<path d="M1043.8 534.614C1045.52 451.383 1063.11 393.638 1078.63 342.689C1084.35 323.921 1089.75 306.193 1094.18 288.008C1102.34 254.548 1089.69 198.207 1078.1 168.887C1074.46 159.684 1070.05 150.53 1065.78 141.677C1060.65 131.023 1055.34 120.006 1051.2 108.586C1035.81 66.1312 1036.97 18.9386 1037.99 -22.6983L1043.8 -259.455C1043.87 -262.195 1046.16 -264.366 1048.89 -264.295C1051.63 -264.228 1053.8 -261.951 1053.73 -259.211L1047.92 -22.4548C1046.92 18.3062 1045.78 64.5059 1060.53 105.204C1064.5 116.15 1069.7 126.936 1074.73 137.367C1079.07 146.38 1083.56 155.7 1087.33 165.237C1094.28 182.804 1100.2 205.249 1103.59 226.815C1106.4 244.711 1108.73 270.263 1103.83 290.36C1099.32 308.817 1093.88 326.675 1088.13 345.581C1072.79 395.926 1055.41 452.988 1053.73 534.879L1053.73 534.898L1053.72 535.005L1047.92 771.655C1046.92 812.416 1045.78 858.615 1060.53 899.313C1064.5 910.259 1069.7 921.045 1074.73 931.475C1079.07 940.489 1083.56 949.808 1087.33 959.347C1100.36 992.297 1104.96 1028.3 1100.63 1063.47C1096.79 1094.71 1085.99 1124.85 1075.54 1153.99C1063.3 1188.14 1050.65 1223.46 1049.82 1259.7C1049.76 1262.4 1047.55 1264.55 1044.86 1264.55C1044.82 1264.55 1044.79 1264.55 1044.75 1264.55C1042.01 1264.49 1039.84 1262.22 1039.9 1259.48C1040.76 1221.63 1053.69 1185.54 1066.2 1150.64C1076.46 1122.01 1087.07 1092.4 1090.78 1062.26C1094.9 1028.73 1090.52 994.408 1078.1 962.996C1074.46 953.794 1070.05 944.638 1065.78 935.785C1060.65 925.131 1055.34 914.114 1051.2 902.695C1035.81 860.24 1036.97 813.048 1037.99 771.411L1043.8 534.654L1043.8 534.614ZM739.762 1246.44C737.207 1246.44 735.037 1244.48 734.821 1241.88C731.39 1200.7 731.465 1158.85 735.044 1117.48C738.623 1076.11 745.737 1034.87 756.19 994.885C758.517 985.984 761.048 976.994 763.496 968.301C769.371 947.435 775.446 925.861 779.026 904.266C784.804 869.417 782.876 839.121 773.296 814.218C770.448 806.813 766.769 799.487 763.212 792.402C759.703 785.413 756.074 778.187 753.121 770.689C740.337 738.24 740.665 701.928 740.955 669.889L742.345 516.146C742.342 516.016 742.345 515.885 742.354 515.753C744.517 481.052 744.201 441.81 743.866 400.264C743.281 327.6 742.676 252.463 756.189 200.774C758.516 191.872 761.047 182.883 763.495 174.19C769.37 153.325 775.445 131.75 779.026 110.155C784.803 75.3073 782.875 45.0107 773.295 20.1068C770.447 12.7017 766.768 5.37625 763.212 -1.70862C759.702 -8.69784 756.074 -15.925 753.12 -23.4214C740.337 -55.8696 740.665 -92.1828 740.955 -124.221L742.345 -278.094C742.37 -280.819 744.587 -283.013 747.307 -283.013C747.322 -283.013 747.338 -283.013 747.353 -283.013C750.094 -282.987 752.296 -280.745 752.271 -278.005L750.881 -124.132C750.599 -92.9988 750.281 -57.7115 762.356 -27.0606C765.146 -19.9791 768.672 -12.9553 772.083 -6.16284C775.747 1.13626 779.537 8.68348 782.561 16.5429C792.784 43.12 794.889 75.1616 788.819 111.779C785.149 133.913 778.999 155.756 773.051 176.88C770.616 185.529 768.097 194.473 765.794 203.284C752.614 253.7 753.213 328.167 753.793 400.184C754.128 441.851 754.446 481.212 752.27 516.224L750.881 669.98C750.6 701.112 750.281 736.399 762.357 767.051C765.146 774.132 768.673 781.156 772.084 787.948C775.748 795.247 779.538 802.795 782.561 810.654C792.785 837.231 794.891 869.273 788.819 905.889C785.15 928.024 778.999 949.868 773.052 970.991C770.617 979.64 768.098 988.584 765.795 997.395C744.973 1077.04 737.88 1159.02 744.714 1241.06C744.942 1243.79 742.912 1246.19 740.18 1246.42C740.039 1246.43 739.899 1246.44 739.762 1246.44ZM1230.42 1163.57C1230.4 1163.57 1230.38 1163.57 1230.36 1163.57C1227.62 1163.54 1225.42 1161.29 1225.45 1158.55C1225.84 1123.99 1226.24 1088.25 1224.25 1053.24C1223.17 1034.36 1221.38 1014.99 1219.65 996.268C1214.05 935.609 1208.25 872.885 1225.22 813.503C1227.97 803.855 1231.34 794.294 1234.6 785.047C1239.02 772.518 1243.58 759.561 1246.54 746.535C1253.37 716.459 1251.99 685.041 1242.55 655.679C1240.13 648.14 1237.11 640.568 1234.19 633.245C1229.96 622.633 1225.59 611.66 1222.76 600.227C1215.06 569.09 1219.25 536.987 1223.31 505.94C1225.8 486.855 1228.37 467.122 1228.11 447.959C1226.1 389.474 1227.47 345.828 1228.47 313.956C1229.17 291.702 1229.72 274.124 1228.92 259.973C1227.66 237.914 1225.07 215.179 1222.55 193.192C1215.95 135.437 1209.13 75.7166 1225.22 19.3925C1227.97 9.74423 1231.34 0.183147 1234.6 -9.06329C1239.01 -21.5928 1243.58 -34.5497 1246.54 -47.5755C1253.37 -77.6515 1251.99 -109.069 1242.55 -138.431C1240.13 -145.97 1237.11 -153.542 1234.19 -160.865C1229.96 -171.477 1225.59 -182.451 1222.76 -193.883C1215.06 -225.02 1219.25 -257.123 1223.31 -288.17C1225.8 -307.261 1228.38 -327.003 1228.11 -346.174C1228.08 -348.915 1230.27 -351.167 1233.01 -351.205C1233.03 -351.205 1233.05 -351.205 1233.08 -351.205C1235.79 -351.205 1238 -349.028 1238.04 -346.31C1238.31 -326.425 1235.69 -306.325 1233.15 -286.886C1229.04 -255.363 1225.15 -225.588 1232.4 -196.266C1235.06 -185.494 1239.31 -174.842 1243.41 -164.541C1246.39 -157.063 1249.48 -149.332 1252 -141.469C1261.98 -110.415 1263.44 -77.1863 1256.22 -45.3767C1253.13 -31.7915 1248.47 -18.5602 1243.96 -5.76404C1240.75 3.34317 1237.44 12.7608 1234.76 22.12C1219.21 76.5483 1225.92 135.273 1232.42 192.065C1234.94 214.19 1237.56 237.068 1238.83 259.409C1239.66 273.998 1239.1 291.769 1238.39 314.268C1237.39 346.017 1236.03 389.498 1238.04 447.697L1238.04 447.869C1238.31 467.731 1235.68 487.808 1233.15 507.225C1229.03 538.747 1225.15 568.522 1232.4 597.845C1235.06 608.616 1239.31 619.268 1243.41 629.569C1246.39 637.047 1249.48 644.779 1252 652.641C1261.98 683.695 1263.44 716.924 1256.22 748.733C1253.13 762.318 1248.47 775.55 1243.96 788.346C1240.75 797.453 1237.43 806.871 1234.76 816.23C1218.31 873.824 1224.02 935.606 1229.54 995.354C1231.27 1014.17 1233.07 1033.62 1234.16 1052.67C1236.17 1088.02 1235.76 1123.93 1235.38 1158.66C1235.35 1161.39 1233.13 1163.57 1230.42 1163.57ZM1414.47 1255.92C1414.05 1255.92 1413.63 1255.86 1413.2 1255.75C1410.55 1255.05 1408.97 1252.33 1409.67 1249.68C1419.78 1211.57 1410.8 1170.37 1403.16 1142.7C1400.11 1131.64 1396.64 1120.44 1393.28 1109.61C1385.79 1085.46 1378.05 1060.49 1374.27 1034.91C1369.23 1000.76 1371.27 965.841 1373.24 932.073C1373.48 927.854 1373.73 923.637 1373.96 919.424C1380.19 806.719 1376.57 691.936 1373.07 580.931L1373.07 580.898L1373.07 580.873C1371.42 537.271 1380.8 510.919 1389.87 485.434C1401.38 453.063 1413.29 419.589 1403.03 347.971C1400.45 329.97 1394.53 312.14 1388.81 294.898C1383.01 277.461 1377.02 259.429 1374.27 240.798C1369.23 206.649 1371.26 171.731 1373.24 137.963C1373.48 133.744 1373.73 129.527 1373.96 125.314C1380.19 12.5982 1376.57 -102.197 1373.07 -213.212C1372.98 -215.952 1375.13 -218.242 1377.87 -218.329C1380.61 -218.416 1382.91 -216.264 1382.99 -213.525C1386.5 -102.298 1390.12 12.7154 1383.87 125.862C1383.64 130.085 1383.39 134.313 1383.15 138.542C1381.2 171.808 1379.2 206.208 1384.09 239.347C1386.72 257.121 1392.57 274.736 1398.23 291.77C1404.09 309.426 1410.16 327.683 1412.86 346.563C1423.47 420.607 1411.14 455.255 1399.22 488.761C1390.06 514.507 1381.41 538.824 1382.99 580.553L1382.99 580.586C1386.5 691.813 1390.12 806.826 1383.87 919.972C1383.64 924.195 1383.39 928.423 1383.15 932.652C1381.2 965.919 1379.2 1000.32 1384.09 1033.46C1387.76 1058.29 1395.39 1082.88 1402.76 1106.67C1406.14 1117.58 1409.64 1128.85 1412.73 1140.06C1418.49 1160.93 1421.98 1179.14 1423.4 1195.7C1425.19 1216.5 1423.84 1234.99 1419.27 1252.23C1418.68 1254.45 1416.67 1255.92 1414.47 1255.92ZM620.364 1255.92C619.943 1255.92 619.516 1255.86 619.089 1255.75C616.439 1255.05 614.861 1252.33 615.563 1249.68C625.666 1211.57 616.686 1170.37 609.052 1142.7C606.001 1131.64 602.529 1120.44 599.171 1109.61C591.684 1085.46 583.942 1060.49 580.162 1034.91C575.117 1000.76 577.156 965.844 579.127 932.078C579.373 927.857 579.62 923.638 579.853 919.424C586.078 806.722 582.46 691.938 578.961 580.932V580.93L578.96 580.898C577.309 537.281 586.687 510.924 595.755 485.434C607.272 453.063 619.181 419.589 608.922 347.971C606.344 329.969 600.422 312.14 594.695 294.898C588.904 277.46 582.915 259.429 580.162 240.798C575.116 206.651 577.156 171.734 579.127 137.968C579.373 133.747 579.62 129.529 579.852 125.314C586.078 12.6011 582.459 -102.195 578.96 -213.211C578.873 -215.951 581.025 -218.242 583.764 -218.328C586.498 -218.416 588.795 -216.264 588.881 -213.524C592.388 -102.297 596.013 12.7183 589.764 125.862C589.53 130.087 589.284 134.316 589.037 138.547C587.094 171.812 585.085 206.211 589.981 239.347C592.608 257.122 598.458 274.735 604.115 291.769C609.98 309.426 616.044 327.683 618.749 346.564C629.355 420.608 617.028 455.255 605.107 488.762C595.955 514.486 587.311 538.784 588.876 580.448L588.882 580.586C592.389 691.814 596.014 806.828 589.764 919.972C589.531 924.197 589.284 928.425 589.037 932.656C587.095 965.922 585.086 1000.32 589.982 1033.46C593.65 1058.28 601.277 1082.88 608.652 1106.67C612.033 1117.57 615.529 1128.85 618.62 1140.06C624.378 1160.93 627.87 1179.13 629.294 1195.7C631.081 1216.5 629.728 1234.99 625.158 1252.22C624.569 1254.45 622.561 1255.92 620.364 1255.92ZM918.308 616.378L918.307 616.355V616.336C917.774 596.03 920.635 578.175 923.664 559.271C927.053 538.123 930.556 516.256 929.165 489.781C928.172 470.883 921.395 444.787 916.448 425.734C916.055 424.222 915.671 422.745 915.3 421.309C912.045 408.714 907.056 396.275 902.232 384.247C899.15 376.562 895.963 368.615 893.209 360.604C878.815 318.736 874.326 270.185 879.487 212.179C882.537 177.908 888.55 143.536 894.365 110.297C896.933 95.6198 899.588 80.4438 901.947 65.505C914.615 -14.7216 920.12 -96.5721 918.308 -177.774C918.247 -180.514 920.418 -182.785 923.159 -182.847C925.894 -182.906 928.17 -180.736 928.231 -177.996C930.057 -96.2028 924.512 -13.757 911.752 67.0528C909.38 82.0733 906.718 97.2905 904.143 112.006C898.363 145.043 892.386 179.204 889.374 213.058C884.339 269.647 888.664 316.854 902.596 357.376C905.269 365.152 908.409 372.981 911.445 380.551C916.387 392.871 921.496 405.611 924.911 418.825C925.281 420.258 925.663 421.73 926.055 423.239C931.391 443.787 938.032 469.359 939.078 489.259C940.524 516.786 936.936 539.182 933.466 560.841C930.51 579.283 927.719 596.701 928.231 616.094L928.232 616.114C930.057 697.906 924.512 780.353 911.752 861.162C909.38 876.181 906.718 891.399 904.143 906.115C898.363 939.152 892.387 973.313 889.374 1007.17C884.339 1063.76 888.665 1110.96 902.596 1151.49C905.27 1159.26 908.41 1167.09 911.445 1174.66C916.387 1186.98 921.496 1199.72 924.911 1212.93C930.278 1233.7 931.403 1255.58 932.094 1276.21C933.046 1304.57 933.318 1333.33 932.903 1361.7C932.864 1364.42 930.65 1366.6 927.943 1366.6C927.918 1366.6 927.893 1366.59 927.869 1366.59C925.128 1366.55 922.938 1364.3 922.979 1361.56C923.391 1333.35 923.12 1304.74 922.175 1276.54C921.474 1255.63 920.419 1235.23 915.301 1215.42C912.046 1202.82 907.057 1190.38 902.233 1178.36C899.151 1170.67 895.964 1162.72 893.21 1154.71C878.815 1112.85 874.326 1064.29 879.488 1006.29C882.537 972.016 888.55 937.645 894.366 904.405C896.933 889.729 899.589 874.553 901.948 859.614C914.614 779.402 920.118 697.565 918.308 616.378Z" fill="#B3B3B3"/>
<path d="M658.509 1164.08C658.413 1164.08 658.317 1164.08 658.22 1164.07C655.483 1163.91 653.393 1161.57 653.55 1158.83C656.381 1109.6 659.308 1058.69 652.018 1009.24C649.195 990.086 644.761 970.75 640.474 952.051C634.05 924.034 627.408 895.063 625.9 865.701C624.391 836.34 628.025 806.818 631.541 778.267C632.522 770.303 633.536 762.066 634.418 753.985C642.343 681.418 641.551 602.656 632.069 519.884L632.068 519.879L632.065 519.847C625.933 469.168 634.629 432.616 643.835 393.916C655.161 346.31 666.872 297.083 652.045 215.292C649.158 199.364 645.496 183.219 641.954 167.605C634.886 136.436 627.576 104.205 625.9 71.5916C624.391 42.2305 628.026 12.7082 631.541 -15.8422C632.522 -23.8071 633.536 -32.0426 634.419 -40.1238C642.344 -112.702 641.552 -191.477 632.065 -274.262C631.753 -276.985 633.707 -279.446 636.43 -279.758C639.155 -280.072 641.614 -278.116 641.927 -275.392C651.498 -191.875 652.292 -112.357 644.287 -39.0464C643.397 -30.8973 642.378 -22.6271 641.394 -14.629C637.93 13.4996 634.35 42.586 635.813 71.0829C637.445 102.843 644.659 134.651 651.636 165.411C655.2 181.128 658.886 197.381 661.813 213.523C668.611 251.026 670.508 285.332 667.611 318.403C665.049 347.636 659.175 372.332 653.493 396.214C644.495 434.034 635.997 469.755 641.923 518.687L641.926 518.718L641.937 518.814C651.498 602.296 652.288 681.78 644.286 755.063C643.396 763.212 642.378 771.483 641.393 779.48C637.93 807.609 634.349 836.694 635.813 865.192C637.278 893.689 643.822 922.231 650.15 949.833C654.48 968.72 658.958 988.25 661.839 1007.79C669.277 1058.25 666.32 1109.67 663.46 1159.4C663.308 1162.04 661.119 1164.08 658.509 1164.08ZM810.884 1365.65C808.991 1365.65 807.183 1364.56 806.356 1362.73C795.73 1339.13 788.415 1314.02 784.612 1288.1C780.809 1262.17 780.605 1236.02 784.005 1210.37C786.89 1188.6 792.37 1167.09 797.669 1146.29C801.555 1131.03 805.573 1115.26 808.497 1099.62C817.17 1053.22 816.857 1005.07 816.554 958.497L814.485 640.095C814.483 640.005 814.483 639.914 814.486 639.822C815.329 612.799 808.26 592.215 800.074 568.381C787.658 532.227 773.584 491.248 784.009 416.226C787.002 394.688 792.388 373.374 797.597 352.762C801.501 337.315 805.537 321.342 808.497 305.505C817.17 259.11 816.857 210.955 816.554 164.386L814.485 -154.1C814.467 -156.842 816.675 -159.078 819.416 -159.095C822.146 -159.126 824.393 -156.905 824.411 -154.165L826.48 164.322C826.786 211.359 827.102 259.998 818.255 307.33C815.237 323.472 811.162 339.599 807.221 355.195C802.078 375.547 796.76 396.593 793.842 417.593C783.743 490.267 797.408 530.055 809.463 565.158C817.601 588.853 825.288 611.237 824.411 640.022L826.48 958.431C826.786 1005.47 827.102 1054.11 818.254 1101.44C815.272 1117.39 811.213 1133.33 807.287 1148.74C802.06 1169.26 796.654 1190.48 793.845 1211.67C787.302 1261.04 794.959 1313.24 815.407 1358.65C816.532 1361.15 815.419 1364.09 812.919 1365.21C812.257 1365.51 811.565 1365.65 810.884 1365.65ZM1282.68 1355.68C1280.52 1355.68 1278.54 1354.26 1277.91 1352.09C1265.19 1307.79 1258.3 1261.71 1257.44 1215.12C1256.59 1168.53 1261.78 1122.23 1272.87 1077.5C1275.24 1067.91 1277.93 1058.25 1280.52 1048.9C1286.22 1028.39 1292.11 1007.17 1294.95 985.909C1299.33 953.201 1296.66 919.338 1294.08 886.591C1293.82 883.315 1293.57 880.041 1293.32 876.769C1286.89 792.986 1284.94 707.914 1287.53 623.917C1287.61 585.089 1280.76 553.751 1273.5 520.572C1267 490.82 1260.27 460.056 1258.46 422.483C1256.42 380.084 1261.13 334.615 1272.84 283.477C1275.45 272.091 1278.62 260.686 1281.69 249.658C1286.93 230.813 1292.34 211.326 1294.95 191.799C1299.33 159.091 1296.66 125.228 1294.08 92.4804C1293.82 89.2048 1293.57 85.9306 1293.32 82.6589C1286.88 -1.16316 1284.94 -86.2739 1287.53 -170.309C1287.62 -173.049 1289.91 -175.197 1292.65 -175.117C1295.39 -175.032 1297.54 -172.742 1297.46 -170.002C1294.87 -86.3214 1296.81 -1.56939 1303.21 81.8997C1303.46 85.1645 1303.72 88.4312 1303.98 91.701C1306.6 124.965 1309.31 159.362 1304.79 193.115C1302.09 213.322 1296.58 233.146 1291.25 252.316C1288.22 263.237 1285.08 274.53 1282.52 285.694C1256.83 397.837 1270.23 459.154 1283.2 518.452C1290.57 552.15 1297.53 583.982 1297.46 623.852L1297.46 623.965L1297.46 624.107C1294.87 707.789 1296.81 792.54 1303.21 876.01C1303.46 879.275 1303.72 882.542 1303.98 885.811C1306.6 919.076 1309.31 953.473 1304.79 987.225C1301.86 1009.17 1295.87 1030.72 1290.09 1051.56C1287.51 1060.84 1284.84 1070.43 1282.5 1079.89C1260.54 1168.46 1262.25 1261.64 1287.45 1349.34C1288.21 1351.98 1286.69 1354.73 1284.05 1355.49C1283.6 1355.62 1283.13 1355.68 1282.68 1355.68ZM1131.58 1313.3C1128.99 1313.3 1126.81 1311.29 1126.64 1308.67C1123.58 1263.32 1120.42 1216.43 1123.56 1170.1C1124.44 1157.08 1125.83 1143.91 1127.18 1131.16C1130.03 1104.25 1132.98 1076.43 1131.13 1049.25C1129.15 1020.13 1121.62 991.12 1114.35 963.064C1108.79 941.619 1103.04 919.445 1099.69 897.101C1092.94 852.021 1095.82 806.119 1098.62 761.728C1101.88 709.984 1105.24 656.487 1110.86 604.019C1114.02 560.771 1113.22 528.776 1112.51 500.546C1111.44 458.008 1110.6 424.408 1123.71 375.056C1134.7 333.685 1133.45 289.239 1131.13 255.139C1129.15 226.02 1121.62 197.009 1114.35 168.954C1108.79 147.509 1103.04 125.335 1099.69 102.99C1092.93 57.9101 1095.82 12.0081 1098.62 -32.3835C1101.88 -84.1604 1105.25 -137.691 1110.87 -190.189C1111.17 -192.914 1113.61 -194.889 1116.34 -194.595C1119.06 -194.303 1121.03 -191.857 1120.74 -189.131C1115.14 -136.85 1111.78 -83.4298 1108.52 -31.7678C1105.76 12.114 1102.91 57.482 1109.5 101.52C1112.77 123.348 1118.46 145.266 1123.96 166.463C1131.34 194.958 1138.99 224.423 1141.03 254.465C1143.4 289.327 1144.67 334.829 1133.3 377.605C1120.56 425.582 1121.39 458.553 1122.43 500.297C1123.15 528.75 1123.95 560.997 1120.76 604.716L1120.76 604.725L1120.76 604.811L1120.74 604.98C1115.14 657.262 1111.78 710.684 1108.53 762.346C1105.76 806.225 1102.91 851.592 1109.5 895.63C1112.78 917.458 1118.46 939.377 1123.96 960.573C1131.34 989.069 1138.99 1018.53 1141.03 1048.58C1142.94 1076.62 1139.95 1104.88 1137.05 1132.21C1135.71 1144.86 1134.33 1157.94 1133.46 1170.78C1130.37 1216.43 1133.5 1262.98 1136.54 1308C1136.72 1310.74 1134.66 1313.1 1131.92 1313.29C1131.81 1313.3 1131.7 1313.3 1131.58 1313.3ZM967.377 1292.94C965.053 1292.94 962.977 1291.3 962.512 1288.93C957.044 1261.11 961.776 1232.72 966.353 1205.27C971.134 1176.59 975.65 1149.5 969.68 1122.76C966.322 1107.71 959.852 1093.86 953.001 1079.19C947.005 1066.35 940.805 1053.08 936.967 1039.04C927.278 1003.59 933.164 966.599 938.857 930.827C939.4 927.418 939.941 924.017 940.468 920.626C959.744 796.447 958.354 668.622 957.009 545.008V544.996C956.126 510.56 960.842 474.886 965.403 440.385C970.992 398.109 976.271 358.178 969.68 328.645C966.323 313.602 959.852 299.748 953.002 285.082C947.007 272.244 940.806 258.969 936.967 244.924C927.278 209.477 933.165 172.488 938.857 136.716C939.4 133.307 939.941 129.906 940.468 126.515C959.744 2.33552 958.354 -125.488 957.009 -249.104C956.979 -251.844 959.177 -254.091 961.918 -254.12C964.665 -254.146 966.905 -251.952 966.935 -249.211C968.283 -125.193 969.678 3.04758 950.276 128.038C949.748 131.442 949.205 134.855 948.66 138.277C943.132 173.009 937.417 208.924 946.542 242.308C950.158 255.536 956.176 268.421 961.995 280.882C968.769 295.385 975.774 310.383 979.368 326.484C986.343 357.734 980.952 398.513 975.244 441.687C970.729 475.835 966.061 511.145 966.934 544.825L966.935 544.89V544.9L966.935 544.953C968.284 668.955 969.676 797.177 950.277 922.148C949.749 925.552 949.205 928.965 948.661 932.387C943.133 967.12 937.417 1003.03 946.543 1036.42C950.158 1049.65 956.176 1062.53 961.996 1074.99C968.77 1089.5 975.774 1104.49 979.368 1120.59C985.76 1149.23 980.871 1178.55 976.144 1206.9C971.713 1233.48 967.132 1260.96 972.253 1287.02C972.781 1289.71 971.029 1292.32 968.339 1292.85C968.017 1292.91 967.695 1292.94 967.377 1292.94Z" fill="white"/>
<path d="M699.945 1443.83C695.735 1443.83 692.224 1440.52 692.019 1436.27C689.677 1387.53 693.313 1309.49 696.235 1246.79C696.99 1230.58 697.703 1215.28 698.217 1202.37C701.416 1122.04 709.306 1041.11 721.668 961.82C722.274 957.932 723.055 953.466 723.883 948.739C726.128 935.919 728.911 920.018 729.782 906.308C725.418 906.358 721.066 905.555 716.86 903.865C702.034 897.907 692.24 883.6 687.658 861.27C687.086 861.132 686.507 860.992 685.921 860.852C679.784 859.38 673.439 857.858 667.984 854.998C660.362 851.002 656.112 845.157 655.351 837.624C654.645 830.637 657.515 823.578 663.882 816.644C669.658 810.354 676.768 805.394 684.56 801.949C685.297 789.84 686.717 778.249 688.231 765.888C691.955 735.483 696.176 701.022 692.03 642.34C692.023 642.252 692.019 642.164 692.016 642.076C689.681 593.327 693.315 515.345 696.235 452.678C696.99 436.474 697.703 421.169 698.217 408.255C701.416 327.933 709.306 247.002 721.668 167.709C722.274 163.822 723.056 159.356 723.883 154.629C726.128 141.809 728.911 125.908 729.782 112.198C725.418 112.248 721.066 111.445 716.86 109.754C702.034 103.796 692.24 89.4893 687.658 67.1591C687.087 67.0211 686.507 66.8818 685.921 66.7414C679.785 65.2694 673.439 63.7472 667.984 60.8876C660.362 56.8918 656.112 51.0462 655.351 43.514C654.645 36.526 657.515 29.4675 663.882 22.5335C669.658 16.2436 676.768 11.2836 684.56 7.83875C685.297 -4.2709 686.717 -15.8614 688.231 -28.223C691.955 -58.6274 696.176 -93.0881 692.03 -151.77C691.72 -156.145 695.016 -159.942 699.391 -160.251C703.768 -160.559 707.563 -157.265 707.872 -152.89C712.126 -92.6783 707.807 -57.4094 703.995 -26.2923C702.762 -16.2247 701.594 -6.69017 700.829 3.02903C709.711 1.60651 718.872 2.00974 727.55 4.45543C749.916 10.7587 767.944 30.3156 772.408 53.1194C774.139 61.9598 773.131 71.5121 769.49 80.7432C766.081 89.3871 760.474 97.2311 753.701 102.833C751.19 104.909 748.569 106.649 745.878 108.042C745.418 123.709 742.239 141.869 739.527 157.367C738.713 162.02 737.943 166.414 737.36 170.156C725.092 248.85 717.261 329.17 714.086 408.887C713.57 421.855 712.855 437.186 712.099 453.417C709.195 515.742 705.582 593.296 707.878 641.297C712.123 701.461 707.805 736.714 703.995 767.818C702.762 777.885 701.594 787.42 700.829 797.14C709.711 795.717 718.872 796.121 727.55 798.566C749.916 804.869 767.943 824.426 772.408 847.23C774.139 856.07 773.131 865.623 769.49 874.854C766.081 883.498 760.474 891.342 753.701 896.944C751.19 899.02 748.569 900.76 745.877 902.152C745.418 917.819 742.239 935.979 739.526 951.477C738.712 956.13 737.943 960.525 737.36 964.267C725.091 1042.96 717.261 1123.28 714.086 1203C713.57 1215.97 712.855 1231.3 712.099 1247.53C709.193 1309.9 705.577 1387.52 707.882 1435.51C708.093 1439.89 704.712 1443.61 700.331 1443.82C700.203 1443.83 700.074 1443.83 699.945 1443.83ZM1330.54 -0.417718L1330.54 -0.445119V-0.446497C1334.25 -98.6391 1336.11 -207.185 1319.38 -308.418C1303.48 -313.44 1292.97 -328.161 1288.24 -341.126C1279.15 -366.084 1283.97 -392.008 1292.39 -416.723C1291.89 -418.143 1291.38 -419.572 1290.87 -420.987C1284.27 -439.298 1274.3 -466.972 1291.22 -485.859C1297.93 -493.345 1307.79 -497.396 1318.97 -497.277C1320.13 -497.264 1321.29 -497.205 1322.45 -497.102C1341.4 -557.255 1350.16 -620.241 1351.05 -698.663C1351.1 -703.018 1354.64 -706.515 1358.99 -706.515C1359.02 -706.515 1359.05 -706.515 1359.08 -706.514C1363.46 -706.464 1366.98 -702.869 1366.93 -698.484C1366.38 -650.145 1363.06 -609.653 1356.47 -571.053C1351.91 -544.27 1345.73 -518.452 1337.79 -493.074C1341.1 -491.587 1344.22 -489.733 1347.03 -487.553C1363.17 -475.013 1370.04 -454.965 1373.8 -440.976C1379.19 -420.919 1381.87 -400.219 1381.75 -379.452C1381.67 -366.388 1380.46 -347.161 1370.77 -331.09C1366.08 -323.298 1359.2 -316.616 1351.41 -312.274C1346.31 -309.428 1340.99 -307.647 1335.67 -306.967C1340.22 -278.426 1343.56 -248.004 1345.74 -215.448C1350.7 -141.356 1348.87 -64.92 1346.41 0.0906644L1346.41 0.210005C1344.37 49.5255 1344.48 93.6467 1344.57 132.574C1344.68 177.49 1344.77 216.28 1341.73 251.876C1340.24 269.289 1338.04 285.161 1335.04 299.9C1339.37 301.532 1343.45 303.78 1347.03 306.558C1363.17 319.097 1370.04 339.145 1373.8 353.135C1379.19 373.191 1381.87 393.89 1381.75 414.659C1381.68 427.723 1380.46 446.949 1370.77 463.02C1366.08 470.812 1359.2 477.495 1351.41 481.837C1346.31 484.683 1340.99 486.464 1335.67 487.144C1340.22 515.684 1343.56 546.107 1345.74 578.663C1350.71 652.789 1348.86 729.263 1346.41 794.293C1346.25 798.573 1342.73 801.933 1338.48 801.933C1338.38 801.933 1338.28 801.931 1338.17 801.927C1333.79 801.762 1330.37 798.075 1330.54 793.692C1334.25 695.492 1336.11 586.935 1319.38 485.691C1303.48 480.67 1292.97 465.948 1288.24 452.984C1279.15 428.026 1283.97 402.102 1292.39 377.387C1291.89 375.966 1291.38 374.538 1290.87 373.123C1284.27 354.812 1274.3 327.137 1291.22 308.251C1297.93 300.764 1307.78 296.711 1318.97 296.833C1319.15 296.835 1319.32 296.838 1319.5 296.842C1328.97 250.62 1328.85 198.31 1328.69 132.612C1328.6 93.5285 1328.49 49.2325 1330.54 -0.417545L1330.54 -0.417718ZM1309.2 377.416C1319 406.319 1326.91 437.532 1333.01 471.476C1343.26 470.5 1352.39 462.756 1357.17 454.822C1364.83 442.104 1365.8 425.757 1365.87 414.568C1365.98 395.222 1363.48 375.941 1358.46 357.258C1353.43 338.538 1346.7 326.412 1337.28 319.099C1335.53 317.736 1333.54 316.556 1331.43 315.595C1328.21 328.064 1324.33 339.745 1319.72 350.922L1319.24 352.082C1315.77 360.479 1312.28 368.948 1309.2 377.416ZM1301.21 404.864C1298.32 419.495 1298.17 433.859 1303.16 447.545C1305.55 454.106 1309.86 461.272 1315.88 466.057C1311.89 445.24 1307.05 424.792 1301.21 404.864ZM1315.76 312.845C1310.85 313.331 1306.3 315.216 1303.05 318.849C1295.59 327.175 1297.02 339.873 1301.24 354.092C1302.35 351.376 1303.46 348.686 1304.56 346.023L1305.03 344.865C1309.34 334.43 1312.87 323.795 1315.76 312.845ZM1309.2 -416.694C1319 -387.79 1326.91 -356.578 1333.01 -322.633C1343.26 -323.61 1352.39 -331.354 1357.17 -339.288C1364.83 -352.006 1365.8 -368.353 1365.87 -379.542C1365.98 -398.888 1363.48 -418.17 1358.46 -436.853C1353.43 -455.573 1346.7 -467.698 1337.28 -475.01C1335.91 -476.074 1334.41 -477.025 1332.8 -477.848C1328.82 -466.24 1324.47 -454.703 1319.71 -443.188L1319.24 -442.028C1315.77 -433.632 1312.28 -425.161 1309.2 -416.694ZM1301.21 -389.246C1298.32 -374.616 1298.17 -360.252 1303.16 -346.564C1305.55 -340.004 1309.86 -332.839 1315.88 -328.053C1311.89 -348.87 1307.05 -369.318 1301.21 -389.246ZM1317.24 -481.37C1311.78 -481.14 1306.63 -479.259 1303.05 -475.261C1295.59 -466.934 1297.02 -454.237 1301.24 -440.017C1302.35 -442.733 1303.46 -445.423 1304.56 -448.086L1305.03 -449.244C1309.45 -459.947 1313.51 -470.629 1317.24 -481.37ZM1188.29 348.9C1189.52 282.246 1185.43 229.686 1174.6 173.179C1166.05 128.583 1162.39 92.1294 1163.07 58.4583C1163.76 24.4001 1169 -8.69697 1179.06 -42.3166C1175.26 -44.845 1171.91 -48.008 1169.31 -51.5868C1160.05 -64.3607 1158.61 -80.2173 1158.43 -94.0419C1158.25 -107.778 1159.11 -121.487 1160.54 -135.094C1151.2 -141.631 1141.75 -148.476 1137.57 -158.266C1132.46 -170.226 1133.83 -185.921 1140.88 -196.433C1146.08 -204.176 1153.75 -208.368 1162.41 -208.232C1165.39 -208.186 1168.19 -207.628 1170.8 -206.71C1181.2 -277.921 1186.92 -355.96 1188.29 -445.046C1188.35 -449.389 1191.9 -452.864 1196.23 -452.864C1196.27 -452.864 1196.31 -452.864 1196.35 -452.864C1200.74 -452.796 1204.24 -449.187 1204.17 -444.802C1202.75 -352.592 1196.7 -272.056 1185.66 -198.589C1185.58 -198.063 1185.5 -197.536 1185.42 -197.009C1187.1 -195.351 1188.61 -193.681 1189.95 -192.127C1217.35 -160.299 1232 -117.982 1230.16 -76.0262C1229.4 -58.7921 1224.42 -47.2547 1214.93 -40.7562C1208.5 -36.3526 1201.05 -35.2041 1193.86 -36.3852C1172.22 36.8993 1176.68 99.6507 1190.2 170.191C1201.25 227.878 1205.43 281.454 1204.17 349.334L1204.17 349.425C1202.75 441.584 1196.69 522.084 1185.65 595.52C1185.58 596.046 1185.5 596.573 1185.42 597.1C1187.1 598.756 1188.61 600.427 1189.95 601.98C1217.35 633.809 1232 676.126 1230.16 718.082C1229.4 735.316 1224.42 746.852 1214.93 753.352C1208.53 757.734 1201.13 758.892 1193.97 757.74C1180.73 805.077 1180.45 851.972 1180.14 901.372C1179.99 926.082 1179.84 951.633 1177.97 977.599C1174.08 1031.6 1169.31 1086.28 1163.79 1140.11C1163.37 1144.2 1159.92 1147.24 1155.9 1147.24C1155.63 1147.24 1155.35 1147.23 1155.08 1147.2C1150.71 1146.75 1147.54 1142.85 1147.99 1138.49C1153.5 1084.81 1158.25 1030.3 1162.13 976.461C1163.96 951.016 1164.11 925.73 1164.26 901.277C1164.58 850.186 1164.87 801.709 1179.13 751.84C1175.3 749.304 1171.92 746.124 1169.31 742.522C1160.04 729.747 1158.61 713.892 1158.43 700.067C1158.25 686.331 1159.11 672.622 1160.54 659.015C1151.2 652.478 1141.75 645.633 1137.57 635.843C1132.46 623.882 1133.83 608.188 1140.88 597.676C1146 590.053 1153.49 585.873 1162 585.873C1162.14 585.873 1162.27 585.874 1162.41 585.876C1165.39 585.922 1168.19 586.481 1170.8 587.399C1181.2 516.188 1186.92 438.149 1188.29 349.063L1188.29 348.9ZM1198.73 742.275C1201.33 742.33 1203.83 741.706 1205.96 740.249C1211.04 736.766 1213.77 729.288 1214.29 717.387C1215.86 681.698 1204.23 645.718 1182.23 617.609C1180.49 628.804 1178.77 640.134 1177.38 651.507C1183.89 656.326 1189.88 661.584 1193.39 668.218C1198.5 677.892 1201.85 690.516 1202.82 703.765C1203.81 717.126 1202.39 730.393 1198.73 742.275ZM1175.41 670.548C1174.61 680.341 1174.18 690.131 1174.31 699.858C1174.46 711.192 1175.51 724.017 1182.17 733.197C1182.76 734.015 1183.43 734.8 1184.15 735.54C1190.22 713.65 1186.52 689.222 1179.35 675.636C1178.44 673.921 1177.08 672.226 1175.41 670.548ZM1161.88 601.755C1160.46 601.755 1157.1 602.019 1154.07 606.53C1149.98 612.627 1149.16 622.547 1152.18 629.606C1153.85 633.522 1157.91 637.307 1162.72 640.993C1164.14 630.522 1165.76 620.136 1167.37 609.872C1167.69 607.833 1168.01 605.768 1168.34 603.692C1166.16 602.42 1164.12 601.788 1162.16 601.758C1162.08 601.756 1161.98 601.755 1161.88 601.755ZM1198.73 -51.8351C1201.33 -51.7871 1203.83 -52.4037 1205.96 -53.8615C1211.04 -57.3445 1213.77 -64.8229 1214.29 -76.7238C1215.86 -112.413 1204.23 -148.393 1182.23 -176.501C1180.49 -165.306 1178.77 -153.977 1177.38 -142.604C1183.89 -137.784 1189.88 -132.527 1193.39 -125.892C1198.5 -116.218 1201.85 -103.594 1202.82 -90.3454C1203.81 -76.984 1202.39 -63.7177 1198.73 -51.8351ZM1175.41 -123.561C1174.61 -113.768 1174.18 -103.979 1174.31 -94.2514C1174.46 -82.9173 1175.51 -70.093 1182.17 -60.9123C1182.76 -60.0942 1183.43 -59.3098 1184.15 -58.5691C1190.22 -80.4597 1186.52 -104.888 1179.35 -118.474C1178.44 -120.189 1177.08 -121.885 1175.41 -123.561ZM1161.88 -192.355C1160.46 -192.355 1157.1 -192.092 1154.07 -187.579C1149.97 -181.483 1149.16 -171.563 1152.18 -164.504C1153.85 -160.588 1157.91 -156.803 1162.72 -153.116C1164.14 -163.587 1165.76 -173.973 1167.37 -184.237C1167.69 -186.277 1168.01 -188.341 1168.33 -190.417C1166.16 -191.69 1164.12 -192.322 1162.16 -192.352C1162.08 -192.354 1161.98 -192.355 1161.88 -192.355ZM994.904 -24.0317L994.903 -24.0639V-24.0677C993.139 -85.2756 991.14 -154.645 995.132 -221.949C999.535 -296.181 1010.84 -359.719 1029.69 -416.196C1031 -420.117 1032.37 -424.081 1033.7 -427.915C1038.89 -442.944 1043.86 -457.309 1046.43 -471.997C1045.05 -472.011 1043.66 -472.173 1042.27 -472.489C1031.15 -475.017 1026.24 -485.765 1023.51 -493.63C1016.94 -512.541 1012.61 -531.766 1009.59 -551.6C1008.58 -552.096 1007.55 -552.592 1006.51 -553.092C991.233 -560.471 975.43 -568.102 969.399 -585.48C965.453 -596.848 967.858 -609.48 975.997 -620.136C982.615 -628.802 992.15 -635.054 1002.28 -637.797C999.742 -688.432 997.777 -741.575 996.437 -795.863C996.328 -800.248 999.795 -803.889 1004.18 -803.998C1008.56 -804.103 1012.21 -800.639 1012.31 -796.255C1013.65 -742.284 1015.6 -689.448 1018.12 -639.101C1045.08 -636.361 1064.53 -613.823 1073.83 -593.306C1081.01 -577.489 1084.55 -559.669 1084.08 -541.772C1083.61 -523.875 1079.14 -506.267 1071.14 -490.849C1068.91 -486.553 1066.34 -482.929 1063.54 -480.042C1061.61 -460.046 1055.06 -441.084 1048.71 -422.725C1047.4 -418.93 1046.04 -415.007 1044.76 -411.166C1003.22 -286.738 1007.06 -153.419 1010.78 -24.4882L1010.78 -24.4488C1012.26 35.2468 1016.18 116.669 1018.12 155.01C1045.08 157.75 1064.53 180.288 1073.83 200.805C1081.01 216.621 1084.55 234.441 1084.08 252.338C1083.61 270.235 1079.13 287.844 1071.14 303.261C1068.91 307.557 1066.34 311.181 1063.54 314.068C1061.61 334.064 1055.05 353.026 1048.71 371.386C1047.4 375.18 1046.04 379.103 1044.76 382.944C1003.22 507.372 1007.06 640.691 1010.78 769.622C1010.91 774.005 1007.45 777.662 1003.07 777.788C1002.99 777.789 1002.91 777.791 1002.84 777.791C998.558 777.791 995.028 774.385 994.904 770.078C993.14 708.862 991.14 639.478 995.132 572.162C999.534 497.93 1010.84 434.391 1029.69 377.915C1031 373.994 1032.37 370.029 1033.7 366.195C1038.89 351.167 1043.86 336.802 1046.43 322.114C1045.05 322.1 1043.66 321.938 1042.27 321.622C1031.15 319.095 1026.24 308.346 1023.51 300.481C1016.94 281.57 1012.61 262.345 1009.59 242.511C1008.58 242.015 1007.55 241.519 1006.51 241.02C991.233 233.64 975.43 226.009 969.399 208.632C965.453 197.263 967.858 184.631 975.997 173.974C982.615 165.31 992.148 159.057 1002.28 156.314C1000.35 118.123 996.389 36.1045 994.904 -24.0317ZM1027.47 252.965C1030.17 267.407 1033.72 281.475 1038.51 295.271C1040.81 301.904 1043.26 305.559 1045.8 306.135C1046.55 306.305 1047.34 306.207 1048.16 305.897C1048.82 283.432 1041.25 263.903 1027.47 252.965ZM1024.16 232.089C1028.66 234.497 1033.05 237.152 1037.07 240.308C1049.93 250.391 1058.65 265.84 1062.24 283.99C1071.01 259.399 1070.13 231.079 1059.37 207.365C1052.21 191.583 1038.01 174.336 1018.96 171.139C1020.12 192.327 1021.56 212.57 1024.16 232.089ZM1003.14 172.73C997.558 174.92 992.354 178.723 988.62 183.613C985.771 187.342 981.437 194.874 984.404 203.423C987.656 212.791 996.403 218.261 1007.12 223.635C1005.27 207.179 1004.11 190.261 1003.14 172.73ZM1027.47 -541.145C1030.17 -526.704 1033.72 -512.635 1038.51 -498.839C1040.81 -492.206 1043.26 -488.551 1045.8 -487.975C1046.55 -487.805 1047.34 -487.903 1048.16 -488.212C1048.82 -510.678 1041.25 -530.208 1027.47 -541.145ZM1024.16 -562.021C1028.66 -559.613 1033.05 -556.958 1037.07 -553.802C1049.93 -543.719 1058.65 -528.27 1062.24 -510.12C1071.01 -534.712 1070.13 -563.031 1059.37 -586.744C1052.21 -602.527 1038.01 -619.774 1018.96 -622.971C1020.12 -601.784 1021.56 -581.54 1024.16 -562.021ZM1003.14 -621.38C997.558 -619.19 992.354 -615.387 988.62 -610.497C985.771 -606.768 981.437 -599.236 984.404 -590.688C987.656 -581.32 996.403 -575.849 1007.12 -570.475C1005.27 -586.932 1004.11 -603.849 1003.14 -621.38ZM875.714 782.314C875.157 782.314 874.59 782.255 874.023 782.132C869.737 781.202 867.016 776.974 867.946 772.688C869.291 766.49 870.697 760.197 872.057 754.112C879.493 720.839 887.182 686.433 888.155 652.272C888.545 638.596 887.851 622.442 884.638 605.736C880.332 608.373 875.606 609.445 870.696 608.756C865.103 607.971 859.951 604.949 854.947 599.516C839.786 583.058 832.971 557.586 836.25 529.632C836.564 526.959 836.867 524.306 837.161 521.674C831.119 515.373 825.176 508.73 820.275 501.108C814.641 492.347 811.012 482.22 810.057 472.594C808.921 461.14 811.512 450.759 817.55 442.572C823.678 434.265 833.153 428.883 844.32 427.339C846.45 371.621 844.413 325.13 842.42 279.64C840.429 234.206 838.549 191.293 841.3 143.464C844.381 89.9271 852.856 37.4899 867.972 -21.5421C869.309 -27.7025 870.706 -33.9518 872.057 -39.9972C879.493 -73.271 887.182 -107.677 888.155 -141.839C888.545 -155.514 887.851 -171.668 884.638 -188.375C880.332 -185.738 875.605 -184.666 870.695 -185.355C865.104 -186.139 859.952 -189.162 854.947 -194.595C838.157 -212.823 836.477 -238.612 836.196 -263.464C836.159 -266.794 836.129 -270.154 836.108 -273.54C830.43 -279.515 824.891 -285.824 820.274 -293.003C814.64 -301.764 811.012 -311.891 810.057 -321.517C808.92 -332.97 811.511 -343.351 817.549 -351.538C822.297 -357.976 829.056 -362.657 837.054 -365.156C838.71 -435.324 842.214 -512.894 845.849 -593.406C846.592 -609.841 847.338 -626.354 848.072 -642.895C848.266 -647.277 851.975 -650.667 856.358 -650.477C860.739 -650.282 864.133 -646.573 863.938 -642.191C863.204 -625.645 862.458 -609.129 861.716 -592.689C858.125 -513.192 854.665 -436.568 852.989 -367.203C864.629 -366.791 876.137 -362.46 884.857 -355.013C900.114 -341.982 909.101 -321.297 911.565 -293.53C914.081 -265.197 910.129 -236.144 900.137 -209.511C899.319 -207.333 898.423 -205.284 897.456 -203.373C902.445 -184.241 904.657 -163.399 904.03 -141.387C903.013 -105.702 895.155 -70.5385 887.555 -36.5342C886.212 -30.5226 884.823 -24.3083 883.499 -18.2064C883.47 -18.0599 883.437 -17.9135 883.4 -17.7669C850.851 109.269 854.297 187.899 858.287 278.945C860.209 322.808 862.297 370.457 860.143 427.654C869.253 429.236 877.935 433.184 884.859 439.098C900.115 452.129 909.102 472.815 911.567 500.58C914.083 528.914 910.131 557.967 900.139 584.599C899.321 586.779 898.425 588.826 897.458 590.738C902.447 609.87 904.659 630.712 904.031 652.724C903.015 688.41 895.157 723.572 887.558 757.576C886.204 763.637 884.803 769.904 883.469 776.056C882.66 779.774 879.37 782.314 875.714 782.314ZM852.2 -256.73C852.722 -236.65 854.967 -218.013 866.627 -205.356C868.976 -202.807 871.145 -201.329 872.901 -201.082C875.44 -200.728 878.053 -202.704 880.356 -205.779C875.399 -222.102 867.616 -238.317 855.709 -252.672C854.568 -254.048 853.397 -255.396 852.2 -256.73ZM851.958 -279.989C852.476 -279.457 852.998 -278.924 853.521 -278.389C858.355 -273.445 863.354 -268.332 867.932 -262.813C876.561 -252.411 883.724 -240.53 889.341 -227.324C895.461 -248.267 897.672 -270.426 895.746 -292.126C893.661 -315.605 886.528 -332.7 874.543 -342.936C868.666 -347.956 860.626 -350.97 852.636 -351.317C852.129 -326.466 851.876 -302.613 851.958 -279.989ZM836.68 -347.785C834.377 -346.444 832.174 -344.61 830.332 -342.112C821.935 -330.727 825.939 -313.558 833.633 -301.594C834.414 -300.379 835.231 -299.188 836.079 -298.017C836.14 -314.082 836.348 -330.697 836.68 -347.785ZM851.546 536.654C850.115 557.897 855.503 576.678 866.628 588.754C868.976 591.304 871.145 592.781 872.902 593.028C875.444 593.381 878.053 591.407 880.356 588.331C875.399 572.009 867.617 555.793 855.709 541.437C854.361 539.812 852.972 538.226 851.546 536.654ZM853.758 515.963C858.518 520.832 863.429 525.868 867.933 531.297C876.562 541.7 883.724 553.581 889.342 566.787C895.462 545.844 897.673 523.685 895.746 501.985C893.662 478.505 886.528 461.41 874.543 451.175C870.342 447.587 865.037 445.023 859.434 443.727C858.299 466.229 856.488 490.206 853.758 515.963ZM843.588 443.614C839.103 444.682 834.003 447.021 830.332 451.999C821.935 463.383 825.939 480.552 833.633 492.516C835.385 495.242 837.313 497.843 839.376 500.376C841.305 480.323 842.667 461.488 843.588 443.614ZM705.377 72.2811C708.583 82.4131 713.923 91.457 722.782 95.0178C725.176 95.9806 727.49 96.3495 729.667 96.3096C729.532 95.0881 729.362 93.924 729.149 92.8212C726.925 81.2512 719.303 76.7946 705.377 72.2811ZM701.702 54.553C711.151 57.321 720.061 60.0036 727.567 64.7072C736.957 70.5932 742.566 78.7434 744.707 89.6192C753.962 81.2468 759.027 67.4276 756.824 56.1722C753.481 39.1009 739.986 24.461 723.243 19.742C715.683 17.6117 707.632 17.5512 699.991 19.306C699.763 29.7585 700.161 40.8259 701.555 53.2915C701.602 53.7092 701.651 54.1299 701.702 54.553ZM684.037 26.0994C680.945 28.1366 678.095 30.5372 675.581 33.2742C672.501 36.6287 670.928 39.6977 671.153 41.9166C671.559 45.9444 677.094 48.0992 685.27 50.2177C684.449 41.6124 684.077 33.6579 684.037 26.0994ZM705.377 866.391C708.583 876.523 713.923 885.567 722.782 889.128C725.176 890.091 727.49 890.46 729.667 890.42C729.532 889.198 729.362 888.034 729.149 886.931C726.925 875.362 719.303 870.905 705.377 866.391ZM701.702 848.663C711.151 851.431 720.061 854.114 727.567 858.818C736.957 864.704 742.566 872.854 744.707 883.729C753.962 875.357 759.027 861.538 756.824 850.282C753.481 833.211 739.986 818.571 723.243 813.852C715.683 811.722 707.632 811.661 699.991 813.416C699.763 823.869 700.161 834.936 701.555 847.402C701.602 847.819 701.651 848.24 701.702 848.663ZM684.037 820.21C680.945 822.247 678.095 824.648 675.581 827.385C672.501 830.739 670.928 833.808 671.153 836.027C671.559 840.055 677.094 842.21 685.27 844.328C684.449 835.723 684.077 827.768 684.037 820.21Z" fill="#4D4D4D" style="mix-blend-mode:exclusion"/>
<path d="M960.082 401.324C967.747 399.419 970.949 401.813 972.176 392.425C974.488 374.737 991.352 343.429 1011.66 363.47C1012.68 367.798 1013.05 368.809 1016.11 371.804C1017.51 370.629 1020 368.408 1021.49 367.579L1021.21 368.105L1021.23 367.707L1021.62 367.578L1021.02 368.296L1020.78 367.983L1020.87 368.458C1019.89 369.437 1017.71 371.769 1016.76 372.565C1021.81 381.615 1019.67 389.965 1020.12 399.818C1020.21 401.802 1021.9 403.327 1021.9 405.421C1019.23 408.686 1024.18 410.647 1024.65 412.158C1027.1 420.051 1027.93 423.328 1035.16 428.626C1042.79 434.205 1052.58 437.251 1059.42 444.275C1060.55 443.842 1061.76 443.406 1062.87 442.949C1064.27 444.568 1065.84 446.486 1067.31 447.993C1068.24 458.206 1077.66 458.744 1079.02 466.183C1079.93 471.204 1077.72 481.602 1077.83 488.354C1067.65 498.809 1050.93 507.788 1036.07 508.172C1027.43 508.396 1021.38 504.925 1016.18 498.251C1018.38 516.716 1019.34 534.697 1016.61 553.217C1016.16 556.221 1015.33 561.151 1015.88 564.123C1018.55 578.574 1018.47 594.077 1023.9 607.845C1025.46 611.792 1029.37 615.719 1031.64 619.296C1036.42 626.45 1038.91 634.441 1040.63 642.756C1041.9 649.033 1042.64 655.407 1042.84 661.809C1043.3 673.5 1041.97 696.844 1046.96 706.429C1048.17 708.224 1049.03 709.577 1050.08 711.465C1049.04 715.81 1048.12 719.779 1046.69 724.032C1039.52 728.522 1039.81 727.665 1032 728.775C1018.29 730.723 1022.41 719.914 1028.46 718.149C1029.95 714.194 1032.96 699.699 1033.15 695.575C1033.8 680.903 1032.29 666.221 1025.27 653.099C1022.34 647.619 1018.9 641.324 1016.61 635.616C1014.65 630.723 1014.24 624.241 1012.75 619.097C1011.77 615.758 1009.65 614.657 1008.09 611.853C1007.52 610.835 1006.6 607.192 1006.1 605.712C1004.71 601.595 1001.76 597.002 999.046 593.62C997.953 592.259 996.414 591.823 994.959 591.837C992.852 591.86 994.115 586.886 992.099 585.275C989.61 583.285 986.734 583.475 983.824 583.532C978.757 588.698 976.03 590.41 969.862 593.991C970.529 604.826 968.531 608.914 967.484 619.155C967.038 623.514 968.416 630.412 967.945 635.791C965.703 661.413 960.859 688.44 966.434 713.969C967.036 714.5 969.769 715.738 970.656 716.166C973.515 724.98 974.845 727.165 964.096 727.239C960.757 727.262 958.892 727.46 955.445 726.863C951.974 723.436 951.075 723.354 946.707 721.159C946.289 715.824 946.81 712.349 947.402 707.032C948.37 704.353 950.069 702.458 950.863 700.657C955.325 690.542 952.476 671.044 951.042 660.558C949.924 652.385 946.206 641.996 946.941 633.796C948.501 616.371 956.377 615.296 951.13 596.561C948.816 595.456 948.371 595.062 947.29 592.878L941.523 591.874L943.476 585.128C942.503 584.461 942.155 584.07 941.033 584.015C939.628 584.789 938.242 587.436 937.096 589L931.688 588.969C927.422 582.908 925.292 580.42 924.104 572.981C941.921 573.365 940.035 550.963 941.616 537.731C937.053 537.83 931.665 538.627 926.883 538.865C924.655 545.118 922.877 551.211 921.013 557.571C908.197 556.842 867.573 549.475 857.654 541.97C851.744 537.497 847.217 528.949 840.401 526.169L840.031 526.021C840.008 524.568 839.875 521.525 840.416 520.309C842.503 515.619 845.268 511.023 847.453 506.374L863.026 472.507C866.259 465.645 866.532 462.516 871.531 456.743L871.233 455.555L871.754 455.299C874.75 455.73 880.137 458.369 882.969 459.693C883.832 458.86 884.517 458.259 885.445 457.498C884.861 458.711 884.263 459.641 884.26 460.96C885.349 462.118 896.927 465.063 898.633 463.795C898.206 460.999 897.526 454.082 896.677 451.976L896.283 450.762L896.547 450.317L896.21 449.819C892.038 450.215 893.219 458.864 889.74 460.706L889.225 460.44C890.56 456.829 891.985 453.396 893.463 449.84L884.406 450.143C882.88 448.164 881.066 446.444 881.262 444.091C884.658 443.502 891.768 443.488 895.511 443.365L900.756 443.143L902.314 442.864L906.639 442.837C909.425 442.813 912.691 442.585 915.508 442.45C916.61 442.39 916.878 442.286 917.818 442.764C918.147 444.267 917.592 445.159 917.111 446.817C921.444 446.954 923.507 445.194 923.306 445.173C927.638 445.627 933.724 442.497 937.424 441.914C943.463 433.238 948.306 422.925 953.303 413.582C955.29 409.867 957.733 404.7 960.082 401.324Z" fill="black"/>
<path d="M1046.96 706.428C1048.17 708.223 1049.03 709.576 1050.08 711.464C1049.04 715.809 1048.12 719.778 1046.69 724.031C1039.52 728.52 1039.81 727.664 1032 728.774C1018.29 730.722 1022.41 719.913 1028.46 718.148C1031.73 718.271 1033.87 718.336 1037.1 718.875C1044.93 714.709 1046.17 715.246 1046.96 706.428Z" fill="#C90201"/>
<path d="M947.403 707.031C950.697 712.601 946.765 715.241 955.553 719.118C958.393 716.616 959.467 715.697 963.214 714.677C964.08 714.442 965.701 714.281 966.434 713.968C967.036 714.498 969.77 715.737 970.657 716.165C973.516 724.979 974.846 727.164 964.097 727.238C960.758 727.261 958.893 727.459 955.446 726.862C951.975 723.434 951.076 723.353 946.708 721.157C946.29 715.823 946.811 712.348 947.403 707.031Z" fill="#C90201"/>
<path d="M1016.11 371.804C1017.51 370.629 1020 368.408 1021.49 367.579L1021.21 368.105L1021.23 367.708L1021.62 367.578L1021.02 368.296L1020.78 367.983L1020.87 368.458C1019.89 369.437 1017.71 371.769 1016.76 372.566C1015.79 373.536 1015.16 374.525 1014.37 375.645C1014.18 379.996 1014.08 385.568 1014.34 389.839L1003.04 398.694L1001.22 394.866C1003.96 392.36 1007.06 390.824 1009.68 387.972C1010.13 382.63 1010.51 377.284 1010.84 371.933C1011.75 372.818 1012.08 373.299 1013.3 373.655C1014.49 373.525 1015.17 372.657 1016.11 371.804Z" fill="#C90201"/>
<path d="M1037.4 436.15C1040.48 438.022 1046.26 446.442 1047.7 450.468C1044.76 451.452 1041.78 452.53 1038.85 453.556C1036.8 454.273 1032.52 455.603 1030.6 454.675C1027.94 446.15 1040.09 450.107 1037.65 441.05C1037.37 440.023 1037.33 437.238 1037.4 436.15Z" fill="white"/>
<path d="M901.899 453.887L904.195 455.295L905.114 454.593C906.279 454.876 906.111 457.83 907.413 459.788C908.358 458.978 906.141 457.018 906.86 455.314C908.194 455.444 908.554 456.226 909.885 457.265C912.705 456.871 916.645 458.513 916.247 461.476C915.215 462.059 914.454 461.826 913.239 461.699L912.903 461.317C912.937 462.267 912.915 462.245 912.656 463.105C910.708 464.199 908.079 465.02 905.925 464.152C905.412 463.505 905.357 463.396 904.694 462.863L904.323 463.329C904.328 464.248 904.414 464.685 903.987 465.504C902.41 466.292 903.003 466.234 901.489 466.129C900.114 465.174 899.4 463.303 900.419 461.871L901.357 462.21C901.508 462.051 901.786 454.9 901.899 453.887Z" fill="white"/>
<path d="M1039.42 433.26C1040.82 433.558 1044.62 435.604 1045.7 436.831C1047.13 438.465 1046.99 438.784 1046.96 440.861C1044.86 439.657 1040.48 435.739 1039.42 433.26Z" fill="white"/>
<path d="M881.263 444.09C880.945 442.563 877.688 411.58 877.829 410.843C878.563 410.499 914.087 409.979 917.211 410.403C918.698 412.354 915.87 438.092 915.509 442.449C912.692 442.583 909.426 442.812 906.64 442.836L902.315 442.863L900.757 443.142L895.511 443.364C891.769 443.486 884.659 443.501 881.263 444.09Z" fill="#C90201"/>
<path d="M894.747 443.535C895.265 435.723 896.55 417.271 897.933 410.15C899.069 420.602 900.122 432.756 901.09 443.276L894.747 443.535Z" fill="white"/>
<path d="M887.171 420.978C890.82 420.053 894.536 422.234 895.505 425.871C896.475 429.507 894.339 433.247 890.713 434.26C888.327 434.926 885.768 434.259 884.011 432.514C882.256 430.768 881.575 428.213 882.229 425.826C882.882 423.438 884.77 421.586 887.171 420.978Z" fill="white"/>
<path d="M907.685 420.978C911.335 420.053 915.051 422.234 916.02 425.871C916.99 429.507 914.853 433.247 911.227 434.26C908.842 434.926 906.282 434.259 904.526 432.514C902.77 430.768 902.089 428.213 902.743 425.826C903.397 423.438 905.285 421.586 907.685 420.978Z" fill="white"/>
<path d="M892.919 380.04C906.761 378.874 890.462 393.235 888.645 396.8C888.108 397.854 889.898 399.661 890.187 400.557C888.766 400.753 888.29 400.575 886.905 400.296C883.994 392.583 896.685 387.501 892.756 384.567C889.725 384.133 888.064 385.046 885.303 386.162C887.779 382.352 888.613 381.456 892.919 380.04Z" fill="#C90201"/>
<path d="M901.906 391.48C902.863 392.422 902.389 393.795 902.779 394.79C905.395 401.478 916.112 398.377 907.573 408.063C909.659 401.548 905.419 402.737 901.16 399.695C898.154 397.549 900.162 393.675 901.906 391.48Z" fill="#C90201"/>
<path d="M896.678 451.975C895.361 454.175 896.637 455.476 895.63 457.182C895.233 454.455 895.318 453.332 896.284 450.762L896.678 451.975Z" fill="#605F60"/>
</g>
<path d="M424 557.065C477.948 548.279 518.703 538.321 546.263 527.191C573.824 515.476 593.468 499.367 605.196 478.865C616.924 458.363 622.788 429.075 622.788 391C622.788 353.511 616.924 324.515 605.196 304.013C593.468 282.926 573.824 266.817 546.263 255.688C518.703 243.972 477.948 233.721 424 224.935V211.755C482.639 208.826 525.446 202.09 552.421 191.546C579.395 180.416 598.453 161.086 609.594 133.555C620.736 105.438 627.772 60.9199 630.704 0L648.296 0C651.228 60.9199 658.264 105.438 669.406 133.555C680.547 161.086 699.605 180.416 726.579 191.546C753.554 202.09 796.361 208.826 855 211.755V224.935C801.052 233.721 760.297 243.972 732.737 255.688C705.176 266.817 685.532 282.926 673.804 304.013C662.076 324.515 656.212 353.511 656.212 391C656.212 429.075 662.076 458.363 673.804 478.865C685.532 499.367 705.176 515.476 732.737 527.191C760.297 538.321 801.052 548.279 855 557.065V570.245C796.361 573.174 753.554 580.203 726.579 591.333C699.605 601.876 680.547 621.207 669.406 649.324C658.264 676.855 651.228 721.08 648.296 782H630.704C627.772 721.08 620.736 676.855 609.594 649.324C598.453 621.207 579.395 601.876 552.421 591.333C525.446 580.203 482.639 573.174 424 570.245V557.065Z" fill="#DC1B2E"/>
<defs>
<clipPath id="clip0_96_11118">
<rect width="640" height="782" fill="white"/>
</clipPath>
<clipPath id="clip1_96_11118">
<rect width="640" height="782" fill="white" transform="translate(640)"/>
</clipPath>
</defs>
</svg>
