<svg width="640" height="782" viewBox="0 0 640 782" fill="none" xmlns="http://www.w3.org/2000/svg">
<g clip-path="url(#clip0_135_121)">
<rect width="640" height="782" fill="black"/>
<path d="M85.1562 521.58C91.2398 517.746 91.462 493.539 112.564 513.374L103.06 514.958L112.565 597.311C108.288 595.219 104.232 594.681 103.091 600.415C120.55 603.869 111.646 622.247 113.928 635.429C115.987 647.406 125.367 664.295 131.07 675.48C149.702 712.109 177.617 744.144 194.949 781.09C177.363 768.637 164.752 740.183 149.099 727.065C146.056 724.531 136.139 725.544 133.192 717.749L130.12 724.087L118.997 717.718C126.602 739.549 115.798 736.16 106.229 747.757C98.8143 756.756 100.303 771.14 87.2803 768.447L87.2793 771.552C95.0353 770.54 93.4766 776.972 93.5977 782H28.0078C30.3301 777.069 32.7297 770.765 30.0859 765.342L30.1807 765.278L42.9189 763.726L33.1602 760.399C30.6886 749.88 36.2013 737.426 36.2646 728.522C36.3597 716.735 37.279 675.228 35.3779 665.975C34.0471 659.416 28.0585 653.775 27.6465 649.054C27.33 645.473 31.9878 642.716 31.7979 638.344C31.0055 619.839 20.1059 597.469 26.0625 578.965C27.6468 574.054 59.0776 527.636 61.8994 526.08C68.1099 522.627 78.6924 525.699 85.1562 521.58ZM554.619 213.938C556.489 222.841 560.893 216.157 565.266 222.019C569.638 227.881 597.931 296.599 597.586 300.853C597.491 301.898 587.415 307.856 584.722 316.981L591.026 321.671L578.385 326.487L584.688 331.177L575.152 331.24L578.669 342.045L571.983 345.468L581.553 347.052L572.047 353.421L581.521 359.694L572.047 359.758L577.846 363.18V378.326L565.71 386.659L572.015 391.349L553.035 400.854C563.491 405.829 567.896 415.398 581.489 407.224C581.281 453.259 604.156 469.457 640 485.655V516.998C628.872 519.764 619.344 514.906 608.581 514.798C575.691 514.481 539.441 517.808 511.843 533.937C508.009 528.866 523.503 499.05 507.09 505.45C498.441 508.84 506.582 518.155 505.126 520.723C504.682 521.515 498.978 522.783 496.443 526.363C487.761 538.562 482.977 549.843 476.608 563.024C474.897 566.573 466.754 567.239 470.651 578.297L473.788 568.791L489.568 576.744C477.654 583.81 470.873 579.311 470.651 597.341L480.157 600.509H467.451L467.45 610.015L480.125 613.151L457.977 619.553L464.282 627.41L454.808 632.227L464.346 635.363L462.54 645.091L470.557 649.591C461.114 664.673 451.354 677.633 445.302 693.983L453.351 698.482L451.639 708.242L457.977 706.657L438.966 730.358L457.945 735.143L454.745 743.065L448.471 736.759C448.946 745.694 439.884 745.504 432.597 746.265C436.874 753.457 444.859 750.733 442.166 763.376C427.692 769.301 441.606 773.794 442.256 782H391.73C391.542 778.417 391.162 774.593 392.164 770.758C393.337 766.195 399.199 762.33 400.435 756.658C403.255 743.699 392.894 736.569 394.637 724.085L400.91 727.316L397.963 715.974C408.166 714.168 398.439 707.196 404.079 698.799L393.052 705.073L388.268 698.8L394.573 694.046L386.81 689.294C376.607 688.502 375.434 698.609 370.618 701.556C352.716 712.456 306.676 709.288 285.478 711.601C278.76 712.33 263.582 724.306 258.386 714.643C312.094 690.403 366.974 661.536 408.863 619.615L426.26 667.081L423.154 578.392L435.796 581.528C418.75 564.355 436.81 548.544 432.597 529.343L438.934 530.895L435.828 514.988L442.165 516.541L446.823 486.438L467.546 426.299L473.82 429.499C469.448 417.047 481.455 411.946 482.629 409.664C485.29 404.499 492.324 374.272 495.271 367.109C502.78 348.89 515.962 333.332 515.012 312.261H527.687L521.254 301.17C528.985 299.11 526.831 286.024 530.981 277.405L537.192 280.574C532.661 269.041 538.333 259.661 541.977 248.571L549.835 248.856L554.619 213.938ZM640 207.14C635.728 215.001 625.247 215.406 616.312 219.583L610.164 274.179C609.689 264.388 603.098 257.416 599.327 249.146C591.247 231.593 592.642 238.975 581.615 225.097C561.209 199.368 548.217 150.951 510.447 149.05C494.414 148.226 480.029 159.285 464.187 155.451L451.67 185.458L440.58 179.152L442.164 188.626L423.185 182.321L442.164 191.827L435.858 198.1L458.007 207.701L451.639 226.682L442.164 223.513C444.509 227.854 440.358 245.471 438.425 248.291C436.238 251.459 428.032 248.862 426.923 249.686C423.659 252.221 419.571 266.891 413.805 269.331C410.097 270.883 400.877 265.687 394.635 274.21L400.94 261.567L385.129 264.736L399.325 283.209L410.414 277.348C409.052 298.672 402.081 320.98 400.813 342.178C399.261 367.685 412.284 432.64 392.734 448.167C378.381 459.574 373.913 428.617 366.055 418.382C361.143 411.981 355.249 407.355 347.296 405.454C334.178 402.317 312.156 404.061 297.834 404.631C295.933 404.694 296.598 410.302 294.476 410.619C288.234 411.633 280.787 405.011 275.179 404.789C270.901 404.631 263.391 412.203 255.185 407.26L258.353 416.702C244.887 410.777 242.066 420.949 231.356 429.473C225.843 433.877 217.826 429.758 220.234 441.957L198.973 442.812L198.148 461.063L188.834 458.18L185.507 464.231C186.235 449.499 166.337 464.358 169.6 473.737L166.432 467.4L156.989 473.738L153.82 454.758C150.367 481.025 136.362 472.787 117.287 479.979L114.149 473.801L122.103 461.095C116.462 456.66 102.267 479.441 96.9121 481.438C93.7435 482.641 89.529 479.505 84.3643 481.628C72.0383 486.666 48.1787 507.42 37.5322 510.62C32.0189 512.299 24.0346 508.53 17.5391 510.114C11.9138 511.498 6.06088 514.376 0 517.545V440.593C4.66592 439.157 8.02446 437.891 8.0957 437.299L0 399.188V378.334L1.66309 378.742V372.438C1.11921 372.412 0.563692 372.242 0 371.943V108.039C7.53013 124.71 14.6346 140.935 20.4854 156.274C25.3016 168.885 22.7672 202.314 42.9824 201.301L39.7822 210.774L46.0879 207.543L46.0869 217.111C29.7711 207.956 47.7648 233.966 46.0879 236.092L39.8145 239.229L55.625 248.83L49.3506 253.424C58.5711 267.968 57.2729 290.528 64.4336 304.945C68.5211 313.215 102.775 339.452 112.249 345.853C130.595 358.242 153.346 369.586 173.91 377.982C195.616 376.112 257.814 329.153 271.122 310.617C279.329 299.179 271.82 292.684 291.973 290.086C286.903 262.075 303.221 274.4 310.509 267.841C315.895 262.993 319.38 252.854 318.651 245.598L331.294 251.872C313.17 234.096 344.633 228.012 348.531 217.207C349.862 213.5 345.934 208.779 348.596 204.501C354.458 195.154 375.56 177.504 380.376 162.992C387.505 141.541 395.966 135.964 408.799 115.399C430.63 80.4362 456.011 36.8402 478.165 0H580.189C582.012 1.34042 583.574 3.29722 584.562 6.36719L578.352 11.0889L572.014 4.81543L570.62 10.835L559.308 7.85645L562.508 1.58301L546.633 4.75195C551.924 17.2044 554.998 21.8936 568.781 17.3945C565.993 60.2974 574.2 102.186 581.52 144.139L581.583 144.267C593.845 146.453 583.39 135.014 584.752 128.423L594.226 134.728C590.519 120.216 603.383 109.728 591.058 93.5996L600.531 103.073C600.975 97.5602 599.518 91.6354 600.658 86.249C600.753 85.7104 603.13 82.6041 604.841 78.5166C605.191 77.6616 610.004 77.756 610.132 75.9189C610.417 71.9265 604.873 64.511 606.9 58.7441L619.543 61.8818C621 60.1694 615.361 46.071 616.406 41.9199C616.691 40.7475 622.553 28.6111 624.961 21.3232C627.323 14.1546 629.91 7.05989 632.604 0H640V207.14Z" fill="#4D0000"/>
<path d="M281.27 226C283.596 235.179 286.228 240.235 295.527 243.968C308.091 241.11 314.846 242.445 322.075 253.808C322.443 253.766 322.812 253.718 323.178 253.664C334.515 251.973 337.59 244.301 344.238 235.349C344.384 250.776 344.177 274.542 325.656 279.587C321.509 295.805 313.263 291.971 306.023 300.678C308.363 302.509 310.677 304.372 312.966 306.266C316.517 305.363 318.032 306.53 318.36 310.185L321.43 311.664C325.184 311.056 328.286 310.572 332.004 311.864C342.266 315.432 349.144 326.851 353.919 336.03C351.887 340.981 350.605 345.632 350.722 351.039C351.021 364.885 354.135 377.689 355.259 391.755C356.596 408.484 353.618 424.122 356.593 440.112C358.427 449.966 363.763 460.26 366.699 469.88C371.081 484.24 373.267 500.204 374.475 515.165C395.214 520.858 416.895 515.344 430.009 497.452C434.44 491.407 438.558 485.29 443.229 479.416C442.577 478.739 442.09 478.471 441.317 477.966C441.668 476.5 453.895 470.489 456 469.596C455.389 472.856 451.53 483.611 449.699 485.927C448.857 485.827 448.679 485.591 447.981 485.096C445.846 486.156 443.08 490.139 441.572 492.117C436.225 499.125 431.681 505.87 425.045 511.801C412.211 523.271 391.291 525.915 375.075 521.642C376.241 541.971 376.646 564.91 378.393 584.751C367.788 586.668 358.488 584.191 347.531 584.528C345.842 588.089 344.135 593.187 342.479 596.199C336.686 598.071 331.454 598.898 325.77 601.17C328.155 617.005 332.661 641.137 342.435 653.887C336.909 659.076 333.774 661.956 328.89 667.823L328.407 667.776C328.547 664.327 329.752 661.752 327.99 659.272C322.123 656.82 320.564 665.224 318.239 668.179C317.664 668.911 315.367 668.026 314.194 669.162C312.832 676.893 323.65 691.871 325.118 700.733C326.181 707.152 326.371 707.214 325.885 714.201C317.134 711.145 312.881 705.971 308.803 697.774C304.697 689.522 301.447 674.747 303.356 665.826C305.198 657.222 306.908 652.98 307.018 643.676C307.204 628.136 304.731 615.014 301.379 600.012C287.846 598.816 271.671 598.967 265.288 584.822C262.773 585.013 235.398 583.397 234.308 582.852C233.097 580.541 234.574 576.219 235.076 573.327C230.997 571.667 228.87 571.166 224.502 570.523C232.145 538.089 236.057 505.267 244.25 473.22C233.402 473.131 222.554 473.12 211.705 473.186C203.416 473.221 194.841 473.54 186.625 472.607C181.981 455.519 188.152 442.528 194.325 427.369C196.362 422.367 198.02 412.146 198.652 406.772C202.701 406.524 205.023 406.459 209.077 407.389C212.321 401.647 215.125 394.395 217.114 388.624C219.466 381.798 223.843 367.557 232.505 366.475C243.768 365.068 252.407 367.579 264.303 364.41C272.513 371.669 278.544 379.737 288.337 384.741C281.988 376.924 278.865 370.281 274.677 361.175C270.852 352.859 268.758 353.91 269.019 344.124C269.359 331.351 286.69 324.354 287.76 314.433C286.389 313.868 285.497 312.895 284.992 311.527C285.324 308.656 286.687 308.266 289.433 308.216C288.091 303.646 287.587 297.228 288.227 292.523C286.386 288.734 277.387 273.938 274.83 270.058C274.89 266.895 275.204 265.706 275.942 262.579C271.394 251.949 278.964 238.229 281.27 226Z" fill="#FF0000"/>
<path d="M312.966 306.266C316.517 305.363 318.032 306.529 318.36 310.184C316.41 313.442 315.431 313.04 312.297 311.95C310.67 312.622 309.888 314.677 308.249 315.918C306.801 317.016 303.312 315.902 301.195 315.601C300.37 316.152 299.863 316.553 299.095 317.184C296.933 316.858 296.143 315.58 296.516 313.443C297.449 312.176 296.944 312.573 298.466 311.986C300.043 312.022 300.445 312.483 301.734 313.422L302.185 313.753C306.62 311.705 309.949 310.116 312.966 306.266Z" fill="#C90201"/>
<path d="M287.759 314.433C286.388 313.868 285.496 312.895 284.991 311.527C285.323 308.656 286.687 308.266 289.432 308.216C292.064 311.364 289.591 313.829 294.615 313.895C295.14 313.902 295.037 314.058 295.557 314.679C295.652 316.041 295.647 316.082 295.039 317.274C292.04 318.532 289.56 314.934 287.759 314.433Z" fill="#C90201"/>
<path d="M216.156 408.074C217.214 407.543 217.129 407.9 217.454 406.782C218.64 402.698 218.433 398.386 219.281 394.245C220.945 386.12 223.198 373.73 230.976 369.344C232.957 368.227 237.217 367.496 239.146 368.59C239.71 370.955 236.634 372.709 239.78 374.871C241.699 376.189 245.456 376.406 247.769 376.633C252.814 388.267 252.451 396.345 255.206 408.45C243.292 410.422 242.077 419.682 229.087 415.656C224.808 414.329 221.63 412.05 218.14 410.727L217.093 409.932C216.892 409.404 216.393 408.887 216.016 408.418L216.156 408.074Z" fill="black"/>
<path d="M283.451 398.445C283.542 397.248 283.559 396.87 283.868 395.721C285.979 394.171 289.952 396.204 292.262 397.038C293.071 396.27 294.107 394.867 295.283 395.048C300.306 395.819 305.159 396.471 310.258 396.245C312.475 396.147 313.146 396.079 314.731 397.537C315.928 400.158 317.098 401.054 319.268 402.953C318.288 406.255 316.815 409.611 317.716 412.851L317.401 414.231L314.265 416.672C314.03 417.021 312.018 418.406 311.535 418.756C303.747 417.715 300.922 417.707 292.999 418.059C290.867 414.727 287.268 413.467 287.269 409.839C285.295 409.394 282.434 409.009 281.127 407.545C282.63 405.956 283.096 400.783 283.451 398.445Z" fill="black"/>
<path d="M283.451 398.444C283.542 397.247 283.559 396.869 283.868 395.72C285.979 394.17 289.952 396.203 292.262 397.037L292.884 398.366C289.659 400.867 289.054 401.722 289.928 405.942C289.32 406.908 288.003 409.175 287.269 409.838C285.295 409.393 282.434 409.008 281.127 407.544C282.63 405.955 283.096 400.782 283.451 398.444Z" fill="#C90201"/>
<path d="M292.262 397.038C293.071 396.27 294.107 394.867 295.283 395.048C300.306 395.819 305.159 396.471 310.258 396.245C312.475 396.147 313.146 396.079 314.731 397.537C315.928 400.158 317.098 401.054 319.268 402.953C318.287 406.255 316.815 409.611 317.716 412.851L317.401 414.231C317.137 413.633 316.088 412.294 316.057 411.881C315.661 406.709 317.961 400.236 311.891 397.226C309.384 395.98 306.319 398.268 303.82 398.31C299.757 398.379 296.801 396.594 292.884 398.367L292.262 397.038Z" fill="#E77A7C"/>
<path d="M289.928 405.942C290.136 407.674 290.014 408.616 289.873 410.32C294.511 419.359 295.87 416.061 304.584 416.008C306.443 415.997 309.425 417.585 311.257 417.034C311.771 416.594 314.477 413.981 314.767 413.915C314.347 414.972 313.891 415.657 314.264 416.67C314.03 417.02 312.018 418.404 311.535 418.754C303.747 417.714 300.922 417.705 292.999 418.058C290.867 414.725 287.268 413.466 287.269 409.837C288.003 409.174 289.32 406.907 289.928 405.942Z" fill="#CC5A61"/>
<path d="M250.894 376.599C274.77 378.942 268.527 384.783 283.029 398.062L283.45 398.444C283.095 400.782 282.629 405.955 281.126 407.544C278.545 407.873 273.671 413.508 271.598 415.677C270.966 411.726 271.574 413.965 269.884 411.225C266.347 405.489 267.385 408.716 262.037 407.979L261.402 407.735C260.692 405.337 260.026 401.834 259.333 399.187C257.117 390.716 254.706 384.395 250.894 376.599Z" fill="black"/>
<path d="M328.966 396.489C332.633 390.744 336.522 388.147 339.91 381.721C340.667 393.397 341.716 403.859 338.742 415.327C338 414.487 336.847 413.084 336.039 412.403C331.839 413.451 322.294 412.247 317.715 412.849C316.815 409.609 318.287 406.253 319.267 402.951C317.097 401.053 315.928 400.156 314.73 397.536C319.379 397.301 324.392 397.151 328.966 396.489Z" fill="#C90201"/>
<path d="M328.966 396.489C332.633 390.744 336.522 388.147 339.91 381.721C340.666 393.397 341.716 403.859 338.742 415.327C338 414.487 336.847 413.084 336.039 412.403C337.765 403.393 338.207 401.265 330.74 399.924C329.785 399.753 329.278 397.515 328.966 396.489Z" fill="black"/>
<path d="M285.832 259.023C287.937 259.765 289.608 260.258 291.503 261.439C294.837 262.805 296.402 263.839 298.998 266.349C300.927 268.006 301.302 268.836 302.87 270.554C307.157 269.223 320.691 265.948 322.919 271.199C322.887 272.799 321.085 275.761 319.935 276.847C319.303 277.559 318.523 278.285 318.187 279.121C317.129 281.71 313.582 282.012 311.152 282.511C304.558 280.181 303.232 279.379 302.678 272.028C298.646 275.083 292.555 280.906 288.135 274.109L287.639 274.034C286.133 273 285.182 271.341 284.111 269.807C284.586 265.733 284.586 262.981 285.832 259.023Z" fill="#C90201"/>
<path d="M304.538 274.822C309.507 275.56 314.968 276.486 319.936 276.847C319.303 277.559 318.523 278.285 318.188 279.121C312.124 281.739 306.021 283.316 304.538 274.822Z" fill="black"/>
<path d="M288.135 274.109L287.921 273.753C286.727 271.798 284.88 270.804 284.993 267.264L285.579 266.863C287.631 267.413 289.471 269.503 292.114 270.671C293.847 271.423 296.135 272.194 297.282 273.6L297.56 274.615C295.567 277.223 290.5 275.314 288.135 274.109Z" fill="black"/>
<path d="M291.502 261.439C294.836 262.805 296.402 263.839 298.997 266.349L298.363 266.564C296.223 265.459 293.004 263.303 291.502 261.439Z" fill="#E77A7C"/>
<path d="M254.335 409.627C255.769 408.868 257.365 407.669 258.727 406.714L259.219 407.49C260.146 407.791 260.426 407.797 261.402 407.736L262.038 407.979C262.326 409.055 263.397 412.665 263.313 413.525C261.287 411.193 261.361 407.023 257.124 408.822C255.187 410.894 256.145 413.019 256.066 416.625C255.219 414.119 254.853 412.196 254.335 409.627Z" fill="black"/>
<path d="M208.916 413.828C209.235 410.942 211.286 405.334 214.562 405.071L214.948 405.492L214.061 406.243C214.449 407.107 215.268 407.454 216.156 408.075L216.016 408.42C212.059 406.183 210.612 410.993 208.916 413.828Z" fill="black"/>
<path d="M217.093 409.931L218.14 410.727C217.255 412.65 216.242 414.579 215.279 416.47C215.797 413.757 216.17 412.555 217.093 409.931Z" fill="black"/>
</g>
<defs>
<clipPath id="clip0_135_121">
<rect width="640" height="782" fill="white"/>
</clipPath>
</defs>
</svg>
