<svg width="1280" height="782" viewBox="0 0 1280 782" fill="none" xmlns="http://www.w3.org/2000/svg">
<g clip-path="url(#clip0_96_11130)">
<rect width="640" height="782" fill="#FF0000"/>
<path d="M378.697 673.472C385.074 668.076 393.658 657.775 404.449 642.569C415.24 626.873 427.503 606.271 441.237 580.765L575.147 331.34C586.919 309.267 595.749 289.401 601.635 271.743C608.011 254.084 611.2 239.859 611.2 229.068C611.2 215.824 607.766 205.524 600.899 198.166C594.032 190.318 581.279 184.677 562.639 181.243C544.49 177.319 517.512 174.621 481.705 173.15V162.113H736.28V165.792C734.318 166.773 732.601 168.98 731.13 172.414C730.149 174.376 729.413 176.583 728.923 179.036C728.432 181.488 728.187 184.432 728.187 187.865C728.187 195.223 729.658 204.788 732.601 216.56C736.035 228.332 741.185 243.048 748.052 260.706C764.239 298.966 790.972 353.413 828.251 424.046L833.401 434.347C876.566 514.301 908.94 571.936 930.523 607.253C952.105 642.079 971.726 664.152 989.384 673.472V677.15H680.362V666.114C742.657 663.661 785.086 659.002 807.65 652.134C830.704 645.267 841.74 633.004 840.759 615.346C839.778 597.688 827.761 568.012 804.707 526.318H632.537C585.938 526.318 550.376 530.242 525.851 538.09C501.325 545.939 484.157 559.428 474.347 578.558C467.97 591.311 464.292 602.593 463.311 612.403C462.82 621.723 465.273 629.816 470.668 636.683C482.44 651.889 511.871 661.699 558.96 666.114V677.15H378.697V673.472ZM724.508 500.566C742.657 500.566 755.41 498.604 762.768 494.68C770.125 490.756 773.804 483.889 773.804 474.079C773.804 468.683 771.842 461.816 767.918 453.477C763.994 444.648 757.617 431.649 748.788 414.481C745.355 408.595 741.921 402.464 738.487 396.087C735.054 389.711 731.62 383.089 728.187 376.222L715.679 351.206C702.435 325.208 689.682 300.683 677.419 277.629C665.647 254.575 655.101 235.2 645.781 219.503H642.102C640.63 239.614 636.952 258.744 631.065 276.893C625.67 295.042 612.426 324.227 591.334 364.449L533.944 472.607C526.096 486.832 522.172 496.642 522.172 502.038C522.172 507.433 524.87 510.131 530.265 510.131C532.227 510.131 534.435 509.886 536.887 509.395C539.34 508.905 542.038 508.414 544.981 507.924C555.772 505.962 567.789 504.245 581.033 502.774C594.768 501.302 613.162 500.566 636.216 500.566H724.508Z" fill="white"/>
<path d="M607.673 149.093V148.593H607.182L607.173 149.084L607.673 149.093ZM607.671 149.193L607.171 149.184L607.165 149.545L607.506 149.665L607.671 149.193ZM611.874 150.668L612.373 150.692L612.392 150.319L612.04 150.196L611.874 150.668ZM611.798 152.236L611.897 152.726L612.278 152.649L612.297 152.26L611.798 152.236ZM605.396 153.537L605.296 153.047L603.861 153.338L605.175 153.985L605.396 153.537ZM608.782 155.204L609.27 155.092L609.217 154.86L609.003 154.755L608.782 155.204ZM609.141 156.764L608.653 156.876L608.69 157.036L608.815 157.144L609.141 156.764ZM611.126 158.469L611.225 158.959L612.228 158.756L611.452 158.09L611.126 158.469ZM605.9 159.527L605.801 159.037L605.546 159.089L605.442 159.327L605.9 159.527ZM605.273 160.961L604.815 160.76L604.728 160.958L604.813 161.157L605.273 160.961ZM605.951 162.546L606.442 162.451L606.432 162.398L606.411 162.349L605.951 162.546ZM606.25 164.098L606.747 164.042L606.745 164.023L606.741 164.004L606.25 164.098ZM606.425 165.644L606.891 165.824L606.936 165.71L606.922 165.588L606.425 165.644ZM605.867 167.085L605.946 167.579L606.23 167.534L606.333 167.266L605.867 167.085ZM601.403 167.798L601.324 167.305L599.618 167.577L601.206 168.258L601.403 167.798ZM607.782 170.532L608.044 170.958L608.866 170.452L607.979 170.072L607.782 170.532ZM605.878 171.703L605.953 172.197L606.053 172.182L606.14 172.129L605.878 171.703ZM601.762 172.326L601.687 171.831L600.761 171.971L601.393 172.663L601.762 172.326ZM603.529 174.259L603.16 174.596L603.204 174.645L603.26 174.68L603.529 174.259ZM607.572 176.838L607.619 177.335L609.065 177.197L607.841 176.416L607.572 176.838ZM603.173 177.257L603.125 176.76L602.129 176.855L602.804 177.594L603.173 177.257ZM605.104 179.374L605.478 179.706L605.777 179.37L605.474 179.037L605.104 179.374ZM603.983 180.635L603.61 180.303L603.457 180.475L603.488 180.703L603.983 180.635ZM604.211 182.306L604.191 182.806L604.787 182.83L604.706 182.239L604.211 182.306ZM598.715 182.088L598.735 181.589L598.38 181.575L598.25 181.905L598.715 182.088ZM598.179 183.446L597.714 183.262L597.684 183.338L597.68 183.419L598.179 183.446ZM598.097 184.966L597.597 184.938L597.586 185.155L597.736 185.312L598.097 184.966ZM600.483 187.447L600.863 187.123L600.854 187.111L600.843 187.101L600.483 187.447ZM602.587 189.91L603.062 190.066L603.15 189.799L602.967 189.585L602.587 189.91ZM602.102 191.383L602.3 191.842L602.506 191.753L602.577 191.539L602.102 191.383ZM600.147 192.227L599.949 191.768L599.898 191.79L599.854 191.822L600.147 192.227ZM598.717 193.263L598.822 193.752L598.925 193.73L599.011 193.668L598.717 193.263ZM596.252 193.788L596.148 193.299L595.862 193.36L595.775 193.64L596.252 193.788ZM595.807 195.224L595.33 195.075L595.248 195.338L595.427 195.548L595.807 195.224ZM598.282 198.13L598.781 198.162L598.794 197.96L598.663 197.806L598.282 198.13ZM598.175 199.81L598.664 199.914L598.672 199.878L598.674 199.841L598.175 199.81ZM597.837 201.385L597.806 201.884L598.236 201.912L598.326 201.49L597.837 201.385ZM594.21 201.155L594.242 200.656L594.086 200.646L593.953 200.726L594.21 201.155ZM592.729 202.046L592.814 202.539L592.906 202.523L592.986 202.475L592.729 202.046ZM590.456 202.441L590.37 201.949L590.01 202.012L589.961 202.374L590.456 202.441ZM590.241 204.034L589.745 203.967L589.713 204.205L589.879 204.379L590.241 204.034ZM594.425 208.423L594.408 208.922L595.634 208.965L594.787 208.077L594.425 208.423ZM591.391 208.316L591.409 207.816L590.653 207.79L590.924 208.495L591.391 208.316ZM592.34 210.789L592.839 210.751L592.833 210.678L592.807 210.61L592.34 210.789ZM592.493 212.787L592.357 213.269L593.047 213.464L592.992 212.749L592.493 212.787ZM587.971 211.504L588.107 211.023L587.226 210.773L587.492 211.649L587.971 211.504ZM588.703 213.915L588.533 214.385L589.472 214.726L589.182 213.77L588.703 213.915ZM583.774 212.127L583.945 211.657L582.643 211.185L583.343 212.38L583.774 212.127ZM585.775 215.543L586.254 215.402L586.237 215.343L586.206 215.29L585.775 215.543ZM586.519 218.085L586.288 218.529L587.33 219.072L586.999 217.945L586.519 218.085ZM579.827 214.593L580.059 214.149L578.482 213.326L579.399 214.85L579.827 214.593ZM582.151 218.455L582.624 218.293L582.607 218.243L582.58 218.197L582.151 218.455ZM583.132 221.307L583.376 221.744L583.741 221.54L583.605 221.145L583.132 221.307ZM581.706 222.103L581.462 221.667L581.155 221.838L581.212 222.184L581.706 222.103ZM582.111 224.564L581.976 225.046L582.732 225.258L582.604 224.483L582.111 224.564ZM578.877 223.657L578.725 224.133L578.733 224.136L578.742 224.139L578.877 223.657ZM575.629 222.621L575.781 222.145L575.519 222.061L575.308 222.238L575.629 222.621ZM574.49 223.574L574.169 223.191L574.107 223.243L574.064 223.311L574.49 223.574ZM573.688 224.87L573.754 225.366L573.989 225.334L574.114 225.133L573.688 224.87ZM571.876 225.112L571.81 224.616L571.182 224.7L571.41 225.291L571.876 225.112ZM573.313 228.843L573.624 229.234L573.911 229.006L573.779 228.663L573.313 228.843ZM572.122 229.79L571.81 229.399L571.661 229.518L571.629 229.705L572.122 229.79ZM571.789 231.722L571.993 232.178L572.236 232.069L572.282 231.806L571.789 231.722ZM570.331 232.375L570.086 232.81L570.305 232.934L570.535 232.831L570.331 232.375ZM566.652 230.304L566.897 229.868L566.795 229.811L566.678 229.805L566.652 230.304ZM564.684 230.2L564.711 229.701L564.191 229.674L564.184 230.194L564.684 230.2ZM564.655 232.537L564.155 232.531L564.154 232.624L564.186 232.711L564.655 232.537ZM566.459 237.395L566.202 237.824L567.425 238.559L566.928 237.221L566.459 237.395ZM563.031 235.333L563.289 234.905L563.137 234.813L562.961 234.838L563.031 235.333ZM561.361 235.568L561.291 235.073L561.188 235.088L561.099 235.143L561.361 235.568ZM560.092 236.349L559.83 235.923L559.578 236.078L559.593 236.373L560.092 236.349ZM560.231 239.23L559.973 239.659L560.776 240.141L560.731 239.206L560.231 239.23ZM557.259 237.442L557.517 237.014L556.443 236.368L556.778 237.576L557.259 237.442ZM558.632 242.397L559.068 242.64L559.168 242.461L559.114 242.263L558.632 242.397ZM557.767 243.949L557.62 244.427L558.007 244.546L558.204 244.193L557.767 243.949ZM555.559 243.273L555.706 242.795L555.162 242.628L555.066 243.189L555.559 243.273ZM555.154 245.653L554.977 246.121L555.545 246.336L555.647 245.737L555.154 245.653ZM552.898 244.799L552.548 245.156L552.623 245.23L552.721 245.267L552.898 244.799ZM549.241 241.216L549.591 240.859L548.969 240.25L548.757 241.094L549.241 241.216ZM548.702 243.36L548.217 243.237L548.207 243.276L548.204 243.315L548.702 243.36ZM548.451 246.189L548.134 246.576L548.866 247.175L548.949 246.233L548.451 246.189ZM545.656 243.899L545.973 243.512L545.92 243.469L545.858 243.441L545.656 243.899ZM543.611 242.995L543.813 242.538L543.654 242.467L543.485 242.511L543.611 242.995ZM542.187 243.366L542.061 242.882L541.744 242.965L541.693 243.288L542.187 243.366ZM541.766 246.051L541.272 245.974L541.267 246.003L541.266 246.033L541.766 246.051ZM541.637 249.608L541.621 250.107L542.118 250.123L542.136 249.626L541.637 249.608ZM539.975 249.556L539.991 249.057L539.684 249.047L539.537 249.316L539.975 249.556ZM539.018 251.302L539.377 251.649L539.424 251.601L539.456 251.542L539.018 251.302ZM537.83 252.53L537.53 252.93L537.883 253.195L538.19 252.878L537.83 252.53ZM535.617 250.873L535.917 250.473L535.18 249.921L535.118 250.84L535.617 250.873ZM535.352 254.856L534.942 255.141L535.756 256.313L535.851 254.889L535.352 254.856ZM532.324 250.501L532.735 250.216L531.962 249.105L531.827 250.451L532.324 250.501ZM531.934 254.367L531.52 254.647L532.293 255.789L532.432 254.417L531.934 254.367ZM529.15 250.257L529.564 249.976L528.599 248.551L528.651 250.271L529.15 250.257ZM529.34 256.584L529.073 257.007L529.868 257.51L529.84 256.569L529.34 256.584ZM527.409 255.363L526.964 255.591L527.027 255.712L527.142 255.785L527.409 255.363ZM524.416 249.517L524.861 249.289L523.916 249.535L524.416 249.517ZM524.708 257.353L525.072 257.696L525.216 257.544L525.208 257.335L524.708 257.353ZM523.407 258.736L523.129 259.153L523.481 259.387L523.771 259.079L523.407 258.736ZM521.561 257.507L521.102 257.705L521.161 257.841L521.284 257.923L521.561 257.507ZM518.835 251.203L519.294 251.005L519.172 250.722L518.865 250.704L518.835 251.203ZM517.343 251.114L517.373 250.615L516.892 250.586L516.845 251.065L517.343 251.114ZM516.768 256.956L516.803 257.455L517.225 257.426L517.266 257.005L516.768 256.956ZM515.241 257.061L514.813 257.319L514.971 257.581L515.275 257.56L515.241 257.061ZM513.298 253.844L513.726 253.586L513.568 253.324L513.263 253.346L513.298 253.844ZM511.817 253.949L511.782 253.451L511.429 253.475L511.335 253.816L511.817 253.949ZM510.716 257.948L510.389 258.326L510.987 258.844L511.198 258.081L510.716 257.948ZM509.062 256.518L508.643 256.791L508.681 256.85L508.735 256.897L509.062 256.518ZM507.366 253.913L507.785 253.641L507.315 252.917L506.921 253.685L507.366 253.913ZM506.028 256.526L506.473 256.754L506.473 256.754L506.028 256.526ZM504.632 259.252L504.2 259.505L504.661 260.291L505.077 259.48L504.632 259.252ZM503.013 256.493L503.444 256.24L503.427 256.211L503.407 256.185L503.013 256.493ZM501.477 254.53L501.871 254.222L501.526 253.78L501.127 254.174L501.477 254.53ZM499.99 255.995L499.528 256.186L499.812 256.871L500.341 256.351L499.99 255.995ZM498.534 252.482L498.996 252.29L498.419 250.898L498.05 252.359L498.534 252.482ZM496.898 258.946L496.891 259.446L497.286 259.452L497.383 259.069L496.898 258.946ZM495.36 258.924L495.146 259.376L495.244 259.422L495.353 259.424L495.36 258.924ZM493.857 258.214L494.07 257.762L493.827 257.647L493.597 257.787L493.857 258.214ZM492.247 259.194L491.987 258.767L491.977 258.773L491.967 258.78L492.247 259.194ZM490.6 260.307L490.132 260.482L490.354 261.077L490.88 260.721L490.6 260.307ZM489.358 256.977L489.826 256.802L489.482 255.881L488.94 256.702L489.358 256.977ZM487.511 259.776L487.149 260.12L487.582 260.577L487.929 260.051L487.511 259.776ZM486.119 258.31L485.621 258.35L485.635 258.526L485.757 258.654L486.119 258.31ZM485.555 251.242L486.053 251.202L485.091 251.054L485.555 251.242ZM483.186 257.098L482.741 257.326L483.239 258.301L483.65 257.286L483.186 257.098ZM482.015 254.806L481.559 255.011L481.564 255.023L481.57 255.034L482.015 254.806ZM480.93 252.388L481.386 252.183L481.242 251.862L480.891 251.889L480.93 252.388ZM479.407 252.504L479.385 253.004L479.415 253.005L479.445 253.003L479.407 252.504ZM477.908 252.438L477.741 252.909L477.811 252.935L477.886 252.938L477.908 252.438ZM476.5 251.937L476.667 251.466L476.438 251.385L476.232 251.515L476.5 251.937ZM474.701 253.077L474.212 253.18L474.36 253.885L474.969 253.5L474.701 253.077ZM474.006 249.775L474.495 249.672L474.461 249.509L474.336 249.399L474.006 249.775ZM472.784 248.701L473.114 248.325L472.632 247.902L472.339 248.472L472.784 248.701ZM469.348 255.387L468.848 255.382L469.793 255.615L469.348 255.387ZM469.405 249.865L469.905 249.87L469.92 248.455L469.02 249.547L469.405 249.865ZM466.876 252.931L466.376 252.956L466.44 254.246L467.261 253.25L466.876 252.931ZM466.669 248.729L467.168 248.704L467.127 247.876L466.414 248.298L466.669 248.729ZM464.699 249.893L464.454 250.329L464.706 250.47L464.954 250.324L464.699 249.893ZM463.378 249.151L463.623 248.715L463.265 248.514L462.998 248.827L463.378 249.151ZM460.467 252.569L460.114 252.924L460.497 253.305L460.848 252.894L460.467 252.569ZM459.269 251.377L459.621 251.023L459.376 250.778L459.06 250.923L459.269 251.377ZM457.205 252.322L456.712 252.237L456.55 253.172L457.413 252.777L457.205 252.322ZM458.353 245.712L458.846 245.798L459.063 244.546L458.051 245.314L458.353 245.712ZM455.897 247.575L455.595 247.177L455.566 247.199L455.541 247.225L455.897 247.575ZM452.721 250.807L452.241 250.669L453.078 251.157L452.721 250.807ZM455.256 241.948L455.737 242.086L455.977 241.248L455.133 241.464L455.256 241.948ZM453.4 242.423L453.276 241.938L453.175 241.964L453.093 242.028L453.4 242.423ZM450.634 244.578L450.773 245.058L450.865 245.031L450.941 244.972L450.634 244.578ZM448.607 245.167L448.467 244.687L448.401 244.706L448.343 244.743L448.607 245.167ZM445.935 246.831L445.445 246.734L445.222 247.865L446.199 247.256L445.935 246.831ZM446.884 242.024L447.374 242.121L447.48 241.584L446.935 241.527L446.884 242.024ZM445.24 241.853L444.744 241.792L444.681 242.298L445.188 242.35L445.24 241.853ZM445.69 238.22L446.187 238.281L446.293 237.426L445.497 237.759L445.69 238.22ZM443.336 239.206L442.837 239.173L442.783 239.979L443.529 239.667L443.336 239.206ZM443.539 236.154L444.038 236.187L444.099 235.269L443.295 235.717L443.539 236.154ZM440.738 237.717L440.248 237.818L440.386 238.487L440.982 238.154L440.738 237.717ZM440.321 235.689L440.81 235.588L440.791 235.492L440.736 235.41L440.321 235.689ZM439.44 234.38L439.855 234.101L439.59 233.706L439.183 233.952L439.44 234.38ZM436.182 236.341L435.758 236.605L436.018 237.024L436.44 236.77L436.182 236.341ZM435.325 234.96L435.75 234.696L435.533 234.347L435.149 234.492L435.325 234.96ZM432.622 235.978L432.545 236.472L432.675 236.493L432.798 236.446L432.622 235.978ZM430.867 235.703L430.412 235.496L430.138 236.095L430.789 236.197L430.867 235.703ZM433.367 230.218L433.822 230.426L434.007 230.02L433.624 229.79L433.367 230.218ZM432.087 229.449L432.344 229.021L432.137 228.896L431.91 228.982L432.087 229.449ZM429.168 230.553L428.94 230.998L429.137 231.099L429.344 231.02L429.168 230.553ZM427.772 229.84L427.288 229.966L427.345 230.183L427.545 230.285L427.772 229.84ZM427.315 228.092L427.799 227.966L427.765 227.837L427.672 227.742L427.315 228.092ZM426.258 227.017L425.799 226.819L425.666 227.128L425.901 227.368L426.258 227.017ZM427.922 223.15L428.382 223.348L428.588 222.868L428.1 222.683L427.922 223.15ZM426.435 222.586L426.612 222.118L426.461 222.061L426.305 222.103L426.435 222.586ZM423.535 223.366L423.063 223.201L422.751 224.095L423.665 223.849L423.535 223.366ZM424.609 220.295L425.081 220.46L425.56 219.088L424.338 219.874L424.609 220.295ZM417.422 224.916L416.996 224.654L417.692 225.337L417.422 224.916ZM420.316 220.224L420.742 220.486L421.364 219.478L420.207 219.736L420.316 220.224ZM417.239 220.91L416.954 221.321L417.134 221.446L417.347 221.398L417.239 220.91ZM415.929 220.003L415.455 220.162L415.508 220.32L415.644 220.414L415.929 220.003ZM415.403 218.438L415.877 218.278L415.788 218.012L415.514 217.95L415.403 218.438ZM413.486 218.003L413.597 217.515L413.589 217.514L413.582 217.512L413.486 218.003ZM411.463 217.606L411.052 217.322L410.616 217.95L411.367 218.097L411.463 217.606ZM414.315 213.494L414.726 213.779L414.795 213.68L414.811 213.56L414.315 213.494ZM414.59 211.43L415.086 211.496L415.125 211.207L414.891 211.031L414.59 211.43ZM413.347 210.493L412.98 210.833L413.011 210.865L413.046 210.892L413.347 210.493ZM412.323 209.388L412.69 209.048L412.537 208.882L412.311 208.888L412.323 209.388ZM409.536 209.453L409.119 209.177L408.59 209.976L409.548 209.953L409.536 209.453ZM411.65 206.266L412.067 206.542L412.739 205.527L411.548 205.776L411.65 206.266ZM407.49 207.135L407.186 207.532L407.368 207.671L407.592 207.624L407.49 207.135ZM406.184 206.134L405.802 206.456L405.837 206.498L405.88 206.531L406.184 206.134ZM405.181 204.939L404.695 205.06L404.723 205.172L404.798 205.26L405.181 204.939ZM404.793 203.382L405.278 203.261L405.189 202.905L404.822 202.883L404.793 203.382ZM401.922 203.21L401.614 202.816L400.57 203.63L401.892 203.709L401.922 203.21ZM409.177 197.55L409.485 197.944L409.028 197.073L409.177 197.55ZM401.222 200.034L400.821 199.735L399.899 200.971L401.371 200.511L401.222 200.034ZM403.295 197.256L403.696 197.555L404.105 197.008L403.46 196.784L403.295 197.256ZM401.263 196.55L400.944 196.165L400.261 196.731L401.099 197.022L401.263 196.55ZM405.903 192.704L406.222 193.089L406.659 192.727L406.244 192.339L405.903 192.704ZM404.749 191.626L405.09 191.261L404.908 191.09L404.662 191.134L404.749 191.626ZM398.446 192.743L398.012 192.991L398.187 193.296L398.534 193.235L398.446 192.743ZM397.67 191.385L397.308 191.04L397.051 191.31L397.236 191.634L397.67 191.385ZM400.234 188.696L400.596 189.041L400.784 188.844L400.72 188.58L400.234 188.696ZM399.879 187.219L400.366 187.102L400.271 186.71L399.868 186.719L399.879 187.219ZM395.207 187.32L394.823 187L394.121 187.844L395.218 187.82L395.207 187.32ZM397.15 184.987L397.535 185.307L397.576 185.257L397.604 185.198L397.15 184.987ZM398.036 183.081L398.49 183.292L398.736 182.761L398.174 182.601L398.036 183.081ZM395.409 182.33L394.914 182.396L394.957 182.721L395.272 182.811L395.409 182.33ZM395.204 180.784L394.956 180.35L394.664 180.517L394.709 180.85L395.204 180.784ZM400.793 177.586L401.042 178.02L400.774 177.087L400.793 177.586ZM394.369 177.828L394.11 177.4L394.388 178.327L394.369 177.828ZM398.903 175.077L399.163 175.505L399.625 175.224L399.309 174.785L398.903 175.077ZM397.982 173.796L397.496 173.681L397.443 173.903L397.576 174.088L397.982 173.796ZM398.359 172.201L398.846 172.316L398.924 171.988L398.648 171.793L398.359 172.201ZM396.729 171.049L397.017 170.641L396.916 170.569L396.793 170.553L396.729 171.049ZM392.093 170.451L391.87 170.004L390.398 170.737L392.029 170.947L392.093 170.451ZM397.053 167.981L397.276 168.428L398.871 167.634L397.096 167.483L397.053 167.981ZM391.159 167.479L390.975 167.014L391.117 167.977L391.159 167.479ZM397.638 164.915L397.822 165.38L398.853 164.971L397.864 164.469L397.638 164.915ZM395.377 163.765L394.948 164.022L395.022 164.146L395.15 164.211L395.377 163.765ZM394.545 162.376L394.974 162.119L394.871 161.947L394.678 161.894L394.545 162.376ZM390.653 161.302L390.153 161.304L390.154 161.683L390.52 161.784L390.653 161.302ZM390.647 159.75L391.147 159.748L391.146 159.452L390.885 159.31L390.647 159.75ZM388.173 158.41L387.924 157.976L387.145 158.422L387.935 158.85L388.173 158.41ZM391.302 156.618L391.551 157.052L391.863 156.873L391.793 156.521L391.302 156.618ZM391 155.099L390.662 154.731L390.455 154.921L390.51 155.196L391 155.099ZM392.739 153.498L392.487 153.067L392.44 153.094L392.401 153.13L392.739 153.498ZM395.432 151.922L395.684 152.354L396.042 152.144L395.903 151.755L395.432 151.922ZM394.911 150.458L394.617 150.053L394.315 150.272L394.44 150.625L394.911 150.458ZM396.952 148.977L397.245 149.382L398.122 148.746L397.07 148.491L396.952 148.977ZM390.562 147.428L390.261 147.029L389.416 147.665L390.444 147.914L390.562 147.428ZM392.528 145.947L392.829 146.346L393.259 146.022L392.903 145.617L392.528 145.947ZM391.153 144.381L391.529 144.051L391.516 144.037L391.502 144.023L391.153 144.381ZM389.484 142.757L389.413 142.262L388.406 142.406L389.135 143.115L389.484 142.757ZM396.806 141.711L396.877 142.206L396.985 141.244L396.806 141.711ZM391.933 139.842L391.433 139.858L391.443 140.19L391.754 140.309L391.933 139.842ZM391.886 138.312L391.729 137.838L391.374 137.955L391.386 138.328L391.886 138.312ZM395.35 137.165L395.508 137.64L396.684 137.25L395.566 136.714L395.35 137.165ZM391.116 135.136L390.618 135.091L390.587 135.437L390.9 135.587L391.116 135.136ZM391.256 133.601L391.058 133.142L390.785 133.26L390.758 133.556L391.256 133.601ZM393.915 132.458L394.113 132.917L394.953 132.556L394.195 132.044L393.915 132.458ZM390.885 130.41L390.638 129.976L389.939 130.374L390.605 130.825L390.885 130.41ZM392.979 129.216L393.227 129.651L393.758 129.347L393.356 128.887L392.979 129.216ZM391.332 127.334L391.318 126.834L390.258 126.865L390.956 127.663L391.332 127.334ZM397.873 127.14L397.887 127.64L399.099 127.604L398.214 126.775L397.873 127.14ZM395.747 125.149L396.088 124.784L396.057 124.754L396.02 124.73L395.747 125.149ZM391.976 122.686L391.741 122.245L390.993 122.642L391.702 123.105L391.976 122.686ZM394.013 121.604L394.247 122.046L394.306 122.014L394.354 121.969L394.013 121.604ZM395.332 120.368L395.3 119.869L395.121 119.881L394.991 120.003L395.332 120.368ZM399.822 120.08L399.854 120.579L400.835 120.515L400.206 119.76L399.822 120.08ZM398.119 118.034L398.047 117.539L397.164 117.668L397.735 118.354L398.119 118.034ZM401.494 117.544L401.566 118.039L402.276 117.935L401.933 117.305L401.494 117.544ZM400.472 115.669L400.911 115.43L400.848 115.313L400.735 115.244L400.472 115.669ZM394.624 112.054L394.522 111.564L393.295 111.82L394.361 112.479L394.624 112.054ZM397.52 111.45L397.622 111.939L397.693 111.925L397.757 111.89L397.52 111.45ZM399.307 110.491L399.249 109.995L399.154 110.006L399.071 110.051L399.307 110.491ZM402.457 110.12L402.515 110.617L402.92 110.569L402.955 110.163L402.457 110.12ZM402.591 108.581L403.089 108.624L403.111 108.362L402.908 108.195L402.591 108.581ZM398.452 105.177L397.956 105.117L397.923 105.389L398.135 105.563L398.452 105.177ZM398.646 103.56L398.765 103.074L398.217 102.94L398.15 103.5L398.646 103.56ZM406.393 105.455L406.274 105.941L407.72 106.295L406.781 105.14L406.393 105.455ZM404.236 102.803L404.624 102.488L404.598 102.456L404.567 102.429L404.236 102.803ZM399.877 98.945L399.599 98.5293L399.06 98.8897L399.545 99.3194L399.877 98.945ZM401.368 97.9482L401.515 97.4705L401.288 97.4002L401.09 97.5326L401.368 97.9482ZM409.113 100.341L408.966 100.819L409.446 99.9682L409.113 100.341ZM404.219 95.9658L404.301 95.4726L402.6 95.1892L403.886 96.3385L404.219 95.9658ZM408.57 96.6905L408.488 97.1838L409.918 97.422L408.939 96.3528L408.57 96.6905ZM405.123 92.9279L405.28 92.453L404.754 93.2657L405.123 92.9279ZM411.54 95.0418L411.383 95.5167L412.592 95.9149L411.977 94.8004L411.54 95.0418ZM410.083 92.4003L409.939 91.9215L409.347 92.0997L409.645 92.6417L410.083 92.4003ZM411.953 91.8378L412.097 92.3166L412.577 92.1721L412.432 91.6924L411.953 91.8378ZM411.276 89.6085L410.797 89.4654L410.754 89.6097L410.797 89.7538L411.276 89.6085ZM411.727 88.0971L412.206 88.2401L412.216 88.2092L412.221 88.1774L411.727 88.0971ZM411.997 86.4396L412.144 85.9618L411.596 85.7924L411.503 86.3593L411.997 86.4396ZM416.417 87.8038L416.269 88.2816L417.545 88.6754L416.842 87.5403L416.417 87.8038ZM414.289 84.3724L413.852 84.6144L413.858 84.6253L413.864 84.6359L414.289 84.3724ZM412.435 81.0192L412.456 80.5196L411.567 80.4828L411.998 81.2612L412.435 81.0192ZM415.061 81.1278L415.04 81.6274L415.703 81.6548L415.547 81.0106L415.061 81.1278ZM414.466 78.6599L414.516 78.1625L413.814 78.0915L413.98 78.7771L414.466 78.6599ZM417.197 78.9361L417.147 79.4335L417.351 79.4542L417.511 79.3251L417.197 78.9361ZM418.401 77.9644L418.715 78.3535L418.975 78.1434L418.88 77.8227L418.401 77.9644ZM417.58 75.1882L417.665 74.6954L416.873 74.5594L417.101 75.3299L417.58 75.1882ZM420.396 75.6716L420.311 76.1644L420.933 76.2712L420.895 75.6413L420.396 75.6716ZM420.261 73.4489L420.511 73.0162L419.705 72.5493L419.762 73.4792L420.261 73.4489ZM425.703 76.6011L425.452 77.0338L426.116 76.3193L425.703 76.6011ZM421.243 70.0658L421.216 69.5665L420.33 69.6149L420.83 70.3476L421.243 70.0658ZM423.314 69.9527L423.595 69.5391L423.456 69.4442L423.287 69.4534L423.314 69.9527ZM429.231 73.9724L428.95 74.386L429.656 73.709L429.231 73.9724ZM425.134 67.3604L425.311 66.893L423.931 66.3687L424.709 67.6238L425.134 67.3604ZM428.285 68.5572L428.107 69.0246L428.851 69.3073L428.783 68.514L428.285 68.5572ZM428.062 65.9904L427.842 65.5415L427.534 65.6924L427.564 66.0336L428.062 65.9904ZM429.489 65.2901L429.703 64.8378L429.485 64.7353L429.269 64.8412L429.489 65.2901ZM432.727 66.8162L432.513 67.2684L432.988 67.4923L433.189 67.0072L432.727 66.8162ZM433.378 65.2401L433.84 65.4311L433.895 65.2995L433.871 65.159L433.378 65.2401ZM432.866 62.121L432.825 61.6226L432.284 61.6661L432.372 62.202L432.866 62.121ZM434.685 61.9745L434.968 61.5623L434.821 61.4619L434.645 61.4762L434.685 61.9745ZM438.473 64.5735L438.19 64.9858L438.368 65.1079L438.579 65.0621L438.473 64.5735ZM440.031 64.2352L440.137 64.7238L440.46 64.6537L440.522 64.329L440.031 64.2352ZM440.416 62.2207L440.529 61.7336L440.022 61.6164L439.925 62.1268L440.416 62.2207ZM442.518 62.7071L442.405 63.1942L442.493 63.2145L442.582 63.203L442.518 62.7071ZM444.119 62.5014L444.183 62.9973L444.827 62.9145L444.582 62.313L444.119 62.5014ZM440.971 54.7652L441.311 54.3986L440.508 54.9536L440.971 54.7652ZM445.17 58.6608L444.829 59.0273L445.14 59.3156L445.475 59.0562L445.17 58.6608ZM446.352 57.7462L446.658 58.1417L446.923 57.9365L446.834 57.6132L446.352 57.7462ZM444.749 51.9363L445.081 51.5628L443.816 50.4368L444.267 52.0692L444.749 51.9363ZM448.273 55.0734L447.94 55.4468L448.425 55.8782L448.718 55.2998L448.273 55.0734ZM449.105 53.435L449.551 53.6614L449.596 53.5719L449.603 53.4717L449.105 53.435ZM449.318 50.5345L448.88 50.2941L448.828 50.3894L448.82 50.4978L449.318 50.5345ZM450.229 48.8738L450.563 48.5015L450.094 48.0809L449.791 48.6334L450.229 48.8738ZM453.293 51.62L453.627 51.2482L453.627 51.2477L453.293 51.62ZM456.154 54.1925L455.82 54.5644L456.115 54.8299L456.441 54.6023L456.154 54.1925ZM457.378 53.3368L457.664 53.7465L457.706 53.7172L457.742 53.6799L457.378 53.3368ZM458.479 52.1703L458.383 51.6795L458.225 51.7102L458.115 51.8271L458.479 52.1703ZM459.959 51.882L460.159 51.4236L460.016 51.3615L459.864 51.3912L459.959 51.882ZM461.875 52.7163L461.676 53.1747L461.918 53.2801L462.141 53.1395L461.875 52.7163ZM463.131 51.9266L463.397 52.3498L463.434 52.3264L463.467 52.2967L463.131 51.9266ZM464.298 50.8668L464.634 51.2369L464.794 51.0915L464.798 50.8753L464.298 50.8668ZM464.371 46.6236L464.747 46.294L463.893 45.3196L463.871 46.615L464.371 46.6236ZM466.954 49.5721L466.578 49.9016L467.269 50.6895L467.447 49.6573L466.954 49.5721ZM467.5 46.416L467.886 46.0989L467.193 45.2537L467.007 46.3309L467.5 46.416ZM469.992 49.4551L469.606 49.7722L470.462 50.8168L470.492 49.4662L469.992 49.4551ZM470.101 44.5312L469.649 44.3172L469.603 44.4135L469.601 44.5202L470.101 44.5312ZM471.107 42.4058L471.438 42.0312L470.94 41.5906L470.655 42.1918L471.107 42.4058ZM473.179 44.2371L472.847 44.6117L473.209 44.9311L473.541 44.5817L473.179 44.2371ZM474.422 42.9293L474.785 43.2738L474.873 43.1809L474.906 43.057L474.422 42.9293ZM475.269 39.7238L475.558 39.3155L474.97 38.8998L474.786 39.5961L475.269 39.7238ZM477.162 41.0619L477.594 40.809L477.539 40.7159L477.451 40.6536L477.162 41.0619ZM479.533 45.1058L479.102 45.3587L479.388 45.8468L479.838 45.5027L479.533 45.1058ZM480.858 44.0911L481.283 43.8281L480.993 43.3581L480.554 43.6942L480.858 44.0911ZM482.939 47.4571L482.514 47.7201L483.326 49.0336L483.438 47.4933L482.939 47.4571ZM483.412 40.942L483.865 40.7302L482.913 40.9058L483.412 40.942ZM485.606 45.6348L485.153 45.8465L485.807 47.2469L486.097 45.7284L485.606 45.6348ZM486.5 40.9444L486.042 40.7421L486.019 40.7945L486.009 40.8507L486.5 40.9444ZM487.734 38.1536L487.644 37.6618L487.384 37.7094L487.277 37.9513L487.734 38.1536ZM489.281 37.8706L489.271 37.3707L489.231 37.3715L489.191 37.3787L489.281 37.8706ZM490.847 37.8398L491.12 37.4211L490.991 37.3369L490.837 37.3399L490.847 37.8398ZM492.489 38.9114L492.216 39.3302L492.55 39.5477L492.836 39.2716L492.489 38.9114ZM493.969 37.4864L494.454 37.3656L494.245 36.5261L493.622 37.1262L493.969 37.4864ZM495.832 44.972L495.347 45.0927L495.773 46.8041L496.309 45.1238L495.832 44.972ZM497.183 40.7347L497.213 40.2356L496.825 40.2121L496.707 40.5828L497.183 40.7347ZM498.707 40.8267L498.677 41.3258L498.955 41.3426L499.116 41.1147L498.707 40.8267ZM500.236 38.6564L500.615 38.33L500.197 37.8446L499.828 38.3684L500.236 38.6564ZM501.764 40.4286L502.241 40.278L502.21 40.18L502.143 40.1022L501.764 40.4286ZM503.161 44.8483L502.684 44.999L502.736 45.1636L502.879 45.2611L503.161 44.8483ZM504.581 45.8188L504.299 46.2316L504.806 46.5785L505.042 46.0108L504.581 45.8188ZM506.264 41.7728L505.821 41.5407L505.811 41.5603L505.802 41.5808L506.264 41.7728ZM508.017 38.4279L508.465 38.2051L508.029 37.329L507.574 38.1958L508.017 38.4279ZM509.351 41.107L508.903 41.3298L509.147 41.8192L509.613 41.533L509.351 41.107ZM510.973 40.1102L511.235 40.5362L511.288 40.5034L511.332 40.4584L510.973 40.1102ZM512.727 38.3021L513.226 38.2679L513.149 37.1491L512.368 37.9539L512.727 38.3021ZM513.28 46.3559L512.781 46.3901L512.809 46.7971L513.213 46.8515L513.28 46.3559ZM514.718 46.5492L514.652 47.0447L514.772 47.0609L514.886 47.0202L514.718 46.5492ZM516.273 45.9954L516.578 45.599L516.362 45.433L516.105 45.5244L516.273 45.9954ZM517.589 47.0074L517.284 47.4038L517.8 47.8001L518.05 47.2001L517.589 47.0074ZM520.242 40.659L519.946 40.2557L519.834 40.3379L519.78 40.4663L520.242 40.659ZM522.086 39.3073L522.586 39.3254L522.623 38.294L521.791 38.904L522.086 39.3073ZM521.76 48.3321L521.26 48.314L522.209 48.5518L521.76 48.3321ZM524.554 42.6187L524.284 42.198L524.166 42.2735L524.105 42.399L524.554 42.6187ZM526.424 41.4167L526.201 40.9693L526.176 40.9814L526.154 40.996L526.424 41.4167ZM528.266 40.4968L528.765 40.4661L528.719 39.712L528.043 40.0495L528.266 40.4968ZM528.566 45.3671L529.066 45.3475L529.065 45.3364L528.566 45.3671ZM528.754 50.1459L528.254 50.1655L528.301 51.3527L529.117 50.4894L528.754 50.1459ZM530.98 47.7918L531.343 48.1354L531.353 48.1248L531.362 48.1136L530.98 47.7918ZM533.501 44.7938L533.969 44.6177L533.668 43.8182L533.118 44.472L533.501 44.7938ZM534.358 47.0713L534.838 46.9307L534.833 46.9127L534.826 46.8952L534.358 47.0713ZM535.085 49.5521L534.605 49.6926L534.775 50.2733L535.313 49.9968L535.085 49.5521ZM537.026 48.5545L537.526 48.5437L537.509 47.7444L536.798 48.1097L537.026 48.5545ZM537.112 52.5285L536.612 52.5393L536.644 54.021L537.516 52.8228L537.112 52.5285ZM540.585 47.7573L540.466 47.2717L540.288 47.3153L540.181 47.463L540.585 47.7573ZM542.431 47.3042L542.898 47.1249L542.74 46.7136L542.312 46.8186L542.431 47.3042ZM543.223 49.3666L543.717 49.4437L543.738 49.3118L543.69 49.1873L543.223 49.3666ZM542.337 55.0498L541.843 54.9727L541.651 56.2034L542.64 55.447L542.337 55.0498ZM544.819 53.1524L545.123 53.5496L545.168 53.5148L545.205 53.4707L544.819 53.1524ZM548.813 48.3143L549.313 48.3339L549.371 46.8531L548.428 47.996L548.813 48.3143ZM548.664 52.1154L548.164 52.0957L548.161 52.1672L548.178 52.2366L548.664 52.1154ZM549.22 54.3436L548.735 54.4648L548.951 55.3281L549.576 54.6949L549.22 54.3436ZM552.954 50.5622L553.435 50.6962L552.598 50.2109L552.954 50.5622ZM551.158 57.0183L550.677 56.8843L550.646 56.9941L550.666 57.1063L551.158 57.0183ZM551.563 59.2802L551.07 59.3682L551.24 60.3179L551.918 59.6316L551.563 59.2802ZM555.794 54.9977L555.545 54.5639L555.486 54.5978L555.438 54.6463L555.794 54.9977ZM558.567 53.4073L559.064 53.3586L558.989 52.5888L558.318 52.9736L558.567 53.4073ZM558.816 55.9586L559.292 56.1141L559.324 56.0143L559.314 55.9099L558.816 55.9586ZM556.96 61.6345L556.484 61.4791L555.987 63L557.262 62.0329L556.96 61.6345ZM560.557 58.9058L560.568 58.4059L560.394 58.4019L560.255 58.5074L560.557 58.9058ZM562.382 58.9475L562.869 58.8349L562.782 58.4565L562.394 58.4476L562.382 58.9475ZM562.844 60.947L562.357 61.0597L562.419 61.3248L562.675 61.4173L562.844 60.947ZM564.333 61.4849L564.163 61.9551L564.378 62.0326L564.577 61.9216L564.333 61.4849ZM567.641 59.6399L568.118 59.7894L568.493 58.5918L567.397 59.2032L567.641 59.6399ZM566.298 63.9237L565.821 63.7741L565.673 64.2451L566.142 64.3988L566.298 63.9237ZM567.834 64.4273L568.333 64.3932L568.31 64.0571L567.99 63.9522L567.834 64.4273ZM567.986 66.6345L567.487 66.6687L567.527 67.2548L568.099 67.1214L567.986 66.6345ZM570.437 66.0631L570.551 66.55L570.576 66.5442L570.6 66.5358L570.437 66.0631ZM573.337 65.0636L573.807 64.8928L573.639 64.4307L573.174 64.5909L573.337 65.0636ZM573.943 66.7298L574.375 66.9805L574.492 66.7784L574.413 66.5589L573.943 66.7298ZM570.38 72.8768L569.947 72.6261L570.649 73.2982L570.38 72.8768ZM575.482 69.6173L575.972 69.7158L576.204 68.5628L575.213 69.196L575.482 69.6173ZM574.925 72.3878L574.435 72.2893L574.433 72.3016L574.925 72.3878ZM574.475 74.959L573.983 74.8728L573.895 75.3716L574.395 75.4525L574.475 74.959ZM576.291 75.2528L576.785 75.1796L576.732 74.8177L576.37 74.7592L576.291 75.2528ZM576.556 77.0486L576.062 77.1218L576.086 77.2842L576.201 77.4008L576.556 77.0486ZM577.596 78.0964L577.975 77.7703L577.963 77.7568L577.951 77.7443L577.596 78.0964ZM578.558 79.2148L579.053 79.2856L579.085 79.0608L578.937 78.8886L578.558 79.2148ZM578.24 81.4416L577.745 81.3707L577.613 82.2902L578.453 81.8937L578.24 81.4416ZM583.369 79.0199L583.85 79.1583L584.156 78.0956L583.156 78.5677L583.369 79.0199ZM582.626 81.6024L582.145 81.464L581.883 82.3724L582.782 82.0774L582.626 81.6024ZM586.72 80.258L587.2 80.3952L587.459 79.4889L586.564 79.783L586.72 80.258ZM586.001 82.7752L585.521 82.6381L585.511 82.6724L585.506 82.7078L586.001 82.7752ZM585.713 84.8971L585.217 84.8297L585.116 85.577L585.843 85.3797L585.713 84.8971ZM589.77 83.7971L590.259 83.6924L590.149 83.1764L589.639 83.3145L589.77 83.7971ZM590.125 85.4531L589.636 85.5578L589.653 85.6407L589.698 85.7132L590.125 85.4531ZM590.931 86.7771L590.504 87.0371L590.604 87.2018L590.789 87.2565L590.931 86.7771ZM592.861 87.3484L593.205 87.7113L593.834 87.115L593.003 86.869L592.861 87.3484ZM586.681 93.2053L586.337 92.8424L585.781 93.3697L586.487 93.6664L586.681 93.2053ZM588.312 93.89L588.119 94.351L588.163 94.3696L588.21 94.3794L588.312 93.89ZM590.408 94.3274L590.595 93.8638L590.553 93.8471L590.51 93.838L590.408 94.3274ZM592.139 95.027L591.952 95.4906L592.058 95.5335L592.172 95.5259L592.139 95.027ZM595.565 94.7992L595.946 95.1232L596.713 94.2218L595.532 94.3003L595.565 94.7992ZM592.744 98.115L592.363 97.791L592.307 97.8568L592.277 97.9377L592.744 98.115ZM591.945 100.222L591.478 100.045L591.234 100.686L591.92 100.721L591.945 100.222ZM594.844 100.37L594.891 99.8725L594.88 99.8715L594.869 99.871L594.844 100.37ZM597.667 100.637L598.16 100.717L598.245 100.189L597.714 100.139L597.667 100.637ZM597.369 102.477L597.728 102.824L597.838 102.712L597.863 102.557L597.369 102.477ZM594.454 105.491L594.095 105.144L593.258 106.009L594.462 105.991L594.454 105.491ZM598.16 105.436L598.433 105.017L598.305 104.934L598.153 104.936L598.16 105.436ZM599.679 106.426L600.172 106.342L600.135 106.126L599.952 106.007L599.679 106.426ZM599.938 107.962L600.255 108.349L600.479 108.165L600.431 107.879L599.938 107.962ZM596.108 111.107L595.791 110.72L594.64 111.665L596.128 111.606L596.108 111.107ZM600.669 110.926L601.14 110.758L601.016 110.412L600.649 110.426L600.669 110.926ZM601.176 112.349L601.493 112.736L601.765 112.513L601.647 112.181L601.176 112.349ZM597.804 115.117L597.486 114.73L597.264 114.913L597.31 115.197L597.804 115.117ZM598.04 116.567L597.547 116.648L597.626 117.131L598.111 117.062L598.04 116.567ZM606.809 115.316L607.101 115.722L606.738 114.821L606.809 115.316ZM602.893 118.132L602.601 117.726L601.775 118.32L602.75 118.611L602.893 118.132ZM605.575 118.932L605.824 119.366L606.833 118.786L605.717 118.453L605.575 118.932ZM600.333 121.944L600.084 121.51L599.793 121.678L599.838 122.01L600.333 121.944ZM600.528 123.4L600.033 123.466L600.087 123.874L600.498 123.899L600.528 123.4ZM605.487 123.703L605.768 123.289L605.654 123.212L605.517 123.204L605.487 123.703ZM607.21 124.874L607.541 125.249L608.023 124.823L607.491 124.46L607.21 124.874ZM604.863 126.945L605.142 127.36L605.169 127.342L605.194 127.32L604.863 126.945ZM601.661 129.102L601.381 128.687L601.015 128.933L601.214 129.327L601.661 129.102ZM602.344 130.452L601.898 130.678L602.027 130.933L602.313 130.951L602.344 130.452ZM608.796 130.857L609.12 131.238L610.062 130.436L608.827 130.358L608.796 130.857ZM606.551 132.767L606.227 132.387L605.46 133.039L606.444 133.256L606.551 132.767ZM610.8 133.703L610.974 134.172L612.567 133.581L610.907 133.215L610.8 133.703ZM604.426 136.07L604.252 135.601L604.125 135.648L604.04 135.752L604.426 136.07ZM603.079 137.704L602.694 137.387L602.398 137.746L602.735 138.066L603.079 137.704ZM604.475 139.033L604.871 138.728L604.847 138.697L604.819 138.671L604.475 139.033ZM605.544 140.42L605.148 140.725L605.224 140.824L605.338 140.875L605.544 140.42ZM608.41 141.717L608.899 141.822L608.984 141.428L608.616 141.261L608.41 141.717ZM608.075 143.265L607.586 143.159L607.497 143.57L607.886 143.728L608.075 143.265ZM611.466 144.647L611.647 145.113L612.819 144.658L611.655 144.184L611.466 144.647ZM607.158 146.318L606.977 145.852L605.675 146.358L607.002 146.793L607.158 146.318ZM611.588 147.773L611.954 148.114L612.487 147.541L611.744 147.298L611.588 147.773ZM610.358 149.093V149.593H610.575L610.724 149.434L610.358 149.093ZM607.673 149.093L607.173 149.084L607.171 149.184L607.671 149.193L608.171 149.202L608.173 149.102L607.673 149.093ZM607.671 149.193L607.506 149.665L611.709 151.14L611.874 150.668L612.04 150.196L607.837 148.721L607.671 149.193ZM611.874 150.668L611.375 150.643L611.298 152.212L611.798 152.236L612.297 152.26L612.373 150.692L611.874 150.668ZM611.798 152.236L611.698 151.746L605.296 153.047L605.396 153.537L605.496 154.027L611.897 152.726L611.798 152.236ZM605.396 153.537L605.175 153.985L608.562 155.652L608.782 155.204L609.003 154.755L605.617 153.088L605.396 153.537ZM608.782 155.204L608.295 155.316L608.653 156.876L609.141 156.764L609.628 156.652L609.27 155.092L608.782 155.204ZM609.141 156.764L608.815 157.144L610.8 158.849L611.126 158.469L611.452 158.09L609.466 156.385L609.141 156.764ZM611.126 158.469L611.027 157.979L605.801 159.037L605.9 159.527L605.999 160.017L611.225 158.959L611.126 158.469ZM605.9 159.527L605.442 159.327L604.815 160.76L605.273 160.961L605.731 161.161L606.358 159.728L605.9 159.527ZM605.273 160.961L604.813 161.157L605.492 162.742L605.951 162.546L606.411 162.349L605.733 160.764L605.273 160.961ZM605.951 162.546L605.46 162.64L605.759 164.193L606.25 164.098L606.741 164.004L606.442 162.451L605.951 162.546ZM606.25 164.098L605.753 164.154L605.928 165.7L606.425 165.644L606.922 165.588L606.747 164.042L606.25 164.098ZM606.425 165.644L605.959 165.463L605.401 166.905L605.867 167.085L606.333 167.266L606.891 165.824L606.425 165.644ZM605.867 167.085L605.788 166.592L601.324 167.305L601.403 167.798L601.482 168.292L605.946 167.579L605.867 167.085ZM601.403 167.798L601.206 168.258L607.585 170.991L607.782 170.532L607.979 170.072L601.6 167.339L601.403 167.798ZM607.782 170.532L607.52 170.106L605.616 171.277L605.878 171.703L606.14 172.129L608.044 170.958L607.782 170.532ZM605.878 171.703L605.803 171.208L601.687 171.831L601.762 172.326L601.837 172.82L605.953 172.197L605.878 171.703ZM601.762 172.326L601.393 172.663L603.16 174.596L603.529 174.259L603.898 173.921L602.131 171.988L601.762 172.326ZM603.529 174.259L603.26 174.68L607.303 177.259L607.572 176.838L607.841 176.416L603.798 173.837L603.529 174.259ZM607.572 176.838L607.524 176.34L603.125 176.76L603.173 177.257L603.22 177.755L607.619 177.335L607.572 176.838ZM603.173 177.257L602.804 177.594L604.735 179.711L605.104 179.374L605.474 179.037L603.542 176.92L603.173 177.257ZM605.104 179.374L604.731 179.042L603.61 180.303L603.983 180.635L604.357 180.967L605.478 179.706L605.104 179.374ZM603.983 180.635L603.488 180.703L603.716 182.374L604.211 182.306L604.706 182.239L604.479 180.568L603.983 180.635ZM604.211 182.306L604.231 181.807L598.735 181.589L598.715 182.088L598.695 182.588L604.191 182.806L604.211 182.306ZM598.715 182.088L598.25 181.905L597.714 183.262L598.179 183.446L598.644 183.63L599.18 182.272L598.715 182.088ZM598.179 183.446L597.68 183.419L597.597 184.938L598.097 184.966L598.596 184.993L598.678 183.473L598.179 183.446ZM598.097 184.966L597.736 185.312L600.123 187.794L600.483 187.447L600.843 187.101L598.457 184.619L598.097 184.966ZM600.483 187.447L600.103 187.772L602.207 190.234L602.587 189.91L602.967 189.585L600.863 187.123L600.483 187.447ZM602.587 189.91L602.113 189.753L601.627 191.226L602.102 191.383L602.577 191.539L603.062 190.066L602.587 189.91ZM602.102 191.383L601.903 190.924L599.949 191.768L600.147 192.227L600.345 192.686L602.3 191.842L602.102 191.383ZM600.147 192.227L599.854 191.822L598.424 192.858L598.717 193.263L599.011 193.668L600.44 192.632L600.147 192.227ZM598.717 193.263L598.613 192.774L596.148 193.299L596.252 193.788L596.357 194.277L598.822 193.752L598.717 193.263ZM596.252 193.788L595.775 193.64L595.33 195.075L595.807 195.224L596.285 195.372L596.73 193.936L596.252 193.788ZM595.807 195.224L595.427 195.548L597.902 198.454L598.282 198.13L598.663 197.806L596.188 194.899L595.807 195.224ZM598.282 198.13L597.783 198.098L597.676 199.778L598.175 199.81L598.674 199.841L598.781 198.162L598.282 198.13ZM598.175 199.81L597.686 199.705L597.348 201.281L597.837 201.385L598.326 201.49L598.664 199.914L598.175 199.81ZM597.837 201.385L597.869 200.886L594.242 200.656L594.21 201.155L594.179 201.654L597.806 201.884L597.837 201.385ZM594.21 201.155L593.953 200.726L592.471 201.618L592.729 202.046L592.986 202.475L594.468 201.583L594.21 201.155ZM592.729 202.046L592.643 201.554L590.37 201.949L590.456 202.441L590.542 202.934L592.814 202.539L592.729 202.046ZM590.456 202.441L589.961 202.374L589.745 203.967L590.241 204.034L590.736 204.101L590.952 202.508L590.456 202.441ZM590.241 204.034L589.879 204.379L594.064 208.768L594.425 208.423L594.787 208.077L590.602 203.689L590.241 204.034ZM594.425 208.423L594.443 207.923L591.409 207.816L591.391 208.316L591.373 208.816L594.408 208.922L594.425 208.423ZM591.391 208.316L590.924 208.495L591.873 210.968L592.34 210.789L592.807 210.61L591.858 208.137L591.391 208.316ZM592.34 210.789L591.842 210.827L591.995 212.826L592.493 212.787L592.992 212.749L592.839 210.751L592.34 210.789ZM592.493 212.787L592.63 212.306L588.107 211.023L587.971 211.504L587.834 211.985L592.357 213.269L592.493 212.787ZM587.971 211.504L587.492 211.649L588.225 214.061L588.703 213.915L589.182 213.77L588.449 211.359L587.971 211.504ZM588.703 213.915L588.874 213.445L583.945 211.657L583.774 212.127L583.604 212.597L588.533 214.385L588.703 213.915ZM583.774 212.127L583.343 212.38L585.343 215.795L585.775 215.543L586.206 215.29L584.205 211.875L583.774 212.127ZM585.775 215.543L585.295 215.683L586.04 218.226L586.519 218.085L586.999 217.945L586.254 215.402L585.775 215.543ZM586.519 218.085L586.751 217.642L580.059 214.149L579.827 214.593L579.596 215.036L586.288 218.529L586.519 218.085ZM579.827 214.593L579.399 214.85L581.723 218.713L582.151 218.455L582.58 218.197L580.256 214.335L579.827 214.593ZM582.151 218.455L581.678 218.618L582.659 221.47L583.132 221.307L583.605 221.145L582.624 218.293L582.151 218.455ZM583.132 221.307L582.888 220.871L581.462 221.667L581.706 222.103L581.949 222.54L583.376 221.744L583.132 221.307ZM581.706 222.103L581.212 222.184L581.618 224.646L582.111 224.564L582.604 224.483L582.199 222.022L581.706 222.103ZM582.111 224.564L582.246 224.083L579.012 223.176L578.877 223.657L578.742 224.139L581.976 225.046L582.111 224.564ZM578.877 223.657L579.029 223.181L575.781 222.145L575.629 222.621L575.477 223.097L578.725 224.133L578.877 223.657ZM575.629 222.621L575.308 222.238L574.169 223.191L574.49 223.574L574.81 223.958L575.95 223.005L575.629 222.621ZM574.49 223.574L574.064 223.311L573.263 224.607L573.688 224.87L574.114 225.133L574.915 223.837L574.49 223.574ZM573.688 224.87L573.622 224.374L571.81 224.616L571.876 225.112L571.943 225.607L573.754 225.366L573.688 224.87ZM571.876 225.112L571.41 225.291L572.846 229.022L573.313 228.843L573.779 228.663L572.343 224.932L571.876 225.112ZM573.313 228.843L573.001 228.452L571.81 229.399L572.122 229.79L572.433 230.182L573.624 229.234L573.313 228.843ZM572.122 229.79L571.629 229.705L571.296 231.637L571.789 231.722L572.282 231.806L572.614 229.875L572.122 229.79ZM571.789 231.722L571.585 231.265L570.126 231.918L570.331 232.375L570.535 232.831L571.993 232.178L571.789 231.722ZM570.331 232.375L570.576 231.939L566.897 229.868L566.652 230.304L566.407 230.74L570.086 232.81L570.331 232.375ZM566.652 230.304L566.678 229.805L564.711 229.701L564.684 230.2L564.658 230.7L566.626 230.803L566.652 230.304ZM564.684 230.2L564.184 230.194L564.155 232.531L564.655 232.537L565.155 232.544L565.184 230.207L564.684 230.2ZM564.655 232.537L564.186 232.711L565.991 237.569L566.459 237.395L566.928 237.221L565.124 232.363L564.655 232.537ZM566.459 237.395L566.717 236.967L563.289 234.905L563.031 235.333L562.773 235.762L566.202 237.824L566.459 237.395ZM563.031 235.333L562.961 234.838L561.291 235.073L561.361 235.568L561.43 236.063L563.101 235.828L563.031 235.333ZM561.361 235.568L561.099 235.143L559.83 235.923L560.092 236.349L560.354 236.775L561.623 235.994L561.361 235.568ZM560.092 236.349L559.593 236.373L559.732 239.254L560.231 239.23L560.731 239.206L560.591 236.325L560.092 236.349ZM560.231 239.23L560.489 238.802L557.517 237.014L557.259 237.442L557.002 237.871L559.973 239.659L560.231 239.23ZM557.259 237.442L556.778 237.576L558.15 242.53L558.632 242.397L559.114 242.263L557.741 237.309L557.259 237.442ZM558.632 242.397L558.195 242.153L557.33 243.706L557.767 243.949L558.204 244.193L559.068 242.64L558.632 242.397ZM557.767 243.949L557.913 243.471L555.706 242.795L555.559 243.273L555.413 243.751L557.62 244.427L557.767 243.949ZM555.559 243.273L555.066 243.189L554.661 245.569L555.154 245.653L555.647 245.737L556.052 243.357L555.559 243.273ZM555.154 245.653L555.331 245.186L553.075 244.331L552.898 244.799L552.721 245.267L554.977 246.121L555.154 245.653ZM552.898 244.799L553.248 244.442L549.591 240.859L549.241 241.216L548.892 241.574L552.548 245.156L552.898 244.799ZM549.241 241.216L548.757 241.094L548.217 243.237L548.702 243.36L549.187 243.482L549.726 241.339L549.241 241.216ZM548.702 243.36L548.204 243.315L547.953 246.145L548.451 246.189L548.949 246.233L549.2 243.404L548.702 243.36ZM548.451 246.189L548.768 245.802L545.973 243.512L545.656 243.899L545.339 244.286L548.134 246.576L548.451 246.189ZM545.656 243.899L545.858 243.441L543.813 242.538L543.611 242.995L543.409 243.453L545.454 244.356L545.656 243.899ZM543.611 242.995L543.485 242.511L542.061 242.882L542.187 243.366L542.313 243.85L543.737 243.479L543.611 242.995ZM542.187 243.366L541.693 243.288L541.272 245.974L541.766 246.051L542.26 246.129L542.681 243.443L542.187 243.366ZM541.766 246.051L541.266 246.033L541.137 249.59L541.637 249.608L542.136 249.626L542.265 246.07L541.766 246.051ZM541.637 249.608L541.652 249.108L539.991 249.057L539.975 249.556L539.96 250.056L541.621 250.107L541.637 249.608ZM539.975 249.556L539.537 249.316L538.579 251.061L539.018 251.302L539.456 251.542L540.414 249.797L539.975 249.556ZM539.018 251.302L538.658 250.954L537.471 252.183L537.83 252.53L538.19 252.878L539.377 251.649L539.018 251.302ZM537.83 252.53L538.13 252.13L535.917 250.473L535.617 250.873L535.318 251.273L537.53 252.93L537.83 252.53ZM535.617 250.873L535.118 250.84L534.853 254.823L535.352 254.856L535.851 254.889L536.116 250.906L535.617 250.873ZM535.352 254.856L535.763 254.57L532.735 250.216L532.324 250.501L531.914 250.787L534.942 255.141L535.352 254.856ZM532.324 250.501L531.827 250.451L531.437 254.317L531.934 254.367L532.432 254.417L532.822 250.552L532.324 250.501ZM531.934 254.367L532.348 254.086L529.564 249.976L529.15 250.257L528.736 250.537L531.52 254.647L531.934 254.367ZM529.15 250.257L528.651 250.271L528.84 256.599L529.34 256.584L529.84 256.569L529.65 250.242L529.15 250.257ZM529.34 256.584L529.607 256.162L527.677 254.94L527.409 255.363L527.142 255.785L529.073 257.007L529.34 256.584ZM527.409 255.363L527.854 255.135L524.861 249.289L524.416 249.517L523.971 249.745L526.964 255.591L527.409 255.363ZM524.416 249.517L523.916 249.535L524.209 257.372L524.708 257.353L525.208 257.335L524.916 249.498L524.416 249.517ZM524.708 257.353L524.344 257.011L523.043 258.394L523.407 258.736L523.771 259.079L525.072 257.696L524.708 257.353ZM523.407 258.736L523.684 258.32L521.838 257.091L521.561 257.507L521.284 257.923L523.129 259.153L523.407 258.736ZM521.561 257.507L522.02 257.309L519.294 251.005L518.835 251.203L518.376 251.402L521.102 257.705L521.561 257.507ZM518.835 251.203L518.865 250.704L517.373 250.615L517.343 251.114L517.313 251.613L518.806 251.702L518.835 251.203ZM517.343 251.114L516.845 251.065L516.271 256.907L516.768 256.956L517.266 257.005L517.84 251.163L517.343 251.114ZM516.768 256.956L516.734 256.457L515.207 256.562L515.241 257.061L515.275 257.56L516.803 257.455L516.768 256.956ZM515.241 257.061L515.669 256.802L513.726 253.586L513.298 253.844L512.87 254.103L514.813 257.319L515.241 257.061ZM513.298 253.844L513.263 253.346L511.782 253.451L511.817 253.949L511.853 254.448L513.334 254.343L513.298 253.844ZM511.817 253.949L511.335 253.816L510.233 257.815L510.716 257.948L511.198 258.081L512.299 254.082L511.817 253.949ZM510.716 257.948L511.043 257.57L509.389 256.14L509.062 256.518L508.735 256.897L510.389 258.326L510.716 257.948ZM509.062 256.518L509.481 256.246L507.785 253.641L507.366 253.913L506.947 254.186L508.643 256.791L509.062 256.518ZM507.366 253.913L506.921 253.685L505.583 256.298L506.028 256.526L506.473 256.754L507.811 254.141L507.366 253.913ZM506.028 256.526L505.583 256.298L504.187 259.024L504.632 259.252L505.077 259.48L506.473 256.754L506.028 256.526ZM504.632 259.252L505.063 258.999L503.444 256.24L503.013 256.493L502.582 256.746L504.2 259.505L504.632 259.252ZM503.013 256.493L503.407 256.185L501.871 254.222L501.477 254.53L501.084 254.838L502.619 256.801L503.013 256.493ZM501.477 254.53L501.127 254.174L499.639 255.638L499.99 255.995L500.341 256.351L501.828 254.886L501.477 254.53ZM499.99 255.995L500.452 255.803L498.996 252.29L498.534 252.482L498.072 252.673L499.528 256.186L499.99 255.995ZM498.534 252.482L498.05 252.359L496.414 258.823L496.898 258.946L497.383 259.069L499.019 252.604L498.534 252.482ZM496.898 258.946L496.906 258.446L495.367 258.424L495.36 258.924L495.353 259.424L496.891 259.446L496.898 258.946ZM495.36 258.924L495.573 258.472L494.07 257.762L493.857 258.214L493.643 258.667L495.146 259.376L495.36 258.924ZM493.857 258.214L493.597 257.787L491.987 258.767L492.247 259.194L492.507 259.621L494.117 258.642L493.857 258.214ZM492.247 259.194L491.967 258.78L490.321 259.892L490.6 260.307L490.88 260.721L492.527 259.609L492.247 259.194ZM490.6 260.307L491.069 260.132L489.826 256.802L489.358 256.977L488.889 257.152L490.132 260.482L490.6 260.307ZM489.358 256.977L488.94 256.702L487.094 259.501L487.511 259.776L487.929 260.051L489.775 257.253L489.358 256.977ZM487.511 259.776L487.874 259.432L486.482 257.966L486.119 258.31L485.757 258.654L487.149 260.12L487.511 259.776ZM486.119 258.31L486.618 258.27L486.053 251.202L485.555 251.242L485.056 251.282L485.621 258.35L486.119 258.31ZM485.555 251.242L485.091 251.054L482.723 256.911L483.186 257.098L483.65 257.286L486.018 251.429L485.555 251.242ZM483.186 257.098L483.631 256.871L482.46 254.579L482.015 254.806L481.57 255.034L482.741 257.326L483.186 257.098ZM482.015 254.806L482.471 254.602L481.386 252.183L480.93 252.388L480.473 252.592L481.559 255.011L482.015 254.806ZM480.93 252.388L480.891 251.889L479.369 252.006L479.407 252.504L479.445 253.003L480.968 252.886L480.93 252.388ZM479.407 252.504L479.429 252.005L477.93 251.939L477.908 252.438L477.886 252.938L479.385 253.004L479.407 252.504ZM477.908 252.438L478.076 251.967L476.667 251.466L476.5 251.937L476.332 252.409L477.741 252.909L477.908 252.438ZM476.5 251.937L476.232 251.515L474.433 252.655L474.701 253.077L474.969 253.5L476.767 252.36L476.5 251.937ZM474.701 253.077L475.19 252.974L474.495 249.672L474.006 249.775L473.517 249.878L474.212 253.18L474.701 253.077ZM474.006 249.775L474.336 249.399L473.114 248.325L472.784 248.701L472.454 249.076L473.676 250.15L474.006 249.775ZM472.784 248.701L472.339 248.472L468.904 255.158L469.348 255.387L469.793 255.615L473.229 248.929L472.784 248.701ZM469.348 255.387L469.848 255.392L469.905 249.87L469.405 249.865L468.905 249.86L468.848 255.382L469.348 255.387ZM469.405 249.865L469.02 249.547L466.49 252.613L466.876 252.931L467.261 253.25L469.791 250.183L469.405 249.865ZM466.876 252.931L467.375 252.907L467.168 248.704L466.669 248.729L466.169 248.753L466.376 252.956L466.876 252.931ZM466.669 248.729L466.414 248.298L464.445 249.463L464.699 249.893L464.954 250.324L466.923 249.159L466.669 248.729ZM464.699 249.893L464.944 249.457L463.623 248.715L463.378 249.151L463.133 249.587L464.454 250.329L464.699 249.893ZM463.378 249.151L462.998 248.827L460.086 252.245L460.467 252.569L460.848 252.894L463.759 249.475L463.378 249.151ZM460.467 252.569L460.82 252.215L459.621 251.023L459.269 251.377L458.916 251.732L460.114 252.924L460.467 252.569ZM459.269 251.377L459.06 250.923L456.997 251.868L457.205 252.322L457.413 252.777L459.477 251.832L459.269 251.377ZM457.205 252.322L457.697 252.408L458.846 245.798L458.353 245.712L457.86 245.626L456.712 252.237L457.205 252.322ZM458.353 245.712L458.051 245.314L455.595 247.177L455.897 247.575L456.199 247.974L458.655 246.11L458.353 245.712ZM455.897 247.575L455.541 247.225L452.365 250.456L452.721 250.807L453.078 251.157L456.254 247.926L455.897 247.575ZM452.721 250.807L453.202 250.944L455.737 242.086L455.256 241.948L454.776 241.811L452.241 250.669L452.721 250.807ZM455.256 241.948L455.133 241.464L453.276 241.938L453.4 242.423L453.524 242.907L455.38 242.433L455.256 241.948ZM453.4 242.423L453.093 242.028L450.326 244.183L450.634 244.578L450.941 244.972L453.707 242.817L453.4 242.423ZM450.634 244.578L450.494 244.098L448.467 244.687L448.607 245.167L448.747 245.647L450.773 245.058L450.634 244.578ZM448.607 245.167L448.343 244.743L445.671 246.407L445.935 246.831L446.199 247.256L448.871 245.592L448.607 245.167ZM445.935 246.831L446.426 246.928L447.374 242.121L446.884 242.024L446.393 241.927L445.445 246.734L445.935 246.831ZM446.884 242.024L446.935 241.527L445.292 241.356L445.24 241.853L445.188 242.35L446.832 242.521L446.884 242.024ZM445.24 241.853L445.736 241.915L446.187 238.281L445.69 238.22L445.194 238.158L444.744 241.792L445.24 241.853ZM445.69 238.22L445.497 237.759L443.143 238.745L443.336 239.206L443.529 239.667L445.883 238.681L445.69 238.22ZM443.336 239.206L443.835 239.239L444.038 236.187L443.539 236.154L443.04 236.121L442.837 239.173L443.336 239.206ZM443.539 236.154L443.295 235.717L440.494 237.281L440.738 237.717L440.982 238.154L443.783 236.591L443.539 236.154ZM440.738 237.717L441.228 237.617L440.81 235.588L440.321 235.689L439.831 235.79L440.248 237.818L440.738 237.717ZM440.321 235.689L440.736 235.41L439.855 234.101L439.44 234.38L439.026 234.659L439.906 235.968L440.321 235.689ZM439.44 234.38L439.183 233.952L435.925 235.913L436.182 236.341L436.44 236.77L439.698 234.808L439.44 234.38ZM436.182 236.341L436.607 236.077L435.75 234.696L435.325 234.96L434.9 235.223L435.758 236.605L436.182 236.341ZM435.325 234.96L435.149 234.492L432.446 235.511L432.622 235.978L432.798 236.446L435.501 235.428L435.325 234.96ZM432.622 235.978L432.699 235.484L430.944 235.209L430.867 235.703L430.789 236.197L432.545 236.472L432.622 235.978ZM430.867 235.703L431.322 235.91L433.822 230.426L433.367 230.218L432.912 230.011L430.412 235.496L430.867 235.703ZM433.367 230.218L433.624 229.79L432.344 229.021L432.087 229.449L431.829 229.878L433.109 230.647L433.367 230.218ZM432.087 229.449L431.91 228.982L428.991 230.085L429.168 230.553L429.344 231.02L432.264 229.917L432.087 229.449ZM429.168 230.553L429.395 230.107L428 229.395L427.772 229.84L427.545 230.285L428.94 230.998L429.168 230.553ZM427.772 229.84L428.256 229.713L427.799 227.966L427.315 228.092L426.831 228.219L427.288 229.966L427.772 229.84ZM427.315 228.092L427.672 227.742L426.614 226.666L426.258 227.017L425.901 227.368L426.959 228.443L427.315 228.092ZM426.258 227.017L426.717 227.215L428.382 223.348L427.922 223.15L427.463 222.953L425.799 226.819L426.258 227.017ZM427.922 223.15L428.1 222.683L426.612 222.118L426.435 222.586L426.257 223.053L427.745 223.618L427.922 223.15ZM426.435 222.586L426.305 222.103L423.405 222.883L423.535 223.366L423.665 223.849L426.565 223.068L426.435 222.586ZM423.535 223.366L424.007 223.531L425.081 220.46L424.609 220.295L424.137 220.13L423.063 223.201L423.535 223.366ZM424.609 220.295L424.338 219.874L417.151 224.496L417.422 224.916L417.692 225.337L424.879 220.715L424.609 220.295ZM417.422 224.916L417.847 225.179L420.742 220.486L420.316 220.224L419.891 219.961L416.996 224.654L417.422 224.916ZM420.316 220.224L420.207 219.736L417.13 220.422L417.239 220.91L417.347 221.398L420.425 220.712L420.316 220.224ZM417.239 220.91L417.523 220.499L416.213 219.592L415.929 220.003L415.644 220.414L416.954 221.321L417.239 220.91ZM415.929 220.003L416.403 219.844L415.877 218.278L415.403 218.438L414.929 218.597L415.455 220.162L415.929 220.003ZM415.403 218.438L415.514 217.95L413.597 217.515L413.486 218.003L413.376 218.491L415.293 218.925L415.403 218.438ZM413.486 218.003L413.582 217.512L411.559 217.116L411.463 217.606L411.367 218.097L413.39 218.494L413.486 218.003ZM411.463 217.606L411.874 217.891L414.726 213.779L414.315 213.494L413.904 213.209L411.052 217.322L411.463 217.606ZM414.315 213.494L414.811 213.56L415.086 211.496L414.59 211.43L414.095 211.364L413.82 213.428L414.315 213.494ZM414.59 211.43L414.891 211.031L413.648 210.094L413.347 210.493L413.046 210.892L414.289 211.829L414.59 211.43ZM413.347 210.493L413.714 210.153L412.69 209.048L412.323 209.388L411.956 209.727L412.98 210.833L413.347 210.493ZM412.323 209.388L412.311 208.888L409.524 208.954L409.536 209.453L409.548 209.953L412.335 209.887L412.323 209.388ZM409.536 209.453L409.953 209.73L412.067 206.542L411.65 206.266L411.233 205.989L409.119 209.177L409.536 209.453ZM411.65 206.266L411.548 205.776L407.388 206.646L407.49 207.135L407.592 207.624L411.752 206.755L411.65 206.266ZM407.49 207.135L407.794 206.738L406.489 205.737L406.184 206.134L405.88 206.531L407.186 207.532L407.49 207.135ZM406.184 206.134L406.567 205.813L405.563 204.617L405.181 204.939L404.798 205.26L405.802 206.456L406.184 206.134ZM405.181 204.939L405.666 204.818L405.278 203.261L404.793 203.382L404.307 203.503L404.695 205.06L405.181 204.939ZM404.793 203.382L404.822 202.883L401.951 202.711L401.922 203.21L401.892 203.709L404.763 203.881L404.793 203.382ZM401.922 203.21L402.229 203.604L409.485 197.944L409.177 197.55L408.87 197.156L401.614 202.816L401.922 203.21ZM409.177 197.55L409.028 197.073L401.073 199.557L401.222 200.034L401.371 200.511L409.326 198.027L409.177 197.55ZM401.222 200.034L401.623 200.333L403.696 197.555L403.295 197.256L402.895 196.957L400.821 199.735L401.222 200.034ZM403.295 197.256L403.46 196.784L401.427 196.078L401.263 196.55L401.099 197.022L403.131 197.729L403.295 197.256ZM401.263 196.55L401.582 196.935L406.222 193.089L405.903 192.704L405.584 192.319L400.944 196.165L401.263 196.55ZM405.903 192.704L406.244 192.339L405.09 191.261L404.749 191.626L404.408 191.992L405.562 193.07L405.903 192.704ZM404.749 191.626L404.662 191.134L398.359 192.25L398.446 192.743L398.534 193.235L404.836 192.119L404.749 191.626ZM398.446 192.743L398.88 192.494L398.104 191.137L397.67 191.385L397.236 191.634L398.012 192.991L398.446 192.743ZM397.67 191.385L398.032 191.73L400.596 189.041L400.234 188.696L399.872 188.351L397.308 191.04L397.67 191.385ZM400.234 188.696L400.72 188.58L400.366 187.102L399.879 187.219L399.393 187.336L399.748 188.813L400.234 188.696ZM399.879 187.219L399.868 186.719L395.197 186.821L395.207 187.32L395.218 187.82L399.89 187.719L399.879 187.219ZM395.207 187.32L395.592 187.64L397.535 185.307L397.15 184.987L396.766 184.667L394.823 187L395.207 187.32ZM397.15 184.987L397.604 185.198L398.49 183.292L398.036 183.081L397.583 182.871L396.697 184.777L397.15 184.987ZM398.036 183.081L398.174 182.601L395.547 181.85L395.409 182.33L395.272 182.811L397.899 183.562L398.036 183.081ZM395.409 182.33L395.905 182.265L395.7 180.718L395.204 180.784L394.709 180.85L394.914 182.396L395.409 182.33ZM395.204 180.784L395.453 181.218L401.042 178.02L400.793 177.586L400.545 177.152L394.956 180.35L395.204 180.784ZM400.793 177.586L400.774 177.087L394.35 177.328L394.369 177.828L394.388 178.327L400.812 178.086L400.793 177.586ZM394.369 177.828L394.628 178.255L399.163 175.505L398.903 175.077L398.644 174.65L394.11 177.4L394.369 177.828ZM398.903 175.077L399.309 174.785L398.388 173.504L397.982 173.796L397.576 174.088L398.497 175.369L398.903 175.077ZM397.982 173.796L398.469 173.911L398.846 172.316L398.359 172.201L397.873 172.086L397.496 173.681L397.982 173.796ZM398.359 172.201L398.648 171.793L397.017 170.641L396.729 171.049L396.44 171.457L398.071 172.61L398.359 172.201ZM396.729 171.049L396.793 170.553L392.157 169.955L392.093 170.451L392.029 170.947L396.665 171.545L396.729 171.049ZM392.093 170.451L392.316 170.899L397.276 168.428L397.053 167.981L396.83 167.533L391.87 170.004L392.093 170.451ZM397.053 167.981L397.096 167.483L391.202 166.981L391.159 167.479L391.117 167.977L397.011 168.479L397.053 167.981ZM391.159 167.479L391.343 167.944L397.822 165.38L397.638 164.915L397.454 164.45L390.975 167.014L391.159 167.479ZM397.638 164.915L397.864 164.469L395.603 163.32L395.377 163.765L395.15 164.211L397.411 165.36L397.638 164.915ZM395.377 163.765L395.806 163.509L394.974 162.119L394.545 162.376L394.116 162.633L394.948 164.022L395.377 163.765ZM394.545 162.376L394.678 161.894L390.786 160.82L390.653 161.302L390.52 161.784L394.412 162.858L394.545 162.376ZM390.653 161.302L391.153 161.3L391.147 159.748L390.647 159.75L390.147 159.752L390.153 161.304L390.653 161.302ZM390.647 159.75L390.885 159.31L388.411 157.971L388.173 158.41L387.935 158.85L390.409 160.19L390.647 159.75ZM388.173 158.41L388.421 158.844L391.551 157.052L391.302 156.618L391.054 156.184L387.924 157.976L388.173 158.41ZM391.302 156.618L391.793 156.521L391.491 155.001L391 155.099L390.51 155.196L390.812 156.716L391.302 156.618ZM391 155.099L391.339 155.466L393.078 153.866L392.739 153.498L392.401 153.13L390.662 154.731L391 155.099ZM392.739 153.498L392.992 153.93L395.684 152.354L395.432 151.922L395.179 151.491L392.487 153.067L392.739 153.498ZM395.432 151.922L395.903 151.755L395.382 150.29L394.911 150.458L394.44 150.625L394.961 152.09L395.432 151.922ZM394.911 150.458L395.205 150.862L397.245 149.382L396.952 148.977L396.658 148.573L394.617 150.053L394.911 150.458ZM396.952 148.977L397.07 148.491L390.679 146.942L390.562 147.428L390.444 147.914L396.834 149.463L396.952 148.977ZM390.562 147.428L390.862 147.828L392.829 146.346L392.528 145.947L392.227 145.548L390.261 147.029L390.562 147.428ZM392.528 145.947L392.903 145.617L391.529 144.051L391.153 144.381L390.777 144.711L392.152 146.277L392.528 145.947ZM391.153 144.381L391.502 144.023L389.833 142.399L389.484 142.757L389.135 143.115L390.804 144.74L391.153 144.381ZM389.484 142.757L389.555 143.252L396.877 142.206L396.806 141.711L396.735 141.216L389.413 142.262L389.484 142.757ZM396.806 141.711L396.985 141.244L392.112 139.375L391.933 139.842L391.754 140.309L396.627 142.178L396.806 141.711ZM391.933 139.842L392.433 139.827L392.385 138.297L391.886 138.312L391.386 138.328L391.433 139.858L391.933 139.842ZM391.886 138.312L392.043 138.787L395.508 137.64L395.35 137.165L395.193 136.691L391.729 137.838L391.886 138.312ZM395.35 137.165L395.566 136.714L391.333 134.685L391.116 135.136L390.9 135.587L395.134 137.616L395.35 137.165ZM391.116 135.136L391.614 135.181L391.754 133.647L391.256 133.601L390.758 133.556L390.618 135.091L391.116 135.136ZM391.256 133.601L391.453 134.061L394.113 132.917L393.915 132.458L393.718 131.998L391.058 133.142L391.256 133.601ZM393.915 132.458L394.195 132.044L391.165 129.996L390.885 130.41L390.605 130.825L393.635 132.872L393.915 132.458ZM390.885 130.41L391.133 130.845L393.227 129.651L392.979 129.216L392.732 128.782L390.638 129.976L390.885 130.41ZM392.979 129.216L393.356 128.887L391.709 127.004L391.332 127.334L390.956 127.663L392.603 129.545L392.979 129.216ZM391.332 127.334L391.347 127.833L397.887 127.64L397.873 127.14L397.858 126.64L391.318 126.834L391.332 127.334ZM397.873 127.14L398.214 126.775L396.088 124.784L395.747 125.149L395.405 125.514L397.531 127.505L397.873 127.14ZM395.747 125.149L396.02 124.73L392.249 122.268L391.976 122.686L391.702 123.105L395.473 125.567L395.747 125.149ZM391.976 122.686L392.21 123.128L394.247 122.046L394.013 121.604L393.778 121.162L391.741 122.245L391.976 122.686ZM394.013 121.604L394.354 121.969L395.674 120.733L395.332 120.368L394.991 120.003L393.671 121.239L394.013 121.604ZM395.332 120.368L395.364 120.867L399.854 120.579L399.822 120.08L399.79 119.581L395.3 119.869L395.332 120.368ZM399.822 120.08L400.206 119.76L398.504 117.714L398.119 118.034L397.735 118.354L399.438 120.399L399.822 120.08ZM398.119 118.034L398.191 118.529L401.566 118.039L401.494 117.544L401.422 117.049L398.047 117.539L398.119 118.034ZM401.494 117.544L401.933 117.305L400.911 115.43L400.472 115.669L400.033 115.908L401.055 117.783L401.494 117.544ZM400.472 115.669L400.735 115.244L394.887 111.628L394.624 112.054L394.361 112.479L400.209 116.094L400.472 115.669ZM394.624 112.054L394.726 112.543L397.622 111.939L397.52 111.45L397.418 110.96L394.522 111.564L394.624 112.054ZM397.52 111.45L397.757 111.89L399.543 110.932L399.307 110.491L399.071 110.051L397.284 111.009L397.52 111.45ZM399.307 110.491L399.366 110.988L402.515 110.617L402.457 110.12L402.398 109.624L399.249 109.995L399.307 110.491ZM402.457 110.12L402.955 110.163L403.089 108.624L402.591 108.581L402.092 108.538L401.959 110.077L402.457 110.12ZM402.591 108.581L402.908 108.195L398.77 104.791L398.452 105.177L398.135 105.563L402.273 108.967L402.591 108.581ZM398.452 105.177L398.949 105.236L399.143 103.619L398.646 103.56L398.15 103.5L397.956 105.117L398.452 105.177ZM398.646 103.56L398.527 104.046L406.274 105.941L406.393 105.455L406.512 104.97L398.765 103.074L398.646 103.56ZM406.393 105.455L406.781 105.14L404.624 102.488L404.236 102.803L403.848 103.119L406.005 105.771L406.393 105.455ZM404.236 102.803L404.567 102.429L400.208 98.5706L399.877 98.945L399.545 99.3194L403.905 103.177L404.236 102.803ZM399.877 98.945L400.154 99.3607L401.646 98.3639L401.368 97.9482L401.09 97.5326L399.599 98.5293L399.877 98.945ZM401.368 97.9482L401.22 98.426L408.966 100.819L409.113 100.341L409.261 99.8632L401.515 97.4705L401.368 97.9482ZM409.113 100.341L409.446 99.9682L404.552 95.593L404.219 95.9658L403.886 96.3385L408.78 100.714L409.113 100.341ZM404.219 95.9658L404.137 96.459L408.488 97.1838L408.57 96.6905L408.652 96.1973L404.301 95.4726L404.219 95.9658ZM408.57 96.6905L408.939 96.3528L405.492 92.5902L405.123 92.9279L404.754 93.2657L408.201 97.0283L408.57 96.6905ZM405.123 92.9279L404.967 93.4028L411.383 95.5167L411.54 95.0418L411.696 94.5669L405.28 92.453L405.123 92.9279ZM411.54 95.0418L411.977 94.8004L410.521 92.1589L410.083 92.4003L409.645 92.6417L411.102 95.2832L411.54 95.0418ZM410.083 92.4003L410.227 92.8791L412.097 92.3166L411.953 91.8378L411.809 91.359L409.939 91.9215L410.083 92.4003ZM411.953 91.8378L412.432 91.6924L411.754 89.4631L411.276 89.6085L410.797 89.7538L411.475 91.9831L411.953 91.8378ZM411.276 89.6085L411.755 89.7515L412.206 88.2401L411.727 88.0971L411.248 87.954L410.797 89.4654L411.276 89.6085ZM411.727 88.0971L412.221 88.1774L412.49 86.5199L411.997 86.4396L411.503 86.3593L411.234 88.0168L411.727 88.0971ZM411.997 86.4396L411.849 86.9173L416.269 88.2816L416.417 87.8038L416.564 87.326L412.144 85.9618L411.997 86.4396ZM416.417 87.8038L416.842 87.5403L414.714 84.109L414.289 84.3724L413.864 84.6359L415.992 88.0672L416.417 87.8038ZM414.289 84.3724L414.727 84.1305L412.873 80.7772L412.435 81.0192L411.998 81.2612L413.852 84.6144L414.289 84.3724ZM412.435 81.0192L412.415 81.5188L415.04 81.6274L415.061 81.1278L415.082 80.6283L412.456 80.5196L412.435 81.0192ZM415.061 81.1278L415.547 81.0106L414.952 78.5427L414.466 78.6599L413.98 78.7771L414.575 81.2451L415.061 81.1278ZM414.466 78.6599L414.416 79.1574L417.147 79.4335L417.197 78.9361L417.247 78.4386L414.516 78.1625L414.466 78.6599ZM417.197 78.9361L417.511 79.3251L418.715 78.3535L418.401 77.9644L418.086 77.5754L416.883 78.547L417.197 78.9361ZM418.401 77.9644L418.88 77.8227L418.06 75.0465L417.58 75.1882L417.101 75.3299L417.921 78.1062L418.401 77.9644ZM417.58 75.1882L417.495 75.681L420.311 76.1644L420.396 75.6716L420.48 75.1788L417.665 74.6954L417.58 75.1882ZM420.396 75.6716L420.895 75.6413L420.76 73.4186L420.261 73.4489L419.762 73.4792L419.897 75.7019L420.396 75.6716ZM420.261 73.4489L420.01 73.8815L425.452 77.0338L425.703 76.6011L425.953 76.1685L420.511 73.0162L420.261 73.4489ZM425.703 76.6011L426.116 76.3193L421.656 69.784L421.243 70.0658L420.83 70.3476L425.29 76.8829L425.703 76.6011ZM421.243 70.0658L421.271 70.5651L423.342 70.4519L423.314 69.9527L423.287 69.4534L421.216 69.5665L421.243 70.0658ZM423.314 69.9527L423.033 70.3662L428.95 74.386L429.231 73.9724L429.512 73.5588L423.595 69.5391L423.314 69.9527ZM429.231 73.9724L429.656 73.709L425.559 67.097L425.134 67.3604L424.709 67.6238L428.806 74.2358L429.231 73.9724ZM425.134 67.3604L424.956 67.8278L428.107 69.0246L428.285 68.5572L428.462 68.0897L425.311 66.893L425.134 67.3604ZM428.285 68.5572L428.783 68.514L428.56 65.9473L428.062 65.9904L427.564 66.0336L427.786 68.6003L428.285 68.5572ZM428.062 65.9904L428.282 66.4393L429.71 65.739L429.489 65.2901L429.269 64.8412L427.842 65.5415L428.062 65.9904ZM429.489 65.2901L429.276 65.7424L432.513 67.2684L432.727 66.8162L432.94 66.3639L429.703 64.8378L429.489 65.2901ZM432.727 66.8162L433.189 67.0072L433.84 65.4311L433.378 65.2401L432.916 65.0491L432.265 66.6252L432.727 66.8162ZM433.378 65.2401L433.871 65.159L433.359 62.0399L432.866 62.121L432.372 62.202L432.885 65.3212L433.378 65.2401ZM432.866 62.121L432.906 62.6193L434.725 62.4729L434.685 61.9745L434.645 61.4762L432.825 61.6226L432.866 62.121ZM434.685 61.9745L434.402 62.3868L438.19 64.9858L438.473 64.5735L438.756 64.1612L434.968 61.5623L434.685 61.9745ZM438.473 64.5735L438.579 65.0621L440.137 64.7238L440.031 64.2352L439.925 63.7466L438.367 64.0849L438.473 64.5735ZM440.031 64.2352L440.522 64.329L440.907 62.3146L440.416 62.2207L439.925 62.1268L439.54 64.1413L440.031 64.2352ZM440.416 62.2207L440.303 62.7078L442.405 63.1942L442.518 62.7071L442.631 62.22L440.529 61.7336L440.416 62.2207ZM442.518 62.7071L442.582 63.203L444.183 62.9973L444.119 62.5014L444.055 62.0055L442.454 62.2112L442.518 62.7071ZM444.119 62.5014L444.582 62.313L441.434 54.5767L440.971 54.7652L440.508 54.9536L443.656 62.6898L444.119 62.5014ZM440.971 54.7652L440.631 55.1317L444.829 59.0273L445.17 58.6608L445.51 58.2943L441.311 54.3986L440.971 54.7652ZM445.17 58.6608L445.475 59.0562L446.658 58.1417L446.352 57.7462L446.046 57.3507L444.864 58.2653L445.17 58.6608ZM446.352 57.7462L446.834 57.6132L445.231 51.8033L444.749 51.9363L444.267 52.0692L445.87 57.8792L446.352 57.7462ZM444.749 51.9363L444.416 52.3097L447.94 55.4468L448.273 55.0734L448.605 54.6999L445.081 51.5628L444.749 51.9363ZM448.273 55.0734L448.718 55.2998L449.551 53.6614L449.105 53.435L448.659 53.2086L447.827 54.8469L448.273 55.0734ZM449.105 53.435L449.603 53.4717L449.817 50.5713L449.318 50.5345L448.82 50.4978L448.606 53.3983L449.105 53.435ZM449.318 50.5345L449.757 50.7749L450.668 49.1142L450.229 48.8738L449.791 48.6334L448.88 50.2941L449.318 50.5345ZM450.229 48.8738L449.895 49.2461L452.959 51.9923L453.293 51.62L453.627 51.2477L450.563 48.5015L450.229 48.8738ZM453.293 51.62L452.959 51.9918L455.82 54.5644L456.154 54.1925L456.488 53.8207L453.627 51.2482L453.293 51.62ZM456.154 54.1925L456.441 54.6023L457.664 53.7465L457.378 53.3368L457.091 52.927L455.868 53.7828L456.154 54.1925ZM457.378 53.3368L457.742 53.6799L458.842 52.5135L458.479 52.1703L458.115 51.8271L457.014 52.9936L457.378 53.3368ZM458.479 52.1703L458.574 52.6611L460.055 52.3728L459.959 51.882L459.864 51.3912L458.383 51.6795L458.479 52.1703ZM459.959 51.882L459.76 52.3404L461.676 53.1747L461.875 52.7163L462.075 52.2578L460.159 51.4236L459.959 51.882ZM461.875 52.7163L462.141 53.1395L463.397 52.3498L463.131 51.9266L462.865 51.5033L461.609 52.293L461.875 52.7163ZM463.131 51.9266L463.467 52.2967L464.634 51.2369L464.298 50.8668L463.962 50.4966L462.795 51.5564L463.131 51.9266ZM464.298 50.8668L464.798 50.8753L464.87 46.6321L464.371 46.6236L463.871 46.615L463.798 50.8582L464.298 50.8668ZM464.371 46.6236L463.994 46.9531L466.578 49.9016L466.954 49.5721L467.33 49.2426L464.747 46.294L464.371 46.6236ZM466.954 49.5721L467.447 49.6573L467.992 46.5011L467.5 46.416L467.007 46.3309L466.462 49.487L466.954 49.5721ZM467.5 46.416L467.113 46.7331L469.606 49.7722L469.992 49.4551L470.379 49.1381L467.886 46.0989L467.5 46.416ZM469.992 49.4551L470.492 49.4662L470.601 44.5422L470.101 44.5312L469.601 44.5202L469.492 49.4441L469.992 49.4551ZM470.101 44.5312L470.553 44.7452L471.559 42.6198L471.107 42.4058L470.655 42.1918L469.649 44.3172L470.101 44.5312ZM471.107 42.4058L470.776 42.7804L472.847 44.6117L473.179 44.2371L473.51 43.8626L471.438 42.0312L471.107 42.4058ZM473.179 44.2371L473.541 44.5817L474.785 43.2738L474.422 42.9293L474.06 42.5847L472.816 43.8926L473.179 44.2371ZM474.422 42.9293L474.906 43.057L475.753 39.8515L475.269 39.7238L474.786 39.5961L473.939 42.8015L474.422 42.9293ZM475.269 39.7238L474.981 40.1321L476.874 41.4702L477.162 41.0619L477.451 40.6536L475.558 39.3155L475.269 39.7238ZM477.162 41.0619L476.731 41.3148L479.102 45.3587L479.533 45.1058L479.965 44.8529L477.594 40.809L477.162 41.0619ZM479.533 45.1058L479.838 45.5027L481.162 44.488L480.858 44.0911L480.554 43.6942L479.229 44.7089L479.533 45.1058ZM480.858 44.0911L480.433 44.3541L482.514 47.7201L482.939 47.4571L483.365 47.1942L481.283 43.8281L480.858 44.0911ZM482.939 47.4571L483.438 47.4933L483.911 40.9781L483.412 40.942L482.913 40.9058L482.441 47.421L482.939 47.4571ZM483.412 40.942L482.959 41.1537L485.153 45.8465L485.606 45.6348L486.059 45.423L483.865 40.7302L483.412 40.942ZM485.606 45.6348L486.097 45.7284L486.991 41.038L486.5 40.9444L486.009 40.8507L485.115 45.5412L485.606 45.6348ZM486.5 40.9444L486.957 41.1466L488.192 38.3559L487.734 38.1536L487.277 37.9513L486.042 40.7421L486.5 40.9444ZM487.734 38.1536L487.824 38.6455L489.371 38.3624L489.281 37.8706L489.191 37.3787L487.644 37.6618L487.734 38.1536ZM489.281 37.8706L489.291 38.3705L490.857 38.3397L490.847 37.8398L490.837 37.3399L489.271 37.3707L489.281 37.8706ZM490.847 37.8398L490.574 38.2586L492.216 39.3302L492.489 38.9114L492.763 38.4927L491.12 37.4211L490.847 37.8398ZM492.489 38.9114L492.836 39.2716L494.316 37.8465L493.969 37.4864L493.622 37.1262L492.143 38.5513L492.489 38.9114ZM493.969 37.4864L493.484 37.6071L495.347 45.0927L495.832 44.972L496.317 44.8512L494.454 37.3656L493.969 37.4864ZM495.832 44.972L496.309 45.1238L497.659 40.8865L497.183 40.7347L496.707 40.5828L495.356 44.8201L495.832 44.972ZM497.183 40.7347L497.153 41.2337L498.677 41.3258L498.707 40.8267L498.737 40.3276L497.213 40.2356L497.183 40.7347ZM498.707 40.8267L499.116 41.1147L500.645 38.9445L500.236 38.6564L499.828 38.3684L498.298 40.5386L498.707 40.8267ZM500.236 38.6564L499.858 38.9829L501.385 40.7551L501.764 40.4286L502.143 40.1022L500.615 38.33L500.236 38.6564ZM501.764 40.4286L501.287 40.5793L502.684 44.999L503.161 44.8483L503.637 44.6976L502.241 40.278L501.764 40.4286ZM503.161 44.8483L502.879 45.2611L504.299 46.2316L504.581 45.8188L504.863 45.406L503.443 44.4355L503.161 44.8483ZM504.581 45.8188L505.042 46.0108L506.726 41.9649L506.264 41.7728L505.802 41.5808L504.119 45.6267L504.581 45.8188ZM506.264 41.7728L506.707 42.005L508.46 38.66L508.017 38.4279L507.574 38.1958L505.821 41.5407L506.264 41.7728ZM508.017 38.4279L507.57 38.6507L508.903 41.3298L509.351 41.107L509.798 40.8841L508.465 38.2051L508.017 38.4279ZM509.351 41.107L509.613 41.533L511.235 40.5362L510.973 40.1102L510.711 39.6842L509.089 40.681L509.351 41.107ZM510.973 40.1102L511.332 40.4584L513.086 38.6503L512.727 38.3021L512.368 37.9539L510.614 39.762L510.973 40.1102ZM512.727 38.3021L512.228 38.3363L512.781 46.3901L513.28 46.3559L513.779 46.3217L513.226 38.2679L512.727 38.3021ZM513.28 46.3559L513.213 46.8515L514.652 47.0447L514.718 46.5492L514.785 46.0536L513.346 45.8604L513.28 46.3559ZM514.718 46.5492L514.886 47.0202L516.441 46.4664L516.273 45.9954L516.105 45.5244L514.55 46.0782L514.718 46.5492ZM516.273 45.9954L515.968 46.3918L517.284 47.4038L517.589 47.0074L517.894 46.611L516.578 45.599L516.273 45.9954ZM517.589 47.0074L518.05 47.2001L520.703 40.8518L520.242 40.659L519.78 40.4663L517.128 46.8146L517.589 47.0074ZM520.242 40.659L520.537 41.0624L522.382 39.7107L522.086 39.3073L521.791 38.904L519.946 40.2557L520.242 40.659ZM522.086 39.3073L521.586 39.2893L521.26 48.314L521.76 48.3321L522.259 48.3502L522.586 39.3254L522.086 39.3073ZM521.76 48.3321L522.209 48.5518L525.003 42.8383L524.554 42.6187L524.105 42.399L521.31 48.1124L521.76 48.3321ZM524.554 42.6187L524.824 43.0393L526.694 41.8373L526.424 41.4167L526.154 40.996L524.284 42.198L524.554 42.6187ZM526.424 41.4167L526.647 41.864L528.489 40.9442L528.266 40.4968L528.043 40.0495L526.201 40.9693L526.424 41.4167ZM528.266 40.4968L527.767 40.5276L528.067 45.3979L528.566 45.3671L529.065 45.3364L528.765 40.4661L528.266 40.4968ZM528.566 45.3671L528.066 45.3868L528.254 50.1655L528.754 50.1459L529.253 50.1262L529.066 45.3475L528.566 45.3671ZM528.754 50.1459L529.117 50.4894L531.343 48.1354L530.98 47.7918L530.616 47.4483L528.39 49.8023L528.754 50.1459ZM530.98 47.7918L531.362 48.1136L533.884 45.1156L533.501 44.7938L533.118 44.472L530.597 47.47L530.98 47.7918ZM533.501 44.7938L533.033 44.9699L533.89 47.2474L534.358 47.0713L534.826 46.8952L533.969 44.6177L533.501 44.7938ZM534.358 47.0713L533.878 47.2118L534.605 49.6926L535.085 49.5521L535.564 49.4115L534.838 46.9307L534.358 47.0713ZM535.085 49.5521L535.313 49.9968L537.255 48.9992L537.026 48.5545L536.798 48.1097L534.856 49.1073L535.085 49.5521ZM537.026 48.5545L536.526 48.5653L536.612 52.5393L537.112 52.5285L537.612 52.5178L537.526 48.5437L537.026 48.5545ZM537.112 52.5285L537.516 52.8228L540.989 48.0515L540.585 47.7573L540.181 47.463L536.708 52.2343L537.112 52.5285ZM540.585 47.7573L540.704 48.2429L542.55 47.7898L542.431 47.3042L542.312 46.8186L540.466 47.2717L540.585 47.7573ZM542.431 47.3042L541.964 47.4835L542.757 49.5459L543.223 49.3666L543.69 49.1873L542.898 47.1249L542.431 47.3042ZM543.223 49.3666L542.729 49.2896L541.843 54.9727L542.337 55.0498L542.831 55.1268L543.717 49.4437L543.223 49.3666ZM542.337 55.0498L542.64 55.447L545.123 53.5496L544.819 53.1524L544.516 52.7551L542.033 54.6525L542.337 55.0498ZM544.819 53.1524L545.205 53.4707L549.199 48.6326L548.813 48.3143L548.428 47.996L544.434 52.8341L544.819 53.1524ZM548.813 48.3143L548.314 48.2946L548.164 52.0957L548.664 52.1154L549.163 52.135L549.313 48.3339L548.813 48.3143ZM548.664 52.1154L548.178 52.2366L548.735 54.4648L549.22 54.3436L549.705 54.2224L549.149 51.9942L548.664 52.1154ZM549.22 54.3436L549.576 54.6949L553.309 50.9135L552.954 50.5622L552.598 50.2109L548.864 53.9923L549.22 54.3436ZM552.954 50.5622L552.472 50.4282L550.677 56.8843L551.158 57.0183L551.64 57.1523L553.435 50.6962L552.954 50.5622ZM551.158 57.0183L550.666 57.1063L551.07 59.3682L551.563 59.2802L552.055 59.1922L551.65 56.9303L551.158 57.0183ZM551.563 59.2802L551.918 59.6316L556.149 55.3491L555.794 54.9977L555.438 54.6463L551.207 58.9288L551.563 59.2802ZM555.794 54.9977L556.042 55.4314L558.816 53.8411L558.567 53.4073L558.318 52.9736L555.545 54.5639L555.794 54.9977ZM558.567 53.4073L558.069 53.456L558.319 56.0073L558.816 55.9586L559.314 55.9099L559.064 53.3586L558.567 53.4073ZM558.816 55.9586L558.341 55.8031L556.484 61.4791L556.96 61.6345L557.435 61.79L559.292 56.1141L558.816 55.9586ZM556.96 61.6345L557.262 62.0329L560.859 59.3041L560.557 58.9058L560.255 58.5074L556.657 61.2362L556.96 61.6345ZM560.557 58.9058L560.545 59.4056L562.371 59.4474L562.382 58.9475L562.394 58.4476L560.568 58.4059L560.557 58.9058ZM562.382 58.9475L561.895 59.0601L562.357 61.0597L562.844 60.947L563.332 60.8344L562.869 58.8349L562.382 58.9475ZM562.844 60.947L562.675 61.4173L564.163 61.9551L564.333 61.4849L564.503 61.0147L563.014 60.4768L562.844 60.947ZM564.333 61.4849L564.577 61.9216L567.884 60.0765L567.641 59.6399L567.397 59.2032L564.089 61.0482L564.333 61.4849ZM567.641 59.6399L567.164 59.4903L565.821 63.7741L566.298 63.9237L566.775 64.0732L568.118 59.7894L567.641 59.6399ZM566.298 63.9237L566.142 64.3988L567.679 64.9025L567.834 64.4273L567.99 63.9522L566.454 63.4486L566.298 63.9237ZM567.834 64.4273L567.336 64.4615L567.487 66.6687L567.986 66.6345L568.485 66.6003L568.333 64.3932L567.834 64.4273ZM567.986 66.6345L568.099 67.1214L570.551 66.55L570.437 66.0631L570.324 65.5761L567.872 66.1476L567.986 66.6345ZM570.437 66.0631L570.6 66.5358L573.5 65.5363L573.337 65.0636L573.174 64.5909L570.274 65.5904L570.437 66.0631ZM573.337 65.0636L572.867 65.2345L573.473 66.9007L573.943 66.7298L574.413 66.5589L573.807 64.8928L573.337 65.0636ZM573.943 66.7298L573.51 66.4791L569.947 72.6261L570.38 72.8768L570.813 73.1276L574.375 66.9805L573.943 66.7298ZM570.38 72.8768L570.649 73.2982L575.751 70.0387L575.482 69.6173L575.213 69.196L570.111 72.4555L570.38 72.8768ZM575.482 69.6173L574.992 69.5189L574.435 72.2894L574.925 72.3878L575.416 72.4863L575.972 69.7158L575.482 69.6173ZM574.925 72.3878L574.433 72.3016L573.983 74.8728L574.475 74.959L574.968 75.0452L575.418 72.474L574.925 72.3878ZM574.475 74.959L574.395 75.4525L576.211 75.7464L576.291 75.2528L576.37 74.7592L574.555 74.4654L574.475 74.959ZM576.291 75.2528L575.796 75.326L576.062 77.1218L576.556 77.0486L577.051 76.9754L576.785 75.1796L576.291 75.2528ZM576.556 77.0486L576.201 77.4008L577.241 78.4486L577.596 78.0964L577.951 77.7443L576.911 76.6965L576.556 77.0486ZM577.596 78.0964L577.217 78.4225L578.179 79.5409L578.558 79.2148L578.937 78.8886L577.975 77.7703L577.596 78.0964ZM578.558 79.2148L578.063 79.144L577.745 81.3707L578.24 81.4416L578.735 81.5124L579.053 79.2856L578.558 79.2148ZM578.24 81.4416L578.453 81.8937L583.583 79.472L583.369 79.0199L583.156 78.5677L578.026 80.9894L578.24 81.4416ZM583.369 79.0199L582.889 78.8815L582.145 81.464L582.626 81.6024L583.106 81.7408L583.85 79.1583L583.369 79.0199ZM582.626 81.6024L582.782 82.0774L586.876 80.733L586.72 80.258L586.564 79.783L582.47 81.1273L582.626 81.6024ZM586.72 80.258L586.239 80.1208L585.521 82.6381L586.001 82.7752L586.482 82.9124L587.2 80.3952L586.72 80.258ZM586.001 82.7752L585.506 82.7078L585.217 84.8297L585.713 84.8971L586.208 84.9645L586.497 82.8426L586.001 82.7752ZM585.713 84.8971L585.843 85.3797L589.901 84.2796L589.77 83.7971L589.639 83.3145L585.582 84.4145L585.713 84.8971ZM589.77 83.7971L589.281 83.9017L589.636 85.5578L590.125 85.4531L590.614 85.3485L590.259 83.6924L589.77 83.7971ZM590.125 85.4531L589.698 85.7132L590.504 87.0371L590.931 86.7771L591.358 86.517L590.552 85.1931L590.125 85.4531ZM590.931 86.7771L590.789 87.2565L592.719 87.8278L592.861 87.3484L593.003 86.869L591.073 86.2976L590.931 86.7771ZM592.861 87.3484L592.517 86.9855L586.337 92.8424L586.681 93.2053L587.025 93.5683L593.205 87.7113L592.861 87.3484ZM586.681 93.2053L586.487 93.6664L588.119 94.351L588.312 93.89L588.506 93.429L586.874 92.7443L586.681 93.2053ZM588.312 93.89L588.21 94.3794L590.305 94.8169L590.408 94.3274L590.51 93.838L588.415 93.4006L588.312 93.89ZM590.408 94.3274L590.22 94.791L591.952 95.4906L592.139 95.027L592.326 94.5634L590.595 93.8638L590.408 94.3274ZM592.139 95.027L592.172 95.5259L595.598 95.2981L595.565 94.7992L595.532 94.3003L592.106 94.5281L592.139 95.027ZM595.565 94.7992L595.184 94.4753L592.363 97.791L592.744 98.115L593.125 98.4389L595.946 95.1232L595.565 94.7992ZM592.744 98.115L592.277 97.9377L591.478 100.045L591.945 100.222L592.413 100.399L593.212 98.2922L592.744 98.115ZM591.945 100.222L591.92 100.721L594.818 100.87L594.844 100.37L594.869 99.871L591.971 99.7227L591.945 100.222ZM594.844 100.37L594.797 100.868L597.62 101.135L597.667 100.637L597.714 100.139L594.891 99.8725L594.844 100.37ZM597.667 100.637L597.173 100.557L596.875 102.397L597.369 102.477L597.863 102.557L598.16 100.717L597.667 100.637ZM597.369 102.477L597.01 102.129L594.095 105.144L594.454 105.491L594.814 105.839L597.728 102.824L597.369 102.477ZM594.454 105.491L594.462 105.991L598.167 105.936L598.16 105.436L598.153 104.936L594.447 104.991L594.454 105.491ZM598.16 105.436L597.887 105.855L599.406 106.845L599.679 106.426L599.952 106.007L598.433 105.017L598.16 105.436ZM599.679 106.426L599.186 106.509L599.445 108.046L599.938 107.962L600.431 107.879L600.172 106.342L599.679 106.426ZM599.938 107.962L599.621 107.576L595.791 110.72L596.108 111.107L596.425 111.493L600.255 108.349L599.938 107.962ZM596.108 111.107L596.128 111.606L600.688 111.426L600.669 110.926L600.649 110.426L596.088 110.607L596.108 111.107ZM600.669 110.926L600.198 111.094L600.705 112.517L601.176 112.349L601.647 112.181L601.14 110.758L600.669 110.926ZM601.176 112.349L600.859 111.963L597.486 114.73L597.804 115.117L598.121 115.503L601.493 112.736L601.176 112.349ZM597.804 115.117L597.31 115.197L597.547 116.648L598.04 116.567L598.534 116.486L598.297 115.036L597.804 115.117ZM598.04 116.567L598.111 117.062L606.879 115.811L606.809 115.316L606.738 114.821L597.97 116.072L598.04 116.567ZM606.809 115.316L606.517 114.91L602.601 117.726L602.893 118.132L603.185 118.538L607.101 115.722L606.809 115.316ZM602.893 118.132L602.75 118.611L605.432 119.411L605.575 118.932L605.717 118.453L603.036 117.653L602.893 118.132ZM605.575 118.932L605.325 118.499L600.084 121.51L600.333 121.944L600.582 122.377L605.824 119.366L605.575 118.932ZM600.333 121.944L599.838 122.01L600.033 123.466L600.528 123.4L601.024 123.333L600.829 121.877L600.333 121.944ZM600.528 123.4L600.498 123.899L605.456 124.202L605.487 123.703L605.517 123.204L600.559 122.901L600.528 123.4ZM605.487 123.703L605.206 124.116L606.929 125.287L607.21 124.874L607.491 124.46L605.768 123.289L605.487 123.703ZM607.21 124.874L606.879 124.499L604.532 126.57L604.863 126.945L605.194 127.32L607.541 125.249L607.21 124.874ZM604.863 126.945L604.584 126.53L601.381 128.687L601.661 129.102L601.94 129.516L605.142 127.36L604.863 126.945ZM601.661 129.102L601.214 129.327L601.898 130.678L602.344 130.452L602.79 130.226L602.107 128.876L601.661 129.102ZM602.344 130.452L602.313 130.951L608.764 131.356L608.796 130.857L608.827 130.358L602.376 129.953L602.344 130.452ZM608.796 130.857L608.472 130.477L606.227 132.387L606.551 132.767L606.875 133.148L609.12 131.238L608.796 130.857ZM606.551 132.767L606.444 133.256L610.692 134.192L610.8 133.703L610.907 133.215L606.659 132.279L606.551 132.767ZM610.8 133.703L610.626 133.235L604.252 135.601L604.426 136.07L604.6 136.539L610.974 134.172L610.8 133.703ZM604.426 136.07L604.04 135.752L602.694 137.387L603.079 137.704L603.465 138.022L604.812 136.388L604.426 136.07ZM603.079 137.704L602.735 138.066L604.13 139.395L604.475 139.033L604.819 138.671L603.424 137.342L603.079 137.704ZM604.475 139.033L604.079 139.338L605.148 140.725L605.544 140.42L605.94 140.114L604.871 138.728L604.475 139.033ZM605.544 140.42L605.338 140.875L608.204 142.172L608.41 141.717L608.616 141.261L605.75 139.964L605.544 140.42ZM608.41 141.717L607.921 141.611L607.586 143.159L608.075 143.265L608.563 143.371L608.899 141.822L608.41 141.717ZM608.075 143.265L607.886 143.728L611.277 145.11L611.466 144.647L611.655 144.184L608.263 142.802L608.075 143.265ZM611.466 144.647L611.285 144.181L606.977 145.852L607.158 146.318L607.339 146.784L611.647 145.113L611.466 144.647ZM607.158 146.318L607.002 146.793L611.432 148.248L611.588 147.773L611.744 147.298L607.314 145.843L607.158 146.318ZM611.588 147.773L611.222 147.432L609.992 148.752L610.358 149.093L610.724 149.434L611.954 148.114L611.588 147.773ZM610.358 149.093V148.593H607.673V149.093V149.593H610.358V149.093Z" fill="white"/>
</g>
<g clip-path="url(#clip1_96_11130)">
<rect width="640" height="782" transform="translate(640)" fill="white"/>
<path d="M322.53 691.355C325.614 685.186 330.755 675.419 337.952 662.053C345.149 648.688 350.289 638.92 353.374 632.751L546.921 273.417C552.576 263.135 558.745 251.826 565.428 239.488C572.11 227.15 578.793 214.556 585.476 201.704C588.561 196.049 591.902 189.623 595.501 182.426C599.613 175.229 603.469 168.289 607.067 161.607C611.18 154.924 614.521 149.012 617.092 143.871L618.634 140.016H623.26L624.803 143.871C627.887 149.012 632.514 157.237 638.682 168.546C641.253 173.173 643.566 177.543 645.622 181.655C648.193 185.768 650.506 189.88 652.562 193.993C665.414 218.154 678.266 242.315 691.118 266.477C704.483 290.638 717.592 314.799 730.444 338.961C774.654 420.698 800.614 469.02 808.325 483.928L863.845 587.256C873.612 604.735 883.123 622.213 892.376 639.691C901.629 657.17 910.625 674.391 919.365 691.355L921.678 695.211H840.712L838.398 691.355C832.744 680.56 827.089 669.764 821.434 658.969C815.779 648.173 808.84 635.579 800.614 621.185C792.903 606.277 783.393 588.284 772.084 567.207H469.811C462.614 581.087 455.674 593.939 448.991 605.763C442.822 617.072 438.195 625.811 435.111 631.98C432.026 637.635 429.199 643.033 426.629 648.173C424.058 653.314 421.488 658.198 418.918 662.824C412.749 675.162 407.865 684.672 404.267 691.355L401.953 695.211H320.216L322.53 691.355ZM727.359 497.808C728.388 497.808 729.673 497.808 731.215 497.808C732.757 497.808 734.042 497.808 735.071 497.808C734.556 496.78 734.042 495.752 733.528 494.724C733.014 493.696 732.5 492.667 731.986 491.639C731.986 491.125 731.729 490.868 731.215 490.868C731.215 490.354 731.215 490.097 731.215 490.097L726.588 481.615C715.279 461.052 700.371 433.549 681.864 399.107C663.872 364.15 644.337 327.137 623.26 288.068H618.634C618.12 289.096 617.349 290.381 616.32 291.923C615.806 293.465 615.292 294.751 614.778 295.779L510.679 490.097C510.679 490.611 510.165 491.639 509.137 493.181C508.623 494.724 507.852 496.266 506.824 497.808C511.45 497.808 517.105 497.808 523.788 497.808C530.471 497.808 538.182 497.808 546.921 497.808C571.082 497.808 595.244 497.808 619.405 497.808C644.08 497.808 665.414 497.808 683.407 497.808H727.359Z" fill="black"/>
<circle cx="880.912" cy="649.443" r="107.623" stroke="#FF0000" stroke-miterlimit="3.8637" stroke-dasharray="10 10"/>
</g>
<defs>
<clipPath id="clip0_96_11130">
<rect width="640" height="782" fill="white"/>
</clipPath>
<clipPath id="clip1_96_11130">
<rect width="640" height="782" fill="white" transform="translate(640)"/>
</clipPath>
</defs>
</svg>
