<svg width="481" height="604" viewBox="0 0 481 604" fill="none" xmlns="http://www.w3.org/2000/svg">
<path d="M339.246 9.95605C299.061 12.611 270.578 14.8238 253.797 16.5938C237.458 18.3637 225.314 21.0187 217.365 24.5586C209.417 27.656 205.442 32.523 205.441 39.1602C205.441 45.7975 208.974 50.8868 216.04 54.4268C223.547 57.5242 239.665 60.1792 264.395 62.3916C289.124 64.604 327.323 65.9315 378.99 66.374V76.3301C321.141 78.5425 281.397 82.3034 259.759 87.6133C238.562 92.9232 224.872 103.101 218.689 118.146C212.507 132.748 209.416 159.74 209.416 199.121V219.033C209.858 229.21 209.858 240.051 209.416 251.556C209.416 262.618 209.195 273.902 208.754 285.406H212.065C228.405 248.237 249.602 216.821 275.656 191.156C302.152 165.492 331.298 152.659 363.093 152.659C388.706 152.659 409.902 160.846 426.683 177.218C443.905 193.147 457.153 223.458 466.427 268.149C476.142 312.398 481 375.675 481 457.979C481 496.475 477.467 526.122 470.401 546.919C463.777 568.158 453.4 582.982 439.269 591.39C425.137 599.797 406.149 604 382.303 604C367.73 604 353.819 602.894 340.571 600.682C327.323 598.912 316.283 596.699 307.451 594.044V358.418H317.387C323.128 427.889 333.727 482.315 349.183 521.696C365.08 561.078 384.069 580.77 406.149 580.77C419.397 580.769 429.113 575.459 435.295 564.84C441.477 554.22 444.568 533.865 444.568 503.776C444.568 409.969 436.178 339.612 419.397 292.708C402.617 245.804 375.458 222.352 337.922 222.352C314.959 222.352 293.32 229.874 273.007 244.919C253.135 259.964 237.016 280.097 224.651 305.318C212.728 330.54 206.767 357.09 206.767 384.967C206.767 403.994 208.975 418.376 213.391 428.11C217.807 437.845 225.314 444.703 235.912 448.686C246.51 452.668 262.187 454.659 282.942 454.659V464.615H175.876C175.958 465.733 176 466.862 176 468C176 469.522 175.924 471.026 175.779 472.51L173.293 472.269V472.268L170.806 472.026C170.934 470.703 171 469.36 171 468C171 466.859 170.951 465.731 170.86 464.615H120.654V461.297C131.253 455.102 139.422 431.871 145.163 391.604C150.904 351.338 153.774 280.539 153.774 179.209C153.774 151.775 150.904 131.199 145.163 117.481C139.422 103.322 130.59 93.5873 118.667 88.2773C106.744 82.9674 89.5216 78.985 67 76.3301V66.374H123.967C132.357 66.374 138.098 65.2671 141.189 63.0547C144.722 60.8423 146.488 57.3026 146.488 52.4355C146.488 44.4707 143.838 36.2843 138.539 27.877C133.681 19.0271 127.72 10.8407 120.654 3.31836V0H339.246V9.95605ZM134.51 513.779C133.026 513.924 131.522 514 130 514C128.478 514 126.973 513.924 125.489 513.779L125.974 508.806C127.297 508.934 128.64 509 130 509C131.36 509 132.703 508.934 134.026 508.806L134.51 513.779ZM110.673 504.169C113.02 505.426 115.502 506.46 118.092 507.245L117.367 509.638L116.643 512.027C113.733 511.146 110.946 509.985 108.312 508.574L110.673 504.169ZM151.688 508.574C149.053 509.985 146.266 511.146 143.356 512.027L142.633 509.638L141.908 507.245C144.498 506.46 146.98 505.426 149.327 504.169L151.688 508.574ZM98.3037 494.009C100.009 496.085 101.915 497.991 103.991 499.696L100.817 503.559C98.4896 501.646 96.353 499.509 94.4404 497.182L98.3037 494.009ZM165.559 497.182C163.646 499.509 161.509 501.646 159.182 503.559L156.009 499.696C158.085 497.991 159.991 496.085 161.696 494.009L165.559 497.182ZM90.7549 479.908C91.5396 482.498 92.5741 484.98 93.8311 487.327L89.4248 489.688C88.0139 487.053 86.8531 484.266 85.9717 481.356L88.3623 480.633L90.7549 479.908ZM171.638 480.633L174.027 481.356C173.146 484.266 171.985 487.053 170.574 489.688L166.169 487.327C167.426 484.98 168.46 482.498 169.245 479.908L171.638 480.633ZM86.707 463.731H86.7061L89.1943 463.974C89.0656 465.297 89 466.64 89 468C89 469.36 89.0656 470.703 89.1943 472.026L86.7061 472.268L84.2197 472.51C84.0753 471.026 84 469.522 84 468C84 466.478 84.0753 464.973 84.2197 463.489L86.707 463.731ZM93.8311 448.673C92.5741 451.02 91.5396 453.502 90.7549 456.092L85.9717 454.643C86.8532 451.733 88.0139 448.946 89.4248 446.312L93.8311 448.673ZM103.991 436.304C101.915 438.009 100.009 439.915 98.3037 441.991L94.4404 438.817C96.353 436.49 98.4896 434.353 100.817 432.44L103.991 436.304ZM118.092 428.755C115.502 429.54 113.02 430.574 110.673 431.831L108.312 427.425C110.946 426.014 113.733 424.853 116.643 423.972L118.092 428.755ZM130 422C131.522 422 133.026 422.075 134.51 422.22L134.026 427.194C132.703 427.066 131.36 427 130 427C128.64 427 127.297 427.066 125.974 427.194L125.489 422.22C126.973 422.075 128.478 422 130 422ZM292.673 395.169C295.02 396.426 297.502 397.46 300.092 398.245L299.367 400.638L298.643 403.027C295.733 402.146 292.946 400.985 290.312 399.574L292.673 395.169ZM333.688 399.574C331.053 400.985 328.266 402.146 325.356 403.027L324.633 400.638L323.908 398.245C326.498 397.46 328.98 396.426 331.327 395.169L333.688 399.574ZM280.304 385.009C282.009 387.085 283.915 388.991 285.991 390.696L282.817 394.559C280.49 392.646 278.353 390.509 276.44 388.182L280.304 385.009ZM347.559 388.182C345.646 390.509 343.509 392.646 341.182 394.559L338.009 390.696C340.085 388.991 341.991 387.085 343.696 385.009L347.559 388.182ZM272.755 370.908C273.54 373.498 274.574 375.98 275.831 378.327L271.425 380.688C270.014 378.053 268.853 375.266 267.972 372.356L270.362 371.633L272.755 370.908ZM353.638 371.633L356.027 372.356C355.146 375.266 353.985 378.053 352.574 380.688L348.169 378.327C349.426 375.98 350.46 373.498 351.245 370.908L353.638 371.633ZM268.707 354.731H268.706L271.194 354.974C271.066 356.297 271 357.64 271 359C271 360.36 271.066 361.703 271.194 363.026L268.706 363.268L266.22 363.51C266.075 362.026 266 360.522 266 359C266 357.478 266.075 355.973 266.22 354.489L268.707 354.731ZM357.779 354.489C357.924 355.973 358 357.478 358 359C358 360.522 357.924 362.026 357.779 363.51L355.293 363.269V363.268L352.806 363.026C352.934 361.703 353 360.36 353 359C353 357.64 352.934 356.297 352.806 354.974L355.293 354.731L357.779 354.489ZM275.831 339.673C274.574 342.02 273.54 344.502 272.755 347.092L267.972 345.643C268.853 342.733 270.014 339.946 271.425 337.312L275.831 339.673ZM352.574 337.312C353.985 339.946 355.146 342.733 356.027 345.643L351.245 347.092C350.46 344.502 349.426 342.02 348.169 339.673L352.574 337.312ZM285.991 327.304C283.915 329.009 282.009 330.915 280.304 332.991L276.44 329.817C278.353 327.49 280.49 325.353 282.817 323.44L285.991 327.304ZM341.182 323.44C343.509 325.353 345.646 327.49 347.559 329.817L343.696 332.991C341.991 330.915 340.085 329.009 338.009 327.304L341.182 323.44ZM300.092 319.755C297.502 320.54 295.02 321.574 292.673 322.831L290.312 318.425C292.946 317.014 295.733 315.853 298.643 314.972L300.092 319.755ZM325.356 314.972C328.266 315.853 331.053 317.014 333.688 318.425L331.327 322.831C328.98 321.574 326.498 320.54 323.908 319.755L325.356 314.972ZM312 313C313.522 313 315.026 313.075 316.51 313.22L316.026 318.194C314.703 318.066 313.36 318 312 318C310.64 318 309.297 318.066 307.974 318.194L307.489 313.22C308.973 313.075 310.478 313 312 313ZM50.5098 117.779C49.026 117.924 47.5217 118 46 118C44.4779 118 42.9734 117.924 41.4893 117.779L41.9736 112.806C43.2969 112.934 44.6401 113 46 113C47.3599 113 48.7031 112.934 50.0264 112.806L50.5098 117.779ZM26.6729 108.169C29.0195 109.426 31.5018 110.46 34.0918 111.245L33.3672 113.638L32.6426 116.027C29.7332 115.146 26.9457 113.985 24.3115 112.574L26.6729 108.169ZM67.6875 112.574C65.0533 113.985 62.2659 115.146 59.3564 116.027L58.6328 113.638L57.9082 111.245C60.4982 110.46 62.9805 109.426 65.3271 108.169L67.6875 112.574ZM14.3037 98.0088C16.0095 100.085 17.9152 101.991 19.9912 103.696L16.8174 107.559C14.4896 105.646 12.353 103.509 10.4404 101.182L14.3037 98.0088ZM81.5586 101.182C79.646 103.509 77.5095 105.646 75.1816 107.559L72.0088 103.696C74.0848 101.991 75.9905 100.085 77.6963 98.0088L81.5586 101.182ZM6.75488 83.9082C7.53961 86.4982 8.57414 88.9805 9.83105 91.3271L5.4248 93.6875C4.0139 91.0534 2.85311 88.2658 1.97168 85.3564L4.3623 84.6328L6.75488 83.9082ZM87.6377 84.6328L90.0273 85.3564C89.1459 88.2659 87.9852 91.0533 86.5742 93.6875L82.1689 91.3271C83.4259 88.9805 84.4604 86.4982 85.2451 83.9082L87.6377 84.6328ZM2.70703 67.7314H2.70605L5.19434 67.9736C5.06555 69.2969 5 70.6401 5 72C5 73.3599 5.06555 74.7031 5.19434 76.0264L2.70605 76.2676L0.219727 76.5098C0.0753436 75.026 0 73.5217 0 72C0 70.478 0.0752816 68.9734 0.219727 67.4893L2.70703 67.7314ZM9.83105 52.6729C8.57414 55.0195 7.53961 57.5018 6.75488 60.0918L1.97168 58.6426C2.85316 55.7332 4.01387 52.9456 5.4248 50.3115L9.83105 52.6729ZM86.5742 50.3115C87.9852 52.9457 89.1458 55.7332 90.0273 58.6426L85.2451 60.0918C84.4604 57.5018 83.4259 55.0195 82.1689 52.6729L86.5742 50.3115ZM19.9912 40.3037C17.9152 42.0095 16.0095 43.9152 14.3037 45.9912L10.4404 42.8174C12.353 40.4896 14.4896 38.353 16.8174 36.4404L19.9912 40.3037ZM75.1816 36.4404C77.5095 38.353 79.646 40.4896 81.5586 42.8174L77.6963 45.9912C75.9905 43.9152 74.0848 42.0095 72.0088 40.3037L75.1816 36.4404ZM34.0918 32.7549C31.5018 33.5396 29.0195 34.5741 26.6729 35.8311L24.3115 31.4248C26.9456 30.0139 29.7332 28.8532 32.6426 27.9717L34.0918 32.7549ZM59.3564 27.9717C62.2658 28.8531 65.0534 30.0139 67.6875 31.4248L65.3271 35.8311C62.9805 34.5741 60.4982 33.5396 57.9082 32.7549L59.3564 27.9717ZM46 26C47.5217 26 49.026 26.0753 50.5098 26.2197L50.0264 31.1943C48.7031 31.0656 47.3599 31 46 31C44.6401 31 43.2969 31.0656 41.9736 31.1943L41.4893 26.2197C42.9734 26.0753 44.478 26 46 26Z" fill="white"/>
</svg>
