<svg width="414" height="604" viewBox="0 0 414 604" fill="none" xmlns="http://www.w3.org/2000/svg">
<path d="M53.6545 461.297C64.2529 455.102 72.4222 431.871 78.163 391.604C83.9038 351.338 86.7745 280.539 86.7745 179.209C86.7745 151.774 83.9038 131.199 78.163 117.481C72.4222 103.322 63.5902 93.5868 51.667 88.2769C39.7438 82.967 22.5216 78.9846 0 76.3297L0 66.3736H56.9665C65.3569 66.3736 71.0978 65.2674 74.189 63.055C77.7218 60.8425 79.488 57.3026 79.488 52.4352C79.488 44.4703 76.8382 36.2842 71.539 27.8769C66.6814 19.0271 60.7201 10.841 53.6545 3.31868V0L272.247 0V9.95604C232.061 12.611 203.578 14.8235 186.797 16.5934C170.458 18.3634 158.314 21.0183 150.365 24.5582C142.416 27.6557 138.441 32.5231 138.441 39.1605C138.441 45.7978 141.974 50.8865 149.04 54.4264C156.547 57.5238 172.665 60.1788 197.395 62.3912C222.125 64.6037 260.323 65.9312 311.99 66.3736V76.3297C254.141 78.5421 214.397 82.3033 192.759 87.6132C171.562 92.9231 157.872 103.1 151.689 118.145C145.507 132.747 142.416 159.739 142.416 199.121V219.033C142.858 229.21 142.858 240.051 142.416 251.556C142.416 262.618 142.195 273.902 141.753 285.407H145.065C161.405 248.237 182.602 216.821 208.656 191.156C235.152 165.492 264.298 152.659 296.093 152.659C321.706 152.659 342.902 160.845 359.683 177.218C376.905 193.147 390.153 223.458 399.427 268.149C409.142 312.399 414 375.675 414 457.978C414 496.475 410.467 526.122 403.401 546.919C396.777 568.158 386.4 582.982 372.269 591.389C358.138 599.796 339.149 604 315.302 604C300.73 604 286.819 602.894 273.571 600.681C260.323 598.911 249.283 596.699 240.451 594.044L240.451 358.418H250.387C256.128 427.889 266.727 482.315 282.183 521.697C298.08 561.078 317.069 580.769 339.149 580.769C352.397 580.769 362.112 575.459 368.294 564.84C374.477 554.22 377.568 533.865 377.568 503.776C377.568 409.968 369.178 339.612 352.397 292.708C335.616 245.804 308.457 222.352 270.921 222.352C247.958 222.352 226.32 229.874 206.007 244.919C186.135 259.963 170.016 280.097 157.651 305.319C145.728 330.541 139.767 357.09 139.767 384.967C139.767 403.994 141.975 418.375 146.391 428.11C150.806 437.845 158.314 444.703 168.912 448.686C179.51 452.668 195.187 454.659 215.943 454.659V464.615H53.6545V461.297Z" fill="white"/>
</svg>
