<svg width="249" height="571" viewBox="0 0 249 571" fill="none" xmlns="http://www.w3.org/2000/svg">
<path d="M248.116 291.536C223.304 291.536 204.075 298.359 190.429 312.006C177.196 325.239 170.58 344.261 170.58 369.072V477.623C170.58 509.465 162.516 532.829 146.388 547.716C130.261 563.016 104.209 570.667 68.2319 570.667C56.6531 570.667 44.6609 569.633 32.2551 567.565C20.2628 565.911 9.51111 563.843 0 561.362L0 393.884H9.30433C14.6802 436.064 22.1237 468.319 31.6348 490.649C41.5594 512.98 52.1043 527.66 63.2696 534.69C74.8483 542.133 87.8744 545.855 102.348 545.855C115.581 545.855 125.505 542.133 132.122 534.69C139.152 527.66 142.667 516.908 142.667 502.435C142.667 489.202 140.806 476.383 137.084 463.977C133.776 451.571 128.814 436.27 122.197 418.075C116.408 402.361 112.066 389.542 109.171 379.617C106.69 369.693 105.449 359.975 105.449 350.464C105.449 332.269 111.239 318.002 122.817 307.664C134.396 296.912 151.557 290.089 174.301 287.194V283.472C151.557 280.578 134.396 273.961 122.817 263.623C111.239 252.872 105.449 238.398 105.449 220.203C105.449 210.692 106.69 200.974 109.171 191.049C112.066 181.125 116.408 168.305 122.197 152.591C128.814 134.396 133.776 119.096 137.084 106.69C140.806 94.284 142.667 81.4647 142.667 68.2319C142.667 53.7584 139.152 43.0068 132.122 35.9768C125.505 28.5333 115.581 24.8116 102.348 24.8116C87.8744 24.8116 74.8483 28.5333 63.2696 35.9768C52.1043 43.0068 41.5594 57.687 31.6348 80.0174C22.1237 102.348 14.6802 134.603 9.30433 176.783H0L0 9.30434C9.51111 6.82319 20.2628 4.75556 32.2551 3.10145C44.6609 1.03382 56.6531 0 68.2319 0C104.209 0 130.261 7.65024 146.388 22.9507C162.516 37.8377 170.58 61.2019 170.58 93.0435L170.58 201.594C170.58 226.406 177.196 245.635 190.429 259.281C204.075 272.514 223.304 279.13 248.116 279.13V291.536Z" fill="#FF0000"/>
</svg>
