<svg width="534" height="599" viewBox="0 0 534 599" fill="none" xmlns="http://www.w3.org/2000/svg">
<path d="M292.501 227.033C292.501 257.55 296.062 283.998 303.182 306.377C310.303 328.756 320.221 345.922 332.936 357.875C345.652 369.827 360.275 375.803 376.805 375.803C387.74 375.803 396.641 374.15 403.507 370.844C410.373 367.538 415.586 363.597 419.147 359.019C422.961 354.441 426.649 348.72 430.209 341.853C434.278 334.987 437.711 330.028 440.509 326.976C443.306 323.925 447.375 322.399 452.715 322.399C461.108 322.399 468.864 328.629 475.985 341.09C483.105 353.551 489.336 375.295 494.676 406.32L500.398 406.32L500.398 319.347C495.566 317.058 489.717 315.024 482.851 313.244C476.239 311.718 469.373 310.955 462.252 310.955C449.028 310.955 438.601 312.099 430.972 314.388C423.343 316.931 415.459 320.491 407.321 325.069C399.947 328.884 393.462 331.681 387.867 333.461C382.526 335.496 375.533 336.513 366.887 336.513C357.986 336.513 348.703 332.698 339.04 325.069C329.376 317.694 321.238 306.123 314.626 290.356C308.269 274.589 305.217 255.007 305.471 231.611L307.378 231.611C314.753 247.887 327.214 260.729 344.762 270.138C362.563 279.548 382.018 284.253 403.125 284.253C423.47 284.253 441.399 280.311 456.912 272.427C472.679 264.544 484.758 253.863 493.15 240.384C501.797 227.16 506.12 212.538 506.12 196.516C506.12 179.478 501.543 163.583 492.387 148.834C483.232 134.338 470.517 122.767 454.241 114.121C437.966 105.474 419.655 101.151 399.311 101.151C376.677 101.151 357.35 105.728 341.329 114.884C325.561 124.039 313.482 137.898 305.09 156.463C296.698 175.282 292.501 198.805 292.501 227.033ZM467.974 211.775C467.974 231.102 462.761 246.106 452.334 256.787C442.162 267.468 427.92 272.809 409.61 272.809C396.895 272.809 384.561 268.613 372.608 260.22C360.91 252.083 351.247 240.512 343.617 225.507C336.242 210.503 332.555 193.21 332.555 173.629C332.555 154.301 337.641 139.297 347.813 128.616C357.986 117.935 371.718 112.595 389.011 112.595C402.235 112.595 414.824 116.664 426.776 124.802C438.983 133.194 448.901 144.892 456.53 159.896C464.159 174.9 467.974 192.193 467.974 211.775Z" fill="#FF0000"/>
<path d="M397.613 295.551C407.75 305.688 417.717 313.29 427.516 318.358C437.315 323.427 446.311 325.834 454.505 325.581C462.698 325.327 469.541 322.455 475.031 316.965C478.663 313.332 481.071 309.827 482.254 306.448C483.436 303.069 483.858 300.028 483.521 297.325C483.267 294.538 482.591 291.412 481.493 287.949C480.564 284.317 480.057 281.529 479.973 279.586C479.888 277.643 480.733 275.785 482.507 274.011C485.294 271.223 489.94 270.717 496.445 272.491C502.949 274.264 512.241 279.417 524.32 287.949L526.221 286.048L497.332 257.159C494.966 258.004 492.348 259.271 489.476 260.96C486.773 262.65 484.239 264.677 481.873 267.042C477.481 271.435 474.398 275.278 472.624 278.572C470.934 281.951 469.498 285.753 468.316 289.976C467.133 293.693 465.908 296.776 464.641 299.226C463.543 301.675 461.558 304.336 458.686 307.208C455.73 310.165 451.379 311.981 445.635 312.657C439.976 313.417 433.429 312.277 425.996 309.236C418.647 306.11 411.129 300.62 403.442 292.764L404.075 292.13C411.931 295.087 420.336 295.213 429.29 292.51C438.328 289.723 446.353 284.823 453.364 277.812C460.122 271.055 464.768 263.79 467.302 256.019C469.921 248.163 470.385 240.603 468.696 233.338C467.175 226.074 463.754 219.78 458.433 214.459C452.773 208.799 445.973 205.04 438.033 203.182C430.177 201.408 422.11 201.788 413.832 204.322C405.554 206.856 398.036 211.502 391.278 218.26C383.76 225.778 378.861 233.718 376.58 242.081C374.384 250.359 374.975 258.975 378.354 267.929C381.817 276.968 388.237 286.175 397.613 295.551ZM450.83 232.198C457.25 238.618 460.502 245.333 460.587 252.344C460.756 259.271 457.799 265.775 451.717 271.857C447.494 276.081 442.003 278.784 435.245 279.966C428.656 281.149 421.603 280.515 414.085 278.066C406.652 275.532 399.683 271.012 393.179 264.508C386.759 258.088 383.464 251.415 383.295 244.488C383.126 237.562 385.914 231.226 391.658 225.482C396.051 221.09 401.583 218.26 408.257 216.993C415.099 215.726 422.279 216.317 429.797 218.767C437.315 221.216 444.326 225.693 450.83 232.198Z" fill="#FF0000"/>
<path d="M414.623 207.486C418.333 221.333 423.164 232.9 429.116 242.189C435.068 251.478 441.655 258.061 448.878 261.938C456.101 265.815 463.462 266.749 470.962 264.74C475.924 263.41 479.762 261.578 482.475 259.243C485.189 256.908 487.075 254.486 488.134 251.976C489.309 249.435 490.286 246.391 491.067 242.842C492.078 239.232 493.033 236.564 493.931 234.84C494.83 233.115 496.49 231.928 498.913 231.278C502.721 230.258 506.998 232.142 511.744 236.931C516.49 241.719 521.961 250.827 528.156 264.256L530.752 263.56L520.178 224.097C517.707 223.645 514.806 223.433 511.474 223.461C508.288 223.572 505.08 224.061 501.849 224.926C495.849 226.534 491.257 228.321 488.074 230.287C484.921 232.369 481.777 234.943 478.641 238.009C475.758 240.637 473.156 242.694 470.834 244.182C468.658 245.755 465.609 247.066 461.685 248.118C457.647 249.2 452.971 248.598 447.659 246.311C442.377 244.139 437.278 239.878 432.361 233.528C427.559 227.147 423.794 218.633 421.065 207.986L421.93 207.754C427.255 214.243 434.471 218.555 443.577 220.691C452.798 222.796 462.197 222.565 471.775 219.999C481.006 217.526 488.662 213.557 494.742 208.094C500.938 202.6 505.12 196.285 507.289 189.149C509.605 182.098 509.789 174.937 507.841 167.667C505.769 159.936 501.76 153.281 495.812 147.701C489.896 142.237 482.72 138.533 474.283 136.589C465.847 134.644 457.014 134.909 447.782 137.382C437.513 140.134 429.3 144.561 423.143 150.663C417.102 156.734 413.306 164.491 411.755 173.935C410.235 183.494 411.191 194.678 414.623 207.486ZM492.387 179.229C494.737 187.998 494.196 195.44 490.763 201.554C487.446 207.637 481.634 211.792 473.326 214.018C467.556 215.564 461.45 215.16 455.006 212.805C448.709 210.535 442.917 206.459 437.631 200.579C432.461 194.668 428.685 187.269 426.304 178.384C423.954 169.615 424.438 162.188 427.755 156.105C431.072 150.022 436.654 145.929 444.5 143.827C450.501 142.219 456.707 142.535 463.12 144.774C469.679 147.098 475.601 151.2 480.887 157.08C486.173 162.961 490.007 170.344 492.387 179.229Z" fill="#FF0000"/>
<path d="M396.001 254.605C399.711 268.452 404.542 280.02 410.494 289.308C416.445 298.597 423.033 305.18 430.255 309.057C437.478 312.935 444.84 313.868 452.34 311.859C457.302 310.529 461.139 308.697 463.853 306.362C466.567 304.027 468.453 301.605 469.512 299.095C470.686 296.554 471.664 293.51 472.444 289.961C473.456 286.351 474.41 283.684 475.309 281.959C476.207 280.234 477.868 279.047 480.291 278.398C484.099 277.377 488.376 279.261 493.122 284.05C497.868 288.838 503.338 297.946 509.533 311.375L512.13 310.679L501.556 271.216C499.085 270.765 496.184 270.553 492.852 270.58C489.666 270.691 486.458 271.18 483.227 272.046C477.226 273.653 472.635 275.44 469.451 277.406C466.299 279.488 463.154 282.062 460.018 285.128C457.136 287.756 454.534 289.813 452.211 291.301C450.036 292.874 446.986 294.186 443.063 295.237C439.024 296.319 434.349 295.717 429.036 293.43C423.755 291.258 418.655 286.998 413.738 280.647C408.937 274.266 405.171 265.752 402.442 255.105L403.308 254.873C408.633 261.362 415.848 265.674 424.954 267.81C434.175 269.915 443.575 269.685 453.152 267.118C462.383 264.645 470.039 260.676 476.119 255.213C482.315 249.719 486.497 243.404 488.667 236.268C490.982 229.217 491.166 222.056 489.218 214.787C487.147 207.056 483.137 200.4 477.19 194.821C471.273 189.356 464.097 185.652 455.661 183.708C447.225 181.763 438.391 182.028 429.16 184.501C418.89 187.253 410.677 191.68 404.52 197.782C398.479 203.853 394.683 211.61 393.133 221.054C391.613 230.613 392.569 241.797 396.001 254.605ZM473.765 226.348C476.115 235.117 475.573 242.559 472.141 248.673C468.824 254.756 463.011 258.911 454.703 261.137C448.934 262.683 442.827 262.279 436.383 259.924C430.086 257.654 424.294 253.579 419.009 247.698C413.838 241.787 410.062 234.389 407.682 225.504C405.332 216.734 405.815 209.308 409.132 203.224C412.45 197.141 418.031 193.048 425.878 190.946C431.878 189.338 438.085 189.654 444.497 191.893C451.056 194.217 456.979 198.319 462.265 204.2C467.551 210.08 471.384 217.463 473.765 226.348Z" fill="#FF0000"/>
<path d="M250.386 42.1217C266.438 34.2374 282.895 31.0672 299.757 32.6112C316.728 34.3752 332.569 40.7877 347.282 51.8487C362.215 62.8016 374.433 77.9536 383.937 97.3045C392.578 114.896 396.676 131.853 396.231 148.175C395.895 164.717 391.743 178.493 383.776 189.503L292.846 172.751L290.416 167.803C329.885 164.249 356.12 157.368 369.121 147.161C382.122 136.954 384.95 124.374 377.606 109.421C371.666 97.3268 362.147 87.6723 349.051 80.4576C335.954 73.2429 320.365 69.8454 302.284 70.2648C284.203 70.6843 265.157 75.8084 245.146 85.6368C227.774 94.1691 216.683 105.485 211.871 119.585C207.168 133.905 208.92 149.421 217.129 166.133C225.661 183.505 240.968 195.775 263.049 202.944C285.351 210.005 312.519 210.581 344.554 204.673L346.174 207.971L271.958 244.423C262.665 241.618 252.524 234.862 241.533 224.157C230.871 213.563 220.896 198.81 211.608 179.899C202.319 160.988 197.849 142.439 198.197 124.254C198.874 106.181 203.7 89.8894 212.678 75.381C221.984 60.9844 234.553 49.8981 250.386 42.1217Z" fill="#FF0000"/>
<path d="M28.6913 190.425C33.3201 173.15 41.7645 158.673 54.0246 146.994C66.5215 135.378 81.7754 127.672 99.7862 123.874C117.86 119.84 137.31 120.613 158.134 126.193C177.066 131.265 192.529 139.34 204.526 150.417C216.759 161.558 224.398 173.75 227.443 186.994L154.986 244.429L149.662 243.003C172.962 210.948 185.048 186.667 185.92 170.161C186.792 153.655 179.182 143.246 163.09 138.934C150.075 135.447 136.541 136.259 122.49 141.371C108.439 146.483 95.6209 155.984 84.0367 169.873C72.4525 183.762 63.7754 201.474 58.0053 223.009C52.9961 241.703 54.2161 257.502 61.6652 270.404C69.3509 283.37 82.1861 292.262 100.171 297.081C118.866 302.09 138.178 298.641 158.108 286.735C178.102 274.591 196.416 254.516 213.051 226.508L216.601 227.459L195.2 307.326C186.972 312.477 175.212 315.666 159.918 316.895C144.925 317.95 127.252 315.751 106.901 310.298C86.5501 304.845 69.6435 296.003 56.181 283.772C43.0186 271.368 33.9298 257.012 28.9151 240.704C24.2005 224.223 24.1259 207.463 28.6913 190.425Z" fill="#FF0000"/>
<path d="M202.141 325.582C200.324 334.169 199.453 340.655 199.525 345.038C199.597 349.421 200.638 352.644 202.649 354.707C204.659 356.769 208.023 358.433 212.741 359.697C219.786 361.584 227.028 363.767 234.468 366.246C241.909 368.724 248.405 371.366 253.957 374.169L254.087 373.685C252.509 367.166 251.051 362.135 249.715 358.59C248.426 355.128 246.732 352.146 244.632 349.643C242.467 347.124 239.608 344.868 236.054 342.877C232.501 340.886 227.388 338.512 220.715 335.754L221.105 334.3L248.733 341.703C249.017 342.194 249.34 342.8 249.701 343.521C250.045 344.305 250.427 345.204 250.849 346.218C251.519 347.852 252.208 349.803 252.917 352.071C253.608 354.404 254.23 356.995 254.782 359.844L259.705 384.126L257.732 385.675C256.897 384.135 253.829 382.274 248.526 380.091C243.206 377.973 234.503 375.295 222.417 372.056C212.981 369.528 205.533 367.983 200.073 367.42C194.678 366.875 191.234 367.061 189.742 367.977L189.257 367.847L200.686 325.192L202.141 325.582Z" fill="#FF0000"/>
<path d="M176.878 409.644C176.878 403.703 178.364 398.298 181.334 393.43C184.387 388.479 188.596 384.601 193.959 381.795C199.405 378.907 205.676 377.463 212.773 377.463C219.869 377.463 226.099 378.907 231.463 381.795C236.909 384.601 241.117 388.479 244.088 393.43C247.141 398.298 248.667 403.703 248.667 409.644C248.667 415.585 247.141 421.031 244.088 425.982C241.117 430.851 236.909 434.729 231.463 437.617C226.099 440.423 219.869 441.825 212.773 441.825C205.676 441.825 199.405 440.423 193.959 437.617C188.596 434.729 184.387 430.851 181.334 425.982C178.364 421.031 176.878 415.585 176.878 409.644ZM189.256 417.071C189.256 423.672 191.071 428.829 194.702 432.542C198.333 436.256 203.242 438.112 209.431 438.112C213.969 438.112 218.301 436.668 222.427 433.78C226.553 430.892 229.895 426.766 232.453 421.403C235.011 415.957 236.29 409.562 236.29 402.218C236.29 395.616 234.475 390.459 230.844 386.746C227.213 383.033 222.303 381.176 216.115 381.176C211.576 381.176 207.244 382.62 203.118 385.508C198.993 388.396 195.651 392.563 193.093 398.009C190.535 403.373 189.256 409.727 189.256 417.071Z" fill="#FF0000"/>
<path d="M383.522 329.535C385.339 338.122 386.211 344.608 386.138 348.991C386.066 353.374 385.025 356.597 383.014 358.66C381.004 360.722 377.64 362.386 372.922 363.65C365.878 365.537 358.635 367.721 351.195 370.199C343.754 372.678 337.258 375.319 331.706 378.123L331.576 377.638C333.154 371.119 334.612 366.088 335.948 362.543C337.237 359.081 338.931 356.099 341.031 353.596C343.196 351.077 346.055 348.821 349.609 346.83C353.162 344.839 358.275 342.465 364.948 339.707L364.558 338.253L336.93 345.656C336.646 346.148 336.323 346.753 335.962 347.474C335.618 348.258 335.236 349.158 334.815 350.171C334.144 351.805 333.455 353.756 332.746 356.024C332.055 358.357 331.433 360.948 330.881 363.797L325.958 388.079L327.931 389.628C328.766 388.089 331.834 386.227 337.137 384.044C342.457 381.926 351.16 379.248 363.246 376.01C372.682 373.481 380.13 371.936 385.59 371.373C390.985 370.828 394.429 371.014 395.921 371.93L396.406 371.8L384.977 329.145L383.522 329.535Z" fill="#FF0000"/>
<path d="M393.605 400.103C393.605 394.162 392.12 388.757 389.149 383.889C386.096 378.938 381.888 375.06 376.524 372.254C371.078 369.366 364.807 367.922 357.711 367.922C350.614 367.922 344.384 369.366 339.021 372.254C333.575 375.06 329.366 378.938 326.396 383.889C323.343 388.757 321.816 394.162 321.816 400.103C321.816 406.044 323.343 411.49 326.396 416.441C329.366 421.31 333.575 425.188 339.021 428.076C344.384 430.882 350.614 432.284 357.711 432.284C364.807 432.284 371.078 430.882 376.524 428.076C381.888 425.188 386.096 421.31 389.149 416.441C392.12 411.49 393.605 406.044 393.605 400.103ZM381.228 407.53C381.228 414.131 379.412 419.288 375.782 423.001C372.151 426.715 367.241 428.571 361.052 428.571C356.514 428.571 352.182 427.127 348.056 424.239C343.93 421.351 340.588 417.225 338.03 411.862C335.472 406.416 334.193 400.021 334.193 392.677C334.193 386.075 336.009 380.918 339.64 377.205C343.27 373.492 348.18 371.635 354.369 371.635C358.907 371.635 363.239 373.079 367.365 375.967C371.491 378.855 374.833 383.022 377.391 388.468C379.949 393.832 381.228 400.186 381.228 407.53Z" fill="#FF0000"/>
<path d="M112.896 170.953L130.206 233.422L127.948 235.68C122.028 221.932 115.153 211.545 107.326 204.521C99.3982 197.597 90.6675 194.686 81.1341 195.79C71.6007 196.894 61.5656 202.714 51.0287 213.251C41.5956 222.685 36.5279 231.766 35.8254 240.497C35.0226 249.328 38.1334 257.256 45.158 264.28C51.8816 271.004 60.0604 274.366 69.6941 274.366C79.4283 274.466 90.216 271.907 102.058 266.689C112.093 262.273 121.576 257.005 130.507 250.883C139.439 244.963 147.166 239.243 153.689 233.723L174.913 254.948C181.837 261.872 185.249 269.198 185.149 276.925C185.049 284.652 181.285 292.228 173.859 299.654C168.34 305.174 163.122 309.288 158.204 311.998C153.187 314.808 147.417 317.367 140.894 319.675C136.177 321.581 132.514 323.137 129.905 324.341C127.396 325.646 124.988 327.452 122.68 329.76C119.168 333.272 117.211 336.734 116.809 340.146C116.307 343.659 117.311 347.873 119.82 352.791C122.329 357.909 126.794 364.783 133.217 373.413L130.959 375.671L94.0796 338.792C94.3807 335.881 95.3841 332.67 97.0901 329.158C98.7961 325.846 101.154 322.685 104.165 319.675C109.182 314.657 114.3 311.245 119.519 309.439C124.837 307.733 131.661 306.227 139.991 304.923C147.015 303.919 152.735 302.715 157.151 301.31C161.566 299.905 165.63 297.346 169.343 293.633C174.461 288.515 176.82 283.147 176.418 277.527C175.916 272.008 172.404 265.986 165.881 259.464L152.936 246.518C136.077 261.772 119.569 273.663 103.412 282.193C88.4599 290.121 74.7117 294.536 62.1678 295.44C49.5234 296.443 39.0868 292.83 30.8579 284.602C24.9371 278.681 21.3746 271.606 20.1704 263.377C18.9662 255.349 20.5217 246.468 24.8368 236.734C29.152 227.2 36.4274 217.316 46.6633 207.08C53.8887 199.854 61.4651 193.683 69.3929 188.565C77.3207 183.447 84.9978 179.483 92.4238 176.673C99.8499 173.863 106.674 171.957 112.896 170.953Z" fill="#FF0000"/>
<path d="M310.732 149.157L278.801 205.57L275.607 205.57C281.142 191.662 283.626 179.457 283.058 168.955C282.349 158.453 278.233 150.222 270.711 144.261C263.189 138.301 251.978 135.32 237.077 135.32C223.736 135.32 213.731 138.159 207.061 143.835C200.249 149.512 196.842 157.318 196.842 167.252C196.842 176.761 200.249 184.921 207.061 191.733C213.873 198.687 223.31 204.506 235.373 209.189C245.592 213.163 256.023 216.143 266.667 218.13C277.169 220.259 286.677 221.678 295.192 222.388L295.192 252.404C295.192 262.196 292.425 269.789 286.89 275.181C281.355 280.574 273.337 283.271 262.835 283.271C255.029 283.271 248.43 282.49 243.037 280.929C237.502 279.368 231.613 277.097 225.368 274.117C220.685 272.13 216.995 270.64 214.298 269.647C211.602 268.795 208.622 268.369 205.358 268.369C200.39 268.369 196.559 269.434 193.862 271.563C191.024 273.691 188.753 277.381 187.05 282.632C185.205 288.025 183.502 296.044 181.941 306.687L178.748 306.687L178.748 254.532C181.019 252.687 183.999 251.126 187.689 249.849C191.237 248.714 195.139 248.146 199.397 248.146C206.493 248.146 212.524 249.352 217.492 251.765C222.459 254.319 228.348 258.08 235.161 263.047C240.837 267.305 245.734 270.498 249.849 272.627C253.965 274.756 258.648 275.82 263.899 275.82C271.137 275.82 276.601 273.691 280.291 269.434C283.839 265.176 285.613 258.435 285.613 249.21L285.613 230.903C262.906 229.767 242.824 226.503 225.368 221.11C209.189 216.143 196.346 209.544 186.837 201.313C177.187 193.081 172.361 183.147 172.361 171.51C172.361 163.136 174.845 155.615 179.812 148.945C184.637 142.416 192.017 137.236 201.952 133.404C211.744 129.715 223.878 127.87 238.354 127.87C248.572 127.87 258.293 128.863 267.518 130.85C276.743 132.837 284.974 135.462 292.212 138.726C299.45 141.991 305.623 145.468 310.732 149.157Z" fill="#FF0000"/>
<path d="M176.881 165.113L144.95 221.525L141.756 221.525C147.291 207.617 149.775 195.412 149.207 184.91C148.498 174.408 144.382 166.177 136.86 160.216C129.338 154.256 118.127 151.275 103.225 151.275C89.8851 151.275 79.8799 154.114 73.2097 159.791C66.3976 165.467 62.9914 173.273 62.9914 183.207C62.9914 192.716 66.3976 200.876 73.2097 207.688C80.0218 214.642 89.4592 220.461 101.522 225.144C111.741 229.118 122.172 232.098 132.816 234.085C143.318 236.214 152.826 237.633 161.341 238.343L161.341 268.359C161.341 278.151 158.574 285.744 153.039 291.137C147.504 296.529 139.486 299.226 128.984 299.226C121.178 299.226 114.579 298.445 109.186 296.884C103.651 295.323 97.7616 293.052 91.5172 290.072C86.8338 288.085 83.1438 286.595 80.4473 285.602C77.7509 284.75 74.7707 284.324 71.5065 284.324C66.5394 284.324 62.7075 285.389 60.0111 287.518C57.1727 289.646 54.9021 293.336 53.1991 298.587C51.3541 303.98 49.651 311.999 48.0899 322.643L44.8967 322.643L44.8967 270.487C47.1675 268.642 50.1476 267.081 53.8375 265.804C57.3855 264.669 61.2883 264.101 65.5458 264.101C72.6418 264.101 78.6734 265.307 83.6405 267.72C88.6077 270.274 94.4974 274.035 101.31 279.002C106.986 283.26 111.883 286.453 115.998 288.582C120.114 290.711 124.797 291.775 130.048 291.775C137.286 291.775 142.75 289.646 146.44 285.389C149.988 281.131 151.762 274.39 151.762 265.165L151.762 246.858C129.055 245.722 108.973 242.458 91.5172 237.065C75.3384 232.098 62.4948 225.499 52.9862 217.268C43.3358 209.036 38.5104 199.102 38.5104 187.465C38.5104 179.092 40.994 171.57 45.9611 164.9C50.7864 158.371 58.1662 153.191 68.1006 149.36C77.893 145.67 90.027 143.825 104.503 143.825C114.721 143.825 124.442 144.818 133.667 146.805C142.892 148.792 151.123 151.417 158.361 154.682C165.599 157.946 171.772 161.423 176.881 165.113Z" fill="#FF0000"/>
<path d="M265.412 564.416C267.093 568.545 268.879 571.46 270.77 573.163C272.712 574.893 275.641 576.195 279.557 577.069C283.511 577.932 290.8 579.093 301.421 580.553C302.638 580.742 303.894 580.919 305.19 581.085C306.498 581.29 307.845 581.482 309.231 581.663L309.436 581.279C308.584 580.592 307.833 579.746 307.185 578.741C306.576 577.723 306.08 576.585 305.698 575.326C305.352 574.185 305.079 573.001 304.879 571.774C304.718 570.534 304.514 568.942 304.268 566.998C304.119 565.798 303.95 564.604 303.761 563.416C303.624 562.255 303.436 561.281 303.198 560.494C302.72 558.921 301.9 557.774 300.737 557.053C299.624 556.36 297.846 556.019 295.401 556.03C293.008 556.069 289.596 556.502 285.166 557.33L284.898 556.445L303.481 550.809C304.353 551.275 305.214 552.131 306.064 553.376C306.953 554.61 307.696 556.21 308.292 558.176C308.793 559.828 309.166 561.411 309.411 562.926C309.707 564.469 309.976 566.277 310.218 568.351C310.488 570.373 310.729 572.018 310.942 573.285C311.166 574.591 311.487 575.933 311.905 577.309C312.453 579.118 313.133 580.652 313.944 581.909C314.754 583.166 315.554 584.105 316.344 584.724L315.699 586.208C312.412 585.144 308.461 584.152 303.844 583.232C299.24 582.353 294.632 581.817 290.022 581.626C285.412 581.435 281.553 581.811 278.446 582.753C276.479 583.35 275.013 584.181 274.048 585.247C273.644 585.756 273.331 586.28 273.108 586.82C272.885 587.36 272.765 587.955 272.747 588.605L271.862 588.873L264.527 564.685L265.412 564.416Z" fill="#FF0000"/>
<path d="M281.109 549.888C280.118 547.455 279.065 545.736 277.951 544.733C276.806 543.713 275.08 542.945 272.772 542.43C270.441 541.922 266.145 541.238 259.885 540.377C259.167 540.266 258.427 540.161 257.663 540.064C256.892 539.943 256.099 539.829 255.281 539.723L255.16 539.949C255.663 540.354 256.105 540.853 256.487 541.445C256.847 542.045 257.139 542.716 257.364 543.458C257.567 544.13 257.728 544.828 257.847 545.552C257.942 546.282 258.062 547.221 258.207 548.366C258.295 549.074 258.394 549.778 258.505 550.478C258.586 551.162 258.697 551.736 258.838 552.2C259.119 553.127 259.602 553.803 260.288 554.228C260.944 554.637 261.992 554.838 263.433 554.831C264.843 554.808 266.854 554.553 269.465 554.065L269.624 554.586L258.67 557.908C258.157 557.634 257.649 557.129 257.148 556.395C256.624 555.668 256.186 554.725 255.835 553.566C255.539 552.593 255.32 551.659 255.175 550.766C255.001 549.857 254.842 548.792 254.699 547.569C254.54 546.377 254.398 545.408 254.273 544.661C254.141 543.891 253.952 543.1 253.706 542.289C253.382 541.223 252.982 540.319 252.504 539.578C252.026 538.837 251.554 538.284 251.089 537.919L251.469 537.044C253.406 537.671 255.735 538.256 258.456 538.798C261.17 539.316 263.886 539.632 266.603 539.745C269.321 539.857 271.595 539.636 273.427 539.08C274.586 538.729 275.45 538.239 276.019 537.611C276.257 537.311 276.441 537.001 276.573 536.683C276.704 536.365 276.775 536.014 276.785 535.631L277.307 535.473L281.63 549.73L281.109 549.888Z" fill="#FF0000"/>
<path d="M279.559 567.722C276.225 570.68 273.333 572.505 270.884 573.195C268.377 573.888 265.174 573.76 261.276 572.811C257.348 571.835 250.298 569.651 240.127 566.262C238.951 565.893 237.746 565.496 236.511 565.071C235.248 564.677 233.955 564.254 232.631 563.802L232.617 563.367C233.685 563.128 234.733 562.702 235.759 562.086C236.756 561.443 237.704 560.642 238.603 559.682C239.418 558.812 240.187 557.871 240.91 556.859C241.603 555.818 242.49 554.481 243.57 552.847C244.235 551.836 244.915 550.84 245.61 549.858C246.246 548.877 246.846 548.087 247.408 547.487C248.532 546.287 249.775 545.622 251.137 545.49C252.441 545.36 254.187 545.841 256.374 546.933C258.504 548.026 261.372 549.924 264.978 552.627L265.611 551.952L251.438 538.676C250.45 538.708 249.3 539.095 247.986 539.836C246.643 540.548 245.269 541.654 243.864 543.154C242.684 544.414 241.649 545.669 240.76 546.919C239.812 548.172 238.771 549.674 237.636 551.427C236.499 553.121 235.555 554.489 234.804 555.532C234.025 556.604 233.143 557.665 232.16 558.715C230.868 560.095 229.58 561.169 228.296 561.938C227.013 562.707 225.88 563.194 224.898 563.401L224.82 565.017C228.239 565.516 232.221 566.375 236.768 567.593C241.287 568.841 245.655 570.399 249.875 572.268C254.094 574.136 257.388 576.18 259.758 578.4C261.257 579.805 262.204 581.199 262.598 582.582C262.735 583.217 262.784 583.826 262.745 584.409C262.706 584.991 262.551 585.578 262.279 586.168L262.954 586.801L280.234 568.354L279.559 567.722Z" fill="#FF0000"/>
<path d="M272.671 547.924C274.637 546.18 276.341 545.105 277.785 544.698C279.262 544.289 281.15 544.365 283.448 544.924C285.763 545.5 289.918 546.786 295.913 548.784C296.606 549.002 297.316 549.235 298.044 549.486C298.789 549.719 299.551 549.968 300.331 550.234L300.339 550.491C299.71 550.631 299.093 550.883 298.487 551.245C297.9 551.624 297.341 552.097 296.811 552.662C296.331 553.175 295.878 553.73 295.452 554.326C295.043 554.94 294.521 555.728 293.884 556.691C293.492 557.287 293.091 557.874 292.682 558.453C292.306 559.031 291.953 559.496 291.622 559.85C290.959 560.557 290.227 560.95 289.424 561.027C288.655 561.104 287.626 560.82 286.337 560.177C285.082 559.532 283.391 558.414 281.266 556.821L280.893 557.218L289.246 565.043C289.828 565.024 290.507 564.797 291.281 564.36C292.072 563.94 292.882 563.288 293.71 562.404C294.406 561.661 295.016 560.922 295.54 560.185C296.099 559.447 296.713 558.561 297.382 557.528C298.052 556.529 298.608 555.723 299.051 555.109C299.51 554.477 300.029 553.851 300.609 553.232C301.371 552.419 302.13 551.786 302.886 551.333C303.643 550.88 304.31 550.592 304.889 550.47L304.935 549.518C302.92 549.224 300.573 548.718 297.893 548C295.23 547.264 292.655 546.346 290.168 545.244C287.681 544.143 285.739 542.938 284.343 541.63C283.459 540.802 282.901 539.98 282.668 539.165C282.588 538.791 282.559 538.432 282.582 538.088C282.605 537.745 282.696 537.399 282.856 537.051L282.459 536.678L272.274 547.551L272.671 547.924Z" fill="#FF0000"/>
<path d="M284.491 504.416V379.942H289.75C294.192 412.2 298.165 436.394 301.672 452.523C305.412 468.652 309.503 479.989 313.944 486.534C318.619 493.079 324.696 496.352 332.177 496.352C337.319 496.352 341.644 494.832 345.15 491.793C348.89 488.521 351.695 483.144 353.565 475.664C355.669 467.95 356.721 457.665 356.721 444.809C356.721 420.031 355.318 400.512 352.513 386.253C349.942 371.761 344.098 360.19 334.982 351.541C325.865 342.892 311.957 337.749 293.257 336.113V330.854H486.104V332.607C480.494 335.879 476.169 346.048 473.13 363.112C470.092 380.176 468.572 406.824 468.572 443.056C468.572 459.886 470.209 473.444 473.481 483.729C476.988 494.014 481.195 500.91 486.104 504.416V506.169H377.408V500.91C395.641 500.209 408.848 498.806 417.029 496.702C425.445 494.598 431.172 490.975 434.21 485.833C437.249 480.69 438.769 472.742 438.769 461.99C438.769 453.808 438.885 445.744 439.119 437.796C439.353 429.615 439.704 421.667 440.171 413.953C440.405 407.174 440.639 400.512 440.872 393.967C441.106 387.422 441.223 380.994 441.223 374.682C441.223 365.099 440.755 358.086 439.82 353.645C439.119 349.203 436.899 346.048 433.159 344.178C429.652 342.307 424.042 341.372 416.328 341.372H358.474C361.513 350.956 364.084 363.228 366.188 378.189C368.525 392.915 369.694 408.927 369.694 426.225C369.694 447.029 368.292 463.392 365.487 475.314C362.681 487.001 357.773 495.65 350.76 501.26C343.748 506.871 333.579 509.676 320.255 509.676C307.632 509.676 295.711 507.922 284.491 504.416Z" fill="#FF0000"/>
</svg>
