<svg width="295" height="297" viewBox="0 0 295 297" fill="none" xmlns="http://www.w3.org/2000/svg">
<path d="M16.4917 279.71L65.8608 250.926L58.7608 243.826L114.793 188.244C133.921 213.571 107.838 255.31 107.838 255.31L100.911 248.382L71.2256 296.188L121.562 269.06L114.104 261.602C157.87 210.604 124.516 180.852 124.516 180.852L294.89 10.9548L283.935 3.09198e-05L114.038 170.375C114.038 170.375 85.6244 138.332 34.6127 182.111L27.155 174.653L-3.67316e-05 224.989L47.806 195.304L40.8782 188.376C40.8782 188.376 81.306 160.956 106.62 180.097L51.0381 236.129L42.6135 227.705L16.4917 279.71Z" fill="white"/>
</svg>
