<svg width="823" height="748" viewBox="0 0 823 748" fill="none" xmlns="http://www.w3.org/2000/svg">
<path d="M653.968 467.867C653.485 469.042 652.766 475.03 652.874 477.021C683.884 468.615 711.688 452.207 739.537 436.691L818.859 385.552C777.491 422.984 730.377 453.379 685.408 486.158L687.793 491.562C675.958 488.587 660.753 504.273 651.594 511.958C644.49 517.922 606.903 551.273 610.277 558.449L647.435 569.111C656.16 574.232 637.571 569.063 647.008 574.4C658.575 580.938 673.208 581.586 684.219 587.44C687.423 589.15 691.103 589.457 687.604 593.532L610.514 596.807L590.011 602.892C599.076 611.005 611.003 612.271 620.761 616.619C625.249 618.623 628.64 623.349 634.031 625.483C645.239 629.884 723.602 611.576 740.982 607.658C762.287 602.848 784.659 592.558 806.327 593.604C808.595 597.71 802.968 597.872 800.617 598.751C762.198 612.973 718.685 623.192 679.053 634.673C672.476 636.579 669.016 643.249 657.621 640.528L597.558 657.631C624.037 667.719 650.89 677.015 678.256 684.455C712.824 693.844 749.276 696.968 782.542 709.967C778.798 714.711 770.576 712.593 765.435 712.253C699.157 707.594 636.118 686.436 572.216 678.872C560.319 677.456 504.938 674.979 534.401 696.742C553.857 711.107 614.772 741.075 638.236 746.85C677.217 756.438 749.558 745.221 790.019 737.966C796.869 736.748 815.492 729.662 819.813 730.116C820.977 730.229 823.553 731.576 822.322 732.934C785.52 744.064 747.985 750.995 710.172 757.487L667.307 759.468L807.215 812.34C806.023 815.566 802.048 813.159 799.387 812.686C790.835 811.187 781.349 808.45 772.83 806.216C718.971 792.148 661.789 767.913 608.882 756.407C566.378 747.162 517.614 745.905 474.322 740.398C470.536 745.649 472.331 743.75 475.06 746.332C485.739 756.44 501.305 768.055 513.353 776.856C570.499 818.629 633.984 851.116 690.641 893.249C689.14 896.576 683.19 893.812 680.838 892.901C670.559 888.924 655.975 879.19 646.526 876.195C599.855 861.44 552.557 831.168 504.869 811.493C475.265 799.266 444.264 790.621 413.165 783.403C416.444 797.375 429.615 810.04 439.705 819.668C467.256 846.003 501.718 865.788 529.868 891.183C539.936 900.267 553.267 912.269 557.507 925.398C541.763 910.8 525.002 896.705 506.93 884.93C478.425 866.347 395.361 815.79 365.248 812.915C344.839 810.946 328.915 828.314 320.984 846.214C301.744 889.654 363.795 967.363 390.313 999.504C417.102 1032 446.551 1063.18 478.93 1090.01C478.961 1103.17 433.168 1122.08 421.555 1129.27C392.313 1147.39 365.009 1171.16 336.339 1188.24C311.189 1203.25 280.892 1212.6 252.916 1220.69C253.363 1228.58 258.893 1223.35 263.591 1226.74C271.167 1232.2 299.534 1262.45 304.1 1270.7C313.594 1287.9 305.567 1296.57 287.04 1295.41C193.629 1289.54 71.3835 1199.25 -13.9013 1157.48C-48.5867 1140.5 -51.3412 1137.62 -81.7332 1115.44C-122.358 1085.8 -183.502 1057.49 -215.015 1018.27C-216.317 1016.65 -224.539 1001.23 -224.835 999.657C-227.34 986.328 -214.227 981.428 -203.574 984.951C-199.321 986.344 -195.313 994.166 -192.533 990.124C-219.81 941.439 -224.132 884.115 -201.923 832.239L-146.76 733.936L-136.994 730.768C-62.7665 728.916 55.5961 768.091 119.952 724.192C123.515 721.748 137.336 711.554 139.028 709.204C140.805 706.707 140.192 706.269 139.205 703.574C113.589 697.508 86.8216 695.614 61.1972 690.047C58.714 689.508 52.7439 689.248 52.9997 685.901C78.7069 680.193 148.273 685.883 168.07 671.73C182.155 661.66 180.718 642.853 165.206 634.484C148.927 625.701 64.9174 618.745 41.5699 616.785C-30.8466 610.707 -96.7402 615.693 -167.978 615.077C-170.428 615.061 -175.932 616.608 -175.733 612.585C-57.258 590.482 63.8401 607.107 183.092 596.05L141.963 568.501C100.577 550.786 56.4734 540.924 15.8325 520.564C12.3372 518.825 0.588952 513.86 1.27687 509.28C70.314 529.875 137.324 552.626 209.75 556.556C211.782 556.667 221.119 557.388 220.8 554.939C189.643 515.925 141.624 496.534 102.62 466.997L-2.1292 403.808C7.52847 399.374 19.438 411.562 28.5651 415.937C77.6539 439.526 134.202 469.07 185.443 485.737C187.305 486.336 207.085 493.507 204.307 486.703L-21.4867 301.764C-20.6954 296.908 -11.4946 303.479 -10.3991 304.195C75.7192 360.933 156.006 426.998 243.684 481.422C241.414 446.196 224.188 411.562 208.637 380.077C178.725 319.498 141.9 261.163 104.197 205.173C106.737 200.628 112.121 208.825 113.749 210.604C137.353 236.562 153.568 269.801 177.929 295.273L130.391 193.734C131.983 188.894 134.491 191.376 137.227 193.655C149.395 203.895 177.075 261.564 190.151 280.493C213.759 314.673 241.498 347.408 270.614 376.744C271.86 374.779 270.24 372.698 269.384 370.889C250.318 330.245 209.365 284.82 183.608 246.715C181.437 243.505 178.093 244.118 182.382 239.157L314.489 385.356L330.402 369.603C315.217 341.405 288.596 312.782 275.629 284.13C273.694 279.882 270.629 274.058 273.806 269.573C282.498 268.021 336.272 343.803 347.007 353.719L352.16 354.038C352.857 353.798 357.724 346.626 358.283 345.271C370.676 315.24 340.221 244.226 326.56 215.566C315.037 191.382 297.868 168.217 291.188 142.664C307.643 156.078 320.702 176.731 333.132 194.308C357.421 228.714 378.218 265.633 403.262 299.552C405.386 301.924 407.757 301.448 408.123 298.248C408.276 296.967 404.055 276.496 403.27 272.967C398.623 252.362 389.091 233.103 385.208 212.24L332.058 76.7621C340.338 83.863 345.893 96.4088 351.162 106.161C360.379 123.253 369.11 141.77 377.452 159.364C400.238 207.357 418.942 257.243 440.298 305.78L468.445 304.752C474.133 227.234 447.688 152.132 425.73 79.0346L440.404 101.682L485.844 224.181C489.944 224.34 488.268 218.87 488.306 216.432C488.809 191.167 484.203 159.262 487.82 135.041C488.197 132.547 488.15 126.676 491.67 126.919C494.894 146.842 496.469 167.155 498.002 187.248C500.422 219.261 497.093 260.117 508.838 288.902C510.898 293.95 516.142 308.245 519.771 310.816C540.439 316.933 561.346 323.411 578.835 336.584C605.553 290.695 615.441 234.557 626.412 182.932C638.86 124.247 647.627 64.5818 659.337 5.72226L664.15 0.000932371L613.658 367.118C614.134 373.796 634.618 405.837 640.917 406.929C653.375 409.117 692.86 357.765 701.179 346.744C741.916 292.787 775.449 232.044 815.582 178.214C818.282 174.601 816.911 174.508 821.586 177.543L653.907 467.971L653.968 467.867Z" fill="white"/>
</svg>
