<svg width="88" height="90" viewBox="0 0 88 90" fill="none" xmlns="http://www.w3.org/2000/svg">
<path d="M86.5729 41.6685C86.5493 41.5595 86.5775 41.4444 86.6514 41.3606C86.8129 41.1785 87.0796 40.783 87.0728 40.165C87.0629 39.2803 86.4891 38.6768 85.3994 38.8331C84.927 38.9001 84.6229 39.2529 84.4301 39.6309C84.3958 39.6987 84.2976 39.6926 84.2693 39.6218C83.5934 37.9019 82.7125 36.5677 81.5665 35.9154C81.4263 35.8354 81.3227 35.7043 81.2838 35.5481L81.2831 35.5458C80.8046 33.6355 79.087 32.2959 77.118 32.2959H63.4088C63.2366 32.2959 63.0972 32.1564 63.0972 31.9842V28.4142C63.0972 27.7261 62.755 27.1173 62.2307 26.75C62.0852 26.6479 61.9907 26.4886 61.98 26.3119C61.823 23.6464 61.2264 22.2565 60.9643 21.7658C60.8812 21.6111 60.8301 21.4419 60.8111 21.2674C60.5315 18.7056 57.9917 0 43.5838 0C29.4807 0 27.1695 17.9215 26.8716 21.083C26.845 21.3634 26.7375 21.6324 26.5523 21.845C25.5731 22.972 25.1937 24.7284 25.0626 26.2471C25.0405 26.5061 24.9064 26.7393 24.706 26.9046C24.1985 27.3237 23.8754 27.9578 23.8754 28.6672V31.7121C23.8754 32.0345 23.6141 32.2958 23.2917 32.2958H10.5945C8.6415 32.2958 6.92246 33.5836 6.37456 35.4582L6.32654 35.6212C6.28923 35.7492 6.20541 35.8582 6.09184 35.926C4.80785 36.6964 3.82719 38.1663 3.07888 40.0126C3.06062 40.0575 2.99585 40.056 2.97983 40.0096C2.8137 39.5219 2.48297 38.923 1.85204 38.8331C0.762351 38.6768 0.188568 39.2803 0.178711 40.165C0.171091 40.8165 0.467537 41.2204 0.625254 41.388C0.683915 41.4513 0.706773 41.5389 0.68851 41.6227C-0.142046 45.4 -0.267772 47.3568 0.568106 47.5389C0.830262 47.596 1.04053 47.5267 1.20514 47.404C1.24935 47.3712 1.31182 47.4063 1.3042 47.4612C0.495718 53.5663 0.762411 59.689 0.762411 59.689L0.762411 83.7781C0.762411 85.4507 1.62121 86.9229 2.92195 87.7778C3.0553 87.8647 3.13609 88.0117 3.13609 88.171C3.13609 88.6335 3.32356 89.0511 3.62606 89.3544C3.92934 89.6568 4.34691 89.8443 4.80942 89.8443H82.3574C83.2817 89.8443 84.0308 89.0953 84.0308 88.171C84.0308 88.0635 84.0856 87.9622 84.1779 87.9066C85.5045 87.108 86.3907 85.6534 86.3907 83.9922V59.689C86.3907 59.689 86.6688 53.5731 85.9838 47.4886C85.9777 47.4352 86.0363 47.3986 86.0813 47.4291C86.2405 47.5358 86.4394 47.5922 86.6833 47.5389C87.5162 47.3568 87.3951 45.416 86.5729 41.6685ZM5.01068 40.1255L4.83234 40.7343C3.70764 44.5832 3.13615 48.5722 3.13615 52.5826L3.13615 85.6908C3.13615 85.7937 3.05234 85.876 2.95026 85.876C2.65841 85.8752 2.41911 85.6428 2.41155 85.3509C2.32622 82.0789 1.89721 64.2436 2.426 52.7236C2.73841 45.9037 3.90121 42.1249 4.91241 40.0858C4.94131 40.0286 5.02822 40.0629 5.01068 40.1255ZM56.9966 29.0795H60.5018C60.8447 29.0795 61.1228 29.3576 61.1228 29.7005V31.386C61.1228 31.5651 60.9766 31.7084 60.7982 31.7046L56.6872 31.6169C56.5143 31.6131 56.3755 31.4714 56.3755 31.2984V29.7005C56.3756 29.3576 56.6537 29.0795 56.9966 29.0795ZM25.9375 29.8559C25.9375 29.513 26.2156 29.2349 26.5585 29.2349H30.0637C30.4066 29.2349 30.6847 29.513 30.6847 29.8559V31.2489C30.6847 31.4188 30.5491 31.5583 30.3792 31.5636L26.2605 31.6825C26.0838 31.6871 25.9375 31.5453 25.9375 31.3678V29.8559ZM33.6909 42.7528L28.6403 46.6329C28.2547 46.9293 27.7145 46.9194 27.3404 46.6078L22.7105 42.7574C22.3432 42.4518 22.2311 41.9351 22.4384 41.5054L25.1337 35.9146C25.2022 35.7736 25.2373 35.619 25.2373 35.4627V34.8539C25.2373 34.2793 25.7029 33.813 26.2782 33.813H30.169C30.7436 33.813 31.2099 34.2793 31.2099 34.8539V35.4627C31.2099 35.619 31.2449 35.7736 31.3128 35.9146L33.9943 41.4757C34.2082 41.9192 34.0818 42.4526 33.6909 42.7528ZM45.4478 31.21L44.0571 31.1544H43.2791L41.7139 31.2168C41.5882 31.2222 41.5067 31.0827 41.5753 30.976C41.9251 30.4312 42.6924 30.0517 43.5839 30.0517C44.4709 30.0517 45.2352 30.4274 45.5865 30.9692C45.6558 31.0751 45.5743 31.2153 45.4478 31.21ZM46.9695 31.0546C46.6037 29.955 45.2268 29.1374 43.5839 29.1374C41.9395 29.1374 40.5611 29.9565 40.1961 31.0576C40.1519 31.1925 40.0262 31.2832 39.8837 31.2877L32.8801 31.4904C32.7117 31.4957 32.5723 31.3601 32.5723 31.1917V27.986C32.5723 27.5333 32.3849 27.125 32.0831 26.8331C31.8995 26.6548 31.8012 26.4064 31.7958 26.1511C31.7646 24.6988 31.4971 23.0483 30.6048 21.9494C30.3633 21.6515 30.2666 21.2621 30.3244 20.8826C30.835 17.5587 33.6269 3.05408 43.5108 3.05408C54.1705 3.05408 55.9276 15.4564 56.5219 20.843C56.5623 21.2103 56.4435 21.5723 56.2088 21.8564C55.8468 22.2953 55.3842 23.3576 55.5344 25.8912C55.5489 26.1381 55.4087 26.3728 55.1778 26.4612C54.7236 26.6341 54.4006 27.0731 54.4006 27.5874V31.2557C54.4006 31.4256 54.2596 31.562 54.0897 31.5551L47.2781 31.2831C47.1379 31.2779 47.0137 31.1879 46.9695 31.0546ZM64.529 42.7528L59.4785 46.6329C59.0922 46.9293 58.5527 46.9194 58.1785 46.6078L53.5486 42.7574C53.1813 42.4518 53.0693 41.9351 53.2766 41.5054L55.9718 35.9146C56.0396 35.7736 56.0754 35.619 56.0754 35.4627V34.8539C56.0754 34.2793 56.541 33.813 57.1155 33.813H61.007C61.5816 33.813 62.0479 34.2793 62.0479 34.8539V35.4627C62.0479 35.619 62.083 35.7736 62.1508 35.9146L64.8323 41.4757C65.0464 41.9192 64.9191 42.4526 64.529 42.7528ZM84.9803 85.197C84.9704 85.5734 84.6641 85.8736 84.2876 85.8759C84.1467 85.8767 84.0309 85.7647 84.0309 85.623V48.8541C84.0309 47.3149 83.8419 45.7817 83.4693 44.289L82.577 40.719C82.5503 40.6146 82.6996 40.5628 82.7431 40.6619C83.6834 42.8092 84.6763 46.5003 84.962 52.7235C85.4825 64.0743 85.0748 81.5554 84.9803 85.197Z" fill="#DC2508"/>
</svg>
