<svg width="249" height="571" viewBox="0 0 249 571" fill="none" xmlns="http://www.w3.org/2000/svg">
<path d="M0 279.13C24.8116 279.13 43.8338 272.514 57.0667 259.281C70.713 245.635 77.5362 226.406 77.5362 201.594L77.5362 93.0435C77.5362 61.2019 85.6 37.8377 101.728 22.9507C117.855 7.65024 143.907 0 179.884 0C191.463 0 203.248 1.03382 215.241 3.10145C227.646 4.75556 238.605 6.82319 248.116 9.30434L248.116 176.783H238.812C233.436 134.603 225.785 102.348 215.861 80.0174C206.35 57.687 195.805 43.0068 184.226 35.9768C173.061 28.5333 160.242 24.8116 145.768 24.8116C132.535 24.8116 122.404 28.5333 115.374 35.9768C108.757 43.0068 105.449 53.7584 105.449 68.2319C105.449 81.4647 107.103 94.284 110.412 106.69C114.133 119.096 119.302 134.396 125.919 152.591C131.708 168.305 135.843 181.125 138.325 191.049C141.219 200.974 142.667 210.692 142.667 220.203C142.667 238.398 136.877 252.871 125.299 263.623C113.72 273.961 96.5584 280.578 73.8145 283.472V287.194C96.5584 290.089 113.72 296.912 125.299 307.664C136.877 318.002 142.667 332.269 142.667 350.464C142.667 359.975 141.219 369.693 138.325 379.617C135.843 389.542 131.708 402.361 125.919 418.075C119.302 436.27 114.133 451.571 110.412 463.977C107.103 476.383 105.449 489.202 105.449 502.435C105.449 516.908 108.757 527.66 115.374 534.69C122.404 542.133 132.535 545.855 145.768 545.855C160.242 545.855 173.061 542.133 184.226 534.69C195.805 527.66 206.35 512.98 215.861 490.649C225.785 468.319 233.436 436.064 238.812 393.884H248.116V561.362C238.605 563.843 227.646 565.911 215.241 567.565C203.248 569.633 191.463 570.667 179.884 570.667C143.907 570.667 117.855 563.016 101.728 547.716C85.6 532.829 77.5362 509.465 77.5362 477.623L77.5362 369.072C77.5362 344.261 70.713 325.239 57.0667 312.006C43.8338 298.359 24.8116 291.536 0 291.536L0 279.13Z" fill="#FF0000"/>
</svg>
