<svg width="1459" height="153" viewBox="0 0 1459 153" fill="none" xmlns="http://www.w3.org/2000/svg">
<path d="M3.49999 1.09473L13.9756 1.09473L70.7949 0.00292675L1279.57 0.00287391L1279.57 152.904L79.7383 152.904L85.5967 136.521L3.5 136.521L3.49999 1.09473Z" fill="#5C0505"/>
<path d="M1445.49 151.811L1435.02 151.811L1378.2 152.903L190.57 152.903L190.57 0.00189827L1390.4 0.00195072L1384.54 16.3848L1445.49 16.3848L1445.49 151.811Z" fill="#5C0505"/>
<mask id="path-3-inside-1_93_10914" fill="white">
<path d="M388.377 0.00390625H499.776V152.905H388.377V0.00390625Z"/>
</mask>
<path d="M388.377 0.00390625H499.776V152.905H388.377V0.00390625Z" fill="#A13737" style="mix-blend-mode:multiply"/>
<path d="M499.776 0.00390625H495.408V152.905H499.776H504.145V0.00390625H499.776ZM388.377 152.905H392.746V0.00390625H388.377H384.008V152.905H388.377Z" fill="black" mask="url(#path-3-inside-1_93_10914)"/>
<line x1="444.077" y1="0.0039062" x2="444.077" y2="152.905" stroke="white" stroke-width="2.1843"/>
<line x1="433.155" y1="0.0039062" x2="433.155" y2="152.905" stroke="white" stroke-width="2.1843"/>
<line x1="487.763" y1="0.0039062" x2="487.763" y2="152.905" stroke="white" stroke-width="2.1843"/>
<line x1="422.233" y1="0.0039062" x2="422.233" y2="152.905" stroke="white" stroke-width="2.1843"/>
<line x1="476.841" y1="0.0039062" x2="476.841" y2="152.905" stroke="white" stroke-width="2.1843"/>
<line x1="411.312" y1="0.0039062" x2="411.312" y2="152.905" stroke="white" stroke-width="2.1843"/>
<line x1="465.919" y1="0.0039062" x2="465.919" y2="152.905" stroke="white" stroke-width="2.1843"/>
<line x1="400.39" y1="0.0039062" x2="400.391" y2="152.905" stroke="white" stroke-width="2.1843"/>
<line x1="454.998" y1="0.0039062" x2="454.998" y2="152.905" stroke="white" stroke-width="2.1843"/>
<rect x="394.93" y="15.293" width="98.2935" height="115.768" fill="#A10000"/>
<rect x="399.298" y="10.9258" width="34.9488" height="131.058" fill="#A10000"/>
<rect x="453.906" y="10.9258" width="34.9488" height="131.058" fill="#A10000"/>
<path d="M420.948 98.7567C419.529 95.5757 418.33 91.8563 417.351 87.5986C416.323 83.3409 415.81 78.9853 415.81 74.5318C415.81 67.9251 416.911 63.1046 419.113 60.0703C421.266 57.0361 424.203 55.519 427.922 55.519C431.054 55.519 433.868 56.4488 436.364 58.3085C438.86 60.1193 441.038 62.3705 442.897 65.0621C444.757 67.7538 447.008 71.4487 449.651 76.1468C450.091 76.9299 450.532 77.6884 450.972 78.4225C451.413 79.1566 451.853 79.9151 452.294 80.6982C453.811 83.2919 455.401 85.7389 457.065 88.039C457.946 89.2625 458.851 90.4126 459.781 91.4892C460.711 92.517 461.665 93.4713 462.644 94.3522L463.011 93.9851C462.13 92.2723 461.396 90.2168 460.809 87.8188C460.173 85.3718 459.855 82.8515 459.855 80.2577C459.855 78.6427 459.977 77.1745 460.222 75.8532C460.418 74.4829 460.736 72.819 461.176 70.8614C461.421 69.8826 461.641 68.9038 461.837 67.9251C461.984 66.9463 462.057 66.1143 462.057 65.4292C462.057 63.2269 461.396 61.4651 460.075 60.1437C458.754 58.8224 456.551 57.7947 453.468 57.0606C450.336 56.2776 445.981 55.6903 440.401 55.2988L440.401 54.1976L466.462 54.1976C467.098 55.2743 467.612 56.8159 468.003 58.8224C468.444 60.78 468.664 63.0801 468.664 65.7228C468.664 67.5335 468.517 69.2464 468.223 70.8614C467.979 72.4275 467.587 74.3606 467.049 76.6607C466.462 79.3034 466.046 81.4078 465.801 82.9738C465.507 84.5399 465.36 86.3017 465.36 88.2593C465.36 90.853 465.727 93.3979 466.462 95.8938C467.147 98.3407 468.003 100.47 469.031 102.28L467.93 103.014C466.364 101.693 464.871 100.347 463.452 98.9769C461.984 97.6066 460.564 96.1874 459.194 94.7192C456.698 92.0276 454.374 89.287 452.22 86.4974C450.85 84.8335 449.186 82.6313 447.228 79.8907C444.292 75.9755 441.943 72.9903 440.181 70.9348C438.37 68.8794 436.413 67.2154 434.309 65.943C432.155 64.6217 429.782 63.961 427.188 63.961C424.545 63.961 422.416 64.9153 420.801 66.8239C419.186 68.7326 418.379 71.6444 418.379 75.5596C418.379 79.4257 419.284 82.7781 421.095 85.6165C422.906 88.455 425.915 90.8775 430.124 92.884C434.284 94.8905 439.912 96.481 447.008 97.6556L447.008 98.7567L420.948 98.7567Z" fill="white"/>
<mask id="path-18-inside-2_93_10914" fill="white">
<path d="M276.978 0.00390625H388.377V152.905H276.978V0.00390625Z"/>
</mask>
<path d="M276.978 0.00390625H388.377V152.905H276.978V0.00390625Z" fill="#A13737" style="mix-blend-mode:multiply"/>
<path d="M388.377 0.00390625H384.008V152.905H388.377H392.745V0.00390625H388.377ZM276.978 152.905H281.346V0.00390625H276.978H272.609V152.905H276.978Z" fill="black" mask="url(#path-18-inside-2_93_10914)"/>
<line x1="332.677" y1="0.0039062" x2="332.677" y2="152.905" stroke="white" stroke-width="2.1843"/>
<line x1="321.756" y1="0.0039062" x2="321.756" y2="152.905" stroke="white" stroke-width="2.1843"/>
<line x1="376.363" y1="0.0039062" x2="376.363" y2="152.905" stroke="white" stroke-width="2.1843"/>
<line x1="310.834" y1="0.0039062" x2="310.834" y2="152.905" stroke="white" stroke-width="2.1843"/>
<line x1="365.442" y1="0.0039062" x2="365.442" y2="152.905" stroke="white" stroke-width="2.1843"/>
<line x1="299.912" y1="0.0039062" x2="299.912" y2="152.905" stroke="white" stroke-width="2.1843"/>
<line x1="354.52" y1="0.0039062" x2="354.52" y2="152.905" stroke="white" stroke-width="2.1843"/>
<line x1="288.991" y1="0.0039062" x2="288.991" y2="152.905" stroke="white" stroke-width="2.1843"/>
<line x1="343.598" y1="0.0039062" x2="343.599" y2="152.905" stroke="white" stroke-width="2.1843"/>
<rect x="283.53" y="15.293" width="98.2935" height="115.768" fill="#A10000"/>
<rect x="287.899" y="10.9258" width="34.9488" height="131.058" fill="#A10000"/>
<rect x="342.506" y="10.9258" width="34.9488" height="131.058" fill="#A10000"/>
<path d="M355.429 94.6451C355.087 88.2341 354.475 83.487 353.594 80.4038C352.713 77.3207 351.367 75.2408 349.556 74.1641C347.746 73.0874 345.054 72.5491 341.482 72.5491C336.147 72.5491 330.617 72.3778 324.891 72.0352C319.165 71.6927 314.076 71.0565 309.622 70.1266L309.622 70.4937C311.971 74.8003 313.953 78.0792 315.568 80.3304C317.134 82.5327 318.896 84.319 320.854 85.6893C322.86 87.0595 325.307 88.1117 328.195 88.8458C331.082 89.5799 335.144 90.2895 340.38 90.9747L340.38 92.0758L319.459 92.0758C319.165 91.7822 318.823 91.4151 318.431 90.9747C318.04 90.4853 317.599 89.9225 317.11 89.2863C316.327 88.2586 315.47 87.0106 314.541 85.5424C313.611 84.0253 312.681 82.3125 311.751 80.4038L303.676 64.1805L304.777 62.7123C305.658 63.6422 308.178 64.3763 312.338 64.9146C316.498 65.404 323.154 65.6487 332.305 65.6487C339.451 65.6487 345.005 65.3306 348.969 64.6944C352.884 64.0582 355.282 63.2751 356.163 62.3453L356.53 62.3453L356.53 94.6451L355.429 94.6451Z" fill="white"/>
<mask id="path-33-inside-3_93_10914" fill="white">
<path d="M165.577 0.00390625H276.976V152.905H165.577V0.00390625Z"/>
</mask>
<path d="M165.577 0.00390625H276.976V152.905H165.577V0.00390625Z" fill="#A13737" style="mix-blend-mode:multiply"/>
<path d="M276.976 0.00390625H272.608V152.905H276.976H281.345V0.00390625H276.976ZM165.577 152.905H169.946V0.00390625H165.577H161.209V152.905H165.577Z" fill="black" mask="url(#path-33-inside-3_93_10914)"/>
<line x1="221.277" y1="0.0039062" x2="221.277" y2="152.905" stroke="white" stroke-width="2.1843"/>
<line x1="210.355" y1="0.0039062" x2="210.355" y2="152.905" stroke="white" stroke-width="2.1843"/>
<line x1="264.963" y1="0.0039062" x2="264.963" y2="152.905" stroke="white" stroke-width="2.1843"/>
<line x1="199.434" y1="0.0039062" x2="199.434" y2="152.905" stroke="white" stroke-width="2.1843"/>
<line x1="254.041" y1="0.0039062" x2="254.041" y2="152.905" stroke="white" stroke-width="2.1843"/>
<line x1="188.513" y1="0.0039062" x2="188.513" y2="152.905" stroke="white" stroke-width="2.1843"/>
<line x1="243.12" y1="0.0039062" x2="243.12" y2="152.905" stroke="white" stroke-width="2.1843"/>
<line x1="177.591" y1="0.0039062" x2="177.591" y2="152.905" stroke="white" stroke-width="2.1843"/>
<line x1="232.198" y1="0.0039062" x2="232.198" y2="152.905" stroke="white" stroke-width="2.1843"/>
<rect x="172.13" y="15.293" width="98.2935" height="115.768" fill="#A10000"/>
<rect x="176.499" y="10.9258" width="34.9488" height="131.058" fill="#A10000"/>
<rect x="231.106" y="10.9258" width="34.9488" height="131.058" fill="#A10000"/>
<path d="M245.864 76.5519C245.864 82.2288 244.787 87.1472 242.634 91.307C240.481 95.4179 237.422 98.5745 233.458 100.777C229.494 102.979 224.82 104.08 219.437 104.08C214.347 104.08 209.796 102.93 205.783 100.63C201.77 98.3298 198.638 95.0998 196.387 90.94C194.135 86.7802 193.01 81.9841 193.01 76.5519C193.01 70.875 194.086 65.9811 196.24 61.8702C198.393 57.7104 201.452 54.5293 205.416 52.3271C209.38 50.1248 214.054 49.0237 219.437 49.0237C224.527 49.0237 229.078 50.1737 233.091 52.4739C237.104 54.774 240.236 58.004 242.487 62.1638C244.738 66.3236 245.864 71.1197 245.864 76.5519ZM242.928 79.4148C242.928 75.2061 241.778 71.3888 239.477 67.9631C237.177 64.4884 233.8 61.7478 229.347 59.7413C224.894 57.7348 219.535 56.7316 213.271 56.7316C209.747 56.7316 206.688 57.4412 204.094 58.8604C201.452 60.2307 199.445 62.1883 198.075 64.7331C196.656 67.2779 195.946 70.2632 195.946 73.689C195.946 77.8977 197.096 81.7394 199.396 85.2141C201.696 88.6399 205.073 91.356 209.527 93.3625C213.98 95.369 219.339 96.3722 225.603 96.3722C229.127 96.3722 232.21 95.6871 234.853 94.3168C237.446 92.8976 239.453 90.9155 240.872 88.3707C242.242 85.8259 242.928 82.8406 242.928 79.4148Z" fill="white"/>
<mask id="path-48-inside-4_93_10914" fill="white">
<path d="M499.776 0.00390625H611.175V152.905H499.776V0.00390625Z"/>
</mask>
<path d="M499.776 0.00390625H611.175V152.905H499.776V0.00390625Z" fill="#A13737" style="mix-blend-mode:multiply"/>
<path d="M611.175 0.00390625H606.807V152.905H611.175H615.544V0.00390625H611.175ZM499.776 152.905H504.144V0.00390625H499.776H495.407V152.905H499.776Z" fill="black" mask="url(#path-48-inside-4_93_10914)"/>
<line x1="555.475" y1="0.0039062" x2="555.475" y2="152.905" stroke="white" stroke-width="2.1843"/>
<line x1="544.554" y1="0.0039062" x2="544.554" y2="152.905" stroke="white" stroke-width="2.1843"/>
<line x1="599.161" y1="0.0039062" x2="599.161" y2="152.905" stroke="white" stroke-width="2.1843"/>
<line x1="533.633" y1="0.0039062" x2="533.633" y2="152.905" stroke="white" stroke-width="2.1843"/>
<line x1="588.24" y1="0.0039062" x2="588.24" y2="152.905" stroke="white" stroke-width="2.1843"/>
<line x1="522.711" y1="0.0039062" x2="522.711" y2="152.905" stroke="white" stroke-width="2.1843"/>
<line x1="577.319" y1="0.0039062" x2="577.319" y2="152.905" stroke="white" stroke-width="2.1843"/>
<line x1="511.789" y1="0.0039062" x2="511.789" y2="152.905" stroke="white" stroke-width="2.1843"/>
<line x1="566.397" y1="0.0039062" x2="566.397" y2="152.905" stroke="white" stroke-width="2.1843"/>
<rect x="506.329" y="15.293" width="98.2935" height="115.768" fill="#A10000"/>
<rect x="510.697" y="10.9258" width="34.9488" height="131.058" fill="#A10000"/>
<rect x="565.305" y="10.9258" width="34.9488" height="131.058" fill="#A10000"/>
<path d="M573.089 101.913L552.168 90.1679L552.168 89.0667C560.194 92.3457 566.483 92.9574 571.034 90.902C575.585 88.8465 577.861 83.8058 577.861 75.7798C577.861 70.8369 576.931 67.1665 575.071 64.7685C573.163 62.3705 570.667 61.1715 567.584 61.1715C565.626 61.1715 563.864 61.7098 562.298 62.7865C560.732 63.8142 559.264 65.4536 557.894 67.7048C556.964 69.2219 556.059 71.0327 555.178 73.1371C554.297 75.2415 553.44 77.6639 552.608 80.4045L552.241 80.4045C550.773 79.1811 549.501 77.7373 548.424 76.0734C547.347 74.3606 546.002 72.0359 544.387 69.0996C543.114 66.7505 542.086 64.9398 541.303 63.6674C540.471 62.3949 539.566 61.3428 538.587 60.5108C537.56 59.6299 536.458 59.1894 535.284 59.1894C533.718 59.1894 532.617 59.9725 531.981 61.5385C531.295 63.0556 530.953 65.4536 530.953 68.7326C530.953 74.2627 531.687 78.8629 533.155 82.5334C534.574 86.1549 537.046 89.1646 540.569 91.5626C544.044 93.9117 548.889 95.7225 555.104 96.9949L555.104 98.096L530.512 98.096C529.583 93.9362 528.799 89.5561 528.163 84.9559C527.527 80.3067 527.209 76 527.209 72.0359C527.209 65.8207 527.894 61.5385 529.264 59.1894C530.586 56.7914 532.592 55.5924 535.284 55.5924C536.948 55.5924 538.392 56.0329 539.615 56.9138C540.79 57.7947 541.842 58.9447 542.772 60.364C543.653 61.7343 544.803 63.7652 546.222 66.4569C546.809 67.5335 547.421 68.6347 548.057 69.7603C548.644 70.8369 549.28 71.9625 549.966 73.1371L550.333 73.1371C551.605 66.8729 553.514 61.9056 556.059 58.2351C558.554 54.5647 561.662 52.7295 565.381 52.7295C568.269 52.7295 570.863 53.5859 573.163 55.2988C575.414 57.0116 577.2 59.6299 578.522 63.1535C579.794 66.6771 580.43 71.0327 580.43 76.2202C580.43 81.6035 579.721 86.5464 578.301 91.0488C576.882 95.5022 575.145 99.1237 573.089 101.913Z" fill="white"/>
<mask id="path-63-inside-5_93_10914" fill="white">
<path d="M611.175 0.00390625H722.574V152.905H611.175V0.00390625Z"/>
</mask>
<path d="M611.175 0.00390625H722.574V152.905H611.175V0.00390625Z" fill="#A13737" style="mix-blend-mode:multiply"/>
<path d="M722.574 0.00390625H718.206V152.905H722.574H726.943V0.00390625H722.574ZM611.175 152.905H615.543V0.00390625H611.175H606.806V152.905H611.175Z" fill="black" mask="url(#path-63-inside-5_93_10914)"/>
<line x1="666.874" y1="0.0039062" x2="666.874" y2="152.905" stroke="white" stroke-width="2.1843"/>
<line x1="655.953" y1="0.0039062" x2="655.953" y2="152.905" stroke="white" stroke-width="2.1843"/>
<line x1="710.56" y1="0.0039062" x2="710.56" y2="152.905" stroke="white" stroke-width="2.1843"/>
<line x1="645.032" y1="0.0039062" x2="645.032" y2="152.905" stroke="white" stroke-width="2.1843"/>
<line x1="699.639" y1="0.0039062" x2="699.639" y2="152.905" stroke="white" stroke-width="2.1843"/>
<line x1="634.11" y1="0.0039062" x2="634.11" y2="152.905" stroke="white" stroke-width="2.1843"/>
<line x1="688.718" y1="0.0039062" x2="688.718" y2="152.905" stroke="white" stroke-width="2.1843"/>
<line x1="623.188" y1="0.0039062" x2="623.188" y2="152.905" stroke="white" stroke-width="2.1843"/>
<line x1="677.796" y1="0.0039062" x2="677.796" y2="152.905" stroke="white" stroke-width="2.1843"/>
<rect x="617.728" y="15.293" width="98.2935" height="115.768" fill="#A10000"/>
<rect x="622.096" y="10.9258" width="34.9488" height="131.058" fill="#A10000"/>
<rect x="676.704" y="10.9258" width="34.9488" height="131.058" fill="#A10000"/>
<path d="M675.973 104.85L675.606 104.85L660.19 83.0472C656.715 78.1533 653.755 74.8255 651.308 73.0637C648.861 71.2529 646.854 70.3231 645.288 70.2741L645.068 70.2741C644.236 70.2741 643.551 70.5678 643.012 71.155C642.474 71.6934 642.034 72.7456 641.691 74.3116C641.3 75.8777 640.981 78.1778 640.737 81.212C640.688 82.044 640.639 82.9494 640.59 83.9281C640.541 84.858 640.492 85.8368 640.443 86.8645L639.342 86.8645L639.342 59.3363L639.709 59.3363C640.59 60.2661 643.012 61.0002 646.976 61.5385C650.892 62.0279 657.401 62.2726 666.503 62.2726C667.433 62.2726 668.338 62.2726 669.219 62.2726C670.051 62.2726 670.859 62.2481 671.642 62.1992L671.642 59.5565C671.642 57.501 671.25 56.0818 670.467 55.2988C669.684 54.5157 668.069 53.9774 665.622 53.6838C663.126 53.3412 658.526 53.0231 651.821 52.7295L651.821 51.6283L681.919 51.6283L681.919 51.9954C679.668 53.072 678.151 54.0998 677.368 55.0785C676.536 56.0573 676.12 57.3053 676.12 58.8224C676.12 60.1927 676.56 61.2449 677.441 61.979C678.273 62.6641 679.643 63.0067 681.552 63.0067C683.51 63.0067 685.247 62.7375 686.764 62.1992C688.281 61.6119 689.48 60.9023 690.361 60.0703L690.728 60.0703L690.728 91.269L689.627 91.269C689.235 84.4175 688.722 79.597 688.085 76.8075C687.449 74.018 686.275 72.0849 684.562 71.0082C682.849 69.8826 679.986 69.2464 675.973 69.0996L675.973 104.85ZM671.642 69.0996C668.265 68.9528 664.448 68.8304 660.19 68.7326C655.883 68.5857 652.262 68.4879 649.326 68.4389L649.326 68.806C650.892 69.5401 652.36 70.4454 653.73 71.5221C655.051 72.5987 656.446 74.018 657.914 75.7798C659.334 77.4437 660.949 79.5726 662.759 82.1663C664.521 84.7112 666.772 88.1124 669.513 92.3701C670.149 93.3 670.663 93.7649 671.055 93.7649C671.446 93.7649 671.642 93.4468 671.642 92.8106L671.642 69.0996Z" fill="white"/>
<mask id="path-78-inside-6_93_10914" fill="white">
<path d="M722.574 0.00390625H833.974V152.905H722.574V0.00390625Z"/>
</mask>
<path d="M722.574 0.00390625H833.974V152.905H722.574V0.00390625Z" fill="#A13737" style="mix-blend-mode:multiply"/>
<path d="M833.974 0.00390625H829.605V152.905H833.974H838.342V0.00390625H833.974ZM722.574 152.905H726.943V0.00390625H722.574H718.206V152.905H722.574Z" fill="black" mask="url(#path-78-inside-6_93_10914)"/>
<line x1="778.274" y1="0.0039062" x2="778.274" y2="152.905" stroke="white" stroke-width="2.1843"/>
<line x1="767.352" y1="0.0039062" x2="767.352" y2="152.905" stroke="white" stroke-width="2.1843"/>
<line x1="821.96" y1="0.0039062" x2="821.96" y2="152.905" stroke="white" stroke-width="2.1843"/>
<line x1="756.431" y1="0.0039062" x2="756.431" y2="152.905" stroke="white" stroke-width="2.1843"/>
<line x1="811.038" y1="0.0039062" x2="811.038" y2="152.905" stroke="white" stroke-width="2.1843"/>
<line x1="745.509" y1="0.0039062" x2="745.509" y2="152.905" stroke="white" stroke-width="2.1843"/>
<line x1="800.117" y1="0.0039062" x2="800.117" y2="152.905" stroke="white" stroke-width="2.1843"/>
<line x1="734.588" y1="0.0039062" x2="734.588" y2="152.905" stroke="white" stroke-width="2.1843"/>
<line x1="789.195" y1="0.0039062" x2="789.195" y2="152.905" stroke="white" stroke-width="2.1843"/>
<rect x="729.127" y="15.293" width="98.2935" height="115.768" fill="#A10000"/>
<rect x="733.496" y="10.9258" width="34.9488" height="131.058" fill="#A10000"/>
<rect x="788.103" y="10.9258" width="34.9488" height="131.058" fill="#A10000"/>
<path d="M795.888 103.014L776.434 92.0031L776.434 90.902C781.23 92.8106 785.439 93.667 789.061 93.4713C792.682 93.2266 795.521 91.8073 797.576 89.2136C799.632 86.6198 800.659 82.7536 800.659 77.615C800.659 73.0147 799.68 69.5645 797.723 67.2644C795.765 64.9153 793.074 63.7408 789.648 63.7408C786.369 63.7408 783.555 64.9153 781.206 67.2644C778.808 69.6135 776.801 72.8679 775.186 77.0277C773.816 80.5513 772.788 84.1484 772.103 87.8188C771.369 91.4403 770.88 94.7192 770.635 97.6556L760.285 97.6556C756.908 97.6556 754.289 96.7012 752.43 94.7926C750.57 92.884 749.64 90.1189 749.64 86.4974C749.64 83.8058 749.909 81.5301 750.448 79.6704C750.986 77.7618 751.769 75.7308 752.797 73.5775C753.482 71.9625 753.996 70.6901 754.338 69.7603C754.632 68.8304 754.779 67.8027 754.779 66.6771C754.779 64.9642 754.412 63.6429 753.678 62.7131C752.944 61.7343 751.671 60.9512 749.86 60.364C748.001 59.7278 745.236 59.1405 741.565 58.6022L741.565 57.501L759.55 57.501C760.187 58.2841 760.725 59.3118 761.165 60.5842C761.557 61.8077 761.753 63.1535 761.753 64.6217C761.753 67.0686 761.337 69.1485 760.505 70.8614C759.624 72.5743 758.327 74.6052 756.614 76.9543C755.146 78.9119 754.045 80.6003 753.311 82.0195C752.577 83.4388 752.21 85.0537 752.21 86.8645C752.21 89.3604 752.944 91.2445 754.412 92.517C755.88 93.7404 758.205 94.3522 761.386 94.3522L767.699 94.3522C768.09 86.5219 769.216 79.597 771.076 73.5775C772.788 67.9985 775.064 63.5695 777.903 60.2906C780.741 56.9627 784.167 55.2988 788.18 55.2988C791.067 55.2988 793.661 56.1552 795.961 57.8681C798.212 59.532 799.999 62.0768 801.32 65.5026C802.592 68.8794 803.229 73.0637 803.229 78.0555C803.229 81.5791 802.886 84.9314 802.201 88.1124C801.516 91.2935 800.61 94.1319 799.485 96.6278C798.359 99.1237 797.16 101.253 795.888 103.014Z" fill="white"/>
<mask id="path-93-inside-7_93_10914" fill="white">
<path d="M833.973 0.00390625H945.372V152.905H833.973V0.00390625Z"/>
</mask>
<path d="M833.973 0.00390625H945.372V152.905H833.973V0.00390625Z" fill="#A13737" style="mix-blend-mode:multiply"/>
<path d="M945.372 0.00390625H941.004V152.905H945.372H949.741V0.00390625H945.372ZM833.973 152.905H838.342V0.00390625H833.973H829.605V152.905H833.973Z" fill="black" mask="url(#path-93-inside-7_93_10914)"/>
<line x1="889.673" y1="0.0039062" x2="889.673" y2="152.905" stroke="white" stroke-width="2.1843"/>
<line x1="878.751" y1="0.0039062" x2="878.751" y2="152.905" stroke="white" stroke-width="2.1843"/>
<line x1="933.359" y1="0.0039062" x2="933.359" y2="152.905" stroke="white" stroke-width="2.1843"/>
<line x1="867.83" y1="0.0039062" x2="867.83" y2="152.905" stroke="white" stroke-width="2.1843"/>
<line x1="922.437" y1="0.0039062" x2="922.437" y2="152.905" stroke="white" stroke-width="2.1843"/>
<line x1="856.909" y1="0.0039062" x2="856.909" y2="152.905" stroke="white" stroke-width="2.1843"/>
<line x1="911.516" y1="0.0039062" x2="911.516" y2="152.905" stroke="white" stroke-width="2.1843"/>
<line x1="845.987" y1="0.0039062" x2="845.987" y2="152.905" stroke="white" stroke-width="2.1843"/>
<line x1="900.595" y1="0.0039062" x2="900.595" y2="152.905" stroke="white" stroke-width="2.1843"/>
<rect x="840.526" y="15.293" width="98.2935" height="115.768" fill="#A10000"/>
<rect x="844.895" y="10.9258" width="34.9488" height="131.058" fill="#A10000"/>
<rect x="899.502" y="10.9258" width="34.9488" height="131.058" fill="#A10000"/>
<path d="M887.834 101.179C882.695 101.179 878.144 100.005 874.18 97.6556C870.167 95.3065 867.035 91.9542 864.784 87.5986C862.532 83.1941 861.407 78.0555 861.407 72.1828C861.407 68.0719 861.896 64.2546 862.875 60.731C863.805 57.2074 864.955 54.2955 866.325 51.9954L887.1 61.5385L887.1 62.6396C880.884 61.3183 876.113 60.9512 872.785 61.5385C869.408 62.1258 867.157 63.3248 866.031 65.1355C864.906 66.8973 864.343 69.173 864.343 71.9625C864.343 75.633 865.493 79.1321 867.793 82.46C870.093 85.7389 873.397 88.4061 877.703 90.4615C881.961 92.468 886.904 93.4713 892.532 93.4713C898.796 93.4713 903.494 91.9297 906.626 88.8465C909.759 85.7634 911.325 81.1876 911.325 75.1191C911.325 70.421 910.223 66.8729 908.021 64.4749C905.819 62.0279 902.76 60.8044 898.845 60.8044C896.643 60.8044 894.661 61.3672 892.899 62.4928C891.088 63.6184 889.669 65.2579 888.641 67.4112C887.614 69.5156 887.1 72.0359 887.1 74.9723C887.1 79.3279 887.932 83.1206 889.596 86.3506C891.211 89.5806 893.633 92.6148 896.863 95.4533L892.312 95.7469C889.718 92.9085 887.589 89.703 885.925 86.1304C884.261 82.5089 883.429 78.2267 883.429 73.2839C883.429 68.5368 884.066 64.6217 885.338 61.5385C886.561 58.4064 888.274 56.1063 890.477 54.6381C892.679 53.121 895.224 52.3624 898.111 52.3624C900.998 52.3624 903.69 53.2433 906.186 55.0051C908.633 56.7669 910.591 59.4341 912.059 63.0067C913.527 66.5303 914.261 70.8125 914.261 75.8532C914.261 80.845 913.184 85.2495 911.031 89.0667C908.878 92.884 905.794 95.8693 901.781 98.0226C897.768 100.127 893.119 101.179 887.834 101.179Z" fill="white"/>
<mask id="path-108-inside-8_93_10914" fill="white">
<path d="M945.373 0.00390625H1056.77V152.905H945.373V0.00390625Z"/>
</mask>
<path d="M945.373 0.00390625H1056.77V152.905H945.373V0.00390625Z" fill="#A13737" style="mix-blend-mode:multiply"/>
<path d="M1056.77 0.00390625H1052.4V152.905H1056.77H1061.14V0.00390625H1056.77ZM945.373 152.905H949.742V0.00390625H945.373H941.004V152.905H945.373Z" fill="black" mask="url(#path-108-inside-8_93_10914)"/>
<line x1="1001.07" y1="0.0039062" x2="1001.07" y2="152.905" stroke="white" stroke-width="2.1843"/>
<line x1="990.151" y1="0.0039062" x2="990.151" y2="152.905" stroke="white" stroke-width="2.1843"/>
<line x1="1044.76" y1="0.0039062" x2="1044.76" y2="152.905" stroke="white" stroke-width="2.1843"/>
<line x1="979.23" y1="0.0039062" x2="979.23" y2="152.905" stroke="white" stroke-width="2.1843"/>
<line x1="1033.84" y1="0.0039062" x2="1033.84" y2="152.905" stroke="white" stroke-width="2.1843"/>
<line x1="968.308" y1="0.0039062" x2="968.308" y2="152.905" stroke="white" stroke-width="2.1843"/>
<line x1="1022.92" y1="0.0039062" x2="1022.92" y2="152.905" stroke="white" stroke-width="2.1843"/>
<line x1="957.387" y1="0.0039062" x2="957.387" y2="152.905" stroke="white" stroke-width="2.1843"/>
<line x1="1011.99" y1="0.0039062" x2="1011.99" y2="152.905" stroke="white" stroke-width="2.1843"/>
<rect x="951.926" y="15.293" width="98.2935" height="115.768" fill="#A10000"/>
<rect x="956.294" y="10.9258" width="34.9488" height="131.058" fill="#A10000"/>
<rect x="1010.9" y="10.9258" width="34.9488" height="131.058" fill="#A10000"/>
<path d="M1023.83 98.8301C1023.34 93.5447 1022.31 89.6051 1020.74 87.0113C1019.13 84.3686 1016.24 81.8727 1012.08 79.5236C1007.87 77.1745 999.968 73.3328 988.369 67.9985C987.048 67.3623 985.678 66.7261 984.258 66.0898C982.839 65.4047 981.371 64.7195 979.854 64.0344L979.487 64.4014C980.221 65.4781 980.784 66.7016 981.175 68.0719C981.518 69.4422 981.689 70.9103 981.689 72.4764C981.689 73.8956 981.591 75.3393 981.395 76.8075C981.151 78.2757 980.833 80.1598 980.441 82.46C980.196 83.8792 979.976 85.2984 979.78 86.7177C979.536 88.088 979.413 89.2625 979.413 90.2413C979.413 92.1989 979.952 93.7894 981.028 95.0129C982.056 96.1874 983.965 97.1906 986.754 98.0226C989.495 98.8056 993.532 99.4908 998.867 100.078L998.867 101.179L975.743 101.179C974.911 100.347 974.226 99.0748 973.688 97.3619C973.1 95.6491 972.807 93.5691 972.807 91.1222C972.807 89.0668 972.929 87.1337 973.174 85.3229C973.369 83.4632 973.688 81.3099 974.128 78.863C974.519 76.4649 974.813 74.5074 975.009 72.9903C975.205 71.4242 975.303 69.7847 975.303 68.0719C975.303 65.8207 975.058 63.8386 974.568 62.1258C974.079 60.4129 973.492 59.0671 972.807 58.0883L974.055 56.6201C977.431 58.9692 981.591 61.4651 986.534 64.1078C991.477 66.7016 996.542 68.9038 1001.73 70.7146C1006.92 72.5253 1011.44 73.4307 1015.31 73.4307C1017.76 73.4307 1019.71 72.9903 1021.18 72.1094C1021.82 71.6689 1022.36 71.1795 1022.8 70.6412C1023.24 70.1028 1023.58 69.4666 1023.83 68.7326L1024.93 68.7326L1024.93 98.8301L1023.83 98.8301Z" fill="white"/>
<mask id="path-123-inside-9_93_10914" fill="white">
<path d="M1056.77 0.00195312H1168.17V152.903H1056.77V0.00195312Z"/>
</mask>
<path d="M1056.77 0.00195312H1168.17V152.903H1056.77V0.00195312Z" fill="#A13737" style="mix-blend-mode:multiply"/>
<path d="M1168.17 0.00195312H1163.8V152.903H1168.17H1172.53V0.00195312H1168.17ZM1056.77 152.903H1061.14V0.00195312H1056.77H1052.4V152.903H1056.77Z" fill="black" mask="url(#path-123-inside-9_93_10914)"/>
<line x1="1112.47" y1="0.00195308" x2="1112.47" y2="152.903" stroke="white" stroke-width="2.1843"/>
<line x1="1101.54" y1="0.00195308" x2="1101.54" y2="152.903" stroke="white" stroke-width="2.1843"/>
<line x1="1156.15" y1="0.00195308" x2="1156.15" y2="152.903" stroke="white" stroke-width="2.1843"/>
<line x1="1090.62" y1="0.00195308" x2="1090.62" y2="152.903" stroke="white" stroke-width="2.1843"/>
<line x1="1145.23" y1="0.00195308" x2="1145.23" y2="152.903" stroke="white" stroke-width="2.1843"/>
<line x1="1079.7" y1="0.00195308" x2="1079.7" y2="152.903" stroke="white" stroke-width="2.1843"/>
<line x1="1134.31" y1="0.00195308" x2="1134.31" y2="152.903" stroke="white" stroke-width="2.1843"/>
<line x1="1068.78" y1="0.00195308" x2="1068.78" y2="152.903" stroke="white" stroke-width="2.1843"/>
<line x1="1123.39" y1="0.00195308" x2="1123.39" y2="152.903" stroke="white" stroke-width="2.1843"/>
<rect x="1063.32" y="15.291" width="98.2935" height="115.768" fill="#A10000"/>
<rect x="1067.69" y="10.9238" width="34.9488" height="131.058" fill="#A10000"/>
<rect x="1122.3" y="10.9238" width="34.9488" height="131.058" fill="#A10000"/>
<path d="M1124.94 100.076C1121.32 100.076 1118.04 98.3632 1115.1 94.9375C1112.12 91.5118 1109.77 87.4253 1108.06 82.6782L1109.96 81.4303C1110.6 83.8283 1111.58 85.9572 1112.9 87.8168C1114.22 89.6276 1115.71 91.0224 1117.38 92.0011C1119.04 92.9799 1120.71 93.4693 1122.37 93.4693C1125.8 93.4693 1128.61 91.6341 1130.81 87.9637C1133.01 84.2932 1134.12 78.5184 1134.12 70.6392C1134.12 66.039 1133.41 62.6377 1131.99 60.4354C1130.52 58.2332 1128.68 57.132 1126.48 57.132C1124.28 57.132 1122.4 57.9885 1120.83 59.7013C1119.26 61.4142 1117.97 63.5431 1116.94 66.0879C1115.91 68.5838 1114.71 71.9851 1113.34 76.2917C1111.87 81.0388 1110.53 84.8805 1109.3 87.8168C1108.08 90.7043 1106.49 93.1757 1104.53 95.2311C1102.53 97.2376 1100.05 98.2409 1097.12 98.2409C1094.67 98.2409 1092.49 97.5068 1090.58 96.0386C1088.63 94.5215 1087.09 92.099 1085.96 88.7712C1084.83 85.4433 1084.27 81.1367 1084.27 75.8512C1084.27 70.8105 1084.81 66.7241 1085.89 63.592C1086.91 60.411 1088.31 58.1108 1090.07 56.6916C1091.83 55.2724 1093.81 54.5627 1096.02 54.5627C1099.54 54.5627 1102.62 55.7862 1105.27 58.2332C1107.91 60.6801 1109.96 63.7633 1111.43 67.4827L1109.89 68.7306C1108.72 66.039 1107.15 63.9835 1105.19 62.5643C1103.24 61.145 1101.06 60.4354 1098.66 60.4354C1096.6 60.4354 1094.7 61.145 1092.93 62.5643C1091.17 63.9835 1089.78 66.1124 1088.75 68.9508C1087.67 71.7404 1087.13 75.1416 1087.13 79.1546C1087.13 81.9931 1087.43 84.3177 1088.02 86.1285C1088.6 87.9392 1089.43 89.2606 1090.51 90.0925C1091.54 90.8755 1092.76 91.2671 1094.18 91.2671C1096.53 91.2671 1098.54 90.3862 1100.2 88.6243C1101.87 86.8136 1103.26 84.6113 1104.39 82.0176C1105.46 79.3749 1106.73 75.8023 1108.2 71.2999C1109.67 66.7486 1110.99 63.1026 1112.17 60.362C1113.34 57.5725 1114.83 55.2479 1116.64 53.3882C1118.41 51.4796 1120.56 50.5253 1123.1 50.5253C1127.56 50.5253 1131.06 52.6052 1133.6 56.765C1136.15 60.8759 1137.42 67.8252 1137.42 77.613C1137.42 85.7859 1136.34 91.5852 1134.19 95.0109C1131.99 98.3877 1128.9 100.076 1124.94 100.076Z" fill="white"/>
<mask id="path-138-inside-10_93_10914" fill="white">
<path d="M1168.17 0.00195312H1279.56V152.903H1168.17V0.00195312Z"/>
</mask>
<path d="M1168.17 0.00195312H1279.56V152.903H1168.17V0.00195312Z" fill="#A13737" style="mix-blend-mode:multiply"/>
<path d="M1279.56 0.00195312H1275.2V152.903H1279.56H1283.93V0.00195312H1279.56ZM1168.17 152.903H1172.53V0.00195312H1168.17H1163.8V152.903H1168.17Z" fill="black" mask="url(#path-138-inside-10_93_10914)"/>
<line x1="1223.86" y1="0.00195308" x2="1223.86" y2="152.903" stroke="white" stroke-width="2.1843"/>
<line x1="1212.94" y1="0.00195308" x2="1212.94" y2="152.903" stroke="white" stroke-width="2.1843"/>
<line x1="1267.55" y1="0.00195308" x2="1267.55" y2="152.903" stroke="white" stroke-width="2.1843"/>
<line x1="1202.02" y1="0.00195308" x2="1202.02" y2="152.903" stroke="white" stroke-width="2.1843"/>
<line x1="1256.63" y1="0.00195308" x2="1256.63" y2="152.903" stroke="white" stroke-width="2.1843"/>
<line x1="1191.1" y1="0.00195308" x2="1191.1" y2="152.903" stroke="white" stroke-width="2.1843"/>
<line x1="1245.71" y1="0.00195308" x2="1245.71" y2="152.903" stroke="white" stroke-width="2.1843"/>
<line x1="1180.18" y1="0.00195308" x2="1180.18" y2="152.903" stroke="white" stroke-width="2.1843"/>
<line x1="1234.79" y1="0.00195308" x2="1234.79" y2="152.903" stroke="white" stroke-width="2.1843"/>
<rect x="1174.72" y="15.291" width="98.2935" height="115.768" fill="#A10000"/>
<rect x="1179.09" y="10.9238" width="34.9488" height="131.058" fill="#A10000"/>
<rect x="1233.69" y="10.9238" width="34.9488" height="131.058" fill="#A10000"/>
<path d="M1243.53 99.709L1222.76 90.1659L1222.76 89.0648C1228.97 90.3862 1233.77 90.7532 1237.15 90.1659C1240.47 89.5787 1242.7 88.4041 1243.83 86.6423C1244.95 84.8316 1245.52 82.5314 1245.52 79.7419C1245.52 76.0715 1244.37 72.5968 1242.07 69.3179C1239.77 65.99 1236.49 63.3228 1232.23 61.3163C1227.92 59.2609 1222.95 58.2332 1217.33 58.2332C1211.06 58.2332 1206.36 59.7747 1203.23 62.8579C1200.1 65.9411 1198.53 70.5169 1198.53 76.5853C1198.53 81.2835 1199.64 84.856 1201.84 87.303C1204.04 89.701 1207.1 90.9 1211.01 90.9C1213.22 90.9 1215.22 90.3372 1217.03 89.2116C1218.79 88.086 1220.19 86.471 1221.22 84.3666C1222.24 82.2133 1222.76 79.6685 1222.76 76.7321C1222.76 72.3766 1221.95 68.5838 1220.34 65.3538C1218.67 62.1238 1216.23 59.0896 1213 56.2511L1217.55 55.9575C1220.14 58.796 1222.27 62.0259 1223.93 65.6474C1225.6 69.22 1226.43 73.4777 1226.43 78.4205C1226.43 83.1676 1225.82 87.1072 1224.59 90.2393C1223.32 93.3225 1221.58 95.6226 1219.38 97.1397C1217.18 98.6079 1214.63 99.342 1211.75 99.342C1208.86 99.342 1206.19 98.4611 1203.75 96.6993C1201.25 94.9375 1199.27 92.2948 1197.8 88.7712C1196.33 85.1986 1195.6 80.892 1195.6 75.8512C1195.6 70.8595 1196.67 66.4549 1198.83 62.6377C1200.98 58.8204 1204.06 55.8596 1208.08 53.7552C1212.09 51.6019 1216.74 50.5253 1222.02 50.5253C1227.16 50.5253 1231.74 51.6998 1235.75 54.0489C1239.72 56.3979 1242.82 59.7747 1245.08 64.1793C1247.33 68.5348 1248.45 73.649 1248.45 79.5217C1248.45 83.6326 1247.99 87.4498 1247.06 90.9734C1246.08 94.497 1244.9 97.4089 1243.53 99.709Z" fill="white"/>
<path d="M111.738 59.7936L178.57 76.4632L111.761 97.4236L111.761 83.779L16.3154 84.1437C21.594 120.143 79.6134 130.677 79.6134 130.677L79.6134 119.457L145.879 134.131L79.6134 152.903L62.8024 152.903L1.65768 152.903L1.65764 0.00195182L62.8024 0.00194806L79.6134 0.0019488L145.857 18.7955L79.5907 33.4698L79.5907 22.2495C79.5907 22.2495 21.594 34.9287 16.2928 70.9281L111.738 71.2929L111.738 59.7936Z" fill="black"/>
<path d="M1346.4 93.1107L1279.57 76.4411L1346.38 55.4807L1346.38 69.1253L1441.82 68.7606C1436.55 32.7612 1378.53 22.2274 1378.53 22.2274L1378.53 33.4477L1312.26 18.7733L1378.53 0.00128292L1395.34 0.00126786L1456.48 0.00126859L1456.48 152.902L1395.34 152.902L1378.53 152.902L1312.28 134.109L1378.55 119.434L1378.55 130.655C1378.55 130.655 1436.55 117.976 1441.85 81.9762L1346.4 81.6114L1346.4 93.1107Z" fill="black"/>
</svg>
