<svg width="1269" height="863" viewBox="0 0 1269 863" fill="none" xmlns="http://www.w3.org/2000/svg">
<path d="M1080.8 499.545C1055.65 498.978 1033.53 505.017 1012.71 518.823C1015.66 525.657 1069.95 541.937 1080.8 542.709L1074.02 549.475C1094.54 562.69 1109.25 585.373 1136.41 588.143L1128.51 579.016L1158.03 583.58C1159.34 591.254 1153.39 593.161 1153.39 593.797C1153.05 604.174 1184.09 619.727 1192.06 625.585L1171.65 617.638L1180.71 630.127C1165.02 635.417 1154.85 598.02 1151.33 596.045C1149.81 595.182 1145.56 597.407 1142.16 596.227C1125.44 590.459 1100.99 577.517 1084.8 573.703C1068.61 569.888 1061.94 573.657 1047.45 556.764L1026.33 545.002C1035.64 541.347 1041.46 551.224 1046.65 552.7C1049.47 553.494 1052.99 551.519 1056.33 552.223C1061.75 553.358 1068.63 558.649 1073.99 555.197C1059.94 537.419 1035.14 541.029 1017.91 531.81C1013.28 529.335 1010.78 525.021 1006.65 522.637C991.934 514.122 979.309 514.894 962.734 513.169C964.936 508.015 967.184 503.405 961.621 499.613C952.289 506.743 937.485 507.515 937.78 522.251C946.34 517.324 951.358 520.662 959.215 520.071C978.56 518.641 983.737 513.373 996.816 533.581C983.646 538.917 975.699 525.839 962.779 524.522L969.591 529.063C965.005 539.735 978.719 545.593 974.087 556.287C971.203 558.83 960.963 539.644 960.009 538.826C959.487 538.395 956.74 539.689 954.9 538.213C949.565 533.876 944.07 529.744 938.961 525.135C935.646 524.84 917.368 537.101 917.209 542.573C905.243 533.967 897.704 544.753 885.648 540.302L885.557 531.333C890.87 531.084 899.067 533.354 901.451 526.792L858.333 517.687C857.288 523.772 859.4 521.638 863.26 522.841C869.913 524.93 876.861 525.294 883.286 529.063L876.497 534.694L885.602 547.182L890.143 543.754L898.045 556.287C874.749 556.151 856.289 542.482 835.559 534.762C828.225 532.037 818.143 532.31 812.013 528.79C805.314 524.953 806.291 517.142 800.092 511.193C789.716 501.203 754.136 494.505 752.569 485.99C751.956 482.652 758.631 480.699 751.593 474.569C758.359 475.795 759.767 481.04 767.464 476.794L758.404 474.523C761.288 465.509 757.201 460.264 764.262 451.999C767.645 448.048 779.271 444.12 775.456 438.217L767.509 445.006L769.462 436.219C755.543 432.313 767.441 420.12 767.464 410.947L760.652 424.571C752.274 427.046 757.814 414.83 756.134 413.218L747.051 413.218L749.186 419.848L744.781 420.052L747.551 422.414L748.164 429.112C733.269 411.719 721.371 393.032 702.752 379.204C699.483 381.361 699.596 383.541 699.233 386.992C697.28 405.634 691.036 431.836 692.807 448.139C693.057 450.478 693.693 458.811 697.053 458.629L699.369 435.946L712.97 441.6C709.269 446.414 701.027 451.5 698.801 456.949C696.576 462.399 698.938 470.05 694.851 472.253C693.17 460.764 688.107 449.888 686.767 438.308C686.2 433.29 689.22 428.022 687.789 423.73C686.2 418.985 684.383 423.027 681.204 407.905C680.841 406.133 676.958 406.633 677.004 405.384C677.117 400.866 679.501 388.968 679.002 385.176C678.775 383.518 674.938 384.018 674.461 382.133C673.666 379.114 675.097 375.004 673.87 371.78C669.761 361.085 663.267 357.974 667.604 342.83C673.439 347.325 679.411 351.662 685.995 355.068C694.396 359.428 706.113 357.407 699.369 370.054L703.865 370.054C706.045 362.357 709.723 355.182 711.925 347.439C723.187 307.817 721.008 301.391 744.735 265.062C747.029 261.543 754.204 261.248 751.592 251.984C774.026 255.73 757.541 278.89 753.636 292.672L749.39 290.583C745.462 307.204 730.045 320.283 724.368 335.995C737.492 326.799 746.711 298.326 767.577 307.658C771.483 309.407 785.901 349.505 783.403 351.889L762.945 354.183C763.036 360.268 786.832 360.313 787.922 358.701C782.2 345.532 787.263 330.591 785.856 318.83C785.356 314.742 781.814 315.991 781.224 313.948C780.633 311.904 777.295 290.606 777.477 289.357C778.226 284.407 796.119 274.735 794.756 265.63L799.07 265.902L800.728 270.125C811.377 269.989 819.574 259.999 819.733 249.713C829.564 249.486 822.889 261.248 832.244 263.336L839.033 254.254L841.281 258.773L845.844 254.231C846.934 260.112 850.772 256.638 852.565 258.636C854.019 260.248 864.282 281.07 864.463 282.886C865.167 289.834 860.671 302.618 862.874 310.973L865.144 304.162C877.905 308.317 880.766 301.437 885.58 290.561C890.507 291.605 885.852 302.322 885.557 306.432C889.53 306.069 911.691 314.947 916.596 317.399C918.912 318.557 927.858 322.508 926.405 325.687C921.273 336.994 895.366 314.152 885.648 317.672C885.489 313.97 885.284 310.088 885.557 306.409L871.888 329.093C866.643 327.639 866.439 317.83 869.617 314.311L865.122 313.244L868.528 338.198C857.402 316.128 849.523 293.058 836.717 272.373L833.356 281.433L828.815 265.562L827.702 272.214C821.935 270.239 814.488 270.398 810.65 275.916C822.48 292.468 810.696 294.239 805.587 304.797C804.406 307.25 794.734 335.382 794.734 337.085L794.734 372.279C801.205 371.008 813.965 371.189 820.323 372.801C822.162 373.278 850.59 389.99 853.178 392.056C855.018 393.509 857.334 392.01 856.039 397.233C854.881 398.368 833.742 400.593 831.517 402.228C830.223 403.182 828.929 411.537 825.523 415.579C819.006 423.322 803.907 428.885 796.959 436.968C790.919 443.984 785.129 457.562 778.84 465.373C792.259 460.65 810.832 455.973 825.046 456.472C829.473 456.631 859.014 462.24 863.51 463.625C866.915 464.669 869.095 469.029 872.615 470.414C884.331 475.046 893.345 478.769 906.015 474.455C887.918 454.837 876.747 436.627 881.016 408.654L874.249 415.443C879.494 400.298 865.576 398.504 863.078 394.69C862.124 393.214 865.826 389.127 864.191 385.925C857.674 373.142 824.387 369.691 815.191 358.724C835.286 360.994 851.793 366.784 871.956 360.949L867.301 348.551C873.932 344.691 876.838 340.491 880.039 333.815L908.263 340.559L905.992 347.325C913.417 346.621 919.57 340.105 927.426 340.604C939.37 341.376 951.949 357.884 967.298 349.596L962.779 345.1L1017.27 333.702L1014.98 329.229L1078.53 320.078C1083.92 312.744 1044.11 304.184 1039.96 301.914L1044.48 297.441C1032.53 293.49 1024.86 285.838 1012.73 295.125C1008.92 283.635 1009.14 273.872 1015.03 263.336L1036.82 280.979L1064.89 271.283C1053.04 259.499 1037.69 241.493 1019.68 245.104L1015 229.278C1028.49 234.886 1036.85 239.79 1050.22 229.278C1055.31 222.08 1016.12 225.554 1027.47 215.927L1059.26 222.489L1058.26 218.106C1071.72 208.956 1088.84 218.492 1102.53 217.698C1107.17 217.425 1116.73 209.728 1125.1 213.384C1128.26 216.403 1119.4 217.153 1117.22 219.128C1115.04 221.104 1114.25 221.58 1114.91 224.714C1122.22 224.827 1131.1 234.931 1137.48 232.752C1140.68 231.662 1170.79 207.639 1167.11 204.324C1157.55 203.983 1138.8 215.654 1134.16 204.301L1144.43 197.535L1114.93 197.49L1130.8 190.723C1121.81 187.817 1106.39 191.586 1101.29 183.911C1104.99 182.254 1109.75 186.159 1111.5 186.159L1232.98 186.159C1230.87 216.767 1206.23 228.687 1178.46 231.594C1174.97 234.409 1178.46 235.749 1181.82 236.135C1195.08 237.702 1210.45 237.906 1223.9 238.405C1225.92 247.579 1221.69 246.602 1217.08 252.006C1223.26 251.666 1228.19 255.707 1230.71 261.089C1220.29 265.789 1202.96 248.714 1201.19 263.359L1210.23 266.788C1208.34 268.536 1198.58 277.005 1197.78 277.005L1164.86 277.005L1171.67 270.216L1148.99 267.9L1164.86 263.359C1157.96 253.073 1141.2 254.39 1130.94 250.757C1118.75 246.443 1111.87 238.905 1102.99 233.365C1090.64 225.645 1093.22 233.637 1088.91 234.114C1071.7 235.976 1065.77 225.599 1045.13 237.929C1043.29 239.018 1041.32 237.247 1042.25 241.789L1073.2 269.762C1084.19 271.897 1109.25 248.873 1121.7 254.345C1110.73 265.108 1092.41 268.127 1078.56 274.78L1078.56 278.118C1085.07 281.683 1083.73 286.451 1085.37 290.629C1079.51 286.269 1075.35 283.863 1070.34 277.414L1049.04 283.863C1047.88 289.176 1049.81 287.495 1051.97 288.926C1056.78 292.082 1086.46 304.502 1089.91 301.982C1087.25 298.462 1086.82 294.421 1085.37 290.652C1085.75 290.947 1087.93 290.084 1089.3 291.196C1093.97 294.966 1097.58 309.043 1109.46 310.451C1118.38 311.518 1167.18 299.916 1169.38 302.027C1171.79 306.523 1159.23 311.496 1164.84 314.515C1169.61 317.081 1178.17 312.54 1182.98 311.11L1182.98 315.605C1179.98 315.174 1163.16 323.03 1167.13 327.004C1171.72 323.234 1181.78 322.44 1185.46 319.057C1188.54 316.196 1184.71 311.972 1187.39 309.997C1191.65 306.818 1208.64 303.344 1214.77 299.779C1219.99 318.262 1216.09 314.561 1205.12 322.44C1202.92 324.029 1202.76 327.276 1199.6 328.797C1190.9 332.93 1175.01 330.932 1169.38 342.898C1181.66 339.991 1209.71 336.903 1219.38 330.478C1225.51 326.413 1214.16 326.118 1214.81 322.508L1222.65 320.26C1230.14 334.428 1223.4 341.354 1211.39 349.687L1207.98 345.236L1217.04 336.109L1170.65 349.868L1167.15 345.191L1162.59 359.859L1167.72 362.924L1207.98 347.439C1213.86 352.343 1193.02 355 1194.38 358.746L1209.91 359.132L1212.54 367.851L1150.03 383.7L1095.54 451.931L1096.74 465.487L1080.87 460.923C1086.37 456.767 1084.07 448.707 1086 445.483C1086.8 444.166 1090.91 446.482 1089.93 442.803C1072.02 441.1 1057.26 430.724 1041.57 424.139C1036.14 421.869 1029.76 425.138 1023.15 417.623C1014.09 407.382 1008.99 400.23 994.272 392.01C991.162 390.285 984.236 385.199 980.967 387.151C1007.67 416.419 1041.14 433.403 1078.6 445.097C1072.06 453.816 1075.56 454.656 1078.58 463.216C1072.61 460.991 1071.2 455.405 1071.79 449.57C1066.41 452.771 1064.05 450.705 1060.46 446.187L1067.25 442.826C1061.82 440.033 1054.17 441.464 1051.38 447.299C1060.76 449.661 1065.14 459.969 1072.09 466.236C1080.3 473.661 1091.93 478.906 1097.88 488.215L1103.6 485.922L1102.44 479.133L1108.48 490.1C1137.07 493.755 1159.16 469.369 1187.61 470.028L1180.69 437.468C1189.16 428.907 1192.65 416.056 1201.26 405.361C1209.16 395.53 1224.71 387.946 1223.94 374.663L1235.25 383.745C1232.25 376.593 1235.84 374.731 1240.95 370.167L1247.92 381.543C1238.45 387.991 1229.57 395.008 1220.51 402.001C1218.11 403.863 1213.45 403.84 1212.91 404.499C1211.68 405.929 1213.16 412.65 1212.13 416.238C1209.48 425.524 1197.83 426.932 1198.78 448.525C1198.87 450.728 1201.96 469.21 1202.48 470.187C1206.21 476.93 1205.89 468.915 1209.02 481.449C1212.38 494.981 1224.44 492.688 1226.17 495.163C1226.83 496.094 1223.87 501.362 1224.33 504.745C1224.9 509.014 1230.28 515.099 1231.87 520.026C1235.95 532.764 1236.5 547.318 1248.9 556.355C1250.39 536.806 1249.28 519.981 1242.11 501.861C1242.61 501.248 1254.87 508.9 1255.8 509.922C1258.77 513.191 1255.71 516.348 1257.75 519.004C1259.16 520.821 1267.06 524.317 1267.06 525.725L1267.06 599.519L1248.9 556.378C1248.78 557.922 1249.83 561.01 1247.78 560.896C1227.57 549.725 1225.8 532.219 1205.5 521.343C1199.9 518.346 1194.7 522.455 1194.4 510.966L1183.09 515.485C1190.41 499.772 1194.4 492.688 1189.88 474.637C1167.54 473.206 1147.6 487.874 1126.87 492.211C1112.71 495.186 1096.81 494.754 1082.42 497.343C1080.1 497.184 1081.19 499.023 1080.92 499.591C1086.16 499.704 1091.48 499.296 1096.72 499.704C1097.52 510.058 1097.92 518.527 1108.16 523.455L1103.65 526.815L1121.77 533.649L1099.08 499.613L1114.98 498.296C1118.84 503.042 1124.15 520.344 1131.57 519.663C1141.25 518.777 1185.23 483.765 1187.61 485.99C1176.83 503.61 1155.42 514.327 1139.95 527.996L1173.99 515.507C1166.16 524.113 1164.07 540.552 1150.08 539.439C1143.99 538.94 1139.27 530.879 1130.85 535.943C1127.08 540.461 1174.01 558.717 1156.91 563.167C1152.03 564.439 1135.89 549.612 1129.76 547.046C1122.04 543.822 1115 548.022 1109.85 546.751C1103.71 545.229 1086.71 533.104 1078.24 530.63C1072.7 528.995 1067.32 528.7 1061.6 529.131L1062.75 524.59C1052.9 529.358 1046.29 531.016 1035.51 526.815C1041.48 509.4 1062.28 507.629 1078.33 508.355C1080.01 505.858 1079.76 502.02 1080.92 499.591L1080.8 499.545ZM722.007 340.627L706.226 369.986C718.578 376.798 726.117 392.782 734.563 404.181L724.345 376.956L742.487 376.956L740.217 370.145L750.412 377.183L790.147 372.37L767.464 370.099C768.1 364.604 778.885 368.76 776.523 361.062L745.916 356.476L742.51 367.851L737.492 347.916C734.359 343.465 720.803 348.847 722.007 340.65L722.007 340.627ZM760.652 336.086L743.623 329.297L740.217 340.582C741.874 340.468 767.259 342.603 760.652 336.086ZM747.006 381.475L754.998 406.429C764.83 405.248 750.457 390.762 753.863 386.016C763.127 394.622 773.731 385.403 785.629 390.535L783.267 379.318L747.029 381.475L747.006 381.475ZM785.629 376.934L785.629 385.993L819.71 379.182C823.275 376.275 819.392 374.981 816.281 374.595C806.722 373.437 795.801 378.955 785.629 376.934ZM849.228 481.403C857.788 499.523 872.388 521.57 894.458 523.5C900.111 523.999 914.484 510.376 918.934 509.104C925.065 507.356 933.398 509.718 940.028 506.334C938.87 500.385 923.067 504.313 922.272 503.837C921.341 503.269 919.616 495.776 917.368 497.297C918.866 504.745 896.978 519.708 893.481 519.458C889.985 519.209 884.921 506.402 876.497 509.786L899.18 488.238C894.026 486.013 884.149 497.116 881.038 490.508L908.263 479.133C899.339 475.886 881.424 488.192 875.294 487.443C873.069 487.171 871.184 482.788 868.096 481.835C862.579 480.132 855.131 481.994 849.25 481.403L849.228 481.403ZM894.639 363.288L891.188 381.452C904.607 373.255 922.59 379.091 937.667 371.166L992.229 347.439C973.905 345.1 960.577 357.384 942.844 360.449C936.236 361.607 928.539 359.814 923.362 361.062C921.614 361.471 921.841 365.649 920.569 365.717C917.254 365.899 911.283 361.221 906.832 360.972L902.405 365.694L894.617 363.288L894.639 363.288ZM894.639 440.51C894.094 453.657 906.492 457.63 912.622 464.51C916.777 469.142 918.367 478.701 926.359 481.381L933.171 471.163C930.56 465.441 925.655 470.323 924.452 469.619C923.907 469.301 922.976 465.078 920.796 463.193C911.896 455.564 902.2 450.614 894.639 440.487L894.639 440.51ZM903.653 397.369C900.77 397.959 900.134 398.868 900.406 401.865C900.724 405.293 906.242 417.918 908.876 419.462C911.033 420.711 914.598 419.689 917.254 421.324C921.296 423.799 920.274 431.882 933.194 424.616C938.303 442.599 959.941 458.357 976.607 466.372C994.272 474.864 1008.8 479.201 1028.58 479.133L1019.5 484.786C1027.45 494.323 1084.21 492.279 1087.62 488.17C1088.3 487.352 1088.18 482.811 1086.21 481.222C1082.14 477.952 1040.59 463.738 1033.1 461.899C1023.31 459.492 1010.28 461.899 1000.29 458.72L995.657 469.982C974.7 462.943 968.093 440.646 952.494 429.18C936.895 417.713 912.69 416.76 903.631 397.392L903.653 397.369ZM946.885 474.592C946.045 475.318 934.829 491.734 934.329 492.734C932.308 496.73 933.898 497.025 936.668 499.545C940.823 500.885 939.37 495.89 941.663 495.14C945.614 493.846 961.576 494.255 962.734 489.328C961.939 478.542 949.36 487.852 946.863 485.922C950.768 485.513 953.561 468.847 946.908 474.614L946.885 474.592ZM980.921 485.922L980.921 497.275L987.688 495.004C984.895 503.178 980.354 505.767 988.846 513.123L995.657 506.402L999.268 515.212C1009.6 516.915 1017.27 507.311 1023.99 500.681L1013.57 490.281C1000.09 498.887 993.955 490.281 980.899 485.922L980.921 485.922ZM996.816 365.604C995.113 373.846 1016.91 376.866 1019.63 375.73C1022.04 374.731 1023.65 371.621 1024.09 369.032C1024.99 363.832 1021.79 365.876 1018.41 365.604C1011.3 365.036 1003.92 365.99 996.816 365.604ZM1062.64 379.227C1059.6 376.321 1021.2 396.642 1026.33 401.91C1029.08 398.572 1071.47 391.715 1067.18 388.309L1060.35 388.264L1062.64 379.204L1062.64 379.227ZM1069.45 397.392L1030.85 405.293C1034.64 408.79 1041.98 418.327 1047.47 417.327C1052.97 416.328 1070 404.885 1069.45 397.369L1069.45 397.392ZM1105.76 370.145C1098.27 372.506 1071.52 369.804 1070.25 380.294C1069.77 384.2 1073.79 392.623 1079.17 390.262C1081.67 388.105 1111.5 375.276 1105.76 370.145ZM1096.29 351.412C1095.65 351.821 1084.71 349.255 1081.87 354.183C1074.88 363.174 1103.33 361.38 1106.89 361.017C1109.44 360.767 1127.01 357.339 1123.95 354.251L1117.13 349.709L1133.05 346.304L1128.49 338.357C1133.3 336.971 1146.24 342.262 1144.36 333.815C1140.73 331.091 1108.35 342.398 1102.13 344.918C1097.15 346.939 1097.38 350.686 1096.29 351.412ZM1117.13 381.498C1112.86 380.499 1111.73 383.882 1109.19 386.016C1103.08 391.148 1082.87 411.106 1083.94 417.85C1084.28 419.961 1087.07 426.841 1088.77 426.864C1100.47 413.422 1110.87 398.345 1117.16 381.52L1117.13 381.498ZM1153.44 356.498C1148.13 361.153 1140.61 359.836 1135.39 362.266C1127.33 366.035 1120.74 390.921 1116.13 399.776C1112.59 406.588 1105.8 412.105 1103.51 420.052L1121.83 407.791L1146.65 373.505L1139.86 370.145C1149.51 370.122 1153.94 366.489 1153.44 356.498ZM1144.38 236.135C1171.06 227.075 1207.41 226.417 1223.81 200.964C1224.03 193.584 1185.25 200.6 1180.69 203.234L1144.38 236.158L1144.38 236.135ZM1192.06 190.746L1144.38 190.746L1154.83 195.06L1192.06 190.746ZM1189.79 370.099C1181.82 360.994 1156.37 364.014 1153.46 376.911L1189.79 370.099Z" fill="#191919"/>
<path d="M224.783 547.227L247.466 540.415C251.689 553.221 222.943 551.654 222.376 555.287C227.507 579.015 227.871 603.037 234.978 626.697C237.294 619.522 242.425 613.687 244.105 606.239C245.286 600.949 242.629 596.521 243.265 591.866C246.24 570.069 251.008 548.498 254.3 526.791L265.358 546.613C259.137 554.924 262.134 567.276 260.658 572.839C259.75 576.267 248.488 589.527 247.488 596.089C247.171 603.037 249.918 597.656 251.621 595.658C255.072 591.594 257.751 586.848 262.247 583.579C263.973 583.215 263.7 585.758 263.337 586.916C259.613 599.087 243.061 619.681 238.951 632.941C238.202 635.348 238.315 637.868 238.406 640.32L249.714 636.892C244.31 645.407 236.113 650.629 237.135 661.982C237.77 669.111 245.286 670.724 249.169 676.037C252.802 680.987 252.756 689.501 253.301 690.319C254.709 692.385 258.751 692.839 259.954 694.814C263.632 700.763 263.065 719.768 264.268 723.197C267.47 732.415 283.137 746.175 283.772 758.391L256.003 731.734C240.223 732.62 235.772 720.381 228.052 712.979C225.873 710.89 220.832 713.07 219.083 706.122C205.528 712.866 202.69 728.374 204.325 742.474L197.558 735.685L192.949 751.556L188.476 742.497L179.394 760.639C174.126 746.039 179.121 729.032 176.964 714.251C175.92 707.121 170.788 696.699 169.131 688.025C165.157 667.318 157.028 642.795 165.747 623.336L163.454 621.02C157.483 623.336 158.913 617.887 155.666 615.299C145.062 606.829 126.148 593.524 113.047 589.528C104.578 586.962 86.9355 587.143 81.7586 596.067C93.2704 597.52 105.94 599.836 113.524 609.69C119.2 617.07 139.681 660.37 140.839 668.68C141.157 670.883 142.27 677.308 138.546 676.65C140.34 666.273 132.256 663.571 129.395 659.075C119.314 643.159 114.932 638.232 104.51 627.628C99.8324 622.86 88.3432 611.507 88.4341 605.195C88.4341 603.651 95.5637 605.24 93.0888 599.473C88.0254 602.265 81.645 602.016 76.5816 604.513C69.8607 607.806 66.9998 616.956 59.0527 617.615C64.979 607.079 72.1313 596.317 70.4283 583.579C76.7179 588.869 81.2363 588.914 89.1834 587.575C94.9961 586.598 112.525 581.421 109.028 574.496L111.253 574.496C110.981 576.267 111.026 578.038 112.934 578.947C120.2 582.352 136.684 581.558 145.38 587.121C150.376 584.691 148.695 577.948 150.58 575.177C157.528 564.982 160.843 560.192 166.27 548.861C168.336 544.547 169.585 540.188 171.447 535.874C173.286 535.851 174.943 543.866 174.807 545.978C174.716 547.295 166.769 569.728 165.997 570.772C164.499 572.839 160.275 572.248 157.937 574.496C153.804 578.447 154.826 588.619 147.651 588.165L170.311 615.367C170.47 612.006 170.992 608.305 172.877 605.444C175.329 601.721 189.18 586.894 189.611 583.987C190.701 576.562 186.183 564.846 186.432 557.694C186.546 554.243 193.676 526.156 195.174 523.499C196.173 521.728 198.83 524.362 201.032 522.523C208.639 516.097 212.907 505.153 211.386 495.23L224.828 495.049L224.828 547.272L224.783 547.227ZM197.513 642.614C193.017 641.66 192.222 644.907 190.134 647.791C185.343 654.398 180.438 684.778 179.666 693.997C179.121 700.332 179.326 706.667 179.394 713.002L197.513 642.636L197.513 642.614ZM217.994 640.32C226.781 675.583 195.288 698.311 190.747 731.121C197.331 732.143 196.491 721.993 199.897 716.953C205.256 709.006 221.99 699.356 223.829 690.455C224.578 686.777 220.741 684.347 220.877 682.326C220.991 680.601 228.37 674.152 229.369 670.928L225.01 668.884C228.961 661.959 225.691 652.355 223.125 645.293C221.808 641.683 224.351 639.208 218.016 640.32L217.994 640.32ZM208.911 517.732L202.077 554.038C210.841 554.265 210.932 536.577 211.25 530.311C211.386 527.631 212.839 517.732 208.911 517.732Z" fill="#191919"/>
<path d="M715.438 81.9452C727.109 73.5214 754.879 127.493 768.593 109.033C773.407 112.099 771.045 114.505 770.069 119.001L775.359 122.611L778.765 118.116C772.226 118.842 774.496 110.804 771.772 105.786C766.277 95.6823 755.991 87.3038 756.105 74.9292C775.132 84.6245 786.894 84.3067 776.517 108.965L794.636 103.311L785.531 91.9585C790.935 91.073 789.55 85.3512 790.481 84.4656C792.184 82.8308 801.562 85.1468 805.422 81.0825C808.737 77.6085 809.895 66.0512 811.916 61.51C814.073 56.6736 833.077 40.6887 838.527 38.1684C845.157 35.1258 855.443 33.2412 862.777 31.8108L853.694 36.3519L855.988 45.3889C847.814 43.9811 845.815 54.6301 837.868 57.8998C848.994 65.3019 842.954 73.1354 837.414 82.4448C835.166 86.2366 827.56 92.9349 827.242 93.6161C826.288 95.6142 826.493 107.444 824.222 111.236C829.558 116.731 859.393 66.2102 871.882 76.0418C868.317 79.4931 871.45 83.6482 865.138 79.4477L860.552 97.6123C866.591 94.2292 870.383 84.9197 878.784 89.5744C890.228 97.5215 858.054 111.554 853.876 114.778C851.81 116.367 830.489 136.734 841.252 136.167C846.519 128.492 856.623 126.698 862.936 121.567C866.523 118.638 869.044 112.371 870.133 111.599C870.769 111.145 877.172 112.371 880.169 111.781C896.631 108.534 903.488 88.8705 918.383 87.3492L937.729 89.6426C933.187 96.9084 921.607 96.9992 926.376 106.513C914.773 108.239 919.609 109.919 918.133 113.597C914.183 123.361 913.252 124.224 901.445 124.837L903.715 115.8C892.385 110.169 873.403 118.343 883.28 129.378L851.515 139.641L844.703 165.73C848.744 167.024 849.993 162.392 852.945 161.802C856.306 161.121 900.4 163.05 906.871 163.754C911.095 164.208 915.227 166.32 919.678 165.752L918.52 174.926C909.959 183.985 886.459 168.931 877.717 167.887C872.972 167.319 853.354 169.204 848.517 170.339C846.383 170.839 847.904 177.015 842.478 172.542C842.183 178.854 841.638 182.782 835.575 185.052C835.711 193.249 850.379 196.61 851.151 197.859C854.444 203.081 850.22 214.116 842.432 211.142L844.726 204.375L824.313 193L817.456 213.412C809.168 212.799 807.533 206.646 816.389 204.443L815.163 197.541L809.304 204.421L797.202 202.264C796.68 204.216 796.907 207.191 795.817 208.712C787.688 220.156 786.031 201.355 785.304 200.175C782.988 196.496 772.657 202.513 769.819 196.383L776.563 192.931C779.106 187.414 771.976 188.89 771.953 187.3L776.54 174.835L773.134 179.376L769.728 174.812C764.165 177.128 762.054 180.829 765.21 186.165L756.127 186.165C758.512 181.17 756.218 176.583 756.718 171.974C756.922 170.112 760.101 168 760.124 166.82C760.124 164.413 752.335 160.485 752.108 157.805C751.904 155.285 757.535 151.607 756.105 147.565C746.409 151.72 750.814 164.685 737.963 161.166C735.034 148.905 744.298 151.766 748.112 147.656C748.884 146.816 754.084 129.264 755.651 126.267C755.265 124.292 741.868 111.259 739.098 108.943C734.511 105.128 704.313 89.915 715.461 81.8999L715.438 81.9452Z" fill="#191919"/>
<path d="M474.556 170.286L456.414 156.708C463.748 151.826 477.666 160.25 482.525 152.144C486.136 146.15 480.459 108.753 489.337 106.732C502.87 103.667 493.084 137.067 492.743 141.949C491.29 163.383 494.537 160.659 507.638 172.466C509.704 174.328 510.476 178.71 511.18 179.209C512.315 180.027 517.924 177.166 521.103 177.143C531.888 177.029 531.865 181.684 541.402 170.195C545.398 165.381 558.431 135.024 565.356 140.814C568.013 153.415 571.033 167.902 559.725 177.166C553.958 181.911 543.627 182.411 540.425 191.924L547.169 196.42L540.403 211.179C546.034 211.565 548.418 206.07 554.616 207.047C561.814 208.159 574.757 220.375 577.822 220.33L590.355 215.766L579.093 246.464L547.237 245.261C540.834 251.346 566.469 264.969 572.213 263.448L569.92 270.237C556.683 261.859 546.056 267.694 532.546 261.155C528.641 262.222 526.37 286.608 511.657 287.879C505.89 288.379 497.806 281.272 499.555 274.778L506.367 273.643L502.189 266.036C505.367 261.836 509.999 263.062 510.408 262.812C513.519 260.882 517.606 249.166 525.666 258.816L531.366 244.125C527.392 241.06 523.487 247.191 518.696 247.508C510.794 248.031 490.2 229.889 481.39 225.938L492.743 227.073L491.562 222.464C493.946 218.967 505.481 221.873 504.073 213.495L470.128 211.224L470.014 218.036L454.143 213.518C469.106 228.594 477.053 241.9 468.879 263.471L454.166 256.591L455.233 252.14L465.451 250.96L454.166 242.967L458.662 233.953L451.872 232.772L451.872 240.719L441.814 238.358L437.363 242.854C429.371 234.316 416.974 234.271 408.822 230.411C401.261 226.846 399.445 213.926 390.544 215.743C389.545 207.614 398.877 210.407 403.032 206.683C413.818 197.011 409.98 172.829 423.99 166.312C441.382 158.229 457.186 169.741 474.556 170.309L474.556 170.286Z" fill="#191919"/>
<path d="M558.547 474.593L557.457 488.239L549.51 483.675C547.989 503.248 552.121 525.84 563.043 543.846L551.758 548.364C554.823 552.565 560.613 550.703 564.246 554.041C569.151 558.559 571.853 575.475 575.531 579.085C579.414 582.9 593.332 580.47 597.147 589.257C600.099 596.069 586.021 586.419 586.748 595.093L579.028 592.618L585.839 613.03L589.245 608.376L600.576 613.098L602.846 608.489C626.665 632.535 626.755 667.615 614.199 697.019L613.041 690.23C609.817 689.685 609.749 694.249 609.181 696.542C602.347 723.88 604.254 757.621 597.147 785.572C592.492 784.414 595.626 774.9 594.899 770.836C594.172 766.772 592.47 764.456 588.11 765.159L592.628 794.654C588.133 793.723 588.746 790.022 588.11 786.707C586.861 780.077 583.864 769.451 583.501 764.024C583.024 756.577 588.768 764.592 590.358 762.843C579.8 745.928 594.036 716.137 587.906 701.015C587.066 698.926 583.024 700.016 583.455 696.088C584.999 681.693 603.073 662.847 597.147 644.796L584.681 656.126C582.32 653.038 585.158 650.336 579.05 651.585C580.049 655.104 576.303 658.487 575.962 660.622C573.646 675.108 571.081 689.617 574.555 704.83L569.945 726.514C567.947 702.696 563.86 679.309 553.484 657.715C552.076 654.809 548.17 654.559 547.285 652.107C545.968 648.429 540.178 622.453 540.405 618.593C541.518 599.861 556.049 598.43 556.231 591.482C555.731 586.464 552.666 581.378 547.217 581.151C556.254 574.771 550.85 557.719 547.353 548.137C543.084 536.443 532.935 535.24 538.112 522.139L533.616 524.455C538.18 514.691 531.754 505.836 533.616 496.118C534.615 490.986 554.687 470.46 558.547 474.502L558.547 474.593Z" fill="#191919"/>
<path d="M665.285 613.082C661.993 607.111 661.153 602.32 654.591 597.165C651.775 594.963 646.417 592.874 645.009 588.719C643.896 585.427 641.104 566.285 640.309 565.423L613.266 585.131C612.313 588.764 625.823 606.407 628.684 612.242C636.313 627.773 643.442 651.569 644.805 668.757C645.009 671.414 646.712 681.177 642.602 681.2C640.672 658.153 634.11 635.856 622.962 615.693C616.377 603.773 604.411 594.123 601.527 580.499C601.823 578.479 632.385 560.337 634.61 556.318C640.831 545.124 623.666 525.529 647.143 526.8C644.214 516.56 635.631 511.292 647.098 501.846C651.457 512.836 655.567 520.806 654.25 533.294C661.153 537.29 665.921 535.337 672.074 531.364C670.122 541.264 661.539 547.553 653.932 552.934L662.992 551.799L656.203 557.453L667.533 564.31C669.009 570.1 656.407 566.626 662.447 578.479C663.287 580.113 664.309 582.588 666.307 582.906L685.698 579.069C686.084 583.928 674.549 581.112 676.615 586.971C677.41 589.218 687.741 587.901 685.698 594.918C677.047 594.055 669.736 594.827 663.015 600.594C665.512 606.566 681.724 599.595 689.785 606.656C690.216 607.042 688.445 610.017 690.035 611.992C701.524 626.342 708.767 614.785 722.05 613.105L706.451 629.68C708.222 641.079 732.245 651.183 734.72 656.201C735.81 658.403 731.927 659.947 732.154 663.171C732.495 667.962 737.399 677.93 740.237 682.38L735.673 684.56L747.026 705.064L742.508 707.311C757.948 727.497 774.432 750.271 783.356 774.316L726.795 698.661C712.74 695.527 688.786 668.848 688.513 654.679C688.468 651.75 691.942 650.047 691.533 647.05C690.67 640.783 683.654 635.788 678.909 632.337L683.473 624.481L672.142 628.999C673.709 621.029 667.42 616.965 665.308 613.105C672.937 627.046 665.535 637.491 655.09 647.118C644.555 634.29 643.465 616.556 655.113 604.023C657.111 603.546 664.65 611.902 665.308 613.105L665.285 613.082Z" fill="#191919"/>
<path d="M594.873 317.926L590.514 327.849C596.122 339.088 607.679 336.477 616.194 340.905C622.097 343.993 626.343 352.78 632.883 356.004C640.966 360.023 655.884 362.384 665.125 363.497L669.825 424.598L660.788 417.809C661.674 428.799 651.002 436.542 649.594 446.328C647.528 460.678 655.77 482.317 656.202 497.234L638.718 463.652C627.956 430.706 617.829 393.605 591.036 371.853C587.857 369.264 589.787 358.32 581.318 358.661L582.362 354.12L593.443 349.646L594.896 345.151C580.114 342.244 576.663 328.871 563.176 323.535C570.396 313.635 584.247 319.13 594.919 317.881L594.873 317.926Z" fill="#191919"/>
<path d="M49.9552 388.294L45.4367 381.505C64.0782 386.75 80.1767 386.227 98.7728 385.796C109.717 385.546 113.214 390.36 124.771 382.504C128.881 379.711 134.512 370.356 135.556 370.083C143.889 368.063 175.064 368.88 184.442 370.765C186.554 371.196 188.483 372.49 190.709 372.422L184.578 381.527L149.861 383.775L177.221 389.293C194.092 397.33 180.446 409.319 181.604 422.352L177.244 398.375L135.238 393.153C129.358 399.601 129.04 408.297 123.817 415.677C120.752 419.991 86.8068 450.076 82.8106 451.893C81.8342 452.347 79.0868 452.46 79.4501 450.78L90.7803 436.021C70.3678 443.196 53.4065 448.714 35.537 461.361C26.7498 467.582 20.1197 477.596 9.062 481.41C7.8813 476.755 10.4471 475.28 12.3771 472.26C24.7971 452.846 39.1018 423.056 55.5408 406.435C61.4216 400.487 67.6658 398.761 72.6156 392.88L22.6628 413.27L54.4055 393.993C48.3204 383.73 25.1831 396.899 22.6401 395.105L24.9561 390.61L2.22753 388.316L49.9098 388.316L49.9552 388.294ZM84.014 422.375C58.697 421.739 43.1207 436.385 27.2721 454.118C37.0583 452.369 43.9155 443.968 52.8616 439.995C61.8076 436.021 80.4946 435.93 84.014 422.352L84.014 422.375Z" fill="#191919"/>
<path d="M329.23 463.219C323.576 464.354 308.999 465.331 307.931 465.649C304.321 466.738 305.729 474.549 298.577 472.369C290.584 464.105 297.078 452.638 289.472 445.077L279.254 455.317L263.405 399.665C275.303 405.296 288.836 399.643 299.757 394.012C317.491 384.907 318.762 383.363 339.107 378.867C347.099 377.096 354.91 374.144 363.311 374.712C357.43 383.09 342.558 377.164 338.335 388.29C352.707 392.4 363.81 377.164 375.958 388.313L374.823 396.032L336.041 397.418C340.673 401.05 342.24 409.111 344.987 412.29C350.414 418.534 389.695 421.781 401.184 426.481C406.566 428.683 412.583 430.841 410.948 438.265C409.54 439.673 376.594 428.025 375.459 422.258L354.206 424.665C357.68 429.433 364.151 431.658 367.807 437.13C372.87 444.691 374.505 452.684 363.311 454.159C354.955 435.427 337.699 422.666 327.072 405.819L315.606 401.959C312.132 405.228 328.276 412.29 317.808 416.786C309.634 420.282 302.187 404.229 295.193 416.717C300.938 423.416 315.47 413.107 313.335 426.958C318.603 425.209 335.837 419.011 338.289 425.823L333.68 428.093C340.719 435.359 334.134 443.647 339.47 449.754C341.173 451.684 348.507 449.437 347.371 455.295C346.622 459.177 333.998 455.59 329.23 463.264C350.142 459.109 342.467 467.17 348.507 469.599C351.981 471.007 359.792 470.667 359.86 465.535L367.262 475.775L359.86 483.654L356.431 474.617C345.737 484.154 338.834 469.463 326.936 470.053C326.119 468.941 328.276 464.786 329.207 463.264L329.23 463.219Z" fill="#191919"/>
<path d="M913.095 565.732C921.882 559.964 927.195 567.889 936.459 567.73C943.362 567.616 951.036 563.075 958.302 564.097C961.049 564.483 991.18 579.401 993.405 581.217C1001.99 588.301 992.701 588.051 990.59 590.753C983.051 600.381 1016.34 626.356 1000.1 640.275C993.428 646.019 976.558 634.008 971.063 629.013C967.952 626.175 971.267 619.272 959.256 619.703C948.289 620.089 959.778 634.984 958.143 638.004C933.575 640.048 929.897 635.053 922.381 613.55C921.428 610.803 922.677 605.739 921.45 604.309C920.656 603.401 916.841 603.9 915.275 602.697C907.577 596.793 914.866 575.541 913.095 565.709L913.095 565.732Z" fill="#191919"/>
<path d="M315.609 669.816L311.09 670.952C316.903 677.287 327.416 686.891 330.435 694.747C334.432 705.124 335.862 722.539 339.45 733.415C345.444 751.626 354.277 769.132 358.75 787.887C349.1 778.895 344.717 765.658 336.021 755.667C330.277 749.06 322.852 746.131 317.175 739.909C312.498 734.8 306.912 723.47 304.256 720.927C300.169 717.045 286.636 716.454 281.459 711.323C280.278 710.142 265.52 690.887 265.043 689.616C263.658 685.779 265.792 682.691 265.633 678.899L256.573 681.147C265.656 672.337 254.507 663.686 254.484 661.869C254.394 648.405 310.454 653.218 315.609 669.816Z" fill="#191919"/>
<path d="M71.4508 498.481C69.5208 496.778 66.0241 494.961 65.8652 492.759C69.7252 492.873 73.4943 493.236 77.1727 491.578C83.7347 488.627 102.717 468.191 111.413 462.242C118.111 457.633 174.149 428.138 177.101 431.453L174.83 458.678L171.47 447.347C144.609 456.475 85.3695 494.167 86.5729 525.773C86.8454 533.13 97.9031 541.1 97.6306 549.501C91.1595 543.075 88.7754 535.378 79.5114 531.336C71.0875 548.184 67.6135 562.489 65.8198 581.289L61.3467 579.018L61.3467 599.454L54.535 592.665C54.8301 608.945 55.6703 629.811 40.9115 640.324C49.4261 619.389 40.253 599.249 38.6182 577.974L77.1273 502.931C75.4243 501.183 73.29 500.093 71.4508 498.504L71.4508 498.481Z" fill="#191919"/>
<path d="M665.28 249.81L642.597 252.08L669.844 261.163L667.414 270.154C656.493 267.157 648.818 267.747 640.326 275.921L661.67 283.573C670.48 266.294 682.991 255.759 693.594 240.614L724.338 224.833C713.689 252.375 683.422 261.299 667.619 285.004C677.473 296.765 690.415 298.105 701.632 286.162C692.572 280.031 679.131 289.817 674.385 281.62L683.694 280.531C684.262 269.337 695.865 270.199 704.993 267.974C713.053 276.989 699.952 272.72 694.82 272.538L708.444 277.057C708.149 288.046 707.604 295.698 694.82 295.244C694.571 299.762 703.153 297.605 704.016 301.216C704.947 305.121 704.107 311.025 700.429 313.386C696.818 314.09 657.197 294.268 647.66 293.291C642.483 292.769 641.825 295.698 638.078 297.492C638.487 286.23 624.41 282.097 615.373 286.162L608.561 265.726C624.069 262.502 630.767 281.189 642.597 263.479C629.95 258.029 618.551 264.773 605.496 263.547L599.479 249.855C621.117 245.2 643.505 247.925 665.325 249.855L665.28 249.81Z" fill="#191919"/>
<path d="M744.78 633.513C768.349 637.237 786.945 654.198 797.844 674.656C798.502 675.883 804.315 685.01 798.139 683.466L783.38 665.324L796.186 691.436L785.628 708.443L799.229 703.924C795.164 711.871 795.482 719.909 798.434 728.583C800.591 734.94 804.496 734.6 805.995 737.483C811.263 747.633 815.191 771.769 819.573 784.621C822.979 794.611 830.222 804.193 831.017 815.16L813.352 786.301C797.367 771.361 795.391 737.506 787.422 721.521C783.948 714.573 777.885 713.62 775.024 709.964C767.213 699.951 764.988 684.238 760.379 673.521C753.84 658.331 737.333 649.771 744.78 633.513Z" fill="#191919"/>
<path d="M93.1113 653.947C97.5843 650.495 131.734 712.891 131.893 720.929C132.097 731.147 119.881 729.807 114.137 725.992C111.957 724.539 111.117 718.772 109.119 716.842C106.78 714.571 102.716 715.23 101.058 713.027C100.173 711.847 94.1331 684.1 88.5474 690.299C94.8596 708.168 101.808 723.177 97.607 742.522C92.2258 742.908 89.8644 743.135 86.5039 738.867C84.6193 736.46 70.7006 700.766 70.8142 698.609C71.4272 687.529 95.0413 668.978 93.0886 653.969L93.1113 653.947Z" fill="#191919"/>
<path d="M849.224 183.941C861.417 190.139 877.788 193.227 891.479 195.021C897.474 195.793 913.822 198.245 918.476 197.791C923.131 197.337 927.037 193.046 929.398 193.386C933.417 193.954 953.307 212.187 962.231 215.093L996.789 220.247C975.854 220.679 955.305 222.45 934.28 222.427C930.147 222.427 925.901 224.743 922.881 224.584C918.431 224.334 911.733 216.66 902.719 217.977L901.424 224.834C892.387 215.933 882.374 224.902 873.519 222.155C871.453 221.519 862.438 210.597 861.644 208.736C860.1 205.057 862.665 201.788 861.598 199.721C860.191 196.997 844.955 189.799 849.224 183.941Z" fill="#191919"/>
<path d="M622.183 715.273L636.76 717.634L640.28 712.979L635.784 733.392L645.979 722.084C660.465 732.438 662.236 752.056 662.986 768.609C663.78 786.069 660.125 798.308 658.444 815.133C652.405 811.318 653.336 800.601 650.361 794.879C647.387 789.157 635.08 778.145 632.424 771.924C630.766 768.064 631.992 762.887 630.857 761.048C629.835 759.39 621.32 759.958 618.618 751.715C614.236 738.342 620.707 727.942 622.206 715.295L622.183 715.273Z" fill="#191919"/>
<path d="M972.582 93.8366C984.389 79.8044 996.877 66.4306 1009.52 52.4892C1014.68 49.5602 1022.13 47.6756 1026.26 53.3748C1023.58 59.2329 1015.61 59.914 1012.57 62.9339C1009.27 66.1809 1000.1 82.7334 998.194 84.2774C995.265 86.6388 991.36 85.8214 987.999 86.5707L980.915 108.981C999.08 111.91 994.062 125.647 979.303 128.985C970.448 130.983 958.731 127.509 950.739 129.916C939.886 133.186 949.717 140.293 949.127 140.77C905.418 136.66 939.182 83.1421 966.202 104.304C970.062 101.92 969.993 96.97 972.605 93.8366L972.582 93.8366Z" fill="#191919"/>
<path d="M36.3066 617.641C38.4183 619.662 28.1552 639.439 27.633 644.343C26.9972 650.451 30.9935 656.65 29.2451 661.6C28.2915 664.325 24.1136 664.574 23.3643 665.959C18.914 674.224 19.5724 685.259 17.0975 692.639C14.282 701.017 6.65281 713.778 0 719.795C0.613057 714.164 3.79188 711.326 4.58658 705.104C6.94799 686.531 -1.11259 669.615 3.81458 649.838C7.28857 635.897 19.5951 615.303 36.3066 617.641Z" fill="#191919"/>
<path d="M1192.03 99.9507L1164.81 99.9053L1173.87 97.6347C1175.12 93.5249 1158.34 92.6622 1168.13 90.8684L1266.83 104.583L1266.65 123.451L1263.17 126.789C1234.61 129.832 1205.27 125.631 1176.14 127.152L1211.36 122.657C1228.2 123.678 1243.85 121.794 1260.15 118.07C1259.22 113.665 1255.59 114.074 1252.23 113.529C1223.21 108.851 1191.67 111.258 1162.54 113.529L1188.15 106.263L1192.03 99.9507ZM1230.66 104.492C1219.46 105.355 1203.48 95.6366 1196.6 108.988L1230.66 104.492Z" fill="#191919"/>
<path d="M916.948 262.978L921.853 256.621C915.563 259.686 904.097 243.224 905.981 240.726L926.394 236.163L926.394 252.057L936.657 245.676L944.559 252.057C946.216 245.381 931.412 234.891 937.792 230.509C944.604 225.854 971.692 225.445 980.888 224.832C981.615 229.033 976.687 226.013 974.576 227.466C973.077 228.511 973.282 232.507 971.851 234.528C966.515 242.134 970.035 239.341 968.377 243.065C966.901 246.357 961.225 246.88 960.612 247.811C959.681 249.218 962.905 253.101 962.428 255.281C962.156 256.53 951.211 262.819 953.618 270.176C938.315 251.875 938.292 256.325 919.582 265.657C923.079 271.357 928.142 277.374 935.476 277.01C927.529 286.797 926.757 277.555 921.785 273.582C911.385 265.271 895.469 284.435 894.583 295.152C890.11 294.834 891.291 285.162 891.904 282.437C892.471 279.871 896.99 267.587 898.171 265.68C899.76 263.092 904.437 264.658 903.688 261.116C889.611 259.095 881.164 251.625 876.464 238.41C895.832 235.663 902.167 258.074 916.971 262.933L916.948 262.978Z" fill="#191919"/>
<path d="M1039.95 165.776L1085.36 179.423L1083.06 186.212C1089.53 185.349 1091.87 185.758 1094.62 191.593L1123.91 208.917C1115.49 210.166 1104.34 213.05 1095.98 211.165C1094.14 210.757 1094.14 207.464 1092.74 206.76C1075.78 198.109 1059.02 189.935 1040.15 186.03L1039.95 165.822L1039.95 165.776Z" fill="#191919"/>
<path d="M1019.16 562.848L1022.88 556.354C1027.1 555.923 1067.27 598.496 1067.18 608.51C1061.21 607.374 1056.64 603.265 1050.56 601.312C1045.88 599.813 1032.21 599.359 1029.6 597.429C1026.33 594.977 1019.88 583.284 1016.18 578.924C1013.5 575.768 1007.23 573.974 1006.14 570.75C1001.31 556.423 1017.13 564.052 1019.16 562.848Z" fill="#191919"/>
<path d="M1266.98 315.635C1253.36 312.093 1242.05 300.968 1251.31 287.276L1244.57 278.625C1248.32 268.271 1249.02 267.454 1260.17 266.841C1256.65 261.028 1254.42 256.078 1246.57 256.532L1248.84 252.15C1235.12 252.945 1237.96 232.487 1237.49 222.564C1249.66 223.745 1248.5 239.48 1252.38 247.382C1255.38 253.49 1266.98 262.299 1266.98 263.435L1266.98 315.658L1266.98 315.635Z" fill="#191919"/>
<path d="M1017.22 170.331C1012.2 170.241 1003.78 169.355 1000.06 165.926C986.84 153.756 1004.78 135.523 1022.47 149.737C1032.84 158.093 1029.12 186.884 1012.7 183.955L1021.78 194.15L1017.11 196.511L1019.54 204.345L992.29 206.615C991.54 196.897 1006.96 190.63 1009.32 186.112C1010.36 184.114 1008.55 180.821 1009.43 179.323C1011.27 176.235 1018.79 176.235 1017.22 170.309L1017.22 170.331Z" fill="#191919"/>
<path d="M479.088 431.407L472.299 424.641C487.444 419.441 503.883 424.55 518.619 428.91L519.823 449.458C514.169 447.937 509.06 453.727 505.268 453.954C494.982 454.59 466.033 434.336 456.405 428.001L479.111 431.385L479.088 431.407Z" fill="#191919"/>
<path d="M254.307 295.198C259.098 290.498 242.773 280.939 239.617 279.236C232.146 275.172 221.815 272.015 213.437 270.199L229.308 269.109L212.301 247.516L265.342 291.157C261.777 300.602 269.021 299.013 272.54 303.713C276.059 308.413 277.331 317.677 279.034 323.444C277.603 329.37 259.802 326.782 254.602 326.737C253.467 325.987 249.789 310.07 250.674 307.732C252.513 302.85 259.484 301.306 258.826 295.266C251.946 295.13 249.176 302.033 241.91 302.192C233.577 302.373 220.952 297.31 211.143 299.785C210.985 298.332 214.163 295.266 214.549 295.266L254.285 295.266L254.307 295.198Z" fill="#191919"/>
<path d="M1192.06 572.209L1205.66 567.691L1192.28 565.17C1191.12 559.017 1194.53 551.592 1188.65 547.278L1178.46 557.496L1171.67 555.18L1194.3 529.068C1196.62 549.662 1211.13 547.573 1222.07 554.112C1230.41 559.062 1235.49 571.369 1248.82 565.42C1248.71 568.326 1239.85 572.209 1238.6 572.209L1192.06 572.209Z" fill="#191919"/>
<path d="M672.117 440.511C675.114 438.422 686.081 471.754 686.853 474.57C687.716 477.658 686.013 480.995 686.739 483.72C691.144 499.955 697.888 516.416 699.296 533.582L684.469 506.426C672.049 499.024 677.589 492.78 675.477 486.013C672.026 474.933 658.017 479.065 663.466 455.724C664.896 449.593 671.322 446.755 672.094 440.511L672.117 440.511Z" fill="#191919"/>
<path d="M799.561 336.244L806.077 336.062L803.807 322.461C821.404 325.277 839.886 332.18 844.677 308.838L817.43 304.251C821.131 295.737 825.945 297.689 833.324 299.71L826.535 292.944C834.164 287.494 856.098 319.169 855.985 321.326C852.851 327.025 848.673 321.939 844.768 323.529C834.346 327.775 841.112 339.582 840.136 340.603C834.346 340.671 833.074 336.13 826.467 336.993C817.021 338.242 810.982 348.528 800.355 351.934C793.589 354.091 800.923 339.218 799.583 336.244L799.561 336.244Z" fill="#191919"/>
<path d="M653.906 202.106L653.906 190.776C659.832 189.822 660.808 195.68 660.763 199.835L681.153 190.753C689.622 213.368 670.913 210.144 665.736 216.342C662.511 220.202 670.799 224.993 653.906 220.248L656.199 215.752C651.022 210.961 608.948 220.066 599.435 220.248C601.092 216.955 609.675 213.481 613.035 212.323C624.048 208.554 635.991 204.762 647.094 201.243C649.683 200.425 653.293 202.673 653.906 202.083L653.906 202.106Z" fill="#191919"/>
<path d="M837.829 678.925L846.912 712.984L840.145 710.713C840.94 719.636 839.214 730.263 831.063 735.689L813.012 692.775L837.807 678.925L837.829 678.925Z" fill="#191919"/>
<path d="M336.042 351.937C328.845 351.801 323.554 355.638 324.712 363.313L346.26 363.313L347.395 367.831L317.9 379.207C320.012 365.334 295.762 357.523 290.653 342.946C300.894 335.839 318.559 343.286 330.275 347.555C332.705 348.441 335.724 348.531 336.065 351.96L336.042 351.937Z" fill="#191919"/>
<path d="M597.459 295.51C604.112 291.628 610.742 305.614 615.374 307.658C620.96 310.133 627.522 307.885 633.653 309.815C634.538 310.088 646.459 317.603 646.913 318.239C647.73 319.374 643.87 326.64 645.278 332.067C646.05 335.018 661.876 357.702 660.741 358.746C651.318 358.292 648.638 346.099 643.552 340.672C641.486 338.47 637.762 338.947 635.673 336.699C631.859 332.566 613.217 306.477 609.652 306.591L605.089 313.403L590.353 306.523L597.459 295.51Z" fill="#191919"/>
<path d="M955.919 306.567L987.934 298.62L987.73 292.921L1001.35 292.876L984.369 263.245L980.895 245.262L1000.2 233.909C1006.94 238.427 1001.58 244.944 1001.35 250.915C1001.08 258.181 1000.4 268.921 1001.47 275.733C1002.28 280.955 1013.8 300.664 1012.66 301.981C1002.78 292.444 1005.53 297.417 996.312 300.391C984.664 304.161 970.746 308.566 958.78 310.586C953.966 311.404 956.1 309.247 955.896 306.545L955.919 306.567Z" fill="#191919"/>
<path d="M714.122 423.573C720.775 417.238 729.494 418.237 735.624 425.753C727.496 433.064 716.733 433.45 719.798 447.323L747.023 431.452C744.411 447.392 728.109 456.474 722.023 470.029C707.81 457.995 723.318 437.197 710.693 425.708C710.443 424.504 712.941 424.686 714.122 423.573Z" fill="#191919"/>
<path d="M792.477 631.243C803.285 638.577 805.783 637.6 817.408 633.536L804.92 672.113L781.17 645.865L792.5 631.243L792.477 631.243Z" fill="#191919"/>
<path d="M722.023 474.568C725.724 485.421 724.294 491.257 737.054 492.483C741.8 506.856 759.102 510.194 769.728 519.957C754.856 515.325 717.891 514.19 717.436 493.936C717.368 491.121 718.186 476.226 722 474.568L722.023 474.568Z" fill="#191919"/>
<path d="M987.722 744.767L996.804 747.06C990.106 757.3 998.212 757.845 998.893 760.071C1001.1 767.177 1000.55 777.35 1002.84 785.229C1006.36 797.331 1015.58 809.547 1020.12 822.443C1024.32 834.341 1028.12 850.349 1028.55 862.814L1019.96 833.978L996.032 785.251L987.722 744.767Z" fill="#191919"/>
<path d="M874.153 578.997L860.552 571.073C869.839 565.987 883.258 568.302 885.506 580.178L878.694 580.178C884.506 597.025 879.602 615.417 885.506 633.514C876.786 626.271 877.218 611.126 873.608 601.158C870.86 593.551 867.046 582.38 858.281 585.809L874.153 578.997Z" fill="#191919"/>
<path d="M408.519 499.799L392.807 488.219C406.657 492.601 420.213 498.141 424.595 513.15L415.603 510.902C408.723 527.068 394.078 539.67 383.747 554.043C391.013 535.401 399.891 517.169 408.519 499.799Z" fill="#191919"/>
<path d="M908.211 18.1839C907.212 25.0865 899.265 27.5614 894.61 32.9427C889.547 38.7781 883.416 45.272 878.58 51.062C875.288 55.0128 876.196 64.3902 862.822 63.5728C866.274 56.307 864.73 47.1112 870.588 40.7081C871.791 39.3912 897.176 20.7496 899.129 19.6598C901.082 18.5699 905.668 18.9105 908.211 18.2066L908.211 18.1839Z" fill="#191919"/>
<path d="M610.759 510.898C618.684 527.882 615.482 548.022 609.669 565.369C598.975 556.196 603.993 543.799 603.675 531.628L581.287 517.71C589.597 518.731 597.522 522.569 602.858 528.994C609.374 524.635 602.858 513.85 610.782 510.875L610.759 510.898Z" fill="#191919"/>
<path d="M1266.96 447.329C1268.73 460.884 1260.76 479.344 1244.28 473.441L1260.15 456.434C1242.67 455.162 1226.3 472.918 1210.22 467.742L1233.99 456.366L1266.94 447.329L1266.96 447.329Z" fill="#191919"/>
<path d="M756.111 199.808L733.428 206.643L737.947 199.876L713.016 204.395L710.836 194.45C713.969 188.728 720.191 192.451 725.754 191.271C739.105 188.455 753.795 179.259 756.111 199.831L756.111 199.808Z" fill="#191919"/>
<path d="M242.403 320.676C243.425 321.448 246.24 326.852 242.971 328.123L226.259 333.459L186.206 302.034C195.22 301.625 200.738 309.141 208.957 312.184C217.177 315.226 237.453 316.952 242.426 320.676L242.403 320.676Z" fill="#191919"/>
<path d="M1169.35 583.58C1182.84 580.31 1181.91 590.074 1188.85 599.247C1197.1 610.146 1207.16 619.818 1214.76 631.217C1210.06 635.372 1195.23 611.985 1193.99 611.236C1193.26 610.804 1190.19 613.166 1187.63 612.008C1182.61 609.714 1165.15 587.462 1169.35 583.58Z" fill="#191919"/>
<path d="M822.289 218.745C821.926 217.405 821.585 216.02 821.948 214.612L827.602 211.183L855.962 244.107C849.377 258.207 822.947 221.197 822.289 218.745Z" fill="#191919"/>
<path d="M449.557 454.116L445.039 449.62C447.718 450.892 478.961 451.868 474.534 456.386L467.722 460.928L476.804 463.175C471.514 463.63 465.315 462.154 460.229 463.652C456.029 464.878 454.825 471.009 449.58 469.987L454.099 460.928L426.852 456.341C431.347 447.327 442.246 453.912 449.535 454.07L449.557 454.116Z" fill="#191919"/>
<path d="M799.224 215.721L808.443 253.026C801.812 257.113 794.251 257.885 792.503 248.553C791.754 244.557 790.414 209.34 799.224 215.721Z" fill="#191919"/>
<path d="M1198.07 144.473C1198.73 144.291 1198.27 141.135 1202.13 140.636C1218.46 138.547 1246.71 140.976 1263.6 143.088C1266.71 143.474 1270.82 144.677 1266.98 147.606C1237.17 143.36 1208.24 148.515 1178.45 149.877L1198.09 144.496L1198.07 144.473Z" fill="#191919"/>
<path d="M579.449 257.093C579.608 256.73 582.696 256.844 583.945 253.506C586.896 245.604 584.649 237.18 586.942 229.347C594.957 241.381 594.707 258.456 597.137 272.465L589.054 267.924L588.1 256.594C585.421 265.404 587.373 278.278 574.454 277.006C573.182 271.625 580.085 270.353 580.948 266.357C581.697 262.906 578.404 259.477 579.426 257.071L579.449 257.093Z" fill="#191919"/>
<path d="M406.452 95.38C407.792 94.2674 437.082 108.799 438.263 110.093C442.532 114.907 439.943 123.263 440.488 129.416L429.839 124.171L406.452 95.3573L406.452 95.38Z" fill="#191919"/>
<path d="M863.519 429.862C868.833 425.684 875.644 428 876.553 434.971C876.984 440.216 858.297 465.806 849.215 456.383L863.519 429.862Z" fill="#191919"/>
<path d="M980.91 683.441C979.797 680.898 978.798 672.157 983.135 672.134L985.451 681.216L992.24 678.946C991.786 690.98 991.331 701.175 978.662 706.17L969.557 683.487L980.91 683.441Z" fill="#191919"/>
<path d="M989.97 147.63C977.845 159.551 952.278 170.336 942.31 151.013L989.97 147.63Z" fill="#191919"/>
<path d="M794.705 606.287C813.119 604.357 819.25 614.28 814.981 631.082L804.105 630.878C804.922 625.496 797.906 621.091 797.475 618.458C797.111 616.232 799.291 613.803 799.269 612.123C799.269 610.056 792.298 612.304 794.705 606.265L794.705 606.287Z" fill="#191919"/>
<path d="M1257.42 159.504C1257.88 159.731 1257.72 162.365 1258.49 162.796C1262.69 165.135 1268.6 160.525 1267.01 168.018L1226.14 174.83L1246.57 165.793L1205.72 168.018L1229.56 163.523C1235.38 166.997 1256.2 158.845 1257.45 159.526L1257.42 159.504Z" fill="#191919"/>
<path d="M261.138 431.458L267.746 440.041C265.475 447.398 286.319 479.254 275.829 481.389C270.471 481.797 271.878 478.119 271.084 475.712C266.315 461.248 259.118 447.262 261.138 431.458Z" fill="#191919"/>
<path d="M56.7883 628.976C58.4459 627.182 85.1252 641.555 86.2832 647.118L59.0362 649.434L56.7656 628.998L56.7883 628.976Z" fill="#191919"/>
<path d="M919.612 726.608C927.4 730.264 923.132 741.276 924.153 748.156C926.356 763.096 930.784 776.743 928.649 792.455L925.902 771.407C924.358 764.709 915.82 753.81 915.026 747.974C914.027 740.686 922.087 734.941 919.612 726.631L919.612 726.608Z" fill="#191919"/>
<path d="M493.373 295.837C494.055 294.769 501.638 290.41 502.887 290.637C511.493 292.158 498.8 322.584 490.467 322.425C489.105 320.858 491.398 298.879 493.373 295.837Z" fill="#191919"/>
<path d="M1035.41 699.357C1053.34 699.447 1062.09 718.543 1067.17 733.393L1062.47 726.808C1054.93 730.305 1057.34 722.766 1055.09 720.518C1052.59 718.021 1031.93 703.512 1035.41 699.357Z" fill="#191919"/>
<path d="M703.269 318.677C703.904 318.949 703.859 321.515 704.517 321.878C706.652 323.059 711.738 318.54 712.964 324.694C693.596 327.01 669.664 326.283 653.929 313.386C661.989 312.66 670.595 319.721 677.929 320.039C685.263 320.357 694.981 314.998 703.269 318.699L703.269 318.677Z" fill="#191919"/>
<path d="M1230.65 615.322C1213.03 610.304 1199.43 595.568 1185.29 584.692C1185.08 581.99 1189.06 580.719 1193.21 583.534C1205.45 591.913 1219.71 605.014 1230.65 615.322Z" fill="#191919"/>
<path d="M263.363 610.803L258.844 626.697L289.565 633.463L306.526 642.568C288.952 642.455 268.017 621.724 252.055 633.509C251.102 632.283 257.891 610.848 263.363 610.803Z" fill="#191919"/>
<path d="M796.992 588.096L812.5 590.73L819.675 606.238L799.104 602.991L796.992 588.096Z" fill="#191919"/>
<path d="M331.53 515.442C337.479 508.63 341.18 536.558 341.747 538.125C344.563 545.777 350.739 552.657 351.92 560.854C343.609 555.563 325.195 522.685 331.53 515.442Z" fill="#191919"/>
<path d="M408.7 447.299L385.745 441.804L372.394 431.427C377.298 427.431 414.672 442.213 408.7 447.276L408.7 447.299Z" fill="#191919"/>
<path d="M1230.63 302.008C1225.77 300.804 1226.63 294.855 1223.91 291.722C1217.82 284.661 1205.77 282.912 1218.16 270.265C1227.25 277.781 1231.7 290.269 1230.63 302.008Z" fill="#191919"/>
<path d="M844.971 597.363L853.735 600.588L833.368 623.43L826.511 622.158C827.714 610.056 842.019 607.944 844.971 597.386L844.971 597.363Z" fill="#191919"/>
<path d="M1185.24 288.383L1140.96 288.383C1137.92 288.383 1129.41 283.683 1123.96 286.09L1123.96 283.842L1181.84 283.842C1182.22 283.842 1185.42 286.907 1185.24 288.383Z" fill="#191919"/>
<path d="M940.022 22.7274L948.991 58.1485C948.673 63.5071 944.745 64.1883 940.022 63.5979L940.022 22.7274Z" fill="#191919"/>
<path d="M63.5795 712.98L63.5795 719.791L73.7971 719.701C76.8624 728.828 80.0639 738.251 69.256 742.475C70.3912 728.034 62.308 725.967 59.1064 714.07L63.6022 712.98L63.5795 712.98Z" fill="#191919"/>
<path d="M242.932 435.969C241.41 445.143 241.728 455.474 240.684 464.397C240.321 467.576 239.208 471.141 236.165 467.758C231.125 453.816 230.262 446.096 242.932 435.969Z" fill="#191919"/>
<path d="M815.162 0.0438995C819.158 -0.546452 817.41 5.17537 816.887 7.44595C814.344 18.8443 813.3 35.3515 801.516 38.6211L815.139 0.0438995L815.162 0.0438995Z" fill="#191919"/>
<path d="M215.728 470.03C231.327 480.747 227.876 491.305 208.894 490.443L215.728 470.03Z" fill="#191919"/>
<path d="M315.607 492.755C318.99 493.527 323.054 490.326 325.597 490.439C326.892 490.508 326.869 493.573 327.823 494.163C331.092 496.207 336.201 493.073 333.499 500.362C329.208 511.942 313.631 502.133 315.607 492.733L315.607 492.755Z" fill="#191919"/>
<path d="M1226.12 492.718L1238.92 479.481L1248.78 484.794C1241.33 494.762 1238.04 494.58 1226.12 492.718Z" fill="#191919"/>
<path d="M1248.43 599.864C1249.64 601.794 1248.46 607.402 1249.8 610.922C1252.18 617.211 1260.4 621.253 1260.13 628.973C1249.46 621.752 1244.39 608.719 1237.47 598.297C1238.69 595.436 1247.91 599.024 1248.43 599.841L1248.43 599.864Z" fill="#191919"/>
<path d="M783.346 265.696L769.746 281.545C763.002 265.129 765 256.909 783.346 265.696Z" fill="#191919"/>
<path d="M665.264 658.491C665.127 665.552 665.763 672.704 665.014 679.789C664.764 682.127 664.106 690.46 660.768 690.256C659.088 679.97 654.161 665.416 665.264 658.491Z" fill="#191919"/>
<path d="M602.474 486.675C605.789 482.906 612.623 479.477 615.257 473.369C629.653 471.416 613.032 486.879 606.402 488.4L608.513 495.008L599.431 492.715C599.091 492.283 601.588 487.674 602.474 486.675Z" fill="#191919"/>
<path d="M939.982 163.525C939.823 176.082 957.057 164.865 955.899 174.855L930.945 174.855C929.991 170.905 936.462 160.914 939.982 163.525Z" fill="#191919"/>
<path d="M576.769 440.514C581.401 436.291 591.664 458.474 581.242 457.498C585.079 450.3 582.786 452.798 576.746 449.596C577.813 457.157 577.064 458.815 569.935 460.949L576.769 440.514Z" fill="#191919"/>
<path d="M676.999 552.132L690.327 552.858L692.53 560.828L674.365 560.828L676.999 552.132Z" fill="#191919"/>
<path d="M61.2861 674.385L52.0675 670.57C51.6815 664.485 52.953 658.082 57.8802 653.995C63.9199 658.99 60.5822 667.687 61.2634 674.385L61.2861 674.385Z" fill="#191919"/>
<path d="M792.454 815.156C804.784 821.059 797.132 834.433 796.95 844.65C793.771 844.401 792.954 834.387 792.727 831.89C792.205 826.304 792.364 820.718 792.477 815.156L792.454 815.156Z" fill="#191919"/>
<path d="M656.172 649.404L647.136 690.252C647.022 677.219 646.091 659.122 656.172 649.404Z" fill="#191919"/>
<path d="M1017.19 109.003C1017.37 120.265 1004.2 129.574 1002.32 113.499L1017.19 109.003Z" fill="#191919"/>
<path d="M612.466 181.08C614.101 179.422 614.396 173.087 615.373 170.317C621.413 172.451 613.511 186.665 611.354 190.117C607.085 196.974 599.956 191.206 602.771 186.143C604.996 182.124 610.9 182.646 612.466 181.08Z" fill="#191919"/>
<path d="M535.88 442.782C546.189 441.465 537.016 461.424 534.722 465.579C532.997 468.712 534.949 471.187 529.046 470.007L535.88 442.782Z" fill="#191919"/>
<path d="M853.081 339.901C855.67 338.403 855.238 329.979 860.483 337.154C858.122 349.506 848.517 347.508 837.846 347.371C840.253 341.059 848.449 342.603 853.081 339.878L853.081 339.901Z" fill="#191919"/>
<path d="M624.385 481.38L621.025 501.793C608.673 492.143 611.92 487.852 624.385 481.38Z" fill="#191919"/>
<path d="M1251.12 177.125C1259.9 182.279 1250.21 197.651 1253.34 206.643C1242.24 202.124 1251.09 186.593 1251.12 177.125Z" fill="#191919"/>
</svg>
