<svg width="431" height="782" viewBox="0 0 431 782" fill="none" xmlns="http://www.w3.org/2000/svg">
<path d="M0 557.065C53.9483 548.279 94.7026 538.321 122.263 527.191C149.824 515.476 169.468 499.367 181.196 478.865C192.924 458.363 198.788 429.075 198.788 391C198.788 353.511 192.924 324.515 181.196 304.013C169.468 282.926 149.824 266.817 122.263 255.688C94.7026 243.972 53.9483 233.721 0 224.935L0 211.755C58.6395 208.826 101.446 202.09 128.421 191.546C155.395 180.416 174.453 161.086 185.594 133.555C196.736 105.438 203.772 60.9199 206.704 0L224.296 0C227.228 60.9199 234.264 105.438 245.406 133.555C256.547 161.086 275.605 180.416 302.579 191.546C329.554 202.09 372.361 208.826 431 211.755V224.935C377.052 233.721 336.297 243.972 308.737 255.688C281.176 266.817 261.532 282.926 249.804 304.013C238.076 324.515 232.212 353.511 232.212 391C232.212 429.075 238.076 458.363 249.804 478.865C261.532 499.367 281.176 515.476 308.737 527.191C336.297 538.321 377.052 548.279 431 557.065V570.245C372.361 573.174 329.554 580.203 302.579 591.333C275.605 601.876 256.547 621.207 245.406 649.324C234.264 676.855 227.228 721.08 224.296 782H206.704C203.772 721.08 196.736 676.855 185.594 649.324C174.453 621.207 155.395 601.876 128.421 591.333C101.446 580.203 58.6395 573.174 0 570.245L0 557.065Z" fill="#DC1B2E"/>
</svg>
